<?xml version="1.0" encoding="UTF-8" standalone="no"?>
<!-- Created with Inkscape (http://www.inkscape.org/) -->

<svg
   width="162"
   height="40"
   viewBox="0 0 162 40"
   version="1.1"
   id="svg5"
   xmlns="http://www.w3.org/2000/svg"
   xmlns:svg="http://www.w3.org/2000/svg">
  <defs
     id="defs2" />
  <g
     id="layer3"
     style="display:inline">
    <g
       id="g64529"
       transform="matrix(0.1914319,0,0,0.1914319,6.67838,0.41908443)">
      <g
         id="g1174"
         transform="matrix(1.5074699,0,0,1.5074699,32.860426,-31.381136)">
        <path
           style="font-weight:300;font-size:40px;line-height:1.25;font-family:Comfortaa;-inkscape-font-specification:'Comfortaa, Light';text-align:center;text-anchor:middle;fill:#bababa;fill-opacity:1;stroke:none;stroke-width:0.256111;stroke-miterlimit:4;stroke-dasharray:none;stroke-opacity:1"
           d="m 35.495633,135.56637 c -8.196573,0 -15.807677,-2.10769 -22.833311,-6.32307 C 5.6366858,124.94985 0.05520703,119.21223 -4.0821113,112.03047 -8.219431,104.77064 -10.28809,96.964383 -10.28809,88.611684 c 0,-8.352699 2.0296285,-16.119929 6.0888834,-23.30169 4.13731973,-7.181759 9.6797668,-12.880331 16.6273396,-17.095711 7.025634,-4.293445 14.7148,-6.440167 23.0675,-6.440167 10.928767,0 20.569499,3.473786 28.922199,10.421359 0.702563,0.546438 1.053845,1.327064 1.053845,2.34188 0,0.936751 -0.31225,1.795439 -0.936749,2.576065 -0.624504,0.702565 -1.483192,1.053848 -2.576069,1.053848 -0.858688,0 -1.834472,-0.468376 -2.927347,-1.405132 -5.93276,-5.308254 -13.778051,-7.962385 -23.535879,-7.962385 -6.869511,0 -13.309676,1.834473 -19.320497,5.503417 -5.932755,3.668942 -10.6555455,8.586886 -14.1683624,14.753833 -3.5128188,6.088882 -5.2692264,12.607111 -5.2692264,19.554683 0,7.181761 1.7173773,13.856116 5.1521325,20.023056 3.5128184,6.08889 8.2356073,10.92878 14.1683653,14.51967 6.010818,3.59088 12.490015,5.38633 19.437588,5.38633 9.211391,0 17.290869,-2.8493 24.238442,-8.54787 0.546437,-0.39032 1.131908,-0.58548 1.756408,-0.58548 0.936751,0 1.75641,0.35129 2.458973,1.05385 0.780626,0.70256 1.170939,1.56126 1.170939,2.57606 0,1.01483 -0.273218,1.83448 -0.819656,2.45899 -6.713385,6.71338 -16.315089,10.07008 -28.805106,10.07008 z"
           id="path1082" />
        <g
           id="g1160"
           transform="matrix(0.81921345,0,0,0.81921345,10.114868,17.055872)">
          <g
             id="g1148"
             transform="matrix(1.0021032,0,0,1.0021032,22.977217,7.5182814)"
             style="fill:#a3a3a3;fill-opacity:1">
            <path
               id="path1078"
               style="font-weight:300;font-size:40px;line-height:1.25;font-family:Comfortaa;-inkscape-font-specification:'Comfortaa, Light';text-align:center;text-anchor:middle;fill:#a3a3a3;fill-opacity:1;stroke:none;stroke-width:0.127359;stroke-miterlimit:4;stroke-dasharray:none;stroke-opacity:1"
               d="m 69.568747,87.415372 c -2.561711,0 -4.880221,-0.58399 -6.955529,-1.751352 -2.075311,-1.199788 -3.712859,-2.837338 -4.912647,-4.912647 -1.167361,-2.075308 -1.751329,-4.377605 -1.751329,-6.906888 0,-2.56171 0.583968,-4.88022 1.751329,-6.955529 1.199788,-2.075309 2.837336,-3.696645 4.912647,-4.864007 2.075308,-1.199789 4.393739,-1.799411 6.95545,-1.799411 2.529283,0 4.831659,0.599622 6.906968,1.799411 2.075309,1.167362 3.696643,2.788698 4.864005,4.864007 1.199788,2.075309 1.799682,4.393819 1.799682,6.955529 0,2.529283 -0.599894,4.83158 -1.799682,6.906888 -1.167362,2.075309 -2.788696,3.712859 -4.864005,4.912647 -2.075309,1.167362 -4.377606,1.751352 -6.906889,1.751352 z m 0,-2.724154 c 2.010456,0 3.826351,-0.470187 5.447687,-1.410562 1.621335,-0.940374 2.885976,-2.237442 3.793924,-3.891204 0.940375,-1.653763 1.410562,-3.502085 1.410562,-5.544967 0,-2.042883 -0.470187,-3.891205 -1.410562,-5.544967 -0.907948,-1.653762 -2.172589,-2.95083 -3.793924,-3.891204 -1.621336,-0.972802 -3.437231,-1.458828 -5.447687,-1.458828 -2.010457,0 -3.826352,0.486026 -5.447687,1.458828 -1.621336,0.940374 -2.902191,2.237442 -3.842566,3.891204 -0.940374,1.653762 -1.410562,3.502084 -1.410562,5.544967 0,2.042882 0.470188,3.891204 1.410562,5.544967 0.940375,1.653762 2.22123,2.95083 3.842566,3.891204 1.621335,0.940375 3.43723,1.410562 5.447687,1.410562 z" />
            <path
               style="font-weight:300;font-size:40px;line-height:1.25;font-family:Comfortaa;-inkscape-font-specification:'Comfortaa, Light';text-align:center;text-anchor:middle;fill:#a3a3a3;fill-opacity:1;stroke:none;stroke-width:0.127359;stroke-miterlimit:4;stroke-dasharray:none;stroke-opacity:1"
               d="m 102.5953,60.176628 c 2.36715,0 4.47488,0.486401 6.3232,1.4592 1.88075,0.972802 3.33995,2.399577 4.37761,4.280326 1.07008,1.848324 1.60512,4.069553 1.60512,6.663689 V 85.66402 c 0,0.421547 -0.14592,0.778241 -0.43776,1.070082 -0.25941,0.259413 -0.59989,0.389121 -1.02145,0.389121 -0.42154,0 -0.77822,-0.129708 -1.07007,-0.389121 -0.25941,-0.291841 -0.38913,-0.648535 -0.38913,-1.070082 V 72.579843 c 0,-3.080537 -0.87552,-5.431473 -2.62656,-7.052808 -1.71862,-1.621337 -3.97228,-2.432005 -6.76096,-2.432005 -1.71861,0 -3.291304,0.340482 -4.718093,1.021443 -1.394351,0.648534 -2.496859,1.572695 -3.307525,2.772483 -0.810665,1.167362 -1.215997,2.46443 -1.215997,3.891204 v 14.88386 c 0,0.421547 -0.129703,0.778241 -0.38912,1.070082 -0.259417,0.259413 -0.616112,0.389121 -1.070083,0.389121 -0.421545,0 -0.778239,-0.129708 -1.070082,-0.389121 -0.259418,-0.291841 -0.38912,-0.648535 -0.38912,-1.070082 V 61.976309 c 0,-0.453973 0.129702,-0.810667 0.38912,-1.070081 0.291843,-0.259414 0.648537,-0.389121 1.070082,-0.389121 0.453971,0 0.810666,0.129707 1.070083,0.389121 0.259417,0.259414 0.38912,0.616108 0.38912,1.070081 v 2.529283 c 1.102508,-1.361922 2.448221,-2.415789 4.037125,-3.161603 1.588905,-0.778241 3.32374,-1.167361 5.20449,-1.167361 z"
               id="path1076" />
            <path
               style="font-weight:300;font-size:40px;line-height:1.25;font-family:Comfortaa;-inkscape-font-specification:'Comfortaa, Light';text-align:center;text-anchor:middle;fill:#a3a3a3;fill-opacity:1;stroke:none;stroke-width:0.127359;stroke-miterlimit:4;stroke-dasharray:none;stroke-opacity:1"
               d="m 132.21701,87.415064 c -1.88075,0 -3.71284,-0.324268 -5.49631,-0.972801 -1.78348,-0.680962 -3.25889,-1.702403 -4.42625,-3.064325 -0.22699,-0.259414 -0.34048,-0.551254 -0.34048,-0.87552 0,-0.453975 0.21077,-0.826882 0.63231,-1.118721 0.19457,-0.162134 0.4702,-0.243201 0.82689,-0.243201 0.45397,0 0.82688,0.178347 1.11872,0.53504 1.62135,1.978028 4.23169,2.967043 7.83106,2.967043 2.5617,0 4.44245,-0.453973 5.64224,-1.361921 1.23222,-0.907947 1.84833,-2.075308 1.84833,-3.502084 0,-2.56171 -2.48065,-4.199259 -7.44193,-4.912647 -3.1454,-0.453973 -5.52877,-1.31328 -7.1501,-2.577923 -1.5889,-1.264642 -2.38335,-2.788697 -2.38335,-4.572165 0,-2.36715 0.8593,-4.199259 2.57792,-5.496327 1.75103,-1.329496 4.0209,-1.994244 6.8096,-1.994244 4.08577,0 7.18252,1.459203 9.29025,4.377606 0.19457,0.226988 0.29184,0.502614 0.29184,0.826882 0,0.453973 -0.25941,0.82688 -0.77824,1.118721 -0.32426,0.129707 -0.56746,0.194561 -0.7296,0.194561 -0.48639,0 -0.89173,-0.210774 -1.21599,-0.632322 -1.65377,-2.107736 -3.97228,-3.161603 -6.95555,-3.161603 -1.97802,0 -3.55071,0.437761 -4.71807,1.313282 -1.16736,0.843095 -1.75104,1.896962 -1.75104,3.161603 0,1.297068 0.55125,2.334723 1.65376,3.112963 1.13493,0.778241 3.01568,1.361922 5.64224,1.751043 3.43723,0.486401 5.90166,1.410562 7.39329,2.772483 1.52406,1.329497 2.28608,2.950832 2.28608,4.864008 0,1.491628 -0.48639,2.80491 -1.4592,3.939845 -0.94038,1.134935 -2.20502,2.010455 -3.79392,2.626563 -1.58891,0.616107 -3.32374,0.924161 -5.2045,0.924161 z"
               id="path1074" />
            <path
               id="path1070"
               style="font-weight:300;font-size:40px;line-height:1.25;font-family:Comfortaa;-inkscape-font-specification:'Comfortaa, Light';text-align:center;text-anchor:middle;fill:#a3a3a3;fill-opacity:1;stroke:none;stroke-width:0.127359;stroke-miterlimit:4;stroke-dasharray:none;stroke-opacity:1"
               d="m 160.2823,60.273908 c 2.36716,0 4.4749,0.567468 6.32322,1.702403 1.88074,1.102508 3.33993,2.642777 4.37759,4.620807 1.03766,1.978028 1.55648,4.231684 1.55648,6.760967 0,0.421548 -0.1297,0.762028 -0.38911,1.021441 -0.25941,0.226988 -0.5999,0.340481 -1.02144,0.340481 h -20.3802 c 0.0973,1.913176 0.59989,3.631792 1.50785,5.155848 0.90795,1.491628 2.12395,2.658989 3.648,3.502083 1.52407,0.843095 3.22647,1.264641 5.10722,1.264641 1.26464,0 2.52927,-0.210772 3.79391,-0.632319 1.29708,-0.453975 2.31852,-1.037656 3.06433,-1.751043 0.32427,-0.259413 0.66474,-0.389121 1.02143,-0.389121 0.3567,0 0.64854,0.09728 0.87553,0.291841 0.3567,0.291841 0.53504,0.632321 0.53504,1.021441 0,0.324268 -0.14592,0.632321 -0.43776,0.924163 -1.03766,0.940373 -2.39957,1.718614 -4.08576,2.334722 -1.65377,0.616107 -3.24268,0.92416 -4.76672,0.92416 -2.56171,0 -4.8478,-0.567467 -6.85825,-1.702401 -1.97803,-1.167362 -3.53452,-2.772484 -4.66945,-4.815366 -1.13493,-2.07531 -1.70241,-4.410033 -1.70241,-7.004169 0,-2.626563 0.51882,-4.961287 1.55648,-7.00417 1.07008,-2.075309 2.5455,-3.680431 4.42625,-4.815366 1.91317,-1.167362 4.08576,-1.751043 6.51777,-1.751043 z m 0,2.723845 c -2.52929,0 -4.66945,0.843094 -6.4205,2.529283 -1.7186,1.686188 -2.74005,3.907418 -3.06432,6.663689 h 18.921 c -0.227,-2.756271 -1.19979,-4.977501 -2.91841,-6.663689 -1.71862,-1.686189 -3.89121,-2.529283 -6.51777,-2.529283 z" />
            <path
               style="font-weight:300;font-size:40px;line-height:1.25;font-family:Comfortaa;-inkscape-font-specification:'Comfortaa, Light';text-align:center;text-anchor:middle;fill:#a3a3a3;fill-opacity:1;stroke:none;stroke-width:0.127359;stroke-miterlimit:4;stroke-dasharray:none;stroke-opacity:1"
               d="m 191.02279,60.176628 c 2.36714,0 4.47488,0.486401 6.3232,1.4592 1.88075,0.972802 3.33995,2.399577 4.37761,4.280326 1.07008,1.848324 1.60512,4.069553 1.60512,6.663689 V 85.66402 c 0,0.421547 -0.14592,0.778241 -0.43776,1.070082 -0.25942,0.259413 -0.59989,0.389121 -1.02143,0.389121 -0.42156,0 -0.77826,-0.129708 -1.0701,-0.389121 -0.2594,-0.291841 -0.38911,-0.648535 -0.38911,-1.070082 V 72.579843 c 0,-3.080537 -0.87552,-5.431473 -2.62657,-7.052808 -1.71862,-1.621337 -3.97227,-2.432005 -6.76096,-2.432005 -1.71862,0 -3.29132,0.340482 -4.71809,1.021443 -1.39434,0.648534 -2.49685,1.572695 -3.30753,2.772483 -0.81066,1.167362 -1.21599,2.46443 -1.21599,3.891204 v 14.88386 c 0,0.421547 -0.12971,0.778241 -0.38912,1.070082 -0.25942,0.259413 -0.61612,0.389121 -1.07009,0.389121 -0.42154,0 -0.77824,-0.129708 -1.07008,-0.389121 -0.25942,-0.291841 -0.38912,-0.648535 -0.38912,-1.070082 V 61.976309 c 0,-0.453973 0.1297,-0.810667 0.38912,-1.070081 0.29184,-0.259414 0.64854,-0.389121 1.07008,-0.389121 0.45397,0 0.81067,0.129707 1.07009,0.389121 0.25941,0.259414 0.38912,0.616108 0.38912,1.070081 v 2.529283 c 1.1025,-1.361922 2.4482,-2.415789 4.03712,-3.161603 1.58891,-0.778241 3.32374,-1.167361 5.20449,-1.167361 z"
               id="path1068" />
            <path
               style="font-weight:300;font-size:40px;line-height:1.25;font-family:Comfortaa;-inkscape-font-specification:'Comfortaa, Light';text-align:center;text-anchor:middle;fill:#a3a3a3;fill-opacity:1;stroke:none;stroke-width:0.127359;stroke-miterlimit:4;stroke-dasharray:none;stroke-opacity:1"
               d="m 220.64451,87.415062 c -1.88074,0 -3.71285,-0.324267 -5.49632,-0.972801 -1.78347,-0.680961 -3.25889,-1.702403 -4.42625,-3.064325 -0.22699,-0.259413 -0.34049,-0.551254 -0.34049,-0.87552 0,-0.453975 0.21078,-0.826882 0.63233,-1.118721 0.19456,-0.162134 0.47018,-0.243201 0.82687,-0.243201 0.45398,0 0.82689,0.178348 1.11872,0.53504 1.62134,1.978029 4.23169,2.967044 7.83106,2.967044 2.56171,0 4.44246,-0.453974 5.64224,-1.361922 1.23221,-0.907947 1.84832,-2.075308 1.84832,-3.502083 0,-2.561711 -2.48064,-4.19926 -7.44192,-4.912647 -3.14539,-0.453974 -5.52874,-1.313281 -7.15009,-2.577924 -1.58891,-1.264642 -2.38337,-2.788697 -2.38337,-4.572165 0,-2.367149 0.85931,-4.199259 2.57793,-5.496327 1.75104,-1.329496 4.02092,-1.994243 6.80961,-1.994243 4.08577,0 7.18251,1.459202 9.29025,4.377605 0.19457,0.226988 0.29184,0.502615 0.29184,0.826882 0,0.453974 -0.25941,0.82688 -0.77825,1.118721 -0.32427,0.129707 -0.56746,0.194561 -0.72959,0.194561 -0.48641,0 -0.89174,-0.210774 -1.21601,-0.632322 -1.65375,-2.107735 -3.97226,-3.161603 -6.95551,-3.161603 -1.97803,0 -3.55073,0.437761 -4.7181,1.313282 -1.16736,0.843095 -1.75104,1.896962 -1.75104,3.161603 0,1.297068 0.55125,2.334723 1.65376,3.112964 1.13493,0.77824 3.01568,1.361921 5.64224,1.751042 3.43724,0.486401 5.90167,1.410562 7.3933,2.772484 1.52404,1.329496 2.28607,2.950831 2.28607,4.864007 0,1.491628 -0.4864,2.80491 -1.45919,3.939845 -0.94038,1.134935 -2.20502,2.010455 -3.79392,2.626563 -1.58892,0.616108 -3.32374,0.924161 -5.20449,0.924161 z"
               id="path1066" />
            <path
               style="font-weight:300;font-size:40px;line-height:1.25;font-family:Comfortaa;-inkscape-font-specification:'Comfortaa, Light';text-align:center;text-anchor:middle;fill:#a3a3a3;fill-opacity:1;stroke:none;stroke-width:0.127359;stroke-miterlimit:4;stroke-dasharray:none;stroke-opacity:1"
               d="m 260.18884,60.517107 c 0.45397,0 0.81067,0.129707 1.07008,0.389121 0.25942,0.259414 0.38912,0.616108 0.38912,1.070081 V 85.66402 c 0,0.421547 -0.1297,0.778241 -0.38912,1.070082 -0.25941,0.259413 -0.61611,0.389121 -1.07008,0.389121 -0.42154,0 -0.77824,-0.129708 -1.07008,-0.389121 -0.25942,-0.291841 -0.38912,-0.648535 -0.38912,-1.070082 v -2.529284 c -1.10251,1.361921 -2.44821,2.432004 -4.03713,3.210245 -1.5889,0.745814 -3.32373,1.118721 -5.20448,1.118721 -2.36716,0 -4.49111,-0.486401 -6.37186,-1.459203 -1.84832,-0.9728 -3.30751,-2.383362 -4.37759,-4.231685 -1.03766,-1.880749 -1.55648,-4.118191 -1.55648,-6.712328 V 61.976309 c 0,-0.421546 0.1297,-0.762028 0.38911,-1.021441 0.29184,-0.291841 0.64853,-0.437761 1.07008,-0.437761 0.42156,0 0.76204,0.14592 1.02144,0.437761 0.29185,0.259413 0.43776,0.599895 0.43776,1.021441 v 13.084177 c 0,3.080537 0.8593,5.431474 2.57792,7.052809 1.75105,1.621336 4.02093,2.432003 6.80962,2.432003 1.71862,0 3.2751,-0.324267 4.66945,-0.9728 1.42676,-0.680962 2.54548,-1.605123 3.35616,-2.772485 0.81067,-1.199789 1.216,-2.513069 1.216,-3.939844 v -14.88386 c 0,-0.453973 0.1297,-0.810667 0.38912,-1.070081 0.29184,-0.259414 0.64854,-0.389121 1.07008,-0.389121 z"
               id="path1064" />
            <path
               style="font-weight:300;font-size:40px;line-height:1.25;font-family:Comfortaa;-inkscape-font-specification:'Comfortaa, Light';text-align:center;text-anchor:middle;fill:#a3a3a3;fill-opacity:1;stroke:none;stroke-width:0.127359;stroke-miterlimit:4;stroke-dasharray:none;stroke-opacity:1"
               d="m 279.45023,87.415062 c -1.88074,0 -3.71286,-0.324266 -5.49633,-0.972801 -1.78346,-0.680961 -3.25888,-1.702403 -4.42623,-3.064325 -0.227,-0.259413 -0.34049,-0.551254 -0.34049,-0.87552 0,-0.453973 0.21077,-0.826882 0.63232,-1.118721 0.19457,-0.162134 0.47019,-0.243201 0.82689,-0.243201 0.45397,0 0.82686,0.178346 1.11872,0.53504 1.62133,1.97803 4.23168,2.967044 7.83104,2.967044 2.56171,0 4.44246,-0.453974 5.64226,-1.361922 1.23221,-0.907947 1.84831,-2.075308 1.84831,-3.502083 0,-2.561711 -2.48063,-4.19926 -7.44191,-4.912647 -3.14541,-0.453974 -5.52877,-1.313282 -7.15011,-2.577924 -1.58891,-1.264641 -2.38335,-2.788696 -2.38335,-4.572165 0,-2.367149 0.85929,-4.199259 2.57791,-5.496327 1.75103,-1.329495 4.02091,-1.994243 6.8096,-1.994243 4.08577,0 7.18254,1.459202 9.29027,4.377605 0.19455,0.226988 0.29183,0.502615 0.29183,0.826882 0,0.453974 -0.25941,0.82688 -0.77823,1.118721 -0.32428,0.129706 -0.56747,0.194561 -0.72961,0.194561 -0.4864,0 -0.89172,-0.210774 -1.216,-0.632322 -1.65376,-2.107735 -3.97226,-3.161603 -6.95553,-3.161603 -1.97803,0 -3.55072,0.43776 -4.71808,1.313282 -1.16736,0.843094 -1.75104,1.896962 -1.75104,3.161603 0,1.297068 0.55124,2.334724 1.65377,3.112964 1.13493,0.778242 3.01568,1.361921 5.64224,1.751042 3.43724,0.486402 5.90166,1.410563 7.39329,2.772484 1.52405,1.329495 2.28543,2.950831 2.28543,4.864007 0,1.491628 -0.48575,2.804909 -1.45856,3.939845 -0.94038,1.134934 -2.20501,2.010455 -3.79392,2.626563 -1.58891,0.616108 -3.32375,0.924161 -5.20449,0.924161 z"
               id="path9775-9" />
          </g>
          <g
             aria-label="-.-. --- -. ... . -. ... ..- ..."
             id="text3002"
             style="font-size:17.0554px;line-height:1.25;display:inline;fill:#a3a3a3;fill-opacity:0.999977;stroke-width:0.426384"
             transform="matrix(1.2706045,0,0,0.93364864,7.747801,22.469455)">
            <path
               d="m 56.07265,91.718874 h 4.488702 V 97.16308 H 56.07265 Z"
               id="path16235"
               style="fill:#a3a3a3;fill-opacity:0.999977;stroke-width:0.491443" />
            <path
               d="m 63.217931,91.718297 h 1.757172 v 5.444783 h -1.757172 z"
               id="path16237"
               style="fill:#a3a3a3;fill-opacity:0.999977;stroke-width:0.394955" />
            <path
               d="M 67.648338,91.718874 H 72.13704 V 97.16308 H 67.648338 Z"
               id="path16239"
               style="fill:#a3a3a3;fill-opacity:0.999977;stroke-width:0.491443" />
            <path
               d="m 74.793618,91.718297 h 1.757173 v 5.444783 h -1.757173 z"
               id="path16241"
               style="fill:#a3a3a3;fill-opacity:0.999977;stroke-width:0.394955" />
            <path
               d="m 84.645444,91.718874 h 4.488702 v 5.444206 h -4.488702 z"
               id="path16243"
               style="fill:#a3a3a3;fill-opacity:0.999977;stroke-width:0.491443" />
            <path
               d="m 90.799713,91.718874 h 4.488701 v 5.444206 h -4.488701 z"
               id="path16245"
               style="fill:#a3a3a3;fill-opacity:0.999977;stroke-width:0.491443" />
            <path
               d="m 96.953983,91.718874 h 4.488697 v 5.444206 h -4.488697 z"
               id="path16247"
               style="fill:#a3a3a3;fill-opacity:0.999977;stroke-width:0.491443" />
            <path
               d="m 108.52967,91.718874 h 4.4887 v 5.444206 h -4.4887 z"
               id="path16249"
               style="fill:#a3a3a3;fill-opacity:0.999977;stroke-width:0.491443" />
            <path
               d="m 115.67495,91.718297 h 1.75717 v 5.444783 h -1.75717 z"
               id="path16251"
               style="fill:#a3a3a3;fill-opacity:0.999977;stroke-width:0.394955" />
            <path
               d="m 126.51779,91.718297 h 1.75717 v 5.444783 h -1.75717 z"
               id="path16253"
               style="fill:#a3a3a3;fill-opacity:0.999977;stroke-width:0.394955" />
            <path
               d="m 131.9392,91.718297 h 1.75718 v 5.444783 h -1.75718 z"
               id="path16255"
               style="fill:#a3a3a3;fill-opacity:0.999977;stroke-width:0.394955" />
            <path
               d="m 137.36063,91.718297 h 1.75717 v 5.444783 h -1.75717 z"
               id="path16257"
               style="fill:#a3a3a3;fill-opacity:0.999977;stroke-width:0.394955" />
            <path
               d="m 148.20346,91.718297 h 1.75718 v 5.444783 h -1.75718 z"
               id="path16259"
               style="fill:#a3a3a3;fill-opacity:0.999977;stroke-width:0.394955" />
            <path
               d="m 158.05528,91.718874 h 4.48871 v 5.444206 h -4.48871 z"
               id="path16261"
               style="fill:#a3a3a3;fill-opacity:0.999977;stroke-width:0.491443" />
            <path
               d="m 165.20057,91.718297 h 1.75717 v 5.444783 h -1.75717 z"
               id="path16263"
               style="fill:#a3a3a3;fill-opacity:0.999977;stroke-width:0.394955" />
            <path
               d="m 176.04341,91.718297 h 1.75717 v 5.444783 h -1.75717 z"
               id="path16265"
               style="fill:#a3a3a3;fill-opacity:0.999977;stroke-width:0.394955" />
            <path
               d="m 181.46483,91.718297 h 1.75717 v 5.444783 h -1.75717 z"
               id="path16267"
               style="fill:#a3a3a3;fill-opacity:0.999977;stroke-width:0.394955" />
            <path
               d="m 186.88625,91.718297 h 1.75717 v 5.444783 h -1.75717 z"
               id="path16269"
               style="fill:#a3a3a3;fill-opacity:0.999977;stroke-width:0.394955" />
            <path
               d="m 197.72908,91.718297 h 1.75717 v 5.444783 h -1.75717 z"
               id="path16271"
               style="fill:#a3a3a3;fill-opacity:0.999977;stroke-width:0.394955" />
            <path
               d="m 203.1505,91.718297 h 1.75717 v 5.444783 h -1.75717 z"
               id="path16273"
               style="fill:#a3a3a3;fill-opacity:0.999977;stroke-width:0.394955" />
            <path
               d="m 207.5809,91.718874 h 4.48871 v 5.444206 h -4.48871 z"
               id="path16275"
               style="fill:#a3a3a3;fill-opacity:0.999977;stroke-width:0.491443" />
            <path
               d="m 220.14762,91.718297 h 1.75717 v 5.444783 h -1.75717 z"
               id="path16277"
               style="fill:#a3a3a3;fill-opacity:0.999977;stroke-width:0.394955" />
            <path
               d="m 225.56903,91.718297 h 1.75718 v 5.444783 h -1.75718 z"
               id="path16279"
               style="fill:#a3a3a3;fill-opacity:0.999977;stroke-width:0.394955" />
            <path
               d="m 230.99045,91.718297 h 1.75717 v 5.444783 h -1.75717 z"
               id="path16281"
               style="fill:#a3a3a3;fill-opacity:0.999977;stroke-width:0.394955" />
          </g>
        </g>
      </g>
      <g
         aria-label="Relazioni umaneresponsabilie sicure"
         id="text40233"
         style="font-size:25.4403px;line-height:1.25;display:inline;fill:#a3a3a3;stroke-width:1.73476">
        <path
           d="m 558.05597,78.38876 q 0.20352,0.356164 0.20352,0.585126 0,0.279844 -0.22896,0.432486 -0.20352,0.152641 -0.61057,0.152641 -0.2544,0 -0.40704,-0.101761 -0.15265,-0.101761 -0.27985,-0.305283 l -4.68101,-7.479449 h -0.45793 -4.09589 v 7.123284 q 0,0.330724 -0.20352,0.559687 -0.20352,0.203522 -0.55969,0.203522 -0.33072,0 -0.55968,-0.203522 -0.20352,-0.228963 -0.20352,-0.559687 V 60.453348 q 0,-0.356164 0.20352,-0.559687 0.22896,-0.203522 0.55968,-0.203522 h 4.8591 q 1.8317,0 3.2818,0.763209 1.4501,0.763209 2.26419,2.136985 0.81409,1.373776 0.81409,3.129157 0,2.086105 -1.17026,3.612523 -1.14481,1.500977 -3.10371,2.060664 z m -6.46184,-8.242658 q 1.39922,0 2.49315,-0.559686 1.09393,-0.559687 1.7045,-1.577299 0.63601,-1.017612 0.63601,-2.289627 0,-1.297455 -0.63601,-2.315067 -0.61057,-1.043052 -1.7045,-1.602739 -1.09393,-0.585127 -2.49315,-0.585127 h -4.09589 v 8.929545 z"
           style="font-weight:300;font-family:Comfortaa;-inkscape-font-specification:'Comfortaa, Light'"
           id="path865" />
        <path
           d="m 566.96007,65.515968 q 1.85714,0 3.30724,0.89041 1.47553,0.86497 2.28962,2.416829 0.81409,1.551858 0.81409,3.536201 0,0.330724 -0.20352,0.534247 -0.20352,0.178082 -0.53425,0.178082 h -10.65948 q 0.0763,1.500978 0.78865,2.696672 0.71233,1.170253 1.90802,1.831701 1.19569,0.661448 2.67123,0.661448 0.99217,0 1.98435,-0.330724 1.01761,-0.356164 1.60273,-0.915851 0.25441,-0.203522 0.53425,-0.203522 0.27984,0 0.45793,0.152642 0.27984,0.228962 0.27984,0.534246 0,0.254403 -0.22896,0.483366 -0.81409,0.737768 -2.13699,1.221134 -1.29745,0.483366 -2.49315,0.483366 -2.00978,0 -3.58708,-0.890411 -1.55186,-0.91585 -2.44227,-2.518589 -0.89041,-1.62818 -0.89041,-3.663404 0,-2.060664 0.81409,-3.663403 0.83953,-1.628179 2.31507,-2.518589 1.50098,-0.915851 3.409,-0.915851 z m 0,1.424657 q -1.98435,0 -3.35812,1.322895 -1.34834,1.322896 -1.60274,3.485321 h 9.89628 q -0.17809,-2.162425 -1.52642,-3.485321 -1.34834,-1.322895 -3.409,-1.322895 z"
           style="font-weight:300;font-family:Comfortaa;-inkscape-font-specification:'Comfortaa, Light'"
           id="path867" />
        <path
           d="m 579.47668,79.559013 q -1.4501,0 -2.39139,-1.170253 -0.91585,-1.170254 -0.91585,-3.027396 V 60.453348 q 0,-0.356164 0.20352,-0.559687 0.22896,-0.203522 0.55969,-0.203522 0.35616,0 0.55968,0.203522 0.20353,0.203523 0.20353,0.559687 v 14.908016 q 0,1.170254 0.48336,1.933463 0.50881,0.737768 1.29746,0.737768 h 0.636 q 0.27985,0 0.45793,0.203523 0.17808,0.203522 0.17808,0.559686 0,0.330724 -0.20352,0.559687 -0.20352,0.203522 -0.55969,0.203522 z"
           style="font-weight:300;font-family:Comfortaa;-inkscape-font-specification:'Comfortaa, Light'"
           id="path869" />
        <path
           d="m 589.65275,65.490527 q 1.98435,0 3.61253,0.941292 1.62818,0.91585 2.54403,2.54403 0.94129,1.628179 0.94129,3.637962 v 6.181993 q 0,0.330724 -0.20352,0.559687 -0.20353,0.203522 -0.55969,0.203522 -0.33073,0 -0.55969,-0.203522 -0.20352,-0.228963 -0.20352,-0.559687 v -1.984343 q -0.83953,1.348336 -2.31507,2.136985 -1.45009,0.763209 -3.25636,0.763209 -2.00978,0 -3.63796,-0.915851 -1.62818,-0.941291 -2.56947,-2.56947 -0.91585,-1.628179 -0.91585,-3.612523 0,-2.009783 0.91585,-3.637962 0.94129,-1.62818 2.56947,-2.54403 1.62818,-0.941292 3.63796,-0.941292 z m 0,12.796471 q 1.5773,0 2.84932,-0.737768 1.27201,-0.737769 1.98434,-2.035224 0.73777,-1.297456 0.73777,-2.900195 0,-1.602738 -0.73777,-2.900194 -0.71233,-1.297455 -1.98434,-2.035224 -1.27202,-0.763209 -2.84932,-0.763209 -1.57729,0 -2.84931,0.763209 -1.27201,0.737769 -2.00978,2.035224 -0.73777,1.297456 -0.73777,2.900194 0,1.602739 0.73777,2.900195 0.73777,1.297455 2.00978,2.035224 1.27202,0.737768 2.84931,0.737768 z"
           style="font-weight:300;font-family:Comfortaa;-inkscape-font-specification:'Comfortaa, Light'"
           id="path871" />
        <path
           d="m 610.56465,78.185237 q 0.68689,0 0.68689,0.686888 0,0.686888 -0.68689,0.686888 h -9.94715 q -0.68689,0 -0.68689,-0.686888 0,-0.381604 0.20352,-0.534246 l 9.08219,-11.320934 h -8.59882 q -0.68689,0 -0.68689,-0.686888 0,-0.686888 0.68689,-0.686888 h 9.94715 q 0.68689,0 0.68689,0.686888 0,0.305284 -0.10176,0.432485 l -9.10763,11.422695 z"
           style="font-weight:300;font-family:Comfortaa;-inkscape-font-specification:'Comfortaa, Light'"
           id="path873" />
        <path
           d="m 615.95796,79.559013 q -0.33073,0 -0.55969,-0.203522 -0.20352,-0.228963 -0.20352,-0.559687 V 66.406378 q 0,-0.356164 0.20352,-0.559686 0.22896,-0.203523 0.55969,-0.203523 0.35616,0 0.55969,0.203523 0.20352,0.203522 0.20352,0.559686 v 12.389426 q 0,0.330724 -0.20352,0.559687 -0.20353,0.203522 -0.55969,0.203522 z m -0.0254,-16.841478 q -0.50881,0 -0.83953,-0.330724 -0.33073,-0.356164 -0.33073,-0.86497 0,-0.559687 0.35617,-0.864971 0.35616,-0.305283 0.83953,-0.305283 0.48336,0 0.81409,0.305283 0.35616,0.305284 0.35616,0.864971 0,0.508806 -0.35616,0.86497 -0.33073,0.330724 -0.83953,0.330724 z"
           style="font-weight:300;font-family:Comfortaa;-inkscape-font-specification:'Comfortaa, Light'"
           id="path875" />
        <path
           d="m 628.16927,79.711655 q -2.00978,0 -3.63796,-0.915851 -1.62818,-0.941291 -2.56947,-2.56947 -0.91585,-1.628179 -0.91585,-3.612523 0,-2.009783 0.91585,-3.637962 0.94129,-1.62818 2.56947,-2.54403 1.62818,-0.941292 3.63796,-0.941292 1.98434,0 3.61252,0.941292 1.62818,0.91585 2.54403,2.54403 0.9413,1.628179 0.9413,3.637962 0,1.984344 -0.9413,3.612523 -0.91585,1.628179 -2.54403,2.56947 -1.62818,0.915851 -3.61252,0.915851 z m 0,-1.424657 q 1.5773,0 2.84931,-0.737768 1.27202,-0.737769 1.98435,-2.035224 0.73777,-1.297456 0.73777,-2.900195 0,-1.602738 -0.73777,-2.900194 -0.71233,-1.297455 -1.98435,-2.035224 -1.27201,-0.763209 -2.84931,-0.763209 -1.5773,0 -2.84931,0.763209 -1.27202,0.737769 -2.00979,2.035224 -0.73776,1.297456 -0.73776,2.900194 0,1.602739 0.73776,2.900195 0.73777,1.297455 2.00979,2.035224 1.27201,0.737768 2.84931,0.737768 z"
           style="font-weight:300;font-family:Comfortaa;-inkscape-font-specification:'Comfortaa, Light'"
           id="path877" />
        <path
           d="m 645.4432,65.465087 q 1.85715,0 3.30724,0.763209 1.47554,0.763209 2.28963,2.238747 0.83953,1.450097 0.83953,3.485321 v 6.84344 q 0,0.330724 -0.22896,0.559687 -0.20352,0.203522 -0.53425,0.203522 -0.33072,0 -0.55968,-0.203522 -0.20353,-0.228963 -0.20353,-0.559687 v -6.84344 q 0,-2.416829 -1.37377,-3.688844 -1.34834,-1.272015 -3.53621,-1.272015 -1.34833,0 -2.4677,0.534246 -1.09394,0.508806 -1.72994,1.450098 -0.63601,0.91585 -0.63601,2.035224 v 7.784731 q 0,0.330724 -0.20352,0.559687 -0.20353,0.203522 -0.55969,0.203522 -0.33073,0 -0.55969,-0.203522 -0.20352,-0.228963 -0.20352,-0.559687 V 66.406378 q 0,-0.356164 0.20352,-0.559686 0.22896,-0.203523 0.55969,-0.203523 0.35616,0 0.55969,0.203523 0.20352,0.203522 0.20352,0.559686 v 1.322896 q 0.86497,-1.068493 2.11154,-1.65362 1.24658,-0.610567 2.72211,-0.610567 z"
           style="font-weight:300;font-family:Comfortaa;-inkscape-font-specification:'Comfortaa, Light'"
           id="path879" />
        <path
           d="m 657.47643,79.559013 q -0.33072,0 -0.55969,-0.203522 -0.20352,-0.228963 -0.20352,-0.559687 V 66.406378 q 0,-0.356164 0.20352,-0.559686 0.22897,-0.203523 0.55969,-0.203523 0.35616,0 0.55969,0.203523 0.20352,0.203522 0.20352,0.559686 v 12.389426 q 0,0.330724 -0.20352,0.559687 -0.20353,0.203522 -0.55969,0.203522 z m -0.0254,-16.841478 q -0.50881,0 -0.83953,-0.330724 -0.33072,-0.356164 -0.33072,-0.86497 0,-0.559687 0.35616,-0.864971 0.35616,-0.305283 0.83953,-0.305283 0.48336,0 0.81409,0.305283 0.35616,0.305284 0.35616,0.864971 0,0.508806 -0.35616,0.86497 -0.33073,0.330724 -0.83953,0.330724 z"
           style="font-weight:300;font-family:Comfortaa;-inkscape-font-specification:'Comfortaa, Light'"
           id="path881" />
        <path
           d="m 682.56051,65.643169 q 0.35617,0 0.55969,0.203523 0.20352,0.203522 0.20352,0.559686 v 12.389426 q 0,0.330724 -0.20352,0.559687 -0.20352,0.203522 -0.55969,0.203522 -0.33072,0 -0.55968,-0.203522 -0.20353,-0.228963 -0.20353,-0.559687 v -1.322895 q -0.86497,1.068492 -2.11154,1.67906 -1.24658,0.585126 -2.72211,0.585126 -1.85714,0 -3.33268,-0.763209 -1.4501,-0.763209 -2.28963,-2.213306 -0.81409,-1.475537 -0.81409,-3.510761 v -6.843441 q 0,-0.330724 0.20352,-0.534246 0.22897,-0.228963 0.55969,-0.228963 0.33072,0 0.53425,0.228963 0.22896,0.203522 0.22896,0.534246 v 6.843441 q 0,2.416828 1.34834,3.688843 1.37377,1.272015 3.56164,1.272015 1.34833,0 2.44227,-0.508806 1.11937,-0.534246 1.75538,-1.450097 0.636,-0.941291 0.636,-2.060664 v -7.784732 q 0,-0.356164 0.20353,-0.559686 0.22896,-0.203523 0.55968,-0.203523 z"
           style="font-weight:300;font-family:Comfortaa;-inkscape-font-specification:'Comfortaa, Light'"
           id="path883" />
        <path
           d="m 702.58199,65.465087 q 1.52642,0 2.72211,0.763209 1.1957,0.763209 1.85715,2.136985 0.66144,1.348336 0.66144,3.078277 v 7.352246 q 0,0.330724 -0.20352,0.559687 -0.20352,0.203522 -0.55969,0.203522 -0.33072,0 -0.55968,-0.203522 -0.20352,-0.228963 -0.20352,-0.559687 v -7.352246 q 0,-1.958903 -1.04306,-3.205478 -1.04305,-1.246575 -2.67123,-1.246575 -1.78082,0 -2.87475,1.170254 -1.09393,1.170254 -1.04305,3.103717 v 0.178082 7.352246 q 0,0.330724 -0.20353,0.559687 -0.20352,0.203522 -0.55968,0.203522 -0.33073,0 -0.55969,-0.203522 -0.20352,-0.228963 -0.20352,-0.559687 v -7.352246 q 0,-1.958903 -1.04305,-3.205478 -1.04306,-1.246575 -2.67124,-1.246575 -1.75538,0 -2.87475,1.119373 -1.11937,1.119374 -1.11937,2.900195 v 7.784731 q 0,0.330724 -0.20353,0.559687 -0.20352,0.203522 -0.55968,0.203522 -0.33073,0 -0.55969,-0.203522 -0.20352,-0.228963 -0.20352,-0.559687 V 66.406378 q 0,-0.356164 0.20352,-0.559686 0.22896,-0.203523 0.55969,-0.203523 0.35616,0 0.55968,0.203523 0.20353,0.203522 0.20353,0.559686 v 0.992172 q 0.71233,-0.915851 1.75538,-1.424657 1.04305,-0.508806 2.23874,-0.508806 1.47554,0 2.6458,0.737769 1.17025,0.712328 1.85714,1.984343 0.68689,-1.272015 1.90802,-1.984343 1.22113,-0.737769 2.74755,-0.737769 z"
           style="font-weight:300;font-family:Comfortaa;-inkscape-font-specification:'Comfortaa, Light'"
           id="path885" />
        <path
           d="m 718.5076,65.490527 q 1.98434,0 3.61252,0.941292 1.62818,0.91585 2.54403,2.54403 0.94129,1.628179 0.94129,3.637962 v 6.181993 q 0,0.330724 -0.20352,0.559687 -0.20352,0.203522 -0.55969,0.203522 -0.33072,0 -0.55969,-0.203522 -0.20352,-0.228963 -0.20352,-0.559687 v -1.984343 q -0.83953,1.348336 -2.31506,2.136985 -1.4501,0.763209 -3.25636,0.763209 -2.00979,0 -3.63797,-0.915851 -1.62818,-0.941291 -2.56947,-2.56947 -0.91585,-1.628179 -0.91585,-3.612523 0,-2.009783 0.91585,-3.637962 0.94129,-1.62818 2.56947,-2.54403 1.62818,-0.941292 3.63797,-0.941292 z m 0,12.796471 q 1.5773,0 2.84931,-0.737768 1.27202,-0.737769 1.98434,-2.035224 0.73777,-1.297456 0.73777,-2.900195 0,-1.602738 -0.73777,-2.900194 -0.71232,-1.297455 -1.98434,-2.035224 -1.27201,-0.763209 -2.84931,-0.763209 -1.5773,0 -2.84932,0.763209 -1.27201,0.737769 -2.00978,2.035224 -0.73777,1.297456 -0.73777,2.900194 0,1.602739 0.73777,2.900195 0.73777,1.297455 2.00978,2.035224 1.27202,0.737768 2.84932,0.737768 z"
           style="font-weight:300;font-family:Comfortaa;-inkscape-font-specification:'Comfortaa, Light'"
           id="path887" />
        <path
           d="m 735.78154,65.465087 q 1.85714,0 3.30724,0.763209 1.47553,0.763209 2.28962,2.238747 0.83953,1.450097 0.83953,3.485321 v 6.84344 q 0,0.330724 -0.22896,0.559687 -0.20352,0.203522 -0.53425,0.203522 -0.33072,0 -0.55968,-0.203522 -0.20352,-0.228963 -0.20352,-0.559687 v -6.84344 q 0,-2.416829 -1.37378,-3.688844 -1.34834,-1.272015 -3.5362,-1.272015 -1.34834,0 -2.46771,0.534246 -1.09393,0.508806 -1.72994,1.450098 -0.63601,0.91585 -0.63601,2.035224 v 7.784731 q 0,0.330724 -0.20352,0.559687 -0.20352,0.203522 -0.55969,0.203522 -0.33072,0 -0.55968,-0.203522 -0.20353,-0.228963 -0.20353,-0.559687 V 66.406378 q 0,-0.356164 0.20353,-0.559686 0.22896,-0.203523 0.55968,-0.203523 0.35617,0 0.55969,0.203523 0.20352,0.203522 0.20352,0.559686 v 1.322896 q 0.86497,-1.068493 2.11155,-1.65362 1.24657,-0.610567 2.72211,-0.610567 z"
           style="font-weight:300;font-family:Comfortaa;-inkscape-font-specification:'Comfortaa, Light'"
           id="path889" />
        <path
           d="m 752.31769,65.515968 q 1.85714,0 3.30724,0.89041 1.47553,0.86497 2.28962,2.416829 0.81409,1.551858 0.81409,3.536201 0,0.330724 -0.20352,0.534247 -0.20352,0.178082 -0.53425,0.178082 h -10.65948 q 0.0763,1.500978 0.78865,2.696672 0.71233,1.170253 1.90802,1.831701 1.19569,0.661448 2.67123,0.661448 0.99217,0 1.98435,-0.330724 1.01761,-0.356164 1.60273,-0.915851 0.25441,-0.203522 0.53425,-0.203522 0.27984,0 0.45793,0.152642 0.27984,0.228962 0.27984,0.534246 0,0.254403 -0.22896,0.483366 -0.81409,0.737768 -2.13699,1.221134 -1.29745,0.483366 -2.49315,0.483366 -2.00978,0 -3.58708,-0.890411 -1.55186,-0.91585 -2.44227,-2.518589 -0.89041,-1.62818 -0.89041,-3.663404 0,-2.060664 0.81409,-3.663403 0.83953,-1.628179 2.31507,-2.518589 1.50098,-0.915851 3.409,-0.915851 z m 0,1.424657 q -1.98435,0 -3.35812,1.322895 -1.34834,1.322896 -1.60274,3.485321 h 9.89628 q -0.17809,-2.162425 -1.52642,-3.485321 -1.34834,-1.322895 -3.409,-1.322895 z"
           style="font-weight:300;font-family:Comfortaa;-inkscape-font-specification:'Comfortaa, Light'"
           id="path891" />
        <path
           d="m 551.61957,98.063495 q 1.93346,0 1.93346,0.83953 0,0.127201 -0.0254,0.203522 -0.0763,0.279844 -0.2544,0.407045 -0.15264,0.101761 -0.43248,0.101761 -0.22897,0 -0.61057,-0.05088 -0.35616,-0.05088 -0.61057,-0.05088 -1.27201,0 -2.26418,0.534248 -0.99218,0.53424 -1.55186,1.47554 -0.55969,0.94129 -0.55969,2.11154 v 7.73385 q 0,0.33073 -0.20352,0.55969 -0.20352,0.20352 -0.55969,0.20352 -0.33072,0 -0.55969,-0.20352 -0.20352,-0.22896 -0.20352,-0.55969 V 98.979346 q 0,-0.356164 0.20352,-0.559687 0.22897,-0.203522 0.55969,-0.203522 0.35617,0 0.55969,0.203522 0.20352,0.203523 0.20352,0.559687 v 1.577294 q 0.73777,-1.170249 1.88258,-1.831697 1.14482,-0.661448 2.49315,-0.661448 z"
           style="font-weight:300;font-family:Comfortaa;-inkscape-font-specification:'Comfortaa, Light'"
           id="path893" />
        <path
           d="m 561.10876,98.088935 q 1.85714,0 3.30724,0.890411 1.47554,0.86497 2.28963,2.416824 0.81409,1.55186 0.81409,3.53621 0,0.33072 -0.20353,0.53424 -0.20352,0.17808 -0.53424,0.17808 h -10.65949 q 0.0763,1.50098 0.78865,2.69668 0.71233,1.17025 1.90802,1.8317 1.1957,0.66145 2.67124,0.66145 0.99217,0 1.98434,-0.33073 1.01761,-0.35616 1.60274,-0.91585 0.2544,-0.20352 0.53424,-0.20352 0.27985,0 0.45793,0.15264 0.27984,0.22896 0.27984,0.53425 0,0.2544 -0.22896,0.48336 -0.81409,0.73777 -2.13698,1.22114 -1.29746,0.48336 -2.49315,0.48336 -2.00979,0 -3.58709,-0.89041 -1.55185,-0.91585 -2.44226,-2.51859 -0.89042,-1.62818 -0.89042,-3.6634 0,-2.06067 0.81409,-3.6634 0.83953,-1.628183 2.31507,-2.518594 1.50098,-0.915851 3.409,-0.915851 z m 0,1.424657 q -1.98434,0 -3.35812,1.322898 -1.34833,1.32289 -1.60274,3.48532 h 9.89628 q -0.17808,-2.16243 -1.52642,-3.48532 -1.34833,-1.322898 -3.409,-1.322898 z"
           style="font-weight:300;font-family:Comfortaa;-inkscape-font-specification:'Comfortaa, Light'"
           id="path895" />
        <path
           d="m 575.55883,112.28462 q -1.47553,0 -2.87475,-0.5088 -1.39922,-0.53425 -2.31507,-1.60274 -0.17808,-0.20352 -0.17808,-0.45793 0,-0.35616 0.33072,-0.58512 0.15265,-0.12721 0.43249,-0.12721 0.35616,0 0.58513,0.27985 1.27201,1.55186 4.09589,1.55186 2.00978,0 2.95107,-0.71233 0.96673,-0.71233 0.96673,-1.8317 0,-2.00979 -3.89236,-2.56947 -2.46771,-0.35617 -3.73973,-1.34834 -1.24657,-0.99217 -1.24657,-2.39139 0,-1.85714 1.34833,-2.874753 1.37378,-1.043052 3.56164,-1.043052 3.20548,0 4.8591,2.289625 0.15264,0.17808 0.15264,0.43249 0,0.35616 -0.40704,0.58512 -0.2544,0.10177 -0.38161,0.10177 -0.3816,0 -0.636,-0.33073 -1.29746,-1.653618 -3.63797,-1.653618 -1.55185,0 -2.46771,0.686888 -0.91585,0.66145 -0.91585,1.65362 0,1.01761 0.86497,1.62818 0.89041,0.61057 2.95108,0.91585 2.69667,0.3816 3.86692,1.4501 1.1957,1.04305 1.1957,2.54403 0,1.17025 -0.76321,2.06066 -0.73777,0.89041 -1.98434,1.37378 -1.24658,0.48336 -2.72212,0.48336 z"
           style="font-weight:300;font-family:Comfortaa;-inkscape-font-specification:'Comfortaa, Light'"
           id="path897" />
        <path
           d="m 591.56076,98.063495 q 2.00979,0 3.63797,0.941291 1.62818,0.915851 2.54403,2.544034 0.94129,1.62818 0.94129,3.63796 0,1.98434 -0.94129,3.61252 -0.91585,1.62818 -2.54403,2.56947 -1.62818,0.91585 -3.63797,0.91585 -1.80626,0 -3.28179,-0.76321 -1.4501,-0.78865 -2.28963,-2.13698 v 7.93737 q 0,0.35617 -0.20352,0.55969 -0.20353,0.20352 -0.55969,0.20352 -0.33072,0 -0.55969,-0.20352 -0.20352,-0.20352 -0.20352,-0.55969 v -12.23678 -0.0509 q 0.0254,-1.95891 0.96673,-3.56164 0.94129,-1.602744 2.54403,-2.493154 1.62818,-0.915851 3.58708,-0.915851 z m 0,12.796475 q 1.5773,0 2.84932,-0.73777 1.27201,-0.73777 2.00978,-2.03523 0.73777,-1.29745 0.73777,-2.90019 0,-1.60274 -0.73777,-2.9002 -0.73777,-1.29745 -2.00978,-2.03522 -1.27202,-0.763208 -2.84932,-0.763208 -1.57729,0 -2.84931,0.763208 -1.27201,0.73777 -2.00978,2.03522 -0.71233,1.29746 -0.71233,2.9002 0,1.60274 0.71233,2.90019 0.73777,1.29746 2.00978,2.03523 1.27202,0.73777 2.84931,0.73777 z"
           style="font-weight:300;font-family:Comfortaa;-inkscape-font-specification:'Comfortaa, Light'"
           id="path899" />
        <path
           d="m 608.86016,112.28462 q -2.00978,0 -3.63796,-0.91585 -1.62818,-0.94129 -2.56947,-2.56947 -0.91586,-1.62818 -0.91586,-3.61252 0,-2.00978 0.91586,-3.63796 0.94129,-1.628183 2.56947,-2.544034 1.62818,-0.941291 3.63796,-0.941291 1.98434,0 3.61252,0.941291 1.62818,0.915851 2.54403,2.544034 0.94129,1.62818 0.94129,3.63796 0,1.98434 -0.94129,3.61252 -0.91585,1.62818 -2.54403,2.56947 -1.62818,0.91585 -3.61252,0.91585 z m 0,-1.42465 q 1.5773,0 2.84931,-0.73777 1.27202,-0.73777 1.98435,-2.03523 0.73776,-1.29745 0.73776,-2.90019 0,-1.60274 -0.73776,-2.9002 -0.71233,-1.29745 -1.98435,-2.03522 -1.27201,-0.763208 -2.84931,-0.763208 -1.5773,0 -2.84931,0.763208 -1.27202,0.73777 -2.00979,2.03522 -0.73777,1.29746 -0.73777,2.9002 0,1.60274 0.73777,2.90019 0.73777,1.29746 2.00979,2.03523 1.27201,0.73777 2.84931,0.73777 z"
           style="font-weight:300;font-family:Comfortaa;-inkscape-font-specification:'Comfortaa, Light'"
           id="path901" />
        <path
           d="m 626.13409,98.038055 q 1.85714,0 3.30724,0.763209 1.47554,0.763209 2.28963,2.238746 0.83953,1.4501 0.83953,3.48532 v 6.84344 q 0,0.33073 -0.22896,0.55969 -0.20353,0.20352 -0.53425,0.20352 -0.33072,0 -0.55969,-0.20352 -0.20352,-0.22896 -0.20352,-0.55969 v -6.84344 q 0,-2.41683 -1.37378,-3.68884 -1.34833,-1.272017 -3.5362,-1.272017 -1.34833,0 -2.46771,0.534247 -1.09393,0.50881 -1.72994,1.4501 -0.636,0.91585 -0.636,2.03522 v 7.78473 q 0,0.33073 -0.20353,0.55969 -0.20352,0.20352 -0.55968,0.20352 -0.33073,0 -0.55969,-0.20352 -0.20352,-0.22896 -0.20352,-0.55969 V 98.979346 q 0,-0.356164 0.20352,-0.559687 0.22896,-0.203522 0.55969,-0.203522 0.35616,0 0.55968,0.203522 0.20353,0.203523 0.20353,0.559687 v 1.322894 q 0.86497,-1.068491 2.11154,-1.653618 1.24657,-0.610567 2.72211,-0.610567 z"
           style="font-weight:300;font-family:Comfortaa;-inkscape-font-specification:'Comfortaa, Light'"
           id="path903" />
        <path
           d="m 641.6272,112.28462 q -1.47554,0 -2.87476,-0.5088 -1.39921,-0.53425 -2.31506,-1.60274 -0.17809,-0.20352 -0.17809,-0.45793 0,-0.35616 0.33073,-0.58512 0.15264,-0.12721 0.43248,-0.12721 0.35617,0 0.58513,0.27985 1.27202,1.55186 4.09589,1.55186 2.00978,0 2.95107,-0.71233 0.96673,-0.71233 0.96673,-1.8317 0,-2.00979 -3.89236,-2.56947 -2.46771,-0.35617 -3.73973,-1.34834 -1.24657,-0.99217 -1.24657,-2.39139 0,-1.85714 1.34834,-2.874753 1.37377,-1.043052 3.56164,-1.043052 3.20548,0 4.8591,2.289625 0.15264,0.17808 0.15264,0.43249 0,0.35616 -0.40705,0.58512 -0.2544,0.10177 -0.3816,0.10177 -0.38161,0 -0.63601,-0.33073 -1.29746,-1.653618 -3.63796,-1.653618 -1.55186,0 -2.46771,0.686888 -0.91585,0.66145 -0.91585,1.65362 0,1.01761 0.86497,1.62818 0.89041,0.61057 2.95107,0.91585 2.69667,0.3816 3.86693,1.4501 1.19569,1.04305 1.19569,2.54403 0,1.17025 -0.76321,2.06066 -0.73777,0.89041 -1.98434,1.37378 -1.24658,0.48336 -2.72211,0.48336 z"
           style="font-weight:300;font-family:Comfortaa;-inkscape-font-specification:'Comfortaa, Light'"
           id="path905" />
        <path
           d="m 656.89136,98.063495 q 1.98435,0 3.61253,0.941291 1.62817,0.915851 2.54403,2.544034 0.94129,1.62818 0.94129,3.63796 v 6.18199 q 0,0.33073 -0.20353,0.55969 -0.20352,0.20352 -0.55968,0.20352 -0.33073,0 -0.55969,-0.20352 -0.20352,-0.22896 -0.20352,-0.55969 v -1.98434 q -0.83953,1.34833 -2.31507,2.13698 -1.4501,0.76321 -3.25636,0.76321 -2.00978,0 -3.63796,-0.91585 -1.62818,-0.94129 -2.56947,-2.56947 -0.91585,-1.62818 -0.91585,-3.61252 0,-2.00978 0.91585,-3.63796 0.94129,-1.628183 2.56947,-2.544034 1.62818,-0.941291 3.63796,-0.941291 z m 0,12.796475 q 1.5773,0 2.84932,-0.73777 1.27201,-0.73777 1.98434,-2.03523 0.73777,-1.29745 0.73777,-2.90019 0,-1.60274 -0.73777,-2.9002 -0.71233,-1.29745 -1.98434,-2.03522 -1.27202,-0.763208 -2.84932,-0.763208 -1.5773,0 -2.84931,0.763208 -1.27202,0.73777 -2.00978,2.03522 -0.73777,1.29746 -0.73777,2.9002 0,1.60274 0.73777,2.90019 0.73776,1.29746 2.00978,2.03523 1.27201,0.73777 2.84931,0.73777 z"
           style="font-weight:300;font-family:Comfortaa;-inkscape-font-specification:'Comfortaa, Light'"
           id="path907" />
        <path
           d="m 674.90307,98.063495 q 2.00978,0 3.63796,0.941291 1.62818,0.915851 2.54403,2.544034 0.94129,1.62818 0.94129,3.61252 0,2.00978 -0.94129,3.63796 -0.91585,1.62818 -2.54403,2.56947 -1.62818,0.91585 -3.63796,0.91585 -1.95891,0 -3.58709,-0.89041 -1.60274,-0.91585 -2.54403,-2.51859 -0.94129,-1.60274 -0.96673,-3.56164 v -0.0509 -12.236784 q 0,-0.356165 0.20352,-0.559687 0.22897,-0.203522 0.55969,-0.203522 0.35616,0 0.55969,0.203522 0.20352,0.203522 0.20352,0.559687 v 7.937374 q 0.83953,-1.348337 2.28963,-2.111546 1.47553,-0.788649 3.2818,-0.788649 z m 0,12.796475 q 1.57729,0 2.84931,-0.73777 1.27201,-0.76321 2.00978,-2.06067 0.73777,-1.29745 0.73777,-2.90019 0,-1.60274 -0.73777,-2.9002 -0.73777,-1.29745 -2.00978,-2.03522 -1.27202,-0.737768 -2.84931,-0.737768 -1.5773,0 -2.84932,0.737768 -1.27201,0.73777 -2.00978,2.03522 -0.71233,1.29746 -0.71233,2.9002 0,1.60274 0.71233,2.90019 0.73777,1.29746 2.00978,2.06067 1.27202,0.73777 2.84932,0.73777 z"
           style="font-weight:300;font-family:Comfortaa;-inkscape-font-specification:'Comfortaa, Light'"
           id="path909" />
        <path
           d="m 687.11441,112.13198 q -0.33073,0 -0.55969,-0.20352 -0.20352,-0.22896 -0.20352,-0.55969 V 98.979346 q 0,-0.356164 0.20352,-0.559687 0.22896,-0.203522 0.55969,-0.203522 0.35616,0 0.55968,0.203522 0.20353,0.203523 0.20353,0.559687 v 12.389424 q 0,0.33073 -0.20353,0.55969 -0.20352,0.20352 -0.55968,0.20352 z m -0.0254,-16.841478 q -0.50881,0 -0.83953,-0.330724 -0.33073,-0.356164 -0.33073,-0.86497 0,-0.559686 0.35617,-0.86497 0.35616,-0.305284 0.83953,-0.305284 0.48336,0 0.81409,0.305284 0.35616,0.305284 0.35616,0.86497 0,0.508806 -0.35616,0.86497 -0.33073,0.330724 -0.83953,0.330724 z"
           style="font-weight:300;font-family:Comfortaa;-inkscape-font-specification:'Comfortaa, Light'"
           id="path911" />
        <path
           d="m 695.76407,112.13198 q -1.4501,0 -2.39139,-1.17025 -0.91585,-1.17026 -0.91585,-3.0274 V 93.026316 q 0,-0.356165 0.20352,-0.559687 0.22897,-0.203522 0.55969,-0.203522 0.35616,0 0.55969,0.203522 0.20352,0.203522 0.20352,0.559687 v 14.908014 q 0,1.17026 0.48336,1.93346 0.50881,0.73777 1.29746,0.73777 h 0.63601 q 0.27984,0 0.45792,0.20353 0.17809,0.20352 0.17809,0.55968 0,0.33073 -0.20353,0.55969 -0.20352,0.20352 -0.55968,0.20352 z"
           style="font-weight:300;font-family:Comfortaa;-inkscape-font-specification:'Comfortaa, Light'"
           id="path913" />
        <path
           d="m 701.1065,112.13198 q -0.33072,0 -0.55968,-0.20352 -0.20353,-0.22896 -0.20353,-0.55969 V 98.979346 q 0,-0.356164 0.20353,-0.559687 0.22896,-0.203522 0.55968,-0.203522 0.35617,0 0.55969,0.203522 0.20352,0.203523 0.20352,0.559687 v 12.389424 q 0,0.33073 -0.20352,0.55969 -0.20352,0.20352 -0.55969,0.20352 z m -0.0254,-16.841478 q -0.5088,0 -0.83953,-0.330724 -0.33072,-0.356164 -0.33072,-0.86497 0,-0.559686 0.35616,-0.86497 0.35617,-0.305284 0.83953,-0.305284 0.48337,0 0.81409,0.305284 0.35617,0.305284 0.35617,0.86497 0,0.508806 -0.35617,0.86497 -0.33072,0.330724 -0.83953,0.330724 z"
           style="font-weight:300;font-family:Comfortaa;-inkscape-font-specification:'Comfortaa, Light'"
           id="path915" />
        <path
           d="m 551.49237,130.66191 q 1.85714,0 3.30724,0.89041 1.47554,0.86497 2.28963,2.41683 0.81409,1.55186 0.81409,3.5362 0,0.33073 -0.20353,0.53425 -0.20352,0.17808 -0.53424,0.17808 h -10.65949 q 0.0763,1.50098 0.78865,2.69667 0.71233,1.17026 1.90802,1.8317 1.1957,0.66145 2.67124,0.66145 0.99217,0 1.98434,-0.33072 1.01761,-0.35617 1.60274,-0.91585 0.2544,-0.20353 0.53424,-0.20353 0.27985,0 0.45793,0.15265 0.27984,0.22896 0.27984,0.53424 0,0.2544 -0.22896,0.48337 -0.81409,0.73777 -2.13699,1.22113 -1.29745,0.48337 -2.49314,0.48337 -2.00979,0 -3.58709,-0.89041 -1.55186,-0.91585 -2.44227,-2.51859 -0.89041,-1.62818 -0.89041,-3.66341 0,-2.06066 0.81409,-3.6634 0.83953,-1.62818 2.31507,-2.51859 1.50098,-0.91585 3.409,-0.91585 z m 0,1.42466 q -1.98434,0 -3.35812,1.32289 -1.34833,1.3229 -1.60274,3.48532 h 9.89628 q -0.17808,-2.16242 -1.52642,-3.48532 -1.34834,-1.32289 -3.409,-1.32289 z"
           style="font-weight:300;font-family:Comfortaa;-inkscape-font-specification:'Comfortaa, Light'"
           id="path917" />
        <path
           d="m 573.39643,144.8576 q -1.47554,0 -2.87475,-0.50881 -1.39922,-0.53424 -2.31507,-1.60274 -0.17808,-0.20352 -0.17808,-0.45792 0,-0.35617 0.33072,-0.58513 0.15264,-0.1272 0.43249,-0.1272 0.35616,0 0.58512,0.27984 1.27202,1.55186 4.09589,1.55186 2.00979,0 2.95108,-0.71233 0.96673,-0.71233 0.96673,-1.8317 0,-2.00978 -3.89237,-2.56947 -2.46771,-0.35616 -3.73972,-1.34834 -1.24658,-0.99217 -1.24658,-2.39138 0,-1.85715 1.34834,-2.87476 1.37378,-1.04305 3.56164,-1.04305 3.20548,0 4.8591,2.28963 0.15264,0.17808 0.15264,0.43248 0,0.35617 -0.40704,0.58513 -0.25441,0.10176 -0.38161,0.10176 -0.3816,0 -0.63601,-0.33072 -1.29745,-1.65362 -3.63796,-1.65362 -1.55186,0 -2.46771,0.68689 -0.91585,0.66144 -0.91585,1.65361 0,1.01762 0.86497,1.62818 0.89041,0.61057 2.95108,0.91585 2.69667,0.38161 3.86692,1.4501 1.1957,1.04305 1.1957,2.54403 0,1.17026 -0.76321,2.06067 -0.73777,0.89041 -1.98435,1.37377 -1.24657,0.48337 -2.72211,0.48337 z"
           style="font-weight:300;font-family:Comfortaa;-inkscape-font-specification:'Comfortaa, Light'"
           id="path919" />
        <path
           d="m 583.57253,144.70496 q -0.33072,0 -0.55968,-0.20353 -0.20353,-0.22896 -0.20353,-0.55968 v -12.38943 q 0,-0.35616 0.20353,-0.55969 0.22896,-0.20352 0.55968,-0.20352 0.35617,0 0.55969,0.20352 0.20352,0.20353 0.20352,0.55969 v 12.38943 q 0,0.33072 -0.20352,0.55968 -0.20352,0.20353 -0.55969,0.20353 z m -0.0254,-16.84148 q -0.5088,0 -0.83953,-0.33073 -0.33072,-0.35616 -0.33072,-0.86497 0,-0.55968 0.35616,-0.86497 0.35617,-0.30528 0.83953,-0.30528 0.48337,0 0.81409,0.30528 0.35617,0.30529 0.35617,0.86497 0,0.50881 -0.35617,0.86497 -0.33072,0.33073 -0.83953,0.33073 z"
           style="font-weight:300;font-family:Comfortaa;-inkscape-font-specification:'Comfortaa, Light'"
           id="path921" />
        <path
           d="m 595.58032,144.8576 q -1.9589,0 -3.5362,-0.91585 -1.5773,-0.94129 -2.49315,-2.56947 -0.89041,-1.62818 -0.89041,-3.61253 0,-2.00978 0.83953,-3.61252 0.83953,-1.62818 2.34051,-2.54403 1.50098,-0.94129 3.35812,-0.94129 1.62818,0 2.97651,0.63601 1.34834,0.63601 2.34051,1.88258 0.17808,0.2544 0.17808,0.43249 0,0.35616 -0.35616,0.55968 -0.17808,0.15264 -0.40705,0.15264 -0.35616,0 -0.58512,-0.30528 -1.62818,-1.93346 -4.14677,-1.93346 -1.47554,0 -2.62035,0.73777 -1.14482,0.71232 -1.78082,2.00978 -0.61057,1.29745 -0.61057,2.92563 0,1.60274 0.68689,2.9002 0.68689,1.29745 1.90802,2.03522 1.22113,0.73777 2.79843,0.73777 2.23875,0 3.58709,-1.24657 0.22896,-0.22897 0.53424,-0.22897 0.27985,0 0.45793,0.17809 0.2544,0.22896 0.2544,0.55968 0,0.27985 -0.20352,0.45793 -0.89041,0.81409 -2.08611,1.27201 -1.19569,0.43249 -2.54403,0.43249 z"
           style="font-weight:300;font-family:Comfortaa;-inkscape-font-specification:'Comfortaa, Light'"
           id="path923" />
        <path
           d="m 616.28869,130.78911 q 0.35616,0 0.55969,0.20352 0.20352,0.20353 0.20352,0.55969 v 12.38943 q 0,0.33072 -0.20352,0.55968 -0.20353,0.20353 -0.55969,0.20353 -0.33072,0 -0.55969,-0.20353 -0.20352,-0.22896 -0.20352,-0.55968 v -1.3229 q -0.86497,1.06849 -2.11154,1.67906 -1.24658,0.58513 -2.72212,0.58513 -1.85714,0 -3.33268,-0.76321 -1.45009,-0.76321 -2.28962,-2.21331 -0.81409,-1.47553 -0.81409,-3.51076 v -6.84344 q 0,-0.33072 0.20352,-0.53425 0.22896,-0.22896 0.55969,-0.22896 0.33072,0 0.53424,0.22896 0.22897,0.20353 0.22897,0.53425 v 6.84344 q 0,2.41683 1.34833,3.68885 1.37378,1.27201 3.56164,1.27201 1.34834,0 2.44227,-0.50881 1.11938,-0.53424 1.75538,-1.45009 0.63601,-0.94129 0.63601,-2.06067 v -7.78473 q 0,-0.35616 0.20352,-0.55969 0.22897,-0.20352 0.55969,-0.20352 z"
           style="font-weight:300;font-family:Comfortaa;-inkscape-font-specification:'Comfortaa, Light'"
           id="path925" />
        <path
           d="m 627.53326,130.63647 q 1.93346,0 1.93346,0.83953 0,0.1272 -0.0254,0.20352 -0.0763,0.27985 -0.2544,0.40705 -0.15264,0.10176 -0.43248,0.10176 -0.22897,0 -0.61057,-0.0509 -0.35617,-0.0509 -0.61057,-0.0509 -1.27201,0 -2.26419,0.53424 -0.99217,0.53425 -1.55185,1.47554 -0.55969,0.94129 -0.55969,2.11155 v 7.73385 q 0,0.33072 -0.20352,0.55968 -0.20353,0.20353 -0.55969,0.20353 -0.33072,0 -0.55969,-0.20353 -0.20352,-0.22896 -0.20352,-0.55968 v -12.38943 q 0,-0.35616 0.20352,-0.55969 0.22897,-0.20352 0.55969,-0.20352 0.35616,0 0.55969,0.20352 0.20352,0.20353 0.20352,0.55969 v 1.5773 q 0.73777,-1.17025 1.88258,-1.8317 1.14481,-0.66145 2.49315,-0.66145 z"
           style="font-weight:300;font-family:Comfortaa;-inkscape-font-specification:'Comfortaa, Light'"
           id="path927" />
        <path
           d="m 637.02245,130.66191 q 1.85715,0 3.30724,0.89041 1.47554,0.86497 2.28963,2.41683 0.81409,1.55186 0.81409,3.5362 0,0.33073 -0.20352,0.53425 -0.20353,0.17808 -0.53425,0.17808 h -10.65949 q 0.0763,1.50098 0.78865,2.69667 0.71233,1.17026 1.90803,1.8317 1.19569,0.66145 2.67123,0.66145 0.99217,0 1.98434,-0.33072 1.01761,-0.35617 1.60274,-0.91585 0.2544,-0.20353 0.53425,-0.20353 0.27984,0 0.45792,0.15265 0.27985,0.22896 0.27985,0.53424 0,0.2544 -0.22897,0.48337 -0.81409,0.73777 -2.13698,1.22113 -1.29746,0.48337 -2.49315,0.48337 -2.00979,0 -3.58708,-0.89041 -1.55186,-0.91585 -2.44227,-2.51859 -0.89041,-1.62818 -0.89041,-3.66341 0,-2.06066 0.81409,-3.6634 0.83953,-1.62818 2.31506,-2.51859 1.50098,-0.91585 3.409,-0.91585 z m 0,1.42466 q -1.98434,0 -3.35812,1.32289 -1.34833,1.3229 -1.60274,3.48532 h 9.89628 q -0.17808,-2.16242 -1.52642,-3.48532 -1.34833,-1.32289 -3.409,-1.32289 z"
           style="font-weight:300;font-family:Comfortaa;-inkscape-font-specification:'Comfortaa, Light'"
           id="path929" />
      </g>
      <rect
         style="fill:#a3a3a3;fill-opacity:0.5;stroke:none;stroke-width:3.38599;stroke-linejoin:round;stroke-dasharray:13.544, 6.77199, 3.38599, 6.77199;stop-color:#000000"
         id="rect1054"
         width="5.2237897"
         height="124.1919"
         x="487.49252"
         y="40.190636" />
    </g>
  </g>
</svg>
