<?xml version="1.0" encoding="UTF-8" standalone="no"?>
<!-- Created with Inkscape (http://www.inkscape.org/) -->

<svg
   width="100"
   height="55"
   viewBox="0 0 100 55"
   version="1.1"
   id="svg5"
   xmlns="http://www.w3.org/2000/svg"
   xmlns:svg="http://www.w3.org/2000/svg">
  <defs
     id="defs2" />
  <g
     id="layer3"
     style="display:inline">
    <g
       id="g64529"
       transform="matrix(0.1914319,0,0,0.1914319,6.67838,0.41908443)">
      <g
         id="g1174"
         transform="matrix(1.5074699,0,0,1.5074699,32.860426,-32.852224)">
        <path
           style="font-weight:300;font-size:40px;line-height:1.25;font-family:Comfortaa;-inkscape-font-specification:'Comfortaa, Light';text-align:center;text-anchor:middle;fill:#757575;fill-opacity:1;stroke:none;stroke-width:0.256111;stroke-miterlimit:4;stroke-dasharray:none;stroke-opacity:1"
           d="m 35.495633,135.56637 c -8.196573,0 -15.807677,-2.10769 -22.833311,-6.32307 C 5.6366858,124.94985 0.05520703,119.21223 -4.0821113,112.03047 -8.219431,104.77064 -10.28809,96.964383 -10.28809,88.611684 c 0,-8.352699 2.0296285,-16.119929 6.0888834,-23.30169 4.13731973,-7.181759 9.6797668,-12.880331 16.6273396,-17.095711 7.025634,-4.293445 14.7148,-6.440167 23.0675,-6.440167 10.928767,0 20.569499,3.473786 28.922199,10.421359 0.702563,0.546438 1.053845,1.327064 1.053845,2.34188 0,0.936751 -0.31225,1.795439 -0.936749,2.576065 -0.624504,0.702565 -1.483192,1.053848 -2.576069,1.053848 -0.858688,0 -1.834472,-0.468376 -2.927347,-1.405132 -5.93276,-5.308254 -13.778051,-7.962385 -23.535879,-7.962385 -6.869511,0 -13.309676,1.834473 -19.320497,5.503417 -5.932755,3.668942 -10.6555455,8.586886 -14.1683624,14.753833 -3.5128188,6.088882 -5.2692264,12.607111 -5.2692264,19.554683 0,7.181761 1.7173773,13.856116 5.1521325,20.023056 3.5128184,6.08889 8.2356073,10.92878 14.1683653,14.51967 6.010818,3.59088 12.490015,5.38633 19.437588,5.38633 9.211391,0 17.290869,-2.8493 24.238442,-8.54787 0.546437,-0.39032 1.131908,-0.58548 1.756408,-0.58548 0.936751,0 1.75641,0.35129 2.458973,1.05385 0.780626,0.70256 1.170939,1.56126 1.170939,2.57606 0,1.01483 -0.273218,1.83448 -0.819656,2.45899 -6.713385,6.71338 -16.315089,10.07008 -28.805106,10.07008 z"
           id="path1082" />
        <g
           id="g1160"
           transform="matrix(0.81921345,0,0,0.81921345,10.114868,17.055872)">
          <g
             id="g1148"
             transform="matrix(1.0021032,0,0,1.0021032,22.977217,7.5182814)"
             style="fill:#757575;fill-opacity:1">
            <path
               id="path1078"
               style="font-weight:300;font-size:40px;line-height:1.25;font-family:Comfortaa;-inkscape-font-specification:'Comfortaa, Light';text-align:center;text-anchor:middle;fill:#757575;fill-opacity:1;stroke:none;stroke-width:0.127359;stroke-miterlimit:4;stroke-dasharray:none;stroke-opacity:1"
               d="m 69.568747,87.415372 c -2.561711,0 -4.880221,-0.58399 -6.955529,-1.751352 -2.075311,-1.199788 -3.712859,-2.837338 -4.912647,-4.912647 -1.167361,-2.075308 -1.751329,-4.377605 -1.751329,-6.906888 0,-2.56171 0.583968,-4.88022 1.751329,-6.955529 1.199788,-2.075309 2.837336,-3.696645 4.912647,-4.864007 2.075308,-1.199789 4.393739,-1.799411 6.95545,-1.799411 2.529283,0 4.831659,0.599622 6.906968,1.799411 2.075309,1.167362 3.696643,2.788698 4.864005,4.864007 1.199788,2.075309 1.799682,4.393819 1.799682,6.955529 0,2.529283 -0.599894,4.83158 -1.799682,6.906888 -1.167362,2.075309 -2.788696,3.712859 -4.864005,4.912647 -2.075309,1.167362 -4.377606,1.751352 -6.906889,1.751352 z m 0,-2.724154 c 2.010456,0 3.826351,-0.470187 5.447687,-1.410562 1.621335,-0.940374 2.885976,-2.237442 3.793924,-3.891204 0.940375,-1.653763 1.410562,-3.502085 1.410562,-5.544967 0,-2.042883 -0.470187,-3.891205 -1.410562,-5.544967 -0.907948,-1.653762 -2.172589,-2.95083 -3.793924,-3.891204 -1.621336,-0.972802 -3.437231,-1.458828 -5.447687,-1.458828 -2.010457,0 -3.826352,0.486026 -5.447687,1.458828 -1.621336,0.940374 -2.902191,2.237442 -3.842566,3.891204 -0.940374,1.653762 -1.410562,3.502084 -1.410562,5.544967 0,2.042882 0.470188,3.891204 1.410562,5.544967 0.940375,1.653762 2.22123,2.95083 3.842566,3.891204 1.621335,0.940375 3.43723,1.410562 5.447687,1.410562 z" />
            <path
               style="font-weight:300;font-size:40px;line-height:1.25;font-family:Comfortaa;-inkscape-font-specification:'Comfortaa, Light';text-align:center;text-anchor:middle;fill:#757575;fill-opacity:1;stroke:none;stroke-width:0.127359;stroke-miterlimit:4;stroke-dasharray:none;stroke-opacity:1"
               d="m 102.5953,60.176628 c 2.36715,0 4.47488,0.486401 6.3232,1.4592 1.88075,0.972802 3.33995,2.399577 4.37761,4.280326 1.07008,1.848324 1.60512,4.069553 1.60512,6.663689 V 85.66402 c 0,0.421547 -0.14592,0.778241 -0.43776,1.070082 -0.25941,0.259413 -0.59989,0.389121 -1.02145,0.389121 -0.42154,0 -0.77822,-0.129708 -1.07007,-0.389121 -0.25941,-0.291841 -0.38913,-0.648535 -0.38913,-1.070082 V 72.579843 c 0,-3.080537 -0.87552,-5.431473 -2.62656,-7.052808 -1.71862,-1.621337 -3.97228,-2.432005 -6.76096,-2.432005 -1.71861,0 -3.291304,0.340482 -4.718093,1.021443 -1.394351,0.648534 -2.496859,1.572695 -3.307525,2.772483 -0.810665,1.167362 -1.215997,2.46443 -1.215997,3.891204 v 14.88386 c 0,0.421547 -0.129703,0.778241 -0.38912,1.070082 -0.259417,0.259413 -0.616112,0.389121 -1.070083,0.389121 -0.421545,0 -0.778239,-0.129708 -1.070082,-0.389121 -0.259418,-0.291841 -0.38912,-0.648535 -0.38912,-1.070082 V 61.976309 c 0,-0.453973 0.129702,-0.810667 0.38912,-1.070081 0.291843,-0.259414 0.648537,-0.389121 1.070082,-0.389121 0.453971,0 0.810666,0.129707 1.070083,0.389121 0.259417,0.259414 0.38912,0.616108 0.38912,1.070081 v 2.529283 c 1.102508,-1.361922 2.448221,-2.415789 4.037125,-3.161603 1.588905,-0.778241 3.32374,-1.167361 5.20449,-1.167361 z"
               id="path1076" />
            <path
               style="font-weight:300;font-size:40px;line-height:1.25;font-family:Comfortaa;-inkscape-font-specification:'Comfortaa, Light';text-align:center;text-anchor:middle;fill:#757575;fill-opacity:1;stroke:none;stroke-width:0.127359;stroke-miterlimit:4;stroke-dasharray:none;stroke-opacity:1"
               d="m 132.21701,87.415064 c -1.88075,0 -3.71284,-0.324268 -5.49631,-0.972801 -1.78348,-0.680962 -3.25889,-1.702403 -4.42625,-3.064325 -0.22699,-0.259414 -0.34048,-0.551254 -0.34048,-0.87552 0,-0.453975 0.21077,-0.826882 0.63231,-1.118721 0.19457,-0.162134 0.4702,-0.243201 0.82689,-0.243201 0.45397,0 0.82688,0.178347 1.11872,0.53504 1.62135,1.978028 4.23169,2.967043 7.83106,2.967043 2.5617,0 4.44245,-0.453973 5.64224,-1.361921 1.23222,-0.907947 1.84833,-2.075308 1.84833,-3.502084 0,-2.56171 -2.48065,-4.199259 -7.44193,-4.912647 -3.1454,-0.453973 -5.52877,-1.31328 -7.1501,-2.577923 -1.5889,-1.264642 -2.38335,-2.788697 -2.38335,-4.572165 0,-2.36715 0.8593,-4.199259 2.57792,-5.496327 1.75103,-1.329496 4.0209,-1.994244 6.8096,-1.994244 4.08577,0 7.18252,1.459203 9.29025,4.377606 0.19457,0.226988 0.29184,0.502614 0.29184,0.826882 0,0.453973 -0.25941,0.82688 -0.77824,1.118721 -0.32426,0.129707 -0.56746,0.194561 -0.7296,0.194561 -0.48639,0 -0.89173,-0.210774 -1.21599,-0.632322 -1.65377,-2.107736 -3.97228,-3.161603 -6.95555,-3.161603 -1.97802,0 -3.55071,0.437761 -4.71807,1.313282 -1.16736,0.843095 -1.75104,1.896962 -1.75104,3.161603 0,1.297068 0.55125,2.334723 1.65376,3.112963 1.13493,0.778241 3.01568,1.361922 5.64224,1.751043 3.43723,0.486401 5.90166,1.410562 7.39329,2.772483 1.52406,1.329497 2.28608,2.950832 2.28608,4.864008 0,1.491628 -0.48639,2.80491 -1.4592,3.939845 -0.94038,1.134935 -2.20502,2.010455 -3.79392,2.626563 -1.58891,0.616107 -3.32374,0.924161 -5.2045,0.924161 z"
               id="path1074" />
            <path
               id="path1070"
               style="font-weight:300;font-size:40px;line-height:1.25;font-family:Comfortaa;-inkscape-font-specification:'Comfortaa, Light';text-align:center;text-anchor:middle;fill:#757575;fill-opacity:1;stroke:none;stroke-width:0.127359;stroke-miterlimit:4;stroke-dasharray:none;stroke-opacity:1"
               d="m 160.2823,60.273908 c 2.36716,0 4.4749,0.567468 6.32322,1.702403 1.88074,1.102508 3.33993,2.642777 4.37759,4.620807 1.03766,1.978028 1.55648,4.231684 1.55648,6.760967 0,0.421548 -0.1297,0.762028 -0.38911,1.021441 -0.25941,0.226988 -0.5999,0.340481 -1.02144,0.340481 h -20.3802 c 0.0973,1.913176 0.59989,3.631792 1.50785,5.155848 0.90795,1.491628 2.12395,2.658989 3.648,3.502083 1.52407,0.843095 3.22647,1.264641 5.10722,1.264641 1.26464,0 2.52927,-0.210772 3.79391,-0.632319 1.29708,-0.453975 2.31852,-1.037656 3.06433,-1.751043 0.32427,-0.259413 0.66474,-0.389121 1.02143,-0.389121 0.3567,0 0.64854,0.09728 0.87553,0.291841 0.3567,0.291841 0.53504,0.632321 0.53504,1.021441 0,0.324268 -0.14592,0.632321 -0.43776,0.924163 -1.03766,0.940373 -2.39957,1.718614 -4.08576,2.334722 -1.65377,0.616107 -3.24268,0.92416 -4.76672,0.92416 -2.56171,0 -4.8478,-0.567467 -6.85825,-1.702401 -1.97803,-1.167362 -3.53452,-2.772484 -4.66945,-4.815366 -1.13493,-2.07531 -1.70241,-4.410033 -1.70241,-7.004169 0,-2.626563 0.51882,-4.961287 1.55648,-7.00417 1.07008,-2.075309 2.5455,-3.680431 4.42625,-4.815366 1.91317,-1.167362 4.08576,-1.751043 6.51777,-1.751043 z m 0,2.723845 c -2.52929,0 -4.66945,0.843094 -6.4205,2.529283 -1.7186,1.686188 -2.74005,3.907418 -3.06432,6.663689 h 18.921 c -0.227,-2.756271 -1.19979,-4.977501 -2.91841,-6.663689 -1.71862,-1.686189 -3.89121,-2.529283 -6.51777,-2.529283 z" />
            <path
               style="font-weight:300;font-size:40px;line-height:1.25;font-family:Comfortaa;-inkscape-font-specification:'Comfortaa, Light';text-align:center;text-anchor:middle;fill:#757575;fill-opacity:1;stroke:none;stroke-width:0.127359;stroke-miterlimit:4;stroke-dasharray:none;stroke-opacity:1"
               d="m 191.02279,60.176628 c 2.36714,0 4.47488,0.486401 6.3232,1.4592 1.88075,0.972802 3.33995,2.399577 4.37761,4.280326 1.07008,1.848324 1.60512,4.069553 1.60512,6.663689 V 85.66402 c 0,0.421547 -0.14592,0.778241 -0.43776,1.070082 -0.25942,0.259413 -0.59989,0.389121 -1.02143,0.389121 -0.42156,0 -0.77826,-0.129708 -1.0701,-0.389121 -0.2594,-0.291841 -0.38911,-0.648535 -0.38911,-1.070082 V 72.579843 c 0,-3.080537 -0.87552,-5.431473 -2.62657,-7.052808 -1.71862,-1.621337 -3.97227,-2.432005 -6.76096,-2.432005 -1.71862,0 -3.29132,0.340482 -4.71809,1.021443 -1.39434,0.648534 -2.49685,1.572695 -3.30753,2.772483 -0.81066,1.167362 -1.21599,2.46443 -1.21599,3.891204 v 14.88386 c 0,0.421547 -0.12971,0.778241 -0.38912,1.070082 -0.25942,0.259413 -0.61612,0.389121 -1.07009,0.389121 -0.42154,0 -0.77824,-0.129708 -1.07008,-0.389121 -0.25942,-0.291841 -0.38912,-0.648535 -0.38912,-1.070082 V 61.976309 c 0,-0.453973 0.1297,-0.810667 0.38912,-1.070081 0.29184,-0.259414 0.64854,-0.389121 1.07008,-0.389121 0.45397,0 0.81067,0.129707 1.07009,0.389121 0.25941,0.259414 0.38912,0.616108 0.38912,1.070081 v 2.529283 c 1.1025,-1.361922 2.4482,-2.415789 4.03712,-3.161603 1.58891,-0.778241 3.32374,-1.167361 5.20449,-1.167361 z"
               id="path1068" />
            <path
               style="font-weight:300;font-size:40px;line-height:1.25;font-family:Comfortaa;-inkscape-font-specification:'Comfortaa, Light';text-align:center;text-anchor:middle;fill:#757575;fill-opacity:1;stroke:none;stroke-width:0.127359;stroke-miterlimit:4;stroke-dasharray:none;stroke-opacity:1"
               d="m 220.64451,87.415062 c -1.88074,0 -3.71285,-0.324267 -5.49632,-0.972801 -1.78347,-0.680961 -3.25889,-1.702403 -4.42625,-3.064325 -0.22699,-0.259413 -0.34049,-0.551254 -0.34049,-0.87552 0,-0.453975 0.21078,-0.826882 0.63233,-1.118721 0.19456,-0.162134 0.47018,-0.243201 0.82687,-0.243201 0.45398,0 0.82689,0.178348 1.11872,0.53504 1.62134,1.978029 4.23169,2.967044 7.83106,2.967044 2.56171,0 4.44246,-0.453974 5.64224,-1.361922 1.23221,-0.907947 1.84832,-2.075308 1.84832,-3.502083 0,-2.561711 -2.48064,-4.19926 -7.44192,-4.912647 -3.14539,-0.453974 -5.52874,-1.313281 -7.15009,-2.577924 -1.58891,-1.264642 -2.38337,-2.788697 -2.38337,-4.572165 0,-2.367149 0.85931,-4.199259 2.57793,-5.496327 1.75104,-1.329496 4.02092,-1.994243 6.80961,-1.994243 4.08577,0 7.18251,1.459202 9.29025,4.377605 0.19457,0.226988 0.29184,0.502615 0.29184,0.826882 0,0.453974 -0.25941,0.82688 -0.77825,1.118721 -0.32427,0.129707 -0.56746,0.194561 -0.72959,0.194561 -0.48641,0 -0.89174,-0.210774 -1.21601,-0.632322 -1.65375,-2.107735 -3.97226,-3.161603 -6.95551,-3.161603 -1.97803,0 -3.55073,0.437761 -4.7181,1.313282 -1.16736,0.843095 -1.75104,1.896962 -1.75104,3.161603 0,1.297068 0.55125,2.334723 1.65376,3.112964 1.13493,0.77824 3.01568,1.361921 5.64224,1.751042 3.43724,0.486401 5.90167,1.410562 7.3933,2.772484 1.52404,1.329496 2.28607,2.950831 2.28607,4.864007 0,1.491628 -0.4864,2.80491 -1.45919,3.939845 -0.94038,1.134935 -2.20502,2.010455 -3.79392,2.626563 -1.58892,0.616108 -3.32374,0.924161 -5.20449,0.924161 z"
               id="path1066" />
            <path
               style="font-weight:300;font-size:40px;line-height:1.25;font-family:Comfortaa;-inkscape-font-specification:'Comfortaa, Light';text-align:center;text-anchor:middle;fill:#757575;fill-opacity:1;stroke:none;stroke-width:0.127359;stroke-miterlimit:4;stroke-dasharray:none;stroke-opacity:1"
               d="m 260.18884,60.517107 c 0.45397,0 0.81067,0.129707 1.07008,0.389121 0.25942,0.259414 0.38912,0.616108 0.38912,1.070081 V 85.66402 c 0,0.421547 -0.1297,0.778241 -0.38912,1.070082 -0.25941,0.259413 -0.61611,0.389121 -1.07008,0.389121 -0.42154,0 -0.77824,-0.129708 -1.07008,-0.389121 -0.25942,-0.291841 -0.38912,-0.648535 -0.38912,-1.070082 v -2.529284 c -1.10251,1.361921 -2.44821,2.432004 -4.03713,3.210245 -1.5889,0.745814 -3.32373,1.118721 -5.20448,1.118721 -2.36716,0 -4.49111,-0.486401 -6.37186,-1.459203 -1.84832,-0.9728 -3.30751,-2.383362 -4.37759,-4.231685 -1.03766,-1.880749 -1.55648,-4.118191 -1.55648,-6.712328 V 61.976309 c 0,-0.421546 0.1297,-0.762028 0.38911,-1.021441 0.29184,-0.291841 0.64853,-0.437761 1.07008,-0.437761 0.42156,0 0.76204,0.14592 1.02144,0.437761 0.29185,0.259413 0.43776,0.599895 0.43776,1.021441 v 13.084177 c 0,3.080537 0.8593,5.431474 2.57792,7.052809 1.75105,1.621336 4.02093,2.432003 6.80962,2.432003 1.71862,0 3.2751,-0.324267 4.66945,-0.9728 1.42676,-0.680962 2.54548,-1.605123 3.35616,-2.772485 0.81067,-1.199789 1.216,-2.513069 1.216,-3.939844 v -14.88386 c 0,-0.453973 0.1297,-0.810667 0.38912,-1.070081 0.29184,-0.259414 0.64854,-0.389121 1.07008,-0.389121 z"
               id="path1064" />
            <path
               style="font-weight:300;font-size:40px;line-height:1.25;font-family:Comfortaa;-inkscape-font-specification:'Comfortaa, Light';text-align:center;text-anchor:middle;fill:#757575;fill-opacity:1;stroke:none;stroke-width:0.127359;stroke-miterlimit:4;stroke-dasharray:none;stroke-opacity:1"
               d="m 279.45023,87.415062 c -1.88074,0 -3.71286,-0.324266 -5.49633,-0.972801 -1.78346,-0.680961 -3.25888,-1.702403 -4.42623,-3.064325 -0.227,-0.259413 -0.34049,-0.551254 -0.34049,-0.87552 0,-0.453973 0.21077,-0.826882 0.63232,-1.118721 0.19457,-0.162134 0.47019,-0.243201 0.82689,-0.243201 0.45397,0 0.82686,0.178346 1.11872,0.53504 1.62133,1.97803 4.23168,2.967044 7.83104,2.967044 2.56171,0 4.44246,-0.453974 5.64226,-1.361922 1.23221,-0.907947 1.84831,-2.075308 1.84831,-3.502083 0,-2.561711 -2.48063,-4.19926 -7.44191,-4.912647 -3.14541,-0.453974 -5.52877,-1.313282 -7.15011,-2.577924 -1.58891,-1.264641 -2.38335,-2.788696 -2.38335,-4.572165 0,-2.367149 0.85929,-4.199259 2.57791,-5.496327 1.75103,-1.329495 4.02091,-1.994243 6.8096,-1.994243 4.08577,0 7.18254,1.459202 9.29027,4.377605 0.19455,0.226988 0.29183,0.502615 0.29183,0.826882 0,0.453974 -0.25941,0.82688 -0.77823,1.118721 -0.32428,0.129706 -0.56747,0.194561 -0.72961,0.194561 -0.4864,0 -0.89172,-0.210774 -1.216,-0.632322 -1.65376,-2.107735 -3.97226,-3.161603 -6.95553,-3.161603 -1.97803,0 -3.55072,0.43776 -4.71808,1.313282 -1.16736,0.843094 -1.75104,1.896962 -1.75104,3.161603 0,1.297068 0.55124,2.334724 1.65377,3.112964 1.13493,0.778242 3.01568,1.361921 5.64224,1.751042 3.43724,0.486402 5.90166,1.410563 7.39329,2.772484 1.52405,1.329495 2.28543,2.950831 2.28543,4.864007 0,1.491628 -0.48575,2.804909 -1.45856,3.939845 -0.94038,1.134934 -2.20501,2.010455 -3.79392,2.626563 -1.58891,0.616108 -3.32375,0.924161 -5.20449,0.924161 z"
               id="path9775-9" />
          </g>
          <g
             aria-label="-.-. --- -. ... . -. ... ..- ..."
             id="text3002"
             style="font-size:17.0554px;line-height:1.25;display:inline;fill:#a3a3a3;fill-opacity:1;stroke-width:0.426384"
             transform="matrix(1.2706045,0,0,0.93364864,7.747801,22.469455)">
            <path
               d="m 56.07265,91.718874 h 4.488702 V 97.16308 H 56.07265 Z"
               id="path16235"
               style="fill:#a3a3a3;fill-opacity:1;stroke-width:0.491443" />
            <path
               d="m 63.217931,91.718297 h 1.757172 v 5.444783 h -1.757172 z"
               id="path16237"
               style="fill:#a3a3a3;fill-opacity:1;stroke-width:0.394955" />
            <path
               d="M 67.648338,91.718874 H 72.13704 V 97.16308 H 67.648338 Z"
               id="path16239"
               style="fill:#a3a3a3;fill-opacity:1;stroke-width:0.491443" />
            <path
               d="m 74.793618,91.718297 h 1.757173 v 5.444783 h -1.757173 z"
               id="path16241"
               style="fill:#a3a3a3;fill-opacity:1;stroke-width:0.394955" />
            <path
               d="m 84.645444,91.718874 h 4.488702 v 5.444206 h -4.488702 z"
               id="path16243"
               style="fill:#a3a3a3;fill-opacity:1;stroke-width:0.491443" />
            <path
               d="m 90.799713,91.718874 h 4.488701 v 5.444206 h -4.488701 z"
               id="path16245"
               style="fill:#a3a3a3;fill-opacity:1;stroke-width:0.491443" />
            <path
               d="m 96.953983,91.718874 h 4.488697 v 5.444206 h -4.488697 z"
               id="path16247"
               style="fill:#a3a3a3;fill-opacity:1;stroke-width:0.491443" />
            <path
               d="m 108.52967,91.718874 h 4.4887 v 5.444206 h -4.4887 z"
               id="path16249"
               style="fill:#a3a3a3;fill-opacity:1;stroke-width:0.491443" />
            <path
               d="m 115.67495,91.718297 h 1.75717 v 5.444783 h -1.75717 z"
               id="path16251"
               style="fill:#a3a3a3;fill-opacity:1;stroke-width:0.394955" />
            <path
               d="m 126.51779,91.718297 h 1.75717 v 5.444783 h -1.75717 z"
               id="path16253"
               style="fill:#a3a3a3;fill-opacity:1;stroke-width:0.394955" />
            <path
               d="m 131.9392,91.718297 h 1.75718 v 5.444783 h -1.75718 z"
               id="path16255"
               style="fill:#a3a3a3;fill-opacity:1;stroke-width:0.394955" />
            <path
               d="m 137.36063,91.718297 h 1.75717 v 5.444783 h -1.75717 z"
               id="path16257"
               style="fill:#a3a3a3;fill-opacity:1;stroke-width:0.394955" />
            <path
               d="m 148.20346,91.718297 h 1.75718 v 5.444783 h -1.75718 z"
               id="path16259"
               style="fill:#a3a3a3;fill-opacity:1;stroke-width:0.394955" />
            <path
               d="m 158.05528,91.718874 h 4.48871 v 5.444206 h -4.48871 z"
               id="path16261"
               style="fill:#a3a3a3;fill-opacity:1;stroke-width:0.491443" />
            <path
               d="m 165.20057,91.718297 h 1.75717 v 5.444783 h -1.75717 z"
               id="path16263"
               style="fill:#a3a3a3;fill-opacity:1;stroke-width:0.394955" />
            <path
               d="m 176.04341,91.718297 h 1.75717 v 5.444783 h -1.75717 z"
               id="path16265"
               style="fill:#a3a3a3;fill-opacity:1;stroke-width:0.394955" />
            <path
               d="m 181.46483,91.718297 h 1.75717 v 5.444783 h -1.75717 z"
               id="path16267"
               style="fill:#a3a3a3;fill-opacity:1;stroke-width:0.394955" />
            <path
               d="m 186.88625,91.718297 h 1.75717 v 5.444783 h -1.75717 z"
               id="path16269"
               style="fill:#a3a3a3;fill-opacity:1;stroke-width:0.394955" />
            <path
               d="m 197.72908,91.718297 h 1.75717 v 5.444783 h -1.75717 z"
               id="path16271"
               style="fill:#a3a3a3;fill-opacity:1;stroke-width:0.394955" />
            <path
               d="m 203.1505,91.718297 h 1.75717 v 5.444783 h -1.75717 z"
               id="path16273"
               style="fill:#a3a3a3;fill-opacity:1;stroke-width:0.394955" />
            <path
               d="m 207.5809,91.718874 h 4.48871 v 5.444206 h -4.48871 z"
               id="path16275"
               style="fill:#a3a3a3;fill-opacity:1;stroke-width:0.491443" />
            <path
               d="m 220.14762,91.718297 h 1.75717 v 5.444783 h -1.75717 z"
               id="path16277"
               style="fill:#a3a3a3;fill-opacity:1;stroke-width:0.394955" />
            <path
               d="m 225.56903,91.718297 h 1.75718 v 5.444783 h -1.75718 z"
               id="path16279"
               style="fill:#a3a3a3;fill-opacity:1;stroke-width:0.394955" />
            <path
               d="m 230.99045,91.718297 h 1.75717 v 5.444783 h -1.75717 z"
               id="path16281"
               style="fill:#a3a3a3;fill-opacity:1;stroke-width:0.394955" />
          </g>
        </g>
      </g>
      <g
         aria-label="Relazioni umaneresponsabilie sicure"
         id="text40233-1"
         style="font-size:25.4403px;line-height:1.25;display:inline;fill:#8c8c8c;stroke-width:1.73476">
        <path
           d="m 158.76282,203.63901 q 0.20352,0.35617 0.20352,0.58513 0,0.27984 -0.22896,0.43248 -0.20353,0.15265 -0.61057,0.15265 -0.2544,0 -0.40705,-0.10177 -0.15264,-0.10176 -0.27984,-0.30528 l -4.68101,-7.47945 h -0.45793 -4.09589 v 7.12329 q 0,0.33072 -0.20352,0.55968 -0.20352,0.20353 -0.55969,0.20353 -0.33072,0 -0.55968,-0.20353 -0.20353,-0.22896 -0.20353,-0.55968 V 185.7036 q 0,-0.35616 0.20353,-0.55969 0.22896,-0.20352 0.55968,-0.20352 h 4.8591 q 1.8317,0 3.2818,0.76321 1.4501,0.76321 2.26419,2.13699 0.81408,1.37377 0.81408,3.12915 0,2.08611 -1.17025,3.61252 -1.14481,1.50098 -3.10372,2.06067 z m -6.46184,-8.24266 q 1.39922,0 2.49315,-0.55968 1.09393,-0.55969 1.7045,-1.5773 0.63601,-1.01761 0.63601,-2.28963 0,-1.29745 -0.63601,-2.31507 -0.61057,-1.04305 -1.7045,-1.60273 -1.09393,-0.58513 -2.49315,-0.58513 h -4.09589 v 8.92954 z"
           style="font-weight:300;font-family:Comfortaa;-inkscape-font-specification:'Comfortaa, Light'"
           id="path883" />
        <path
           d="m 167.66692,190.76622 q 1.85714,0 3.30723,0.89041 1.47554,0.86497 2.28963,2.41683 0.81409,1.55186 0.81409,3.5362 0,0.33072 -0.20352,0.53425 -0.20352,0.17808 -0.53425,0.17808 h -10.65948 q 0.0763,1.50098 0.78865,2.69667 0.71232,1.17025 1.90802,1.8317 1.19569,0.66145 2.67123,0.66145 0.99217,0 1.98434,-0.33072 1.01762,-0.35617 1.60274,-0.91585 0.25441,-0.20353 0.53425,-0.20353 0.27984,0 0.45792,0.15264 0.27985,0.22897 0.27985,0.53425 0,0.2544 -0.22897,0.48337 -0.81408,0.73777 -2.13698,1.22113 -1.29746,0.48337 -2.49315,0.48337 -2.00978,0 -3.58708,-0.89041 -1.55186,-0.91585 -2.44227,-2.51859 -0.89041,-1.62818 -0.89041,-3.66341 0,-2.06066 0.81409,-3.6634 0.83953,-1.62818 2.31507,-2.51859 1.50097,-0.91585 3.409,-0.91585 z m 0,1.42466 q -1.98435,0 -3.35812,1.32289 -1.34834,1.3229 -1.60274,3.48532 h 9.89627 q -0.17808,-2.16242 -1.52641,-3.48532 -1.34834,-1.32289 -3.409,-1.32289 z"
           style="font-weight:300;font-family:Comfortaa;-inkscape-font-specification:'Comfortaa, Light'"
           id="path885" />
        <path
           d="m 180.18352,204.80927 q -1.45009,0 -2.39138,-1.17026 -0.91585,-1.17025 -0.91585,-3.02739 V 185.7036 q 0,-0.35616 0.20352,-0.55969 0.22896,-0.20352 0.55968,-0.20352 0.35617,0 0.55969,0.20352 0.20352,0.20353 0.20352,0.55969 v 14.90802 q 0,1.17025 0.48337,1.93346 0.50881,0.73777 1.29745,0.73777 h 0.63601 q 0.27985,0 0.45793,0.20352 0.17808,0.20352 0.17808,0.55969 0,0.33072 -0.20352,0.55968 -0.20353,0.20353 -0.55969,0.20353 z"
           style="font-weight:300;font-family:Comfortaa;-inkscape-font-specification:'Comfortaa, Light'"
           id="path887" />
        <path
           d="m 190.3596,190.74078 q 1.98435,0 3.61252,0.94129 1.62818,0.91585 2.54403,2.54403 0.9413,1.62818 0.9413,3.63796 v 6.182 q 0,0.33072 -0.20353,0.55968 -0.20352,0.20353 -0.55968,0.20353 -0.33073,0 -0.55969,-0.20353 -0.20352,-0.22896 -0.20352,-0.55968 v -1.98435 q -0.83953,1.34834 -2.31507,2.13699 -1.4501,0.76321 -3.25636,0.76321 -2.00978,0 -3.63796,-0.91585 -1.62818,-0.94129 -2.56947,-2.56947 -0.91585,-1.62818 -0.91585,-3.61253 0,-2.00978 0.91585,-3.63796 0.94129,-1.62818 2.56947,-2.54403 1.62818,-0.94129 3.63796,-0.94129 z m 0,12.79647 q 1.5773,0 2.84932,-0.73777 1.27201,-0.73777 1.98434,-2.03522 0.73777,-1.29746 0.73777,-2.9002 0,-1.60274 -0.73777,-2.90019 -0.71233,-1.29746 -1.98434,-2.03522 -1.27202,-0.76321 -2.84932,-0.76321 -1.5773,0 -2.84931,0.76321 -1.27202,0.73776 -2.00979,2.03522 -0.73776,1.29745 -0.73776,2.90019 0,1.60274 0.73776,2.9002 0.73777,1.29745 2.00979,2.03522 1.27201,0.73777 2.84931,0.73777 z"
           style="font-weight:300;font-family:Comfortaa;-inkscape-font-specification:'Comfortaa, Light'"
           id="path889" />
        <path
           d="m 211.2715,203.43549 q 0.68689,0 0.68689,0.68689 0,0.68689 -0.68689,0.68689 h -9.94716 q -0.68688,0 -0.68688,-0.68689 0,-0.38161 0.20352,-0.53425 l 9.08219,-11.32093 h -8.59883 q -0.68688,0 -0.68688,-0.68689 0,-0.68689 0.68688,-0.68689 h 9.94716 q 0.68689,0 0.68689,0.68689 0,0.30528 -0.10176,0.43248 l -9.10763,11.4227 z"
           style="font-weight:300;font-family:Comfortaa;-inkscape-font-specification:'Comfortaa, Light'"
           id="path891" />
        <path
           d="m 216.66481,204.80927 q -0.33073,0 -0.55969,-0.20353 -0.20352,-0.22896 -0.20352,-0.55968 v -12.38943 q 0,-0.35616 0.20352,-0.55969 0.22896,-0.20352 0.55969,-0.20352 0.35616,0 0.55968,0.20352 0.20353,0.20353 0.20353,0.55969 v 12.38943 q 0,0.33072 -0.20353,0.55968 -0.20352,0.20353 -0.55968,0.20353 z m -0.0254,-16.84148 q -0.50881,0 -0.83953,-0.33073 -0.33073,-0.35616 -0.33073,-0.86497 0,-0.55968 0.35617,-0.86497 0.35616,-0.30528 0.83953,-0.30528 0.48336,0 0.81409,0.30528 0.35616,0.30529 0.35616,0.86497 0,0.50881 -0.35616,0.86497 -0.33073,0.33073 -0.83953,0.33073 z"
           style="font-weight:300;font-family:Comfortaa;-inkscape-font-specification:'Comfortaa, Light'"
           id="path893" />
        <path
           d="m 228.87612,204.96191 q -2.00978,0 -3.63796,-0.91585 -1.62818,-0.94129 -2.56947,-2.56947 -0.91585,-1.62818 -0.91585,-3.61253 0,-2.00978 0.91585,-3.63796 0.94129,-1.62818 2.56947,-2.54403 1.62818,-0.94129 3.63796,-0.94129 1.98434,0 3.61252,0.94129 1.62818,0.91585 2.54403,2.54403 0.94129,1.62818 0.94129,3.63796 0,1.98435 -0.94129,3.61253 -0.91585,1.62818 -2.54403,2.56947 -1.62818,0.91585 -3.61252,0.91585 z m 0,-1.42466 q 1.5773,0 2.84931,-0.73777 1.27202,-0.73777 1.98435,-2.03522 0.73777,-1.29746 0.73777,-2.9002 0,-1.60274 -0.73777,-2.90019 -0.71233,-1.29746 -1.98435,-2.03522 -1.27201,-0.76321 -2.84931,-0.76321 -1.5773,0 -2.84931,0.76321 -1.27202,0.73776 -2.00979,2.03522 -0.73777,1.29745 -0.73777,2.90019 0,1.60274 0.73777,2.9002 0.73777,1.29745 2.00979,2.03522 1.27201,0.73777 2.84931,0.73777 z"
           style="font-weight:300;font-family:Comfortaa;-inkscape-font-specification:'Comfortaa, Light'"
           id="path895" />
        <path
           d="m 246.15005,190.71534 q 1.85714,0 3.30724,0.76321 1.47554,0.76321 2.28963,2.23874 0.83953,1.4501 0.83953,3.48533 v 6.84344 q 0,0.33072 -0.22896,0.55968 -0.20353,0.20353 -0.53425,0.20353 -0.33072,0 -0.55969,-0.20353 -0.20352,-0.22896 -0.20352,-0.55968 v -6.84344 q 0,-2.41683 -1.37378,-3.68885 -1.34833,-1.27201 -3.5362,-1.27201 -1.34833,0 -2.46771,0.53424 -1.09393,0.50881 -1.72994,1.4501 -0.636,0.91585 -0.636,2.03522 v 7.78474 q 0,0.33072 -0.20353,0.55968 -0.20352,0.20353 -0.55968,0.20353 -0.33073,0 -0.55969,-0.20353 -0.20352,-0.22896 -0.20352,-0.55968 v -12.38943 q 0,-0.35616 0.20352,-0.55969 0.22896,-0.20352 0.55969,-0.20352 0.35616,0 0.55968,0.20352 0.20353,0.20353 0.20353,0.55969 v 1.3229 q 0.86497,-1.0685 2.11154,-1.65362 1.24658,-0.61057 2.72211,-0.61057 z"
           style="font-weight:300;font-family:Comfortaa;-inkscape-font-specification:'Comfortaa, Light'"
           id="path897" />
        <path
           d="m 258.18328,204.80927 q -0.33073,0 -0.55969,-0.20353 -0.20352,-0.22896 -0.20352,-0.55968 v -12.38943 q 0,-0.35616 0.20352,-0.55969 0.22896,-0.20352 0.55969,-0.20352 0.35616,0 0.55968,0.20352 0.20353,0.20353 0.20353,0.55969 v 12.38943 q 0,0.33072 -0.20353,0.55968 -0.20352,0.20353 -0.55968,0.20353 z m -0.0254,-16.84148 q -0.50881,0 -0.83953,-0.33073 -0.33073,-0.35616 -0.33073,-0.86497 0,-0.55968 0.35617,-0.86497 0.35616,-0.30528 0.83953,-0.30528 0.48336,0 0.81409,0.30528 0.35616,0.30529 0.35616,0.86497 0,0.50881 -0.35616,0.86497 -0.33073,0.33073 -0.83953,0.33073 z"
           style="font-weight:300;font-family:Comfortaa;-inkscape-font-specification:'Comfortaa, Light'"
           id="path899" />
        <path
           d="m 283.26736,190.89342 q 0.35617,0 0.55969,0.20352 0.20352,0.20353 0.20352,0.55969 v 12.38943 q 0,0.33072 -0.20352,0.55968 -0.20352,0.20353 -0.55969,0.20353 -0.33072,0 -0.55969,-0.20353 -0.20352,-0.22896 -0.20352,-0.55968 v -1.3229 q -0.86497,1.06849 -2.11154,1.67906 -1.24658,0.58513 -2.72211,0.58513 -1.85715,0 -3.33268,-0.76321 -1.4501,-0.76321 -2.28963,-2.21331 -0.81409,-1.47554 -0.81409,-3.51076 v -6.84344 q 0,-0.33072 0.20352,-0.53425 0.22896,-0.22896 0.55969,-0.22896 0.33072,0 0.53424,0.22896 0.22897,0.20353 0.22897,0.53425 v 6.84344 q 0,2.41683 1.34833,3.68884 1.37378,1.27202 3.56165,1.27202 1.34833,0 2.44226,-0.50881 1.11938,-0.53424 1.75538,-1.45009 0.63601,-0.94129 0.63601,-2.06067 v -7.78473 q 0,-0.35616 0.20352,-0.55969 0.22897,-0.20352 0.55969,-0.20352 z"
           style="font-weight:300;font-family:Comfortaa;-inkscape-font-specification:'Comfortaa, Light'"
           id="path901" />
        <path
           d="m 303.28884,190.71534 q 1.52642,0 2.72211,0.76321 1.1957,0.76321 1.85714,2.13698 0.66145,1.34834 0.66145,3.07828 v 7.35225 q 0,0.33072 -0.20352,0.55968 -0.20352,0.20353 -0.55969,0.20353 -0.33072,0 -0.55968,-0.20353 -0.20353,-0.22896 -0.20353,-0.55968 v -7.35225 q 0,-1.9589 -1.04305,-3.20548 -1.04305,-1.24657 -2.67123,-1.24657 -1.78082,0 -2.87475,1.17025 -1.09394,1.17025 -1.04306,3.10372 v 0.17808 7.35225 q 0,0.33072 -0.20352,0.55968 -0.20352,0.20353 -0.55969,0.20353 -0.33072,0 -0.55968,-0.20353 -0.20352,-0.22896 -0.20352,-0.55968 v -7.35225 q 0,-1.9589 -1.04306,-3.20548 -1.04305,-1.24657 -2.67123,-1.24657 -1.75538,0 -2.87475,1.11937 -1.11938,1.11937 -1.11938,2.90019 v 7.78474 q 0,0.33072 -0.20352,0.55968 -0.20352,0.20353 -0.55968,0.20353 -0.33073,0 -0.55969,-0.20353 -0.20352,-0.22896 -0.20352,-0.55968 v -12.38943 q 0,-0.35616 0.20352,-0.55969 0.22896,-0.20352 0.55969,-0.20352 0.35616,0 0.55968,0.20352 0.20352,0.20353 0.20352,0.55969 v 0.99217 q 0.71233,-0.91585 1.75539,-1.42466 1.04305,-0.5088 2.23874,-0.5088 1.47554,0 2.64579,0.73777 1.17026,0.71233 1.85715,1.98434 0.68688,-1.27201 1.90802,-1.98434 1.22113,-0.73777 2.74755,-0.73777 z"
           style="font-weight:300;font-family:Comfortaa;-inkscape-font-specification:'Comfortaa, Light'"
           id="path903" />
        <path
           d="m 319.21445,190.74078 q 1.98434,0 3.61252,0.94129 1.62818,0.91585 2.54403,2.54403 0.94129,1.62818 0.94129,3.63796 v 6.182 q 0,0.33072 -0.20352,0.55968 -0.20353,0.20353 -0.55969,0.20353 -0.33072,0 -0.55969,-0.20353 -0.20352,-0.22896 -0.20352,-0.55968 v -1.98435 q -0.83953,1.34834 -2.31507,2.13699 -1.45009,0.76321 -3.25635,0.76321 -2.00979,0 -3.63797,-0.91585 -1.62818,-0.94129 -2.56947,-2.56947 -0.91585,-1.62818 -0.91585,-3.61253 0,-2.00978 0.91585,-3.63796 0.94129,-1.62818 2.56947,-2.54403 1.62818,-0.94129 3.63797,-0.94129 z m 0,12.79647 q 1.57729,0 2.84931,-0.73777 1.27201,-0.73777 1.98434,-2.03522 0.73777,-1.29746 0.73777,-2.9002 0,-1.60274 -0.73777,-2.90019 -0.71233,-1.29746 -1.98434,-2.03522 -1.27202,-0.76321 -2.84931,-0.76321 -1.5773,0 -2.84932,0.76321 -1.27201,0.73776 -2.00978,2.03522 -0.73777,1.29745 -0.73777,2.90019 0,1.60274 0.73777,2.9002 0.73777,1.29745 2.00978,2.03522 1.27202,0.73777 2.84932,0.73777 z"
           style="font-weight:300;font-family:Comfortaa;-inkscape-font-specification:'Comfortaa, Light'"
           id="path905" />
        <path
           d="m 336.48839,190.71534 q 1.85714,0 3.30724,0.76321 1.47553,0.76321 2.28962,2.23874 0.83953,1.4501 0.83953,3.48533 v 6.84344 q 0,0.33072 -0.22896,0.55968 -0.20352,0.20353 -0.53425,0.20353 -0.33072,0 -0.55968,-0.20353 -0.20353,-0.22896 -0.20353,-0.55968 v -6.84344 q 0,-2.41683 -1.37377,-3.68885 -1.34834,-1.27201 -3.5362,-1.27201 -1.34834,0 -2.46771,0.53424 -1.09394,0.50881 -1.72994,1.4501 -0.63601,0.91585 -0.63601,2.03522 v 7.78474 q 0,0.33072 -0.20352,0.55968 -0.20353,0.20353 -0.55969,0.20353 -0.33072,0 -0.55969,-0.20353 -0.20352,-0.22896 -0.20352,-0.55968 v -12.38943 q 0,-0.35616 0.20352,-0.55969 0.22897,-0.20352 0.55969,-0.20352 0.35616,0 0.55969,0.20352 0.20352,0.20353 0.20352,0.55969 v 1.3229 q 0.86497,-1.0685 2.11154,-1.65362 1.24658,-0.61057 2.72212,-0.61057 z"
           style="font-weight:300;font-family:Comfortaa;-inkscape-font-specification:'Comfortaa, Light'"
           id="path907" />
        <path
           d="m 353.02454,190.76622 q 1.85714,0 3.30724,0.89041 1.47553,0.86497 2.28962,2.41683 0.81409,1.55186 0.81409,3.5362 0,0.33072 -0.20352,0.53425 -0.20352,0.17808 -0.53425,0.17808 h -10.65948 q 0.0763,1.50098 0.78865,2.69667 0.71232,1.17025 1.90802,1.8317 1.19569,0.66145 2.67123,0.66145 0.99217,0 1.98434,-0.33072 1.01762,-0.35617 1.60274,-0.91585 0.25441,-0.20353 0.53425,-0.20353 0.27984,0 0.45792,0.15264 0.27985,0.22897 0.27985,0.53425 0,0.2544 -0.22896,0.48337 -0.81409,0.73777 -2.13699,1.22113 -1.29746,0.48337 -2.49315,0.48337 -2.00978,0 -3.58708,-0.89041 -1.55186,-0.91585 -2.44227,-2.51859 -0.89041,-1.62818 -0.89041,-3.66341 0,-2.06066 0.81409,-3.6634 0.83953,-1.62818 2.31507,-2.51859 1.50097,-0.91585 3.409,-0.91585 z m 0,1.42466 q -1.98435,0 -3.35812,1.32289 -1.34834,1.3229 -1.60274,3.48532 h 9.89627 q -0.17808,-2.16242 -1.52641,-3.48532 -1.34834,-1.32289 -3.409,-1.32289 z"
           style="font-weight:300;font-family:Comfortaa;-inkscape-font-specification:'Comfortaa, Light'"
           id="path909" />
        <path
           d="m 152.32642,223.31375 q 1.93346,0 1.93346,0.83953 0,0.1272 -0.0254,0.20352 -0.0763,0.27984 -0.2544,0.40704 -0.15264,0.10177 -0.43249,0.10177 -0.22896,0 -0.61056,-0.0509 -0.35617,-0.0509 -0.61057,-0.0509 -1.27201,0 -2.26419,0.53425 -0.99217,0.53425 -1.55185,1.47554 -0.55969,0.94129 -0.55969,2.11154 v 7.73385 q 0,0.33073 -0.20352,0.55969 -0.20353,0.20352 -0.55969,0.20352 -0.33072,0 -0.55969,-0.20352 -0.20352,-0.22896 -0.20352,-0.55969 V 224.2296 q 0,-0.35617 0.20352,-0.55969 0.22897,-0.20352 0.55969,-0.20352 0.35616,0 0.55969,0.20352 0.20352,0.20352 0.20352,0.55969 v 1.5773 q 0.73777,-1.17026 1.88258,-1.83171 1.14481,-0.66144 2.49315,-0.66144 z"
           style="font-weight:300;font-family:Comfortaa;-inkscape-font-specification:'Comfortaa, Light'"
           id="path911" />
        <path
           d="m 161.81561,223.33919 q 1.85714,0 3.30724,0.89041 1.47554,0.86497 2.28963,2.41683 0.81409,1.55185 0.81409,3.5362 0,0.33072 -0.20353,0.53424 -0.20352,0.17809 -0.53424,0.17809 h -10.65949 q 0.0763,1.50097 0.78865,2.69667 0.71233,1.17025 1.90802,1.8317 1.1957,0.66145 2.67123,0.66145 0.99218,0 1.98435,-0.33073 1.01761,-0.35616 1.60274,-0.91585 0.2544,-0.20352 0.53424,-0.20352 0.27985,0 0.45793,0.15264 0.27984,0.22896 0.27984,0.53425 0,0.2544 -0.22896,0.48336 -0.81409,0.73777 -2.13699,1.22114 -1.29745,0.48336 -2.49315,0.48336 -2.00978,0 -3.58708,-0.89041 -1.55186,-0.91585 -2.44227,-2.51859 -0.89041,-1.62818 -0.89041,-3.6634 0,-2.06066 0.81409,-3.6634 0.83953,-1.62818 2.31507,-2.51859 1.50098,-0.91585 3.409,-0.91585 z m 0,1.42465 q -1.98434,0 -3.35812,1.3229 -1.34834,1.3229 -1.60274,3.48532 h 9.89628 q -0.17808,-2.16242 -1.52642,-3.48532 -1.34834,-1.3229 -3.409,-1.3229 z"
           style="font-weight:300;font-family:Comfortaa;-inkscape-font-specification:'Comfortaa, Light'"
           id="path913" />
        <path
           d="m 176.26568,237.53487 q -1.47553,0 -2.87475,-0.5088 -1.39922,-0.53425 -2.31507,-1.60274 -0.17808,-0.20352 -0.17808,-0.45793 0,-0.35616 0.33072,-0.58512 0.15264,-0.1272 0.43249,-0.1272 0.35616,0 0.58513,0.27984 1.27201,1.55186 4.09588,1.55186 2.00979,0 2.95108,-0.71233 0.96673,-0.71233 0.96673,-1.8317 0,-2.00979 -3.89237,-2.56947 -2.46771,-0.35617 -3.73972,-1.34834 -1.24658,-0.99217 -1.24658,-2.39139 0,-1.85714 1.34834,-2.87475 1.37378,-1.04305 3.56164,-1.04305 3.20548,0 4.8591,2.28962 0.15264,0.17809 0.15264,0.43249 0,0.35616 -0.40704,0.58513 -0.25441,0.10176 -0.38161,0.10176 -0.3816,0 -0.636,-0.33073 -1.29746,-1.65362 -3.63797,-1.65362 -1.55186,0 -2.46771,0.68689 -0.91585,0.66145 -0.91585,1.65362 0,1.01761 0.86497,1.62818 0.89041,0.61057 2.95108,0.91585 2.69667,0.38161 3.86692,1.4501 1.1957,1.04305 1.1957,2.54403 0,1.17025 -0.76321,2.06066 -0.73777,0.89041 -1.98435,1.37378 -1.24657,0.48336 -2.72211,0.48336 z"
           style="font-weight:300;font-family:Comfortaa;-inkscape-font-specification:'Comfortaa, Light'"
           id="path915" />
        <path
           d="m 192.26761,223.31375 q 2.00979,0 3.63797,0.94129 1.62818,0.91585 2.54403,2.54403 0.94129,1.62818 0.94129,3.63796 0,1.98434 -0.94129,3.61252 -0.91585,1.62818 -2.54403,2.56947 -1.62818,0.91585 -3.63797,0.91585 -1.80626,0 -3.2818,-0.7632 -1.45009,-0.78865 -2.28962,-2.13699 v 7.93737 q 0,0.35617 -0.20353,0.55969 -0.20352,0.20352 -0.55968,0.20352 -0.33073,0 -0.55969,-0.20352 -0.20352,-0.20352 -0.20352,-0.55969 v -12.23678 -0.0509 q 0.0254,-1.9589 0.96673,-3.56164 0.94129,-1.60274 2.54403,-2.49315 1.62818,-0.91585 3.58708,-0.91585 z m 0,12.79647 q 1.5773,0 2.84932,-0.73777 1.27201,-0.73777 2.00978,-2.03523 0.73777,-1.29745 0.73777,-2.90019 0,-1.60274 -0.73777,-2.90019 -0.73777,-1.29746 -2.00978,-2.03523 -1.27202,-0.76321 -2.84932,-0.76321 -1.5773,0 -2.84931,0.76321 -1.27202,0.73777 -2.00978,2.03523 -0.71233,1.29745 -0.71233,2.90019 0,1.60274 0.71233,2.90019 0.73776,1.29746 2.00978,2.03523 1.27201,0.73777 2.84931,0.73777 z"
           style="font-weight:300;font-family:Comfortaa;-inkscape-font-specification:'Comfortaa, Light'"
           id="path917" />
        <path
           d="m 209.56701,237.53487 q -2.00979,0 -3.63797,-0.91585 -1.62818,-0.94129 -2.56947,-2.56947 -0.91585,-1.62818 -0.91585,-3.61252 0,-2.00978 0.91585,-3.63796 0.94129,-1.62818 2.56947,-2.54403 1.62818,-0.94129 3.63797,-0.94129 1.98434,0 3.61252,0.94129 1.62818,0.91585 2.54403,2.54403 0.94129,1.62818 0.94129,3.63796 0,1.98434 -0.94129,3.61252 -0.91585,1.62818 -2.54403,2.56947 -1.62818,0.91585 -3.61252,0.91585 z m 0,-1.42465 q 1.5773,0 2.84931,-0.73777 1.27202,-0.73777 1.98434,-2.03523 0.73777,-1.29745 0.73777,-2.90019 0,-1.60274 -0.73777,-2.90019 -0.71232,-1.29746 -1.98434,-2.03523 -1.27201,-0.76321 -2.84931,-0.76321 -1.5773,0 -2.84932,0.76321 -1.27201,0.73777 -2.00978,2.03523 -0.73777,1.29745 -0.73777,2.90019 0,1.60274 0.73777,2.90019 0.73777,1.29746 2.00978,2.03523 1.27202,0.73777 2.84932,0.73777 z"
           style="font-weight:300;font-family:Comfortaa;-inkscape-font-specification:'Comfortaa, Light'"
           id="path919" />
        <path
           d="m 226.84094,223.28831 q 1.85714,0 3.30724,0.76321 1.47554,0.7632 2.28963,2.23874 0.83953,1.4501 0.83953,3.48532 v 6.84344 q 0,0.33073 -0.22897,0.55969 -0.20352,0.20352 -0.53424,0.20352 -0.33073,0 -0.55969,-0.20352 -0.20352,-0.22896 -0.20352,-0.55969 v -6.84344 q 0,-2.41683 -1.37378,-3.68884 -1.34833,-1.27202 -3.5362,-1.27202 -1.34834,0 -2.46771,0.53425 -1.09393,0.50881 -1.72994,1.4501 -0.63601,0.91585 -0.63601,2.03522 v 7.78473 q 0,0.33073 -0.20352,0.55969 -0.20352,0.20352 -0.55969,0.20352 -0.33072,0 -0.55968,-0.20352 -0.20352,-0.22896 -0.20352,-0.55969 V 224.2296 q 0,-0.35617 0.20352,-0.55969 0.22896,-0.20352 0.55968,-0.20352 0.35617,0 0.55969,0.20352 0.20352,0.20352 0.20352,0.55969 v 1.32289 q 0.86497,-1.06849 2.11155,-1.65362 1.24657,-0.61056 2.72211,-0.61056 z"
           style="font-weight:300;font-family:Comfortaa;-inkscape-font-specification:'Comfortaa, Light'"
           id="path921" />
        <path
           d="m 242.33405,237.53487 q -1.47554,0 -2.87476,-0.5088 -1.39921,-0.53425 -2.31507,-1.60274 -0.17808,-0.20352 -0.17808,-0.45793 0,-0.35616 0.33073,-0.58512 0.15264,-0.1272 0.43248,-0.1272 0.35617,0 0.58513,0.27984 1.27201,1.55186 4.09589,1.55186 2.00978,0 2.95107,-0.71233 0.96673,-0.71233 0.96673,-1.8317 0,-2.00979 -3.89236,-2.56947 -2.46771,-0.35617 -3.73973,-1.34834 -1.24657,-0.99217 -1.24657,-2.39139 0,-1.85714 1.34833,-2.87475 1.37378,-1.04305 3.56165,-1.04305 3.20547,0 4.85909,2.28962 0.15265,0.17809 0.15265,0.43249 0,0.35616 -0.40705,0.58513 -0.2544,0.10176 -0.3816,0.10176 -0.38161,0 -0.63601,-0.33073 -1.29746,-1.65362 -3.63796,-1.65362 -1.55186,0 -2.46771,0.68689 -0.91585,0.66145 -0.91585,1.65362 0,1.01761 0.86497,1.62818 0.89041,0.61057 2.95107,0.91585 2.69667,0.38161 3.86693,1.4501 1.19569,1.04305 1.19569,2.54403 0,1.17025 -0.76321,2.06066 -0.73777,0.89041 -1.98434,1.37378 -1.24658,0.48336 -2.72211,0.48336 z"
           style="font-weight:300;font-family:Comfortaa;-inkscape-font-specification:'Comfortaa, Light'"
           id="path923" />
        <path
           d="m 257.59821,223.31375 q 1.98434,0 3.61252,0.94129 1.62818,0.91585 2.54403,2.54403 0.94129,1.62818 0.94129,3.63796 v 6.18199 q 0,0.33073 -0.20352,0.55969 -0.20352,0.20352 -0.55968,0.20352 -0.33073,0 -0.55969,-0.20352 -0.20352,-0.22896 -0.20352,-0.55969 v -1.98434 q -0.83953,1.34834 -2.31507,2.13699 -1.4501,0.7632 -3.25636,0.7632 -2.00978,0 -3.63796,-0.91585 -1.62818,-0.94129 -2.56947,-2.56947 -0.91585,-1.62818 -0.91585,-3.61252 0,-2.00978 0.91585,-3.63796 0.94129,-1.62818 2.56947,-2.54403 1.62818,-0.94129 3.63796,-0.94129 z m 0,12.79647 q 1.5773,0 2.84931,-0.73777 1.27202,-0.73777 1.98435,-2.03523 0.73777,-1.29745 0.73777,-2.90019 0,-1.60274 -0.73777,-2.90019 -0.71233,-1.29746 -1.98435,-2.03523 -1.27201,-0.76321 -2.84931,-0.76321 -1.5773,0 -2.84931,0.76321 -1.27202,0.73777 -2.00979,2.03523 -0.73776,1.29745 -0.73776,2.90019 0,1.60274 0.73776,2.90019 0.73777,1.29746 2.00979,2.03523 1.27201,0.73777 2.84931,0.73777 z"
           style="font-weight:300;font-family:Comfortaa;-inkscape-font-specification:'Comfortaa, Light'"
           id="path925" />
        <path
           d="m 275.60991,223.31375 q 2.00979,0 3.63797,0.94129 1.62818,0.91585 2.54403,2.54403 0.94129,1.62818 0.94129,3.61252 0,2.00978 -0.94129,3.63796 -0.91585,1.62818 -2.54403,2.56947 -1.62818,0.91585 -3.63797,0.91585 -1.9589,0 -3.58708,-0.89041 -1.60274,-0.91585 -2.54403,-2.51859 -0.94129,-1.60273 -0.96673,-3.56164 v -0.0509 -12.23678 q 0,-0.35617 0.20352,-0.55969 0.22896,-0.20352 0.55969,-0.20352 0.35616,0 0.55969,0.20352 0.20352,0.20352 0.20352,0.55969 v 7.93737 q 0.83953,-1.34833 2.28962,-2.11154 1.47554,-0.78865 3.2818,-0.78865 z m 0,12.79647 q 1.5773,0 2.84932,-0.73777 1.27201,-0.76321 2.00978,-2.06067 0.73777,-1.29745 0.73777,-2.90019 0,-1.60274 -0.73777,-2.90019 -0.73777,-1.29746 -2.00978,-2.03523 -1.27202,-0.73777 -2.84932,-0.73777 -1.5773,0 -2.84931,0.73777 -1.27202,0.73777 -2.00978,2.03523 -0.71233,1.29745 -0.71233,2.90019 0,1.60274 0.71233,2.90019 0.73776,1.29746 2.00978,2.06067 1.27201,0.73777 2.84931,0.73777 z"
           style="font-weight:300;font-family:Comfortaa;-inkscape-font-specification:'Comfortaa, Light'"
           id="path927" />
        <path
           d="m 287.82126,237.38223 q -0.33073,0 -0.55969,-0.20352 -0.20352,-0.22896 -0.20352,-0.55969 V 224.2296 q 0,-0.35617 0.20352,-0.55969 0.22896,-0.20352 0.55969,-0.20352 0.35616,0 0.55968,0.20352 0.20352,0.20352 0.20352,0.55969 v 12.38942 q 0,0.33073 -0.20352,0.55969 -0.20352,0.20352 -0.55968,0.20352 z m -0.0254,-16.84148 q -0.5088,0 -0.83953,-0.33072 -0.33072,-0.35616 -0.33072,-0.86497 0,-0.55969 0.35617,-0.86497 0.35616,-0.30528 0.83953,-0.30528 0.48336,0 0.81408,0.30528 0.35617,0.30528 0.35617,0.86497 0,0.50881 -0.35617,0.86497 -0.33072,0.33072 -0.83953,0.33072 z"
           style="font-weight:300;font-family:Comfortaa;-inkscape-font-specification:'Comfortaa, Light'"
           id="path929" />
        <path
           d="m 296.47092,237.38223 q -1.4501,0 -2.39139,-1.17025 -0.91585,-1.17025 -0.91585,-3.0274 v -14.90801 q 0,-0.35617 0.20352,-0.55969 0.22896,-0.20352 0.55969,-0.20352 0.35616,0 0.55968,0.20352 0.20353,0.20352 0.20353,0.55969 v 14.90801 q 0,1.17026 0.48336,1.93347 0.50881,0.73776 1.29746,0.73776 h 0.63601 q 0.27984,0 0.45792,0.20353 0.17808,0.20352 0.17808,0.55968 0,0.33073 -0.20352,0.55969 -0.20352,0.20352 -0.55969,0.20352 z"
           style="font-weight:300;font-family:Comfortaa;-inkscape-font-specification:'Comfortaa, Light'"
           id="path931" />
        <path
           d="m 301.81335,237.38223 q -0.33072,0 -0.55969,-0.20352 -0.20352,-0.22896 -0.20352,-0.55969 V 224.2296 q 0,-0.35617 0.20352,-0.55969 0.22897,-0.20352 0.55969,-0.20352 0.35617,0 0.55969,0.20352 0.20352,0.20352 0.20352,0.55969 v 12.38942 q 0,0.33073 -0.20352,0.55969 -0.20352,0.20352 -0.55969,0.20352 z m -0.0254,-16.84148 q -0.50881,0 -0.83953,-0.33072 -0.33072,-0.35616 -0.33072,-0.86497 0,-0.55969 0.35616,-0.86497 0.35617,-0.30528 0.83953,-0.30528 0.48337,0 0.81409,0.30528 0.35616,0.30528 0.35616,0.86497 0,0.50881 -0.35616,0.86497 -0.33072,0.33072 -0.83953,0.33072 z"
           style="font-weight:300;font-family:Comfortaa;-inkscape-font-specification:'Comfortaa, Light'"
           id="path933" />
        <path
           d="m 152.19922,255.91215 q 1.85714,0 3.30724,0.89042 1.47554,0.86497 2.28962,2.41682 0.81409,1.55186 0.81409,3.53621 0,0.33072 -0.20352,0.53424 -0.20352,0.17808 -0.53424,0.17808 h -10.65949 q 0.0763,1.50098 0.78865,2.69668 0.71233,1.17025 1.90802,1.8317 1.1957,0.66144 2.67123,0.66144 0.99217,0 1.98435,-0.33072 1.01761,-0.35616 1.60274,-0.91585 0.2544,-0.20352 0.53424,-0.20352 0.27985,0 0.45793,0.15264 0.27984,0.22896 0.27984,0.53425 0,0.2544 -0.22896,0.48336 -0.81409,0.73777 -2.13699,1.22114 -1.29745,0.48336 -2.49315,0.48336 -2.00978,0 -3.58708,-0.89041 -1.55186,-0.91585 -2.44227,-2.51859 -0.89041,-1.62818 -0.89041,-3.6634 0,-2.06067 0.81409,-3.6634 0.83953,-1.62818 2.31507,-2.51859 1.50098,-0.91586 3.409,-0.91586 z m 0,1.42466 q -1.98434,0 -3.35812,1.3229 -1.34834,1.32289 -1.60274,3.48532 h 9.89628 q -0.17809,-2.16243 -1.52642,-3.48532 -1.34834,-1.3229 -3.409,-1.3229 z"
           style="font-weight:300;font-family:Comfortaa;-inkscape-font-specification:'Comfortaa, Light'"
           id="path935" />
        <path
           d="m 174.10328,270.10784 q -1.47554,0 -2.87475,-0.5088 -1.39922,-0.53425 -2.31507,-1.60274 -0.17808,-0.20353 -0.17808,-0.45793 0,-0.35616 0.33072,-0.58513 0.15264,-0.1272 0.43249,-0.1272 0.35616,0 0.58512,0.27985 1.27202,1.55185 4.09589,1.55185 2.00978,0 2.95108,-0.71232 0.96673,-0.71233 0.96673,-1.83171 0,-2.00978 -3.89237,-2.56947 -2.46771,-0.35616 -3.73972,-1.34833 -1.24658,-0.99217 -1.24658,-2.39139 0,-1.85714 1.34834,-2.87475 1.37377,-1.04306 3.56164,-1.04306 3.20548,0 4.8591,2.28963 0.15264,0.17808 0.15264,0.43249 0,0.35616 -0.40705,0.58512 -0.2544,0.10176 -0.3816,0.10176 -0.38161,0 -0.63601,-0.33072 -1.29745,-1.65362 -3.63796,-1.65362 -1.55186,0 -2.46771,0.68689 -0.91585,0.66145 -0.91585,1.65362 0,1.01761 0.86497,1.62818 0.89041,0.61057 2.95107,0.91585 2.69668,0.3816 3.86693,1.4501 1.19569,1.04305 1.19569,2.54403 0,1.17025 -0.76321,2.06066 -0.73776,0.89041 -1.98434,1.37378 -1.24657,0.48336 -2.72211,0.48336 z"
           style="font-weight:300;font-family:Comfortaa;-inkscape-font-specification:'Comfortaa, Light'"
           id="path937" />
        <path
           d="m 184.27938,269.9552 q -0.33072,0 -0.55969,-0.20352 -0.20352,-0.22896 -0.20352,-0.55969 v -12.38942 q 0,-0.35617 0.20352,-0.55969 0.22897,-0.20352 0.55969,-0.20352 0.35617,0 0.55969,0.20352 0.20352,0.20352 0.20352,0.55969 v 12.38942 q 0,0.33073 -0.20352,0.55969 -0.20352,0.20352 -0.55969,0.20352 z m -0.0254,-16.84148 q -0.50881,0 -0.83953,-0.33072 -0.33072,-0.35617 -0.33072,-0.86497 0,-0.55969 0.35616,-0.86497 0.35617,-0.30529 0.83953,-0.30529 0.48337,0 0.81409,0.30529 0.35616,0.30528 0.35616,0.86497 0,0.5088 -0.35616,0.86497 -0.33072,0.33072 -0.83953,0.33072 z"
           style="font-weight:300;font-family:Comfortaa;-inkscape-font-specification:'Comfortaa, Light'"
           id="path939" />
        <path
           d="m 196.28717,270.10784 q -1.9589,0 -3.5362,-0.91585 -1.5773,-0.94129 -2.49315,-2.56947 -0.89041,-1.62818 -0.89041,-3.61252 0,-2.00979 0.83953,-3.61252 0.83953,-1.62818 2.34051,-2.54403 1.50098,-0.9413 3.35812,-0.9413 1.62818,0 2.97651,0.63601 1.34834,0.63601 2.34051,1.88258 0.17808,0.25441 0.17808,0.43249 0,0.35616 -0.35616,0.55969 -0.17808,0.15264 -0.40705,0.15264 -0.35616,0 -0.58512,-0.30529 -1.62818,-1.93346 -4.14677,-1.93346 -1.47554,0 -2.62035,0.73777 -1.14482,0.71233 -1.78082,2.00978 -0.61057,1.29746 -0.61057,2.92564 0,1.60274 0.68689,2.90019 0.68688,1.29746 1.90802,2.03523 1.22113,0.73777 2.79843,0.73777 2.23875,0 3.58708,-1.24658 0.22897,-0.22896 0.53425,-0.22896 0.27984,0 0.45793,0.17808 0.2544,0.22896 0.2544,0.55969 0,0.27984 -0.20352,0.45792 -0.89041,0.81409 -2.08611,1.27202 -1.19569,0.43248 -2.54403,0.43248 z"
           style="font-weight:300;font-family:Comfortaa;-inkscape-font-specification:'Comfortaa, Light'"
           id="path941" />
        <path
           d="m 216.99554,256.03936 q 0.35616,0 0.55968,0.20352 0.20353,0.20352 0.20353,0.55969 v 12.38942 q 0,0.33073 -0.20353,0.55969 -0.20352,0.20352 -0.55968,0.20352 -0.33073,0 -0.55969,-0.20352 -0.20352,-0.22896 -0.20352,-0.55969 v -1.32289 q -0.86497,1.06849 -2.11155,1.67906 -1.24657,0.58512 -2.72211,0.58512 -1.85714,0 -3.33268,-0.76321 -1.45009,-0.76321 -2.28962,-2.2133 -0.81409,-1.47554 -0.81409,-3.51076 v -6.84344 q 0,-0.33073 0.20352,-0.53425 0.22896,-0.22896 0.55968,-0.22896 0.33073,0 0.53425,0.22896 0.22896,0.20352 0.22896,0.53425 v 6.84344 q 0,2.41682 1.34834,3.68884 1.37378,1.27201 3.56164,1.27201 1.34834,0 2.44227,-0.5088 1.11937,-0.53425 1.75538,-1.4501 0.63601,-0.94129 0.63601,-2.06066 v -7.78473 q 0,-0.35617 0.20352,-0.55969 0.22896,-0.20352 0.55969,-0.20352 z"
           style="font-weight:300;font-family:Comfortaa;-inkscape-font-specification:'Comfortaa, Light'"
           id="path943" />
        <path
           d="m 228.24011,255.88671 q 1.93346,0 1.93346,0.83953 0,0.12721 -0.0254,0.20353 -0.0763,0.27984 -0.2544,0.40704 -0.15264,0.10176 -0.43249,0.10176 -0.22896,0 -0.61056,-0.0509 -0.35617,-0.0509 -0.61057,-0.0509 -1.27202,0 -2.26419,0.53425 -0.99217,0.53424 -1.55186,1.47554 -0.55968,0.94129 -0.55968,2.11154 v 7.73385 q 0,0.33073 -0.20353,0.55969 -0.20352,0.20352 -0.55968,0.20352 -0.33073,0 -0.55969,-0.20352 -0.20352,-0.22896 -0.20352,-0.55969 v -12.38942 q 0,-0.35617 0.20352,-0.55969 0.22896,-0.20352 0.55969,-0.20352 0.35616,0 0.55968,0.20352 0.20353,0.20352 0.20353,0.55969 v 1.57729 q 0.73777,-1.17025 1.88258,-1.8317 1.14481,-0.66145 2.49315,-0.66145 z"
           style="font-weight:300;font-family:Comfortaa;-inkscape-font-specification:'Comfortaa, Light'"
           id="path945" />
        <path
           d="m 237.7293,255.91215 q 1.85714,0 3.30724,0.89042 1.47554,0.86497 2.28963,2.41682 0.81409,1.55186 0.81409,3.53621 0,0.33072 -0.20353,0.53424 -0.20352,0.17808 -0.53424,0.17808 H 232.743 q 0.0763,1.50098 0.78865,2.69668 0.71233,1.17025 1.90802,1.8317 1.1957,0.66144 2.67124,0.66144 0.99217,0 1.98434,-0.33072 1.01761,-0.35616 1.60274,-0.91585 0.2544,-0.20352 0.53424,-0.20352 0.27985,0 0.45793,0.15264 0.27984,0.22896 0.27984,0.53425 0,0.2544 -0.22896,0.48336 -0.81409,0.73777 -2.13698,1.22114 -1.29746,0.48336 -2.49315,0.48336 -2.00979,0 -3.58709,-0.89041 -1.55185,-0.91585 -2.44227,-2.51859 -0.89041,-1.62818 -0.89041,-3.6634 0,-2.06067 0.81409,-3.6634 0.83953,-1.62818 2.31507,-2.51859 1.50098,-0.91586 3.409,-0.91586 z m 0,1.42466 q -1.98434,0 -3.35812,1.3229 -1.34833,1.32289 -1.60274,3.48532 h 9.89628 q -0.17808,-2.16243 -1.52642,-3.48532 -1.34833,-1.3229 -3.409,-1.3229 z"
           style="font-weight:300;font-family:Comfortaa;-inkscape-font-specification:'Comfortaa, Light'"
           id="path947" />
      </g>
    </g>
  </g>
</svg>
