<svg
  id={id}
  xmlns="http://www.w3.org/2000/svg"
  width={width}
  height={height}
  version="1.1"
  viewBox="0 0 162 40"
>
  <g display="inline">
    <g transform="translate(6.678 .42) scale(.19143)">
      <g
        fillOpacity="1"
        transform="matrix(1.50747 0 0 1.50747 32.86 -31.381)"
      >
        <path
          style={{
            lineHeight: "1.25",
            InkscapeFontSpecification: "Comfortaa, Light",
            WebkitTextAlign: "center",
            textAlign: "center",
          }}
          fill="#bababa"
          stroke="none"
          strokeDasharray="none"
          strokeMiterlimit="4"
          strokeOpacity="1"
          strokeWidth="0.256"
          d="M35.496 135.566c-8.197 0-15.808-2.107-22.834-6.323C5.637 124.95.055 119.213-4.082 112.03c-4.137-7.26-6.206-15.066-6.206-23.418 0-8.353 2.03-16.12 6.089-23.302 4.137-7.182 9.68-12.88 16.627-17.096 7.026-4.293 14.715-6.44 23.068-6.44 10.928 0 20.57 3.474 28.922 10.421.702.547 1.054 1.328 1.054 2.342 0 .937-.313 1.796-.937 2.576-.625.703-1.483 1.054-2.576 1.054-.859 0-1.835-.468-2.927-1.405-5.933-5.308-13.779-7.962-23.536-7.962-6.87 0-13.31 1.834-19.32 5.503-5.934 3.67-10.656 8.587-14.17 14.754-3.512 6.089-5.268 12.607-5.268 19.555 0 7.181 1.717 13.856 5.152 20.023 3.512 6.089 8.235 10.929 14.168 14.52 6.01 3.59 12.49 5.386 19.438 5.386 9.211 0 17.29-2.85 24.238-8.548.547-.39 1.132-.586 1.756-.586.937 0 1.757.352 2.46 1.054.78.703 1.17 1.561 1.17 2.576 0 1.015-.273 1.835-.82 2.46-6.713 6.713-16.314 10.07-28.804 10.07z"
          fontFamily="Comfortaa"
          fontSize="40"
          fontWeight="300"
          textAnchor="middle"
        ></path>
        <g
          fill="#a3a3a3"
          transform="matrix(.81921 0 0 .81921 10.115 17.056)"
        >
          <g
            stroke="none"
            strokeDasharray="none"
            strokeMiterlimit="4"
            strokeOpacity="1"
            strokeWidth="0.127"
            fontFamily="Comfortaa"
            fontSize="40"
            fontWeight="300"
            textAnchor="middle"
            transform="matrix(1.0021 0 0 1.0021 22.977 7.518)"
          >
            <path
              style={{
                lineHeight: "1.25",
                InkscapeFontSpecification: "Comfortaa, Light",
                WebkitTextAlign: "center",
                textAlign: "center",
              }}
              d="M69.569 87.415c-2.562 0-4.88-.584-6.956-1.751a13.227 13.227 0 01-4.912-4.913c-1.168-2.075-1.752-4.377-1.752-6.907 0-2.561.584-4.88 1.752-6.955a12.868 12.868 0 014.912-4.864c2.076-1.2 4.394-1.8 6.956-1.8 2.529 0 4.831.6 6.907 1.8a12.524 12.524 0 014.864 4.864c1.2 2.075 1.8 4.394 1.8 6.955 0 2.53-.6 4.832-1.8 6.907a12.868 12.868 0 01-4.864 4.913c-2.076 1.167-4.378 1.751-6.907 1.751zm0-2.724c2.01 0 3.826-.47 5.447-1.41a9.948 9.948 0 003.794-3.892c.94-1.653 1.41-3.502 1.41-5.545 0-2.042-.47-3.89-1.41-5.544a9.948 9.948 0 00-3.794-3.892c-1.62-.972-3.437-1.459-5.447-1.459-2.01 0-3.827.487-5.448 1.46a10.297 10.297 0 00-3.843 3.89c-.94 1.654-1.41 3.503-1.41 5.545 0 2.043.47 3.892 1.41 5.545a10.297 10.297 0 003.843 3.892c1.621.94 3.437 1.41 5.448 1.41z"
            ></path>
            <path
              style={{
                lineHeight: "1.25",
                InkscapeFontSpecification: "Comfortaa, Light",
                WebkitTextAlign: "center",
                textAlign: "center",
              }}
              d="M102.595 60.177c2.367 0 4.475.486 6.323 1.459 1.881.973 3.34 2.4 4.378 4.28 1.07 1.848 1.605 4.07 1.605 6.664v13.084c0 .422-.146.778-.438 1.07-.259.26-.6.39-1.021.39-.422 0-.778-.13-1.07-.39a1.553 1.553 0 01-.39-1.07V72.58c0-3.08-.875-5.432-2.626-7.053-1.718-1.621-3.972-2.432-6.76-2.432-1.72 0-3.292.34-4.719 1.021-1.394.649-2.497 1.573-3.307 2.773a6.669 6.669 0 00-1.216 3.891v14.884c0 .422-.13.778-.39 1.07-.259.26-.616.39-1.07.39-.421 0-.778-.13-1.07-.39a1.553 1.553 0 01-.389-1.07V61.976c0-.454.13-.81.39-1.07.291-.26.648-.389 1.07-.389.453 0 .81.13 1.07.39.259.259.389.615.389 1.07v2.529a11.313 11.313 0 014.037-3.162c1.589-.778 3.324-1.167 5.204-1.167z"
            ></path>
            <path
              style={{
                lineHeight: "1.25",
                InkscapeFontSpecification: "Comfortaa, Light",
                WebkitTextAlign: "center",
                textAlign: "center",
              }}
              d="M132.217 87.415c-1.88 0-3.713-.324-5.496-.973-1.784-.68-3.26-1.702-4.427-3.064a1.295 1.295 0 01-.34-.876c0-.454.21-.826.632-1.118.195-.162.47-.244.827-.244.454 0 .827.179 1.119.536 1.621 1.978 4.232 2.967 7.831 2.967 2.562 0 4.442-.454 5.642-1.362 1.232-.908 1.849-2.076 1.849-3.502 0-2.562-2.481-4.2-7.442-4.913-3.146-.454-5.53-1.313-7.15-2.578-1.59-1.265-2.384-2.789-2.384-4.572 0-2.367.86-4.2 2.578-5.496 1.751-1.33 4.021-1.995 6.81-1.995 4.085 0 7.182 1.46 9.29 4.378.194.227.292.502.292.827 0 .454-.26.827-.778 1.118-.325.13-.568.195-.73.195-.486 0-.892-.21-1.216-.632-1.654-2.108-3.972-3.162-6.956-3.162-1.978 0-3.55.438-4.718 1.313-1.167.843-1.75 1.897-1.75 3.162 0 1.297.55 2.335 1.653 3.113 1.135.778 3.016 1.362 5.642 1.751 3.437.486 5.902 1.41 7.394 2.772 1.524 1.33 2.286 2.951 2.286 4.864 0 1.492-.487 2.805-1.46 3.94-.94 1.135-2.205 2.01-3.793 2.627-1.59.616-3.324.924-5.205.924z"
            ></path>
            <path
              style={{
                lineHeight: "1.25",
                InkscapeFontSpecification: "Comfortaa, Light",
                WebkitTextAlign: "center",
                textAlign: "center",
              }}
              d="M160.282 60.274c2.367 0 4.475.567 6.324 1.702 1.88 1.103 3.34 2.643 4.377 4.621 1.038 1.978 1.557 4.232 1.557 6.761 0 .422-.13.762-.39 1.022-.259.227-.6.34-1.021.34h-20.38c.097 1.913.6 3.632 1.508 5.156a9.697 9.697 0 003.648 3.502c1.524.843 3.226 1.265 5.107 1.265 1.265 0 2.53-.211 3.794-.633 1.297-.454 2.318-1.037 3.064-1.75.324-.26.665-.39 1.022-.39.356 0 .648.097.875.292.357.292.535.632.535 1.021 0 .325-.146.633-.438.925-1.037.94-2.4 1.718-4.085 2.334-1.654.616-3.243.924-4.767.924-2.562 0-4.848-.567-6.858-1.702-1.978-1.167-3.535-2.772-4.67-4.815-1.135-2.076-1.702-4.41-1.702-7.005 0-2.626.519-4.96 1.556-7.004 1.07-2.075 2.546-3.68 4.427-4.815 1.913-1.167 4.085-1.751 6.517-1.751zm0 2.724c-2.529 0-4.67.843-6.42 2.529-1.719 1.686-2.74 3.907-3.065 6.664h18.921c-.227-2.757-1.2-4.978-2.918-6.664-1.719-1.686-3.891-2.53-6.518-2.53z"
            ></path>
            <path
              style={{
                lineHeight: "1.25",
                InkscapeFontSpecification: "Comfortaa, Light",
                WebkitTextAlign: "center",
                textAlign: "center",
              }}
              d="M191.023 60.177c2.367 0 4.475.486 6.323 1.459 1.88.973 3.34 2.4 4.378 4.28 1.07 1.848 1.605 4.07 1.605 6.664v13.084c0 .422-.146.778-.438 1.07-.26.26-.6.39-1.021.39-.422 0-.779-.13-1.07-.39a1.553 1.553 0 01-.39-1.07V72.58c0-3.08-.875-5.432-2.626-7.053-1.719-1.621-3.973-2.432-6.761-2.432-1.719 0-3.292.34-4.718 1.021-1.395.649-2.497 1.573-3.308 2.773a6.669 6.669 0 00-1.216 3.891v14.884c0 .422-.13.778-.389 1.07-.26.26-.616.39-1.07.39-.422 0-.778-.13-1.07-.39a1.553 1.553 0 01-.39-1.07V61.976c0-.454.13-.81.39-1.07.292-.26.648-.389 1.07-.389.454 0 .81.13 1.07.39.26.259.39.615.39 1.07v2.529a11.313 11.313 0 014.036-3.162c1.59-.778 3.324-1.167 5.205-1.167z"
            ></path>
            <path
              style={{
                lineHeight: "1.25",
                InkscapeFontSpecification: "Comfortaa, Light",
                WebkitTextAlign: "center",
                textAlign: "center",
              }}
              d="M220.645 87.415c-1.881 0-3.713-.324-5.497-.973-1.783-.68-3.259-1.702-4.426-3.064a1.295 1.295 0 01-.34-.876c0-.454.21-.826.632-1.118.194-.162.47-.244.827-.244.454 0 .827.179 1.118.536 1.622 1.978 4.232 2.967 7.831 2.967 2.562 0 4.443-.454 5.643-1.362 1.232-.908 1.848-2.076 1.848-3.502 0-2.562-2.48-4.2-7.442-4.913-3.145-.454-5.529-1.313-7.15-2.578-1.589-1.265-2.383-2.789-2.383-4.572 0-2.367.859-4.2 2.578-5.496 1.75-1.33 4.02-1.995 6.81-1.995 4.085 0 7.182 1.46 9.29 4.378.194.227.291.502.291.827 0 .454-.26.827-.778 1.118-.324.13-.567.195-.73.195-.486 0-.891-.21-1.216-.632-1.653-2.108-3.972-3.162-6.955-3.162-1.978 0-3.55.438-4.718 1.313-1.168.843-1.751 1.897-1.751 3.162 0 1.297.551 2.335 1.653 3.113 1.135.778 3.016 1.362 5.643 1.751 3.437.486 5.901 1.41 7.393 2.772 1.524 1.33 2.286 2.951 2.286 4.864 0 1.492-.486 2.805-1.46 3.94-.94 1.135-2.204 2.01-3.793 2.627-1.589.616-3.324.924-5.204.924z"
            ></path>
            <path
              style={{
                lineHeight: "1.25",
                InkscapeFontSpecification: "Comfortaa, Light",
                WebkitTextAlign: "center",
                textAlign: "center",
              }}
              d="M260.189 60.517c.454 0 .81.13 1.07.39.26.259.389.615.389 1.07v23.687c0 .422-.13.778-.39 1.07-.258.26-.615.39-1.07.39-.42 0-.777-.13-1.07-.39a1.553 1.553 0 01-.388-1.07v-2.53a11.817 11.817 0 01-4.037 3.211c-1.59.746-3.324 1.119-5.205 1.119-2.367 0-4.491-.487-6.372-1.46-1.848-.972-3.307-2.383-4.377-4.231-1.038-1.88-1.557-4.118-1.557-6.713V61.976c0-.421.13-.762.39-1.021a1.456 1.456 0 011.07-.438c.42 0 .761.146 1.02.438.293.26.438.6.438 1.021V75.06c0 3.081.86 5.432 2.578 7.053 1.751 1.622 4.021 2.432 6.81 2.432 1.719 0 3.275-.324 4.67-.973 1.426-.68 2.545-1.605 3.356-2.772a6.892 6.892 0 001.216-3.94V61.976c0-.454.13-.81.389-1.07.292-.26.648-.389 1.07-.389z"
            ></path>
            <path
              style={{
                lineHeight: "1.25",
                InkscapeFontSpecification: "Comfortaa, Light",
                WebkitTextAlign: "center",
                textAlign: "center",
              }}
              d="M279.45 87.415c-1.88 0-3.713-.324-5.496-.973-1.784-.68-3.259-1.702-4.426-3.064a1.295 1.295 0 01-.34-.876c0-.454.21-.826.632-1.118.194-.162.47-.244.826-.244.454 0 .827.179 1.12.536 1.62 1.978 4.23 2.967 7.83 2.967 2.562 0 4.443-.454 5.642-1.362 1.233-.908 1.849-2.076 1.849-3.502 0-2.562-2.48-4.2-7.442-4.913-3.146-.454-5.529-1.313-7.15-2.578-1.59-1.265-2.384-2.789-2.384-4.572 0-2.367.86-4.2 2.578-5.496 1.751-1.33 4.021-1.995 6.81-1.995 4.086 0 7.182 1.46 9.29 4.378.195.227.292.502.292.827 0 .454-.26.827-.778 1.118-.325.13-.568.195-.73.195-.486 0-.892-.21-1.216-.632-1.654-2.108-3.972-3.162-6.955-3.162-1.978 0-3.551.438-4.718 1.313-1.168.843-1.752 1.897-1.752 3.162 0 1.297.552 2.335 1.654 3.113 1.135.778 3.016 1.362 5.642 1.751 3.438.486 5.902 1.41 7.394 2.772 1.524 1.33 2.285 2.951 2.285 4.864 0 1.492-.486 2.805-1.458 3.94-.94 1.135-2.205 2.01-3.794 2.627-1.59.616-3.324.924-5.205.924z"
            ></path>
          </g>
          <g
            strokeWidth="0.426"
            style={{ lineHeight: "1.25" }}
            display="inline"
            fontSize="17.055"
            transform="matrix(1.2706 0 0 .93365 7.748 22.47)"
          >
            <path
              strokeWidth="0.491"
              d="M56.073 91.719h4.488v5.444h-4.488z"
            ></path>
            <path
              strokeWidth="0.395"
              d="M63.218 91.718h1.757v5.445h-1.757z"
            ></path>
            <path
              strokeWidth="0.491"
              d="M67.648 91.719h4.489v5.444h-4.489z"
            ></path>
            <path
              strokeWidth="0.395"
              d="M74.794 91.718h1.757v5.445h-1.757z"
            ></path>
            <path
              strokeWidth="0.491"
              d="M84.645 91.719h4.49v5.444h-4.49z"
            ></path>
            <path
              strokeWidth="0.491"
              d="M90.8 91.719h4.488v5.444H90.8z"
            ></path>
            <path
              strokeWidth="0.491"
              d="M96.954 91.719h4.489v5.444h-4.489z"
            ></path>
            <path
              strokeWidth="0.491"
              d="M108.53 91.719h4.488v5.444h-4.488z"
            ></path>
            <path
              strokeWidth="0.395"
              d="M115.675 91.718h1.757v5.445h-1.757z"
            ></path>
            <path
              strokeWidth="0.395"
              d="M126.518 91.718h1.757v5.445h-1.757z"
            ></path>
            <path
              strokeWidth="0.395"
              d="M131.94 91.718h1.756v5.445h-1.757z"
            ></path>
            <path
              strokeWidth="0.395"
              d="M137.36 91.718h1.758v5.445h-1.757z"
            ></path>
            <path
              strokeWidth="0.395"
              d="M148.203 91.718h1.758v5.445h-1.758z"
            ></path>
            <path
              strokeWidth="0.491"
              d="M158.055 91.719h4.489v5.444h-4.489z"
            ></path>
            <path
              strokeWidth="0.395"
              d="M165.2 91.718h1.758v5.445H165.2z"
            ></path>
            <path
              strokeWidth="0.395"
              d="M176.043 91.718h1.758v5.445h-1.758z"
            ></path>
            <path
              strokeWidth="0.395"
              d="M181.465 91.718h1.757v5.445h-1.757z"
            ></path>
            <path
              strokeWidth="0.395"
              d="M186.886 91.718h1.757v5.445h-1.757z"
            ></path>
            <path
              strokeWidth="0.395"
              d="M197.73 91.718h1.756v5.445h-1.757z"
            ></path>
            <path
              strokeWidth="0.395"
              d="M203.15 91.718h1.758v5.445h-1.757z"
            ></path>
            <path
              strokeWidth="0.491"
              d="M207.58 91.719h4.49v5.444h-4.49z"
            ></path>
            <path
              strokeWidth="0.395"
              d="M220.148 91.718h1.757v5.445h-1.757z"
            ></path>
            <path
              strokeWidth="0.395"
              d="M225.569 91.718h1.757v5.445h-1.757z"
            ></path>
            <path
              strokeWidth="0.395"
              d="M230.99 91.718h1.758v5.445h-1.758z"
            ></path>
          </g>
        </g>
      </g>
      <g
        style={{ lineHeight: "1.25" }}
        fill="#a3a3a3"
        strokeWidth="1.735"
        display="inline"
        fontFamily="Comfortaa"
        fontSize="25.44"
        fontWeight="300"
      >
        <path
          d="M558.056 78.389q.203.356.203.585 0 .28-.228.432-.204.153-.611.153-.254 0-.407-.102-.153-.102-.28-.305l-4.68-7.48h-4.555v7.124q0 .33-.203.56-.204.203-.56.203-.33 0-.56-.204-.203-.228-.203-.56V60.454q0-.356.203-.56.23-.203.56-.203h4.86q1.83 0 3.28.763 1.451.764 2.265 2.137.814 1.374.814 3.13 0 2.086-1.17 3.612-1.145 1.501-3.104 2.06zm-6.462-8.243q1.4 0 2.493-.56 1.094-.56 1.705-1.577.636-1.017.636-2.29 0-1.297-.636-2.315-.61-1.043-1.705-1.602-1.094-.585-2.493-.585h-4.096v8.93z"
          style={{}}
        ></path>
        <path
          d="M566.96 65.516q1.857 0 3.307.89 1.476.865 2.29 2.417.814 1.552.814 3.536 0 .331-.204.535-.203.178-.534.178h-10.66q.077 1.5.79 2.696.712 1.17 1.907 1.832 1.196.662 2.672.662.992 0 1.984-.331 1.018-.356 1.603-.916.254-.204.534-.204t.458.153q.28.23.28.534 0 .255-.23.484-.813.737-2.136 1.22-1.298.484-2.493.484-2.01 0-3.587-.89-1.552-.916-2.443-2.519-.89-1.628-.89-3.663 0-2.06.814-3.664.84-1.628 2.315-2.518 1.501-.916 3.41-.916zm0 1.425q-1.984 0-3.358 1.323-1.348 1.322-1.603 3.485h9.896q-.178-2.163-1.526-3.485-1.348-1.323-3.409-1.323z"
          style={{}}
        ></path>
        <path
          d="M579.477 79.559q-1.45 0-2.392-1.17-.916-1.17-.916-3.028V60.453q0-.356.204-.56.229-.203.56-.203.356 0 .56.204.203.203.203.56V75.36q0 1.17.483 1.934.509.738 1.298.738h.636q.28 0 .458.203.178.204.178.56 0 .33-.204.56-.203.203-.56.203z"
          style={{}}
        ></path>
        <path
          d="M589.653 65.49q1.984 0 3.612.942 1.628.916 2.544 2.544.942 1.628.942 3.638v6.182q0 .33-.204.56-.203.203-.56.203-.33 0-.56-.204-.203-.228-.203-.56v-1.984q-.84 1.349-2.315 2.137-1.45.764-3.256.764-2.01 0-3.638-.916-1.628-.941-2.57-2.57-.916-1.628-.916-3.612 0-2.01.916-3.638.942-1.628 2.57-2.544 1.628-.941 3.638-.941zm0 12.797q1.577 0 2.85-.738 1.271-.738 1.983-2.035.738-1.297.738-2.9t-.738-2.9q-.712-1.298-1.984-2.036-1.272-.763-2.85-.763-1.577 0-2.849.763-1.272.738-2.01 2.036-.737 1.297-.737 2.9t.738 2.9q.737 1.297 2.01 2.035 1.271.738 2.849.738z"
          style={{}}
        ></path>
        <path
          d="M610.565 78.185q.687 0 .687.687t-.687.687h-9.948q-.686 0-.686-.687 0-.381.203-.534l9.082-11.321h-8.598q-.687 0-.687-.687t.687-.687h9.947q.687 0 .687.687 0 .305-.102.433l-9.108 11.422z"
          style={{}}
        ></path>
        <path
          d="M615.958 79.559q-.33 0-.56-.204-.203-.228-.203-.56V66.407q0-.356.203-.56.23-.203.56-.203.356 0 .56.204.203.203.203.56v12.389q0 .33-.203.56-.204.203-.56.203zm-.025-16.841q-.51 0-.84-.331-.33-.356-.33-.865 0-.56.355-.865.357-.305.84-.305t.814.305q.356.305.356.865 0 .509-.356.865-.33.33-.84.33z"
          style={{}}
        ></path>
        <path
          d="M628.17 79.712q-2.01 0-3.639-.916-1.628-.941-2.57-2.57-.915-1.628-.915-3.612 0-2.01.916-3.638.941-1.628 2.57-2.544 1.627-.941 3.637-.941 1.985 0 3.613.94 1.628.917 2.544 2.545.941 1.628.941 3.638 0 1.984-.941 3.612-.916 1.629-2.544 2.57-1.628.916-3.613.916zm0-1.425q1.577 0 2.849-.738 1.272-.738 1.984-2.035.738-1.297.738-2.9t-.738-2.9q-.712-1.298-1.984-2.036-1.272-.763-2.85-.763-1.577 0-2.849.763-1.272.738-2.01 2.036-.738 1.297-.738 2.9t.738 2.9q.738 1.297 2.01 2.035 1.272.738 2.85.738z"
          style={{}}
        ></path>
        <path
          d="M645.443 65.465q1.857 0 3.307.763 1.476.764 2.29 2.239.84 1.45.84 3.485v6.844q0 .33-.23.56-.203.203-.534.203-.33 0-.56-.204-.203-.228-.203-.56v-6.843q0-2.416-1.374-3.688-1.348-1.272-3.536-1.272-1.348 0-2.468.534-1.093.509-1.73 1.45-.635.916-.635 2.035v7.785q0 .33-.204.56-.204.203-.56.203-.33 0-.56-.204-.203-.228-.203-.56V66.407q0-.356.204-.56.229-.203.56-.203.355 0 .559.204.204.203.204.56v1.322q.865-1.068 2.111-1.653 1.247-.61 2.722-.61z"
          style={{}}
        ></path>
        <path
          d="M657.476 79.559q-.33 0-.56-.204-.203-.228-.203-.56V66.407q0-.356.204-.56.229-.203.56-.203.356 0 .56.204.203.203.203.56v12.389q0 .33-.204.56-.203.203-.56.203zm-.025-16.841q-.509 0-.84-.331-.33-.356-.33-.865 0-.56.356-.865.356-.305.84-.305.483 0 .814.305.356.305.356.865 0 .509-.356.865-.331.33-.84.33z"
          style={{}}
        ></path>
        <path
          d="M682.56 65.643q.357 0 .56.204.204.203.204.56v12.389q0 .33-.204.56-.203.203-.56.203-.33 0-.56-.204-.203-.228-.203-.56v-1.322q-.865 1.068-2.111 1.679-1.247.585-2.722.585-1.857 0-3.333-.763-1.45-.763-2.29-2.213-.814-1.476-.814-3.511v-6.844q0-.33.204-.534.229-.229.56-.229.33 0 .534.23.229.203.229.533v6.844q0 2.417 1.348 3.689 1.374 1.272 3.562 1.272 1.348 0 2.442-.51 1.12-.533 1.755-1.45.636-.94.636-2.06v-7.785q0-.356.204-.56.229-.203.56-.203z"
          style={{}}
        ></path>
        <path
          d="M702.582 65.465q1.526 0 2.722.763 1.196.764 1.857 2.137.662 1.349.662 3.079v7.352q0 .33-.204.56-.203.203-.56.203-.33 0-.56-.204-.203-.228-.203-.56v-7.351q0-1.96-1.043-3.206t-2.671-1.246q-1.78 0-2.875 1.17-1.094 1.17-1.043 3.103V78.796q0 .33-.203.56-.204.203-.56.203-.33 0-.56-.204-.203-.228-.203-.56v-7.351q0-1.96-1.043-3.206t-2.672-1.246q-1.755 0-2.874 1.119-1.12 1.12-1.12 2.9v7.785q0 .33-.203.56-.204.203-.56.203-.33 0-.56-.204-.203-.228-.203-.56V66.407q0-.356.203-.56.23-.203.56-.203.356 0 .56.204.203.203.203.56v.992q.713-.916 1.756-1.425 1.043-.509 2.238-.509 1.476 0 2.646.738 1.17.712 1.857 1.984.687-1.272 1.908-1.984 1.222-.738 2.748-.738z"
          style={{}}
        ></path>
        <path
          d="M718.508 65.49q1.984 0 3.612.942 1.628.916 2.544 2.544.941 1.628.941 3.638v6.182q0 .33-.203.56-.204.203-.56.203-.33 0-.56-.204-.203-.228-.203-.56v-1.984q-.84 1.349-2.315 2.137-1.45.764-3.256.764-2.01 0-3.638-.916-1.629-.941-2.57-2.57-.916-1.628-.916-3.612 0-2.01.916-3.638.941-1.628 2.57-2.544 1.628-.941 3.638-.941zm0 12.797q1.577 0 2.849-.738 1.272-.738 1.984-2.035.738-1.297.738-2.9t-.738-2.9q-.712-1.298-1.984-2.036-1.272-.763-2.85-.763-1.577 0-2.849.763-1.272.738-2.01 2.036-.737 1.297-.737 2.9t.738 2.9q.737 1.297 2.01 2.035 1.271.738 2.849.738z"
          style={{}}
        ></path>
        <path
          d="M735.782 65.465q1.857 0 3.307.763 1.475.764 2.29 2.239.839 1.45.839 3.485v6.844q0 .33-.229.56-.204.203-.534.203-.331 0-.56-.204-.203-.228-.203-.56v-6.843q0-2.416-1.374-3.688-1.349-1.272-3.536-1.272-1.349 0-2.468.534-1.094.509-1.73 1.45-.636.916-.636 2.035v7.785q0 .33-.204.56-.203.203-.56.203-.33 0-.559-.204-.204-.228-.204-.56V66.407q0-.356.204-.56.229-.203.56-.203.356 0 .56.204.203.203.203.56v1.322q.865-1.068 2.111-1.653 1.247-.61 2.723-.61z"
          style={{}}
        ></path>
        <path
          d="M752.318 65.516q1.857 0 3.307.89 1.475.865 2.29 2.417.814 1.552.814 3.536 0 .331-.204.535-.203.178-.534.178h-10.66q.077 1.5.789 2.696.712 1.17 1.908 1.832 1.196.662 2.671.662.992 0 1.985-.331 1.017-.356 1.602-.916.255-.204.535-.204t.458.153q.28.23.28.534 0 .255-.23.484-.814.737-2.137 1.22-1.297.484-2.493.484-2.01 0-3.587-.89-1.552-.916-2.442-2.519-.89-1.628-.89-3.663 0-2.06.814-3.664.84-1.628 2.315-2.518 1.5-.916 3.409-.916zm0 1.425q-1.985 0-3.358 1.323-1.349 1.322-1.603 3.485h9.896q-.178-2.163-1.526-3.485-1.349-1.323-3.41-1.323z"
          style={{}}
        ></path>
        <path
          d="M551.62 98.063q1.933 0 1.933.84 0 .127-.025.204-.077.28-.255.407-.152.101-.432.101-.23 0-.61-.05-.357-.051-.611-.051-1.272 0-2.265.534-.992.534-1.551 1.475-.56.942-.56 2.112v7.734q0 .33-.204.56-.203.203-.56.203-.33 0-.559-.204-.204-.228-.204-.56V98.98q0-.356.204-.56.229-.203.56-.203.356 0 .56.204.203.203.203.56v1.577q.738-1.17 1.882-1.832 1.145-.662 2.494-.662z"
          style={{}}
        ></path>
        <path
          d="M561.109 98.089q1.857 0 3.307.89 1.476.865 2.29 2.417.814 1.552.814 3.536 0 .331-.204.535-.203.178-.534.178h-10.66q.077 1.5.79 2.696.711 1.17 1.907 1.832 1.196.662 2.671.662.993 0 1.985-.331 1.017-.356 1.602-.916.255-.204.535-.204t.458.153q.28.229.28.534 0 .255-.23.484-.814.737-2.136 1.22-1.298.484-2.494.484-2.01 0-3.587-.89-1.552-.916-2.442-2.519-.89-1.628-.89-3.663 0-2.06.814-3.664.84-1.628 2.315-2.518 1.5-.916 3.409-.916zm0 1.425q-1.985 0-3.358 1.322-1.349 1.323-1.603 3.486h9.896q-.178-2.163-1.526-3.486-1.349-1.322-3.41-1.322z"
          style={{}}
        ></path>
        <path
          d="M575.559 112.285q-1.476 0-2.875-.51-1.4-.533-2.315-1.602-.178-.203-.178-.458 0-.356.33-.585.153-.127.433-.127.356 0 .585.28 1.272 1.552 4.096 1.552 2.01 0 2.951-.713.967-.712.967-1.831 0-2.01-3.892-2.57-2.468-.356-3.74-1.348-1.247-.992-1.247-2.392 0-1.857 1.349-2.874 1.373-1.044 3.561-1.044 3.206 0 4.86 2.29.152.178.152.433 0 .356-.407.585-.254.102-.382.102-.381 0-.636-.331-1.297-1.654-3.638-1.654-1.551 0-2.467.687-.916.661-.916 1.654 0 1.017.865 1.628.89.61 2.95.916 2.698.381 3.868 1.45 1.196 1.043 1.196 2.544 0 1.17-.764 2.06-.737.89-1.984 1.374-1.247.484-2.722.484z"
          style={{}}
        ></path>
        <path
          d="M591.56 98.063q2.01 0 3.639.942 1.628.916 2.544 2.544.941 1.628.941 3.638 0 1.984-.941 3.612-.916 1.628-2.544 2.57-1.628.916-3.638.916-1.807 0-3.282-.764-1.45-.788-2.29-2.137v7.938q0 .356-.203.56-.204.203-.56.203-.33 0-.56-.204-.203-.203-.203-.56V105.036q.025-1.96.967-3.563.94-1.602 2.544-2.493 1.628-.916 3.587-.916zm0 12.797q1.578 0 2.85-.738t2.01-2.035q.738-1.297.738-2.9t-.738-2.9q-.738-1.298-2.01-2.036-1.272-.763-2.85-.763-1.577 0-2.849.763-1.272.738-2.01 2.036-.712 1.297-.712 2.9t.713 2.9q.737 1.297 2.01 2.035 1.271.738 2.849.738z"
          style={{}}
        ></path>
        <path
          d="M608.86 112.285q-2.01 0-3.638-.916-1.628-.942-2.57-2.57-.915-1.628-.915-3.612 0-2.01.916-3.638.941-1.628 2.57-2.544 1.627-.942 3.637-.942 1.984 0 3.613.942 1.628.916 2.544 2.544.941 1.628.941 3.638 0 1.984-.941 3.612-.916 1.628-2.544 2.57-1.628.916-3.613.916zm0-1.425q1.577 0 2.85-.738 1.271-.738 1.984-2.035.738-1.297.738-2.9t-.738-2.9q-.713-1.298-1.985-2.036-1.272-.763-2.849-.763-1.577 0-2.85.763-1.271.738-2.009 2.036-.738 1.297-.738 2.9t.738 2.9q.738 1.297 2.01 2.035 1.272.738 2.85.738z"
          style={{}}
        ></path>
        <path
          d="M626.134 98.038q1.857 0 3.307.763 1.476.763 2.29 2.239.84 1.45.84 3.485v6.844q0 .33-.23.56-.203.203-.534.203-.33 0-.56-.204-.203-.228-.203-.56v-6.843q0-2.416-1.374-3.689-1.348-1.272-3.536-1.272-1.348 0-2.468.535-1.094.509-1.73 1.45-.636.916-.636 2.035v7.785q0 .33-.203.56-.204.203-.56.203-.33 0-.56-.204-.203-.228-.203-.56V98.98q0-.356.204-.56.228-.203.56-.203.355 0 .559.204.203.203.203.56v1.322q.865-1.068 2.112-1.653 1.247-.61 2.722-.61z"
          style={{}}
        ></path>
        <path
          d="M641.627 112.285q-1.475 0-2.875-.51-1.399-.533-2.315-1.602-.178-.203-.178-.458 0-.356.331-.585.153-.127.432-.127.357 0 .586.28 1.272 1.552 4.096 1.552 2.01 0 2.95-.713.967-.712.967-1.831 0-2.01-3.892-2.57-2.468-.356-3.74-1.348-1.246-.992-1.246-2.392 0-1.857 1.348-2.874 1.374-1.044 3.562-1.044 3.205 0 4.859 2.29.152.178.152.433 0 .356-.407.585-.254.102-.381.102-.382 0-.636-.331-1.298-1.654-3.638-1.654-1.552 0-2.468.687-.916.661-.916 1.654 0 1.017.865 1.628.89.61 2.951.916 2.697.381 3.867 1.45 1.196 1.043 1.196 2.544 0 1.17-.763 2.06-.738.89-1.985 1.374-1.246.484-2.722.484z"
          style={{}}
        ></path>
        <path
          d="M656.891 98.063q1.985 0 3.613.942 1.628.916 2.544 2.544.941 1.628.941 3.638v6.182q0 .33-.203.56-.204.203-.56.203-.33 0-.56-.204-.203-.228-.203-.56v-1.984q-.84 1.349-2.315 2.137-1.45.764-3.257.764-2.01 0-3.638-.916-1.628-.942-2.57-2.57-.915-1.628-.915-3.612 0-2.01.916-3.638.941-1.628 2.57-2.544 1.628-.942 3.637-.942zm0 12.797q1.578 0 2.85-.738t1.984-2.035q.738-1.297.738-2.9t-.738-2.9q-.712-1.298-1.984-2.036-1.272-.763-2.85-.763-1.577 0-2.849.763-1.272.738-2.01 2.036-.737 1.297-.737 2.9t.737 2.9q.738 1.297 2.01 2.035 1.272.738 2.85.738z"
          style={{}}
        ></path>
        <path
          d="M674.903 98.063q2.01 0 3.638.942 1.628.916 2.544 2.544.941 1.628.941 3.612 0 2.01-.94 3.638-.917 1.628-2.545 2.57-1.628.916-3.638.916-1.959 0-3.587-.89-1.603-.917-2.544-2.52-.941-1.602-.967-3.561V93.026q0-.356.204-.56.229-.203.56-.203.356 0 .56.204.203.203.203.56v7.937q.84-1.349 2.29-2.112 1.475-.789 3.281-.789zm0 12.797q1.577 0 2.85-.738 1.271-.763 2.01-2.06.737-1.298.737-2.9 0-1.603-.738-2.9-.738-1.298-2.01-2.036-1.272-.738-2.849-.738-1.577 0-2.85.738-1.271.738-2.009 2.035-.712 1.298-.712 2.9 0 1.603.712 2.9.738 1.298 2.01 2.061 1.272.738 2.85.738z"
          style={{}}
        ></path>
        <path
          d="M687.114 112.132q-.33 0-.56-.204-.203-.228-.203-.56V98.98q0-.356.204-.56.229-.203.56-.203.356 0 .56.204.203.203.203.56v12.389q0 .33-.204.56-.203.203-.56.203zm-.025-16.841q-.509 0-.84-.331-.33-.356-.33-.865 0-.56.356-.865.356-.305.84-.305.483 0 .814.305.356.305.356.865 0 .509-.356.865-.331.33-.84.33z"
          style={{}}
        ></path>
        <path
          d="M695.764 112.132q-1.45 0-2.391-1.17-.916-1.17-.916-3.028V93.026q0-.356.203-.56.23-.203.56-.203.356 0 .56.204.203.203.203.56v14.907q0 1.17.484 1.934.508.738 1.297.738h.636q.28 0 .458.203.178.204.178.56 0 .33-.203.56-.204.203-.56.203z"
          style={{}}
        ></path>
        <path
          d="M701.106 112.132q-.33 0-.56-.204-.203-.228-.203-.56V98.98q0-.356.204-.56.229-.203.56-.203.356 0 .56.204.203.203.203.56v12.389q0 .33-.204.56-.203.203-.56.203zm-.025-16.841q-.509 0-.84-.331-.33-.356-.33-.865 0-.56.356-.865.356-.305.84-.305.483 0 .814.305.356.305.356.865 0 .509-.356.865-.331.33-.84.33z"
          style={{}}
        ></path>
        <path
          d="M551.492 130.662q1.858 0 3.308.89 1.475.865 2.29 2.417.813 1.552.813 3.536 0 .331-.203.535-.204.178-.534.178h-10.66q.076 1.5.789 2.696.712 1.17 1.908 1.832 1.195.662 2.671.662.992 0 1.984-.331 1.018-.356 1.603-.916.254-.204.534-.204t.458.153q.28.229.28.534 0 .255-.229.484-.814.737-2.137 1.22-1.297.484-2.493.484-2.01 0-3.587-.89-1.552-.916-2.442-2.519-.89-1.628-.89-3.663 0-2.06.813-3.664.84-1.628 2.315-2.518 1.501-.916 3.41-.916zm0 1.425q-1.984 0-3.358 1.322-1.348 1.323-1.602 3.486h9.896q-.178-2.163-1.527-3.486-1.348-1.322-3.409-1.322z"
          style={{}}
        ></path>
        <path
          d="M573.396 144.858q-1.475 0-2.874-.51-1.4-.533-2.315-1.602-.178-.203-.178-.458 0-.356.33-.585.153-.127.433-.127.356 0 .585.28 1.272 1.551 4.096 1.551 2.01 0 2.95-.712.968-.712.968-1.832 0-2.01-3.893-2.569-2.468-.356-3.74-1.348-1.246-.993-1.246-2.392 0-1.857 1.348-2.874 1.374-1.044 3.562-1.044 3.205 0 4.859 2.29.153.178.153.433 0 .356-.407.585-.255.101-.382.101-.382 0-.636-.33-1.297-1.654-3.638-1.654-1.552 0-2.468.687-.916.661-.916 1.654 0 1.017.865 1.628.89.61 2.951.916 2.697.381 3.867 1.45 1.196 1.043 1.196 2.544 0 1.17-.763 2.06-.738.89-1.984 1.374-1.247.484-2.723.484z"
          style={{}}
        ></path>
        <path
          d="M583.573 144.705q-.331 0-.56-.204-.204-.229-.204-.56v-12.389q0-.356.204-.56.229-.203.56-.203.356 0 .56.204.203.203.203.56v12.389q0 .33-.204.56-.203.203-.56.203zm-.026-16.842q-.509 0-.84-.33-.33-.356-.33-.865 0-.56.356-.865.356-.305.84-.305.483 0 .814.305.356.305.356.865 0 .509-.356.865-.331.33-.84.33z"
          style={{}}
        ></path>
        <path
          d="M595.58 144.858q-1.959 0-3.536-.916-1.577-.942-2.493-2.57-.89-1.628-.89-3.612 0-2.01.84-3.613.839-1.628 2.34-2.544 1.5-.941 3.358-.941 1.628 0 2.976.636 1.349.636 2.34 1.883.179.254.179.432 0 .356-.356.56-.178.152-.407.152-.357 0-.586-.305-1.628-1.933-4.146-1.933-1.476 0-2.62.737-1.145.713-1.781 2.01-.611 1.298-.611 2.926 0 1.602.687 2.9.687 1.297 1.908 2.035 1.221.738 2.798.738 2.24 0 3.587-1.247.23-.229.535-.229.28 0 .458.178.254.23.254.56 0 .28-.204.458-.89.814-2.086 1.272-1.195.433-2.544.433z"
          style={{}}
        ></path>
        <path
          d="M616.289 130.79q.356 0 .56.203.203.203.203.56v12.389q0 .33-.204.56-.203.203-.56.203-.33 0-.559-.204-.204-.229-.204-.56v-1.322q-.864 1.068-2.111 1.679-1.247.585-2.722.585-1.857 0-3.333-.763-1.45-.763-2.29-2.213-.814-1.476-.814-3.511v-6.844q0-.33.204-.534.229-.229.56-.229.33 0 .534.23.229.203.229.533v6.844q0 2.417 1.348 3.689 1.374 1.272 3.562 1.272 1.348 0 2.442-.51 1.12-.533 1.755-1.45.636-.94.636-2.06v-7.785q0-.356.204-.56.229-.203.56-.203z"
          style={{}}
        ></path>
        <path
          d="M627.533 130.636q1.934 0 1.934.84 0 .127-.026.204-.076.28-.254.407-.153.101-.433.101-.229 0-.61-.05-.356-.051-.61-.051-1.273 0-2.265.534-.992.534-1.552 1.475-.56.942-.56 2.112v7.734q0 .33-.203.56-.203.203-.56.203-.33 0-.56-.204-.203-.229-.203-.56v-12.389q0-.356.204-.56.229-.203.56-.203.356 0 .559.204.204.203.204.56v1.577q.737-1.17 1.882-1.832 1.145-.662 2.493-.662z"
          style={{}}
        ></path>
        <path
          d="M637.022 130.662q1.858 0 3.308.89 1.475.865 2.29 2.417.813 1.552.813 3.536 0 .331-.203.535-.204.178-.534.178h-10.66q.076 1.5.789 2.696.712 1.17 1.908 1.832 1.196.662 2.671.662.992 0 1.984-.331 1.018-.356 1.603-.916.255-.204.534-.204.28 0 .458.153.28.229.28.534 0 .255-.229.484-.814.737-2.137 1.22-1.297.484-2.493.484-2.01 0-3.587-.89-1.552-.916-2.442-2.519-.89-1.628-.89-3.663 0-2.06.813-3.664.84-1.628 2.315-2.518 1.501-.916 3.41-.916zm0 1.425q-1.984 0-3.358 1.322-1.348 1.323-1.602 3.486h9.896q-.178-2.163-1.527-3.486-1.348-1.322-3.409-1.322z"
          style={{}}
        ></path>
      </g>
      <path
        fill="#a3a3a3"
        fillOpacity="0.5"
        stroke="none"
        strokeDasharray="13.544, 6.77199, 3.38599, 6.77199"
        strokeLinejoin="round"
        strokeWidth="3.386"
        d="M487.493 40.191H492.717V164.38299999999998H487.493z"
        stopColor="#000"
      ></path>
    </g>
  </g>
</svg>
