<?xml version="1.0" encoding="UTF-8" standalone="no"?>
<!-- Created with Inkscape (http://www.inkscape.org/) -->

<svg
   width="100"
   height="50"
   viewBox="0 0 100 50"
   version="1.1"
   id="svg5"
   xmlns="http://www.w3.org/2000/svg"
   xmlns:svg="http://www.w3.org/2000/svg">
  <defs
     id="defs2" />
  <g
     id="layer1"
     style="display:none">
    <rect
       style="fill:#ffffff;fill-opacity:1;stroke:none;stroke-width:14.1755;stroke-linejoin:round;stroke-miterlimit:4;stroke-dasharray:56.7022, 28.351, 14.1755, 28.351;stroke-dashoffset:0;stroke-opacity:1;stop-color:#000000"
       id="rect15334"
       width="5568.8999"
       height="3552.4055"
       x="-2634.45"
       y="-1701.2028" />
  </g>
  <g
     id="layer3"
     style="display:inline">
    <g
       id="g64529"
       transform="matrix(0.22531047,0,0,0.22531047,-5.5898632,-3.865205)">
      <g
         id="g1174"
         transform="matrix(1.5074699,0,0,1.5074699,32.860426,-32.852224)">
        <path
           style="font-weight:300;font-size:40px;line-height:1.25;font-family:Comfortaa;-inkscape-font-specification:'Comfortaa, Light';text-align:center;text-anchor:middle;fill:#bababa;fill-opacity:1;stroke:none;stroke-width:0.166634;stroke-miterlimit:4;stroke-dasharray:none;stroke-opacity:1"
           d="m 46.595344,119.18228 c -5.332934,0 -10.284947,-1.37133 -14.856037,-4.11398 -4.57109,-2.79345 -8.202569,-6.52652 -10.894433,-11.19919 -2.691865,-4.723463 -4.037796,-9.80245 -4.037796,-15.236967 0,-5.434518 1.320537,-10.488112 3.961611,-15.160782 2.691864,-4.672669 6.297948,-8.380332 10.818248,-11.122985 4.571089,-2.793445 9.573892,-4.190167 15.008407,-4.190167 7.11059,0 13.38314,2.26015 18.81766,6.780451 0.45711,0.355529 0.68566,0.863427 0.68566,1.523697 0,0.609479 -0.20316,1.168167 -0.60948,1.676066 -0.40632,0.45711 -0.96501,0.685665 -1.67606,0.685665 -0.55869,0 -1.19357,-0.30474 -1.90462,-0.914221 -3.86004,-3.45371 -8.96442,-5.180568 -15.31316,-5.180568 -4.469507,0 -8.659673,1.193564 -12.570494,3.580689 -3.860029,2.387124 -6.932819,5.586887 -9.218364,9.599289 -2.285545,3.96161 -3.428317,8.202566 -3.428317,12.722866 0,4.67267 1.117377,9.015206 3.352133,13.027607 2.285545,3.96161 5.358334,7.11059 9.218365,9.44693 3.910819,2.33634 8.12638,3.50451 12.646677,3.50451 5.99321,0 11.24996,-1.85384 15.77026,-5.5615 0.35553,-0.25396 0.73646,-0.38093 1.14278,-0.38093 0.60947,0 1.14277,0.22856 1.59988,0.68566 0.5079,0.45711 0.76185,1.01581 0.76185,1.67607 0,0.66028 -0.17777,1.19356 -0.5333,1.59989 -4.36793,4.36793 -10.61509,6.5519 -18.74147,6.5519 z"
           id="path1082" />
        <g
           id="g1160"
           transform="matrix(0.81921345,0,0,0.81921345,10.114868,28.840043)">
          <g
             id="g1148"
             transform="matrix(1.0021032,0,0,1.0021032,22.977217,7.5182814)"
             style="fill:#a3a3a3;fill-opacity:1">
            <path
               id="path1078"
               style="font-weight:300;font-size:40px;line-height:1.25;font-family:Comfortaa;-inkscape-font-specification:'Comfortaa, Light';text-align:center;text-anchor:middle;fill:#a3a3a3;fill-opacity:1;stroke:none;stroke-width:0.127359;stroke-miterlimit:4;stroke-dasharray:none;stroke-opacity:1"
               d="m 69.568747,87.415372 c -2.561711,0 -4.880221,-0.58399 -6.955529,-1.751352 -2.075311,-1.199788 -3.712859,-2.837338 -4.912647,-4.912647 -1.167361,-2.075308 -1.751329,-4.377605 -1.751329,-6.906888 0,-2.56171 0.583968,-4.88022 1.751329,-6.955529 1.199788,-2.075309 2.837336,-3.696645 4.912647,-4.864007 2.075308,-1.199789 4.393739,-1.799411 6.95545,-1.799411 2.529283,0 4.831659,0.599622 6.906968,1.799411 2.075309,1.167362 3.696643,2.788698 4.864005,4.864007 1.199788,2.075309 1.799682,4.393819 1.799682,6.955529 0,2.529283 -0.599894,4.83158 -1.799682,6.906888 -1.167362,2.075309 -2.788696,3.712859 -4.864005,4.912647 -2.075309,1.167362 -4.377606,1.751352 -6.906889,1.751352 z m 0,-2.724154 c 2.010456,0 3.826351,-0.470187 5.447687,-1.410562 1.621335,-0.940374 2.885976,-2.237442 3.793924,-3.891204 0.940375,-1.653763 1.410562,-3.502085 1.410562,-5.544967 0,-2.042883 -0.470187,-3.891205 -1.410562,-5.544967 -0.907948,-1.653762 -2.172589,-2.95083 -3.793924,-3.891204 -1.621336,-0.972802 -3.437231,-1.458828 -5.447687,-1.458828 -2.010457,0 -3.826352,0.486026 -5.447687,1.458828 -1.621336,0.940374 -2.902191,2.237442 -3.842566,3.891204 -0.940374,1.653762 -1.410562,3.502084 -1.410562,5.544967 0,2.042882 0.470188,3.891204 1.410562,5.544967 0.940375,1.653762 2.22123,2.95083 3.842566,3.891204 1.621335,0.940375 3.43723,1.410562 5.447687,1.410562 z" />
            <path
               style="font-weight:300;font-size:40px;line-height:1.25;font-family:Comfortaa;-inkscape-font-specification:'Comfortaa, Light';text-align:center;text-anchor:middle;fill:#a3a3a3;fill-opacity:1;stroke:none;stroke-width:0.127359;stroke-miterlimit:4;stroke-dasharray:none;stroke-opacity:1"
               d="m 102.5953,60.176628 c 2.36715,0 4.47488,0.486401 6.3232,1.4592 1.88075,0.972802 3.33995,2.399577 4.37761,4.280326 1.07008,1.848324 1.60512,4.069553 1.60512,6.663689 V 85.66402 c 0,0.421547 -0.14592,0.778241 -0.43776,1.070082 -0.25941,0.259413 -0.59989,0.389121 -1.02145,0.389121 -0.42154,0 -0.77822,-0.129708 -1.07007,-0.389121 -0.25941,-0.291841 -0.38913,-0.648535 -0.38913,-1.070082 V 72.579843 c 0,-3.080537 -0.87552,-5.431473 -2.62656,-7.052808 -1.71862,-1.621337 -3.97228,-2.432005 -6.76096,-2.432005 -1.71861,0 -3.291304,0.340482 -4.718093,1.021443 -1.394351,0.648534 -2.496859,1.572695 -3.307525,2.772483 -0.810665,1.167362 -1.215997,2.46443 -1.215997,3.891204 v 14.88386 c 0,0.421547 -0.129703,0.778241 -0.38912,1.070082 -0.259417,0.259413 -0.616112,0.389121 -1.070083,0.389121 -0.421545,0 -0.778239,-0.129708 -1.070082,-0.389121 -0.259418,-0.291841 -0.38912,-0.648535 -0.38912,-1.070082 V 61.976309 c 0,-0.453973 0.129702,-0.810667 0.38912,-1.070081 0.291843,-0.259414 0.648537,-0.389121 1.070082,-0.389121 0.453971,0 0.810666,0.129707 1.070083,0.389121 0.259417,0.259414 0.38912,0.616108 0.38912,1.070081 v 2.529283 c 1.102508,-1.361922 2.448221,-2.415789 4.037125,-3.161603 1.588905,-0.778241 3.32374,-1.167361 5.20449,-1.167361 z"
               id="path1076" />
            <path
               style="font-weight:300;font-size:40px;line-height:1.25;font-family:Comfortaa;-inkscape-font-specification:'Comfortaa, Light';text-align:center;text-anchor:middle;fill:#a3a3a3;fill-opacity:1;stroke:none;stroke-width:0.127359;stroke-miterlimit:4;stroke-dasharray:none;stroke-opacity:1"
               d="m 132.21701,87.415064 c -1.88075,0 -3.71284,-0.324268 -5.49631,-0.972801 -1.78348,-0.680962 -3.25889,-1.702403 -4.42625,-3.064325 -0.22699,-0.259414 -0.34048,-0.551254 -0.34048,-0.87552 0,-0.453975 0.21077,-0.826882 0.63231,-1.118721 0.19457,-0.162134 0.4702,-0.243201 0.82689,-0.243201 0.45397,0 0.82688,0.178347 1.11872,0.53504 1.62135,1.978028 4.23169,2.967043 7.83106,2.967043 2.5617,0 4.44245,-0.453973 5.64224,-1.361921 1.23222,-0.907947 1.84833,-2.075308 1.84833,-3.502084 0,-2.56171 -2.48065,-4.199259 -7.44193,-4.912647 -3.1454,-0.453973 -5.52877,-1.31328 -7.1501,-2.577923 -1.5889,-1.264642 -2.38335,-2.788697 -2.38335,-4.572165 0,-2.36715 0.8593,-4.199259 2.57792,-5.496327 1.75103,-1.329496 4.0209,-1.994244 6.8096,-1.994244 4.08577,0 7.18252,1.459203 9.29025,4.377606 0.19457,0.226988 0.29184,0.502614 0.29184,0.826882 0,0.453973 -0.25941,0.82688 -0.77824,1.118721 -0.32426,0.129707 -0.56746,0.194561 -0.7296,0.194561 -0.48639,0 -0.89173,-0.210774 -1.21599,-0.632322 -1.65377,-2.107736 -3.97228,-3.161603 -6.95555,-3.161603 -1.97802,0 -3.55071,0.437761 -4.71807,1.313282 -1.16736,0.843095 -1.75104,1.896962 -1.75104,3.161603 0,1.297068 0.55125,2.334723 1.65376,3.112963 1.13493,0.778241 3.01568,1.361922 5.64224,1.751043 3.43723,0.486401 5.90166,1.410562 7.39329,2.772483 1.52406,1.329497 2.28608,2.950832 2.28608,4.864008 0,1.491628 -0.48639,2.80491 -1.4592,3.939845 -0.94038,1.134935 -2.20502,2.010455 -3.79392,2.626563 -1.58891,0.616107 -3.32374,0.924161 -5.2045,0.924161 z"
               id="path1074" />
            <path
               id="path1070"
               style="font-weight:300;font-size:40px;line-height:1.25;font-family:Comfortaa;-inkscape-font-specification:'Comfortaa, Light';text-align:center;text-anchor:middle;fill:#a3a3a3;fill-opacity:1;stroke:none;stroke-width:0.127359;stroke-miterlimit:4;stroke-dasharray:none;stroke-opacity:1"
               d="m 160.2823,60.273908 c 2.36716,0 4.4749,0.567468 6.32322,1.702403 1.88074,1.102508 3.33993,2.642777 4.37759,4.620807 1.03766,1.978028 1.55648,4.231684 1.55648,6.760967 0,0.421548 -0.1297,0.762028 -0.38911,1.021441 -0.25941,0.226988 -0.5999,0.340481 -1.02144,0.340481 h -20.3802 c 0.0973,1.913176 0.59989,3.631792 1.50785,5.155848 0.90795,1.491628 2.12395,2.658989 3.648,3.502083 1.52407,0.843095 3.22647,1.264641 5.10722,1.264641 1.26464,0 2.52927,-0.210772 3.79391,-0.632319 1.29708,-0.453975 2.31852,-1.037656 3.06433,-1.751043 0.32427,-0.259413 0.66474,-0.389121 1.02143,-0.389121 0.3567,0 0.64854,0.09728 0.87553,0.291841 0.3567,0.291841 0.53504,0.632321 0.53504,1.021441 0,0.324268 -0.14592,0.632321 -0.43776,0.924163 -1.03766,0.940373 -2.39957,1.718614 -4.08576,2.334722 -1.65377,0.616107 -3.24268,0.92416 -4.76672,0.92416 -2.56171,0 -4.8478,-0.567467 -6.85825,-1.702401 -1.97803,-1.167362 -3.53452,-2.772484 -4.66945,-4.815366 -1.13493,-2.07531 -1.70241,-4.410033 -1.70241,-7.004169 0,-2.626563 0.51882,-4.961287 1.55648,-7.00417 1.07008,-2.075309 2.5455,-3.680431 4.42625,-4.815366 1.91317,-1.167362 4.08576,-1.751043 6.51777,-1.751043 z m 0,2.723845 c -2.52929,0 -4.66945,0.843094 -6.4205,2.529283 -1.7186,1.686188 -2.74005,3.907418 -3.06432,6.663689 h 18.921 c -0.227,-2.756271 -1.19979,-4.977501 -2.91841,-6.663689 -1.71862,-1.686189 -3.89121,-2.529283 -6.51777,-2.529283 z" />
            <path
               style="font-weight:300;font-size:40px;line-height:1.25;font-family:Comfortaa;-inkscape-font-specification:'Comfortaa, Light';text-align:center;text-anchor:middle;fill:#a3a3a3;fill-opacity:1;stroke:none;stroke-width:0.127359;stroke-miterlimit:4;stroke-dasharray:none;stroke-opacity:1"
               d="m 191.02279,60.176628 c 2.36714,0 4.47488,0.486401 6.3232,1.4592 1.88075,0.972802 3.33995,2.399577 4.37761,4.280326 1.07008,1.848324 1.60512,4.069553 1.60512,6.663689 V 85.66402 c 0,0.421547 -0.14592,0.778241 -0.43776,1.070082 -0.25942,0.259413 -0.59989,0.389121 -1.02143,0.389121 -0.42156,0 -0.77826,-0.129708 -1.0701,-0.389121 -0.2594,-0.291841 -0.38911,-0.648535 -0.38911,-1.070082 V 72.579843 c 0,-3.080537 -0.87552,-5.431473 -2.62657,-7.052808 -1.71862,-1.621337 -3.97227,-2.432005 -6.76096,-2.432005 -1.71862,0 -3.29132,0.340482 -4.71809,1.021443 -1.39434,0.648534 -2.49685,1.572695 -3.30753,2.772483 -0.81066,1.167362 -1.21599,2.46443 -1.21599,3.891204 v 14.88386 c 0,0.421547 -0.12971,0.778241 -0.38912,1.070082 -0.25942,0.259413 -0.61612,0.389121 -1.07009,0.389121 -0.42154,0 -0.77824,-0.129708 -1.07008,-0.389121 -0.25942,-0.291841 -0.38912,-0.648535 -0.38912,-1.070082 V 61.976309 c 0,-0.453973 0.1297,-0.810667 0.38912,-1.070081 0.29184,-0.259414 0.64854,-0.389121 1.07008,-0.389121 0.45397,0 0.81067,0.129707 1.07009,0.389121 0.25941,0.259414 0.38912,0.616108 0.38912,1.070081 v 2.529283 c 1.1025,-1.361922 2.4482,-2.415789 4.03712,-3.161603 1.58891,-0.778241 3.32374,-1.167361 5.20449,-1.167361 z"
               id="path1068" />
            <path
               style="font-weight:300;font-size:40px;line-height:1.25;font-family:Comfortaa;-inkscape-font-specification:'Comfortaa, Light';text-align:center;text-anchor:middle;fill:#a3a3a3;fill-opacity:1;stroke:none;stroke-width:0.127359;stroke-miterlimit:4;stroke-dasharray:none;stroke-opacity:1"
               d="m 220.64451,87.415062 c -1.88074,0 -3.71285,-0.324267 -5.49632,-0.972801 -1.78347,-0.680961 -3.25889,-1.702403 -4.42625,-3.064325 -0.22699,-0.259413 -0.34049,-0.551254 -0.34049,-0.87552 0,-0.453975 0.21078,-0.826882 0.63233,-1.118721 0.19456,-0.162134 0.47018,-0.243201 0.82687,-0.243201 0.45398,0 0.82689,0.178348 1.11872,0.53504 1.62134,1.978029 4.23169,2.967044 7.83106,2.967044 2.56171,0 4.44246,-0.453974 5.64224,-1.361922 1.23221,-0.907947 1.84832,-2.075308 1.84832,-3.502083 0,-2.561711 -2.48064,-4.19926 -7.44192,-4.912647 -3.14539,-0.453974 -5.52874,-1.313281 -7.15009,-2.577924 -1.58891,-1.264642 -2.38337,-2.788697 -2.38337,-4.572165 0,-2.367149 0.85931,-4.199259 2.57793,-5.496327 1.75104,-1.329496 4.02092,-1.994243 6.80961,-1.994243 4.08577,0 7.18251,1.459202 9.29025,4.377605 0.19457,0.226988 0.29184,0.502615 0.29184,0.826882 0,0.453974 -0.25941,0.82688 -0.77825,1.118721 -0.32427,0.129707 -0.56746,0.194561 -0.72959,0.194561 -0.48641,0 -0.89174,-0.210774 -1.21601,-0.632322 -1.65375,-2.107735 -3.97226,-3.161603 -6.95551,-3.161603 -1.97803,0 -3.55073,0.437761 -4.7181,1.313282 -1.16736,0.843095 -1.75104,1.896962 -1.75104,3.161603 0,1.297068 0.55125,2.334723 1.65376,3.112964 1.13493,0.77824 3.01568,1.361921 5.64224,1.751042 3.43724,0.486401 5.90167,1.410562 7.3933,2.772484 1.52404,1.329496 2.28607,2.950831 2.28607,4.864007 0,1.491628 -0.4864,2.80491 -1.45919,3.939845 -0.94038,1.134935 -2.20502,2.010455 -3.79392,2.626563 -1.58892,0.616108 -3.32374,0.924161 -5.20449,0.924161 z"
               id="path1066" />
            <path
               style="font-weight:300;font-size:40px;line-height:1.25;font-family:Comfortaa;-inkscape-font-specification:'Comfortaa, Light';text-align:center;text-anchor:middle;fill:#a3a3a3;fill-opacity:1;stroke:none;stroke-width:0.127359;stroke-miterlimit:4;stroke-dasharray:none;stroke-opacity:1"
               d="m 260.18884,60.517107 c 0.45397,0 0.81067,0.129707 1.07008,0.389121 0.25942,0.259414 0.38912,0.616108 0.38912,1.070081 V 85.66402 c 0,0.421547 -0.1297,0.778241 -0.38912,1.070082 -0.25941,0.259413 -0.61611,0.389121 -1.07008,0.389121 -0.42154,0 -0.77824,-0.129708 -1.07008,-0.389121 -0.25942,-0.291841 -0.38912,-0.648535 -0.38912,-1.070082 v -2.529284 c -1.10251,1.361921 -2.44821,2.432004 -4.03713,3.210245 -1.5889,0.745814 -3.32373,1.118721 -5.20448,1.118721 -2.36716,0 -4.49111,-0.486401 -6.37186,-1.459203 -1.84832,-0.9728 -3.30751,-2.383362 -4.37759,-4.231685 -1.03766,-1.880749 -1.55648,-4.118191 -1.55648,-6.712328 V 61.976309 c 0,-0.421546 0.1297,-0.762028 0.38911,-1.021441 0.29184,-0.291841 0.64853,-0.437761 1.07008,-0.437761 0.42156,0 0.76204,0.14592 1.02144,0.437761 0.29185,0.259413 0.43776,0.599895 0.43776,1.021441 v 13.084177 c 0,3.080537 0.8593,5.431474 2.57792,7.052809 1.75105,1.621336 4.02093,2.432003 6.80962,2.432003 1.71862,0 3.2751,-0.324267 4.66945,-0.9728 1.42676,-0.680962 2.54548,-1.605123 3.35616,-2.772485 0.81067,-1.199789 1.216,-2.513069 1.216,-3.939844 v -14.88386 c 0,-0.453973 0.1297,-0.810667 0.38912,-1.070081 0.29184,-0.259414 0.64854,-0.389121 1.07008,-0.389121 z"
               id="path1064" />
            <path
               style="font-weight:300;font-size:40px;line-height:1.25;font-family:Comfortaa;-inkscape-font-specification:'Comfortaa, Light';text-align:center;text-anchor:middle;fill:#a3a3a3;fill-opacity:1;stroke:none;stroke-width:0.127359;stroke-miterlimit:4;stroke-dasharray:none;stroke-opacity:1"
               d="m 279.45023,87.415062 c -1.88074,0 -3.71286,-0.324266 -5.49633,-0.972801 -1.78346,-0.680961 -3.25888,-1.702403 -4.42623,-3.064325 -0.227,-0.259413 -0.34049,-0.551254 -0.34049,-0.87552 0,-0.453973 0.21077,-0.826882 0.63232,-1.118721 0.19457,-0.162134 0.47019,-0.243201 0.82689,-0.243201 0.45397,0 0.82686,0.178346 1.11872,0.53504 1.62133,1.97803 4.23168,2.967044 7.83104,2.967044 2.56171,0 4.44246,-0.453974 5.64226,-1.361922 1.23221,-0.907947 1.84831,-2.075308 1.84831,-3.502083 0,-2.561711 -2.48063,-4.19926 -7.44191,-4.912647 -3.14541,-0.453974 -5.52877,-1.313282 -7.15011,-2.577924 -1.58891,-1.264641 -2.38335,-2.788696 -2.38335,-4.572165 0,-2.367149 0.85929,-4.199259 2.57791,-5.496327 1.75103,-1.329495 4.02091,-1.994243 6.8096,-1.994243 4.08577,0 7.18254,1.459202 9.29027,4.377605 0.19455,0.226988 0.29183,0.502615 0.29183,0.826882 0,0.453974 -0.25941,0.82688 -0.77823,1.118721 -0.32428,0.129706 -0.56747,0.194561 -0.72961,0.194561 -0.4864,0 -0.89172,-0.210774 -1.216,-0.632322 -1.65376,-2.107735 -3.97226,-3.161603 -6.95553,-3.161603 -1.97803,0 -3.55072,0.43776 -4.71808,1.313282 -1.16736,0.843094 -1.75104,1.896962 -1.75104,3.161603 0,1.297068 0.55124,2.334724 1.65377,3.112964 1.13493,0.778242 3.01568,1.361921 5.64224,1.751042 3.43724,0.486402 5.90166,1.410563 7.39329,2.772484 1.52405,1.329495 2.28543,2.950831 2.28543,4.864007 0,1.491628 -0.48575,2.804909 -1.45856,3.939845 -0.94038,1.134934 -2.20501,2.010455 -3.79392,2.626563 -1.58891,0.616108 -3.32375,0.924161 -5.20449,0.924161 z"
               id="path9775-9" />
          </g>
        </g>
      </g>
      <g
         aria-label="Relazioni umane
più sicure e responsabili"
         id="text40233"
         style="font-size:21.1031px;line-height:1.25;display:inline;fill:#d1d1d1;stroke-width:2.06208">
        <path
           d="m 156.5888,168.4779 q 0.16882,0.29544 0.16882,0.48537 0,0.23213 -0.18993,0.35875 -0.16882,0.12662 -0.50647,0.12662 -0.21103,0 -0.33765,-0.0844 -0.12662,-0.0844 -0.23214,-0.25324 l -3.88297,-6.20431 h -0.37985 -3.3976 v 5.90887 q 0,0.27434 -0.16883,0.46426 -0.16882,0.16883 -0.46426,0.16883 -0.27434,0 -0.46427,-0.16883 -0.16883,-0.18992 -0.16883,-0.46426 v -15.21534 q 0,-0.29544 0.16883,-0.46427 0.18993,-0.16882 0.46427,-0.16882 h 4.03069 q 1.51942,0 2.7223,0.63309 1.20288,0.63309 1.87817,1.77266 0.6753,1.13957 0.6753,2.59568 0,1.73046 -0.97074,2.99664 -0.94964,1.24509 -2.57458,1.70935 z m -5.36019,-6.83741 q 1.16067,0 2.0681,-0.46427 0.90744,-0.46426 1.41391,-1.30839 0.52758,-0.84412 0.52758,-1.89928 0,-1.07626 -0.52758,-1.92038 -0.50647,-0.86523 -1.41391,-1.32949 -0.90743,-0.48538 -2.0681,-0.48538 h -3.3976 v 7.40719 z"
           style="font-weight:300;font-family:Comfortaa;-inkscape-font-specification:'Comfortaa, Light'"
           id="path1366" />
        <path
           d="m 163.97488,157.79973 q 1.54052,0 2.7434,0.73861 1.22398,0.7175 1.89928,2.00479 0.6753,1.28729 0.6753,2.93333 0,0.27434 -0.16883,0.44317 -0.16882,0.14772 -0.44316,0.14772 h -8.8422 q 0.0633,1.24508 0.6542,2.23693 0.59088,0.97074 1.58273,1.51942 0.99184,0.54868 2.21582,0.54868 0.82302,0 1.64605,-0.27434 0.84412,-0.29544 1.32949,-0.75971 0.21103,-0.16883 0.44317,-0.16883 0.23213,0 0.37985,0.12662 0.23214,0.18993 0.23214,0.44317 0,0.21103 -0.18993,0.40096 -0.6753,0.61199 -1.77266,1.01295 -1.07626,0.40095 -2.06811,0.40095 -1.66714,0 -2.97553,-0.7386 -1.28729,-0.75972 -2.0259,-2.08921 -0.73861,-1.3506 -0.73861,-3.03885 0,-1.70935 0.6753,-3.03884 0.6964,-1.3506 1.92038,-2.08921 1.24508,-0.75971 2.82782,-0.75971 z m 0,1.18177 q -1.64604,0 -2.78561,1.09736 -1.11847,1.09736 -1.3295,2.89113 h 8.20911 q -0.14772,-1.79377 -1.26619,-2.89113 -1.11846,-1.09736 -2.82781,-1.09736 z"
           style="font-weight:300;font-family:Comfortaa;-inkscape-font-specification:'Comfortaa, Light'"
           id="path1368" />
        <path
           d="m 174.35759,169.44864 q -1.20288,0 -1.98369,-0.97074 -0.75972,-0.97075 -0.75972,-2.51127 v -12.36642 q 0,-0.29544 0.16883,-0.46427 0.18993,-0.16882 0.46427,-0.16882 0.29544,0 0.46426,0.16882 0.16883,0.16883 0.16883,0.46427 v 12.36642 q 0,0.97074 0.40096,1.60383 0.42206,0.61199 1.07626,0.61199 h 0.52757 q 0.23214,0 0.37986,0.16883 0.14772,0.16882 0.14772,0.46427 0,0.27434 -0.16882,0.46426 -0.16883,0.16883 -0.46427,0.16883 z"
           style="font-weight:300;font-family:Comfortaa;-inkscape-font-specification:'Comfortaa, Light'"
           id="path1370" />
        <path
           d="m 182.79879,157.77862 q 1.64604,0 2.99664,0.78082 1.3506,0.75971 2.11031,2.11031 0.78082,1.3506 0.78082,3.01774 v 5.12806 q 0,0.27434 -0.16883,0.46426 -0.16882,0.16883 -0.46427,0.16883 -0.27434,0 -0.46427,-0.16883 -0.16882,-0.18992 -0.16882,-0.46426 v -1.64605 q -0.6964,1.11847 -1.92038,1.77266 -1.20288,0.6331 -2.7012,0.6331 -1.66714,0 -3.01774,-0.75971 -1.3506,-0.78082 -2.13142,-2.13142 -0.75971,-1.3506 -0.75971,-2.99664 0,-1.66714 0.75971,-3.01774 0.78082,-1.3506 2.13142,-2.11031 1.3506,-0.78082 3.01774,-0.78082 z m 0,10.61486 q 1.30839,0 2.36355,-0.61199 1.05515,-0.61199 1.64604,-1.68824 0.61199,-1.07626 0.61199,-2.40576 0,-1.32949 -0.61199,-2.40575 -0.59089,-1.07626 -1.64604,-1.68825 -1.05516,-0.63309 -2.36355,-0.63309 -1.30839,0 -2.36355,0.63309 -1.05515,0.61199 -1.66714,1.68825 -0.61199,1.07626 -0.61199,2.40575 0,1.3295 0.61199,2.40576 0.61199,1.07625 1.66714,1.68824 1.05516,0.61199 2.36355,0.61199 z"
           style="font-weight:300;font-family:Comfortaa;-inkscape-font-specification:'Comfortaa, Light'"
           id="path1372" />
        <path
           d="m 200.14552,168.30907 q 0.56978,0 0.56978,0.56979 0,0.56978 -0.56978,0.56978 h -8.25131 q -0.56979,0 -0.56979,-0.56978 0,-0.31655 0.16883,-0.44317 l 7.5338,-9.39088 h -7.13284 q -0.56979,0 -0.56979,-0.56978 0,-0.56979 0.56979,-0.56979 h 8.25131 q 0.56978,0 0.56978,0.56979 0,0.25323 -0.0844,0.35875 l -7.55491,9.47529 z"
           style="font-weight:300;font-family:Comfortaa;-inkscape-font-specification:'Comfortaa, Light'"
           id="path1374" />
        <path
           d="m 204.61934,169.44864 q -0.27434,0 -0.46427,-0.16883 -0.16882,-0.18992 -0.16882,-0.46426 v -10.27721 q 0,-0.29545 0.16882,-0.46427 0.18993,-0.16883 0.46427,-0.16883 0.29544,0 0.46427,0.16883 0.16882,0.16882 0.16882,0.46427 v 10.27721 q 0,0.27434 -0.16882,0.46426 -0.16883,0.16883 -0.46427,0.16883 z m -0.0211,-13.97025 q -0.42207,0 -0.69641,-0.27434 -0.27434,-0.29545 -0.27434,-0.71751 0,-0.46427 0.29545,-0.7175 0.29544,-0.25324 0.6964,-0.25324 0.40096,0 0.6753,0.25324 0.29544,0.25323 0.29544,0.7175 0,0.42206 -0.29544,0.71751 -0.27434,0.27434 -0.6964,0.27434 z"
           style="font-weight:300;font-family:Comfortaa;-inkscape-font-specification:'Comfortaa, Light'"
           id="path1376" />
        <path
           d="m 214.7488,169.57526 q -1.66714,0 -3.01774,-0.75971 -1.3506,-0.78082 -2.13141,-2.13142 -0.75971,-1.3506 -0.75971,-2.99664 0,-1.66714 0.75971,-3.01774 0.78081,-1.3506 2.13141,-2.11031 1.3506,-0.78082 3.01774,-0.78082 1.64605,0 2.99664,0.78082 1.3506,0.75971 2.11031,2.11031 0.78082,1.3506 0.78082,3.01774 0,1.64604 -0.78082,2.99664 -0.75971,1.3506 -2.11031,2.13142 -1.35059,0.75971 -2.99664,0.75971 z m 0,-1.18178 q 1.3084,0 2.36355,-0.61199 1.05516,-0.61199 1.64604,-1.68824 0.61199,-1.07626 0.61199,-2.40576 0,-1.32949 -0.61199,-2.40575 -0.59088,-1.07626 -1.64604,-1.68825 -1.05515,-0.63309 -2.36355,-0.63309 -1.30839,0 -2.36354,0.63309 -1.05516,0.61199 -1.66715,1.68825 -0.61199,1.07626 -0.61199,2.40575 0,1.3295 0.61199,2.40576 0.61199,1.07625 1.66715,1.68824 1.05515,0.61199 2.36354,0.61199 z"
           style="font-weight:300;font-family:Comfortaa;-inkscape-font-specification:'Comfortaa, Light'"
           id="path1378" />
        <path
           d="m 229.07779,157.75752 q 1.54052,0 2.7434,0.63309 1.22398,0.6331 1.89928,1.85708 0.6964,1.20287 0.6964,2.89112 v 5.67674 q 0,0.27434 -0.18993,0.46426 -0.16882,0.16883 -0.44316,0.16883 -0.27434,0 -0.46427,-0.16883 -0.16882,-0.18992 -0.16882,-0.46426 v -5.67674 q 0,-2.00479 -1.13957,-3.05995 -1.11847,-1.05515 -2.93333,-1.05515 -1.11847,0 -2.047,0.44316 -0.90744,0.42206 -1.43501,1.20288 -0.52758,0.75971 -0.52758,1.68825 v 6.45755 q 0,0.27434 -0.16883,0.46426 -0.16882,0.16883 -0.46427,0.16883 -0.27434,0 -0.46426,-0.16883 -0.16883,-0.18992 -0.16883,-0.46426 v -10.27721 q 0,-0.29545 0.16883,-0.46427 0.18992,-0.16883 0.46426,-0.16883 0.29545,0 0.46427,0.16883 0.16883,0.16882 0.16883,0.46427 v 1.09736 q 0.7175,-0.88633 1.75156,-1.3717 1.03405,-0.50648 2.25803,-0.50648 z"
           style="font-weight:300;font-family:Comfortaa;-inkscape-font-specification:'Comfortaa, Light'"
           id="path1380" />
        <path
           d="m 239.05952,169.44864 q -0.27434,0 -0.46427,-0.16883 -0.16882,-0.18992 -0.16882,-0.46426 v -10.27721 q 0,-0.29545 0.16882,-0.46427 0.18993,-0.16883 0.46427,-0.16883 0.29544,0 0.46427,0.16883 0.16882,0.16882 0.16882,0.46427 v 10.27721 q 0,0.27434 -0.16882,0.46426 -0.16883,0.16883 -0.46427,0.16883 z m -0.0211,-13.97025 q -0.42206,0 -0.6964,-0.27434 -0.27434,-0.29545 -0.27434,-0.71751 0,-0.46427 0.29544,-0.7175 0.29544,-0.25324 0.6964,-0.25324 0.40096,0 0.6753,0.25324 0.29544,0.25323 0.29544,0.7175 0,0.42206 -0.29544,0.71751 -0.27434,0.27434 -0.6964,0.27434 z"
           style="font-weight:300;font-family:Comfortaa;-inkscape-font-specification:'Comfortaa, Light'"
           id="path1382" />
        <path
           d="m 259.86713,157.90524 q 0.29545,0 0.46427,0.16883 0.16883,0.16882 0.16883,0.46427 v 10.27721 q 0,0.27434 -0.16883,0.46426 -0.16882,0.16883 -0.46427,0.16883 -0.27434,0 -0.46426,-0.16883 -0.16883,-0.18992 -0.16883,-0.46426 v -1.09737 q -0.7175,0.88633 -1.75156,1.39281 -1.03405,0.48537 -2.25803,0.48537 -1.54052,0 -2.7645,-0.63309 -1.20288,-0.6331 -1.89928,-1.83597 -0.6753,-1.22398 -0.6753,-2.91223 v -5.67673 q 0,-0.27434 0.16882,-0.44317 0.18993,-0.18993 0.46427,-0.18993 0.27434,0 0.44317,0.18993 0.18992,0.16883 0.18992,0.44317 v 5.67673 q 0,2.00479 1.11847,3.05995 1.13957,1.05515 2.95443,1.05515 1.11847,0 2.0259,-0.42206 0.92854,-0.44316 1.45611,-1.20287 0.52758,-0.78082 0.52758,-1.70936 v -6.45754 q 0,-0.29545 0.16883,-0.46427 0.18992,-0.16883 0.46426,-0.16883 z"
           style="font-weight:300;font-family:Comfortaa;-inkscape-font-specification:'Comfortaa, Light'"
           id="path1384" />
        <path
           d="m 276.47524,157.75752 q 1.26619,0 2.25803,0.63309 0.99185,0.6331 1.54053,1.77266 0.54868,1.11847 0.54868,2.55348 v 6.0988 q 0,0.27434 -0.16882,0.46426 -0.16883,0.16883 -0.46427,0.16883 -0.27434,0 -0.46427,-0.16883 -0.16882,-0.18992 -0.16882,-0.46426 v -6.0988 q 0,-1.62494 -0.86523,-2.65899 -0.86523,-1.03405 -2.21583,-1.03405 -1.47721,0 -2.38465,0.97074 -0.90743,0.97074 -0.86522,2.57458 v 0.14772 6.0988 q 0,0.27434 -0.16883,0.46426 -0.16882,0.16883 -0.46427,0.16883 -0.27434,0 -0.46427,-0.16883 -0.16882,-0.18992 -0.16882,-0.46426 v -6.0988 q 0,-1.62494 -0.86523,-2.65899 -0.86522,-1.03405 -2.21582,-1.03405 -1.45612,0 -2.38465,0.92853 -0.92854,0.92854 -0.92854,2.40576 v 6.45755 q 0,0.27434 -0.16882,0.46426 -0.16883,0.16883 -0.46427,0.16883 -0.27434,0 -0.46427,-0.16883 -0.16883,-0.18992 -0.16883,-0.46426 v -10.27721 q 0,-0.29545 0.16883,-0.46427 0.18993,-0.16883 0.46427,-0.16883 0.29544,0 0.46427,0.16883 0.16882,0.16882 0.16882,0.46427 v 0.82302 q 0.59089,-0.75971 1.45611,-1.18178 0.86523,-0.42206 1.85708,-0.42206 1.22398,0 2.19472,0.61199 0.97074,0.59089 1.54053,1.64604 0.56978,-1.05515 1.58273,-1.64604 1.01295,-0.61199 2.27913,-0.61199 z"
           style="font-weight:300;font-family:Comfortaa;-inkscape-font-specification:'Comfortaa, Light'"
           id="path1386" />
        <path
           d="m 289.68577,157.77862 q 1.64604,0 2.99664,0.78082 1.35059,0.75971 2.11031,2.11031 0.78081,1.3506 0.78081,3.01774 v 5.12806 q 0,0.27434 -0.16882,0.46426 -0.16883,0.16883 -0.46427,0.16883 -0.27434,0 -0.46427,-0.16883 -0.16883,-0.18992 -0.16883,-0.46426 v -1.64605 q -0.6964,1.11847 -1.92038,1.77266 -1.20287,0.6331 -2.70119,0.6331 -1.66715,0 -3.01775,-0.75971 -1.3506,-0.78082 -2.13141,-2.13142 -0.75971,-1.3506 -0.75971,-2.99664 0,-1.66714 0.75971,-3.01774 0.78081,-1.3506 2.13141,-2.11031 1.3506,-0.78082 3.01775,-0.78082 z m 0,10.61486 q 1.30839,0 2.36354,-0.61199 1.05516,-0.61199 1.64604,-1.68824 0.61199,-1.07626 0.61199,-2.40576 0,-1.32949 -0.61199,-2.40575 -0.59088,-1.07626 -1.64604,-1.68825 -1.05515,-0.63309 -2.36354,-0.63309 -1.3084,0 -2.36355,0.63309 -1.05516,0.61199 -1.66715,1.68825 -0.61199,1.07626 -0.61199,2.40575 0,1.3295 0.61199,2.40576 0.61199,1.07625 1.66715,1.68824 1.05515,0.61199 2.36355,0.61199 z"
           style="font-weight:300;font-family:Comfortaa;-inkscape-font-specification:'Comfortaa, Light'"
           id="path1388" />
        <path
           d="m 304.01475,157.75752 q 1.54052,0 2.7434,0.63309 1.22398,0.6331 1.89928,1.85708 0.6964,1.20287 0.6964,2.89112 v 5.67674 q 0,0.27434 -0.18993,0.46426 -0.16882,0.16883 -0.44316,0.16883 -0.27434,0 -0.46427,-0.16883 -0.16883,-0.18992 -0.16883,-0.46426 v -5.67674 q 0,-2.00479 -1.13956,-3.05995 -1.11847,-1.05515 -2.93333,-1.05515 -1.11847,0 -2.04701,0.44316 -0.90743,0.42206 -1.43501,1.20288 -0.52757,0.75971 -0.52757,1.68825 v 6.45755 q 0,0.27434 -0.16883,0.46426 -0.16882,0.16883 -0.46427,0.16883 -0.27434,0 -0.46427,-0.16883 -0.16882,-0.18992 -0.16882,-0.46426 v -10.27721 q 0,-0.29545 0.16882,-0.46427 0.18993,-0.16883 0.46427,-0.16883 0.29545,0 0.46427,0.16883 0.16883,0.16882 0.16883,0.46427 v 1.09736 q 0.7175,-0.88633 1.75155,-1.3717 1.03406,-0.50648 2.25804,-0.50648 z"
           style="font-weight:300;font-family:Comfortaa;-inkscape-font-specification:'Comfortaa, Light'"
           id="path1390" />
        <path
           d="m 317.73172,157.79973 q 1.54053,0 2.7434,0.73861 1.22398,0.7175 1.89928,2.00479 0.6753,1.28729 0.6753,2.93333 0,0.27434 -0.16882,0.44317 -0.16883,0.14772 -0.44317,0.14772 h -8.8422 q 0.0633,1.24508 0.6542,2.23693 0.59089,0.97074 1.58273,1.51942 0.99185,0.54868 2.21583,0.54868 0.82302,0 1.64604,-0.27434 0.84412,-0.29544 1.32949,-0.75971 0.21104,-0.16883 0.44317,-0.16883 0.23213,0 0.37986,0.12662 0.23213,0.18993 0.23213,0.44317 0,0.21103 -0.18993,0.40096 -0.6753,0.61199 -1.77266,1.01295 -1.07626,0.40095 -2.0681,0.40095 -1.66715,0 -2.97554,-0.7386 -1.28729,-0.75972 -2.0259,-2.08921 -0.73861,-1.3506 -0.73861,-3.03885 0,-1.70935 0.6753,-3.03884 0.69641,-1.3506 1.92039,-2.08921 1.24508,-0.75971 2.82781,-0.75971 z m 0,1.18177 q -1.64604,0 -2.78561,1.09736 -1.11846,1.09736 -1.32949,2.89113 h 8.2091 q -0.14772,-1.79377 -1.26618,-2.89113 -1.11847,-1.09736 -2.82782,-1.09736 z"
           style="font-weight:300;font-family:Comfortaa;-inkscape-font-specification:'Comfortaa, Light'"
           id="path1392" />
        <path
           d="m 152.24156,184.79838 q 1.66714,0 3.01774,0.78081 1.3506,0.75971 2.11031,2.11031 0.78082,1.3506 0.78082,3.01775 0,1.64604 -0.78082,2.99664 -0.75971,1.35059 -2.11031,2.13141 -1.3506,0.75971 -3.01774,0.75971 -1.49832,0 -2.7223,-0.63309 -1.20288,-0.6542 -1.89928,-1.77266 v 6.58416 q 0,0.29545 -0.16883,0.46427 -0.16882,0.16883 -0.46426,0.16883 -0.27434,0 -0.46427,-0.16883 -0.16883,-0.16882 -0.16883,-0.46427 v -10.15059 -0.0422 q 0.0211,-1.62494 0.80192,-2.95444 0.78082,-1.32949 2.11031,-2.0681 1.3506,-0.75971 2.97554,-0.75971 z m 0,10.61486 q 1.30839,0 2.36354,-0.61199 1.05516,-0.61199 1.66715,-1.68825 0.61199,-1.07626 0.61199,-2.40575 0,-1.3295 -0.61199,-2.40576 -0.61199,-1.07626 -1.66715,-1.68825 -1.05515,-0.63309 -2.36354,-0.63309 -1.30839,0 -2.36355,0.63309 -1.05515,0.61199 -1.66714,1.68825 -0.59089,1.07626 -0.59089,2.40576 0,1.32949 0.59089,2.40575 0.61199,1.07626 1.66714,1.68825 1.05516,0.61199 2.36355,0.61199 z"
           style="font-weight:300;font-family:Comfortaa;-inkscape-font-specification:'Comfortaa, Light'"
           id="path1394" />
        <path
           d="m 162.37104,196.46839 q -0.27434,0 -0.46427,-0.16882 -0.16882,-0.18993 -0.16882,-0.46427 v -10.27721 q 0,-0.29544 0.16882,-0.46427 0.18993,-0.16882 0.46427,-0.16882 0.29544,0 0.46427,0.16882 0.16882,0.16883 0.16882,0.46427 v 10.27721 q 0,0.27434 -0.16882,0.46427 -0.16883,0.16882 -0.46427,0.16882 z m -0.0211,-13.97025 q -0.42206,0 -0.6964,-0.27434 -0.27434,-0.29544 -0.27434,-0.71751 0,-0.46426 0.29545,-0.7175 0.29544,-0.25324 0.6964,-0.25324 0.40096,0 0.6753,0.25324 0.29544,0.25324 0.29544,0.7175 0,0.42207 -0.29544,0.71751 -0.27434,0.27434 -0.69641,0.27434 z"
           style="font-weight:300;font-family:Comfortaa;-inkscape-font-specification:'Comfortaa, Light'"
           id="path1396" />
        <path
           d="m 176.99546,184.925 q 0.29544,0 0.46427,0.16882 0.16882,0.16883 0.16882,0.46427 v 10.27721 q 0,0.27434 -0.16882,0.46427 -0.16883,0.16882 -0.46427,0.16882 -0.27434,0 -0.46427,-0.16882 -0.16882,-0.18993 -0.16882,-0.46427 v -1.09736 q -0.71751,0.88633 -1.75156,1.3928 -1.03405,0.48537 -2.25803,0.48537 -1.54053,0 -2.76451,-0.63309 -1.20287,-0.63309 -1.89928,-1.83597 -0.67529,-1.22398 -0.67529,-2.91223 v -5.67673 q 0,-0.27434 0.16882,-0.44317 0.18993,-0.18992 0.46427,-0.18992 0.27434,0 0.44316,0.18992 0.18993,0.16883 0.18993,0.44317 v 5.67673 q 0,2.0048 1.11847,3.05995 1.13956,1.05516 2.95443,1.05516 1.11846,0 2.0259,-0.42206 0.92853,-0.44317 1.45611,-1.20288 0.52758,-0.78082 0.52758,-1.70935 v -6.45755 q 0,-0.29544 0.16882,-0.46427 0.18993,-0.16882 0.46427,-0.16882 z m -4.53717,-1.94149 q -0.21103,0 -0.44316,-0.16882 l -2.59568,-2.59569 q -0.16883,-0.16882 -0.16883,-0.44316 0,-0.27434 0.18993,-0.46427 0.18993,-0.18993 0.46427,-0.18993 0.25324,0 0.44316,0.18993 l 2.59569,2.59568 q 0.14772,0.14772 0.14772,0.42206 0,0.27435 -0.18993,0.46427 -0.16882,0.18993 -0.44317,0.18993 z"
           style="font-weight:300;font-family:Comfortaa;-inkscape-font-specification:'Comfortaa, Light'"
           id="path1398" />
        <path
           d="m 191.53545,196.59501 q -1.22398,0 -2.38465,-0.42206 -1.16067,-0.44317 -1.92039,-1.3295 -0.14772,-0.16882 -0.14772,-0.37985 0,-0.29545 0.27434,-0.48537 0.12662,-0.10552 0.35876,-0.10552 0.29544,0 0.48537,0.23213 1.05515,1.28729 3.3976,1.28729 1.66714,0 2.44796,-0.59088 0.80191,-0.59089 0.80191,-1.51943 0,-1.66714 -3.22877,-2.13141 -2.047,-0.29544 -3.10216,-1.11846 -1.03405,-0.82302 -1.03405,-1.9837 0,-1.54052 1.11847,-2.38465 1.13956,-0.86522 2.95443,-0.86522 2.65899,0 4.03069,1.89928 0.12662,0.14772 0.12662,0.35875 0,0.29544 -0.33765,0.48537 -0.21103,0.0844 -0.31655,0.0844 -0.31654,0 -0.52757,-0.27434 -1.07626,-1.3717 -3.01775,-1.3717 -1.28729,0 -2.047,0.56978 -0.75971,0.54869 -0.75971,1.37171 0,0.84412 0.71751,1.35059 0.7386,0.50648 2.44796,0.75972 2.23692,0.31654 3.20767,1.20287 0.99184,0.86523 0.99184,2.11031 0,0.97075 -0.63309,1.70935 -0.61199,0.73861 -1.64604,1.13957 -1.03405,0.40096 -2.25803,0.40096 z"
           style="font-weight:300;font-family:Comfortaa;-inkscape-font-specification:'Comfortaa, Light'"
           id="path1400" />
        <path
           d="m 199.97667,196.46839 q -0.27434,0 -0.46426,-0.16882 -0.16883,-0.18993 -0.16883,-0.46427 v -10.27721 q 0,-0.29544 0.16883,-0.46427 0.18992,-0.16882 0.46426,-0.16882 0.29545,0 0.46427,0.16882 0.16883,0.16883 0.16883,0.46427 v 10.27721 q 0,0.27434 -0.16883,0.46427 -0.16882,0.16882 -0.46427,0.16882 z m -0.0211,-13.97025 q -0.42206,0 -0.6964,-0.27434 -0.27434,-0.29544 -0.27434,-0.71751 0,-0.46426 0.29544,-0.7175 0.29544,-0.25324 0.6964,-0.25324 0.40096,0 0.6753,0.25324 0.29545,0.25324 0.29545,0.7175 0,0.42207 -0.29545,0.71751 -0.27434,0.27434 -0.6964,0.27434 z"
           style="font-weight:300;font-family:Comfortaa;-inkscape-font-specification:'Comfortaa, Light'"
           id="path1402" />
        <path
           d="m 209.93731,196.59501 q -1.62494,0 -2.93333,-0.75971 -1.30839,-0.78082 -2.06811,-2.13141 -0.7386,-1.3506 -0.7386,-2.99664 0,-1.66715 0.6964,-2.99664 0.6964,-1.3506 1.94148,-2.11031 1.24509,-0.78082 2.78561,-0.78082 1.3506,0 2.46907,0.52758 1.11846,0.52758 1.94148,1.56163 0.14772,0.21103 0.14772,0.35875 0,0.29544 -0.29544,0.46427 -0.14772,0.12662 -0.33765,0.12662 -0.29544,0 -0.48537,-0.25324 -1.3506,-1.60384 -3.43981,-1.60384 -1.22398,0 -2.17362,0.61199 -0.94964,0.59089 -1.47721,1.66715 -0.50648,1.07626 -0.50648,2.42686 0,1.32949 0.56979,2.40575 0.56978,1.07626 1.58273,1.68825 1.01295,0.61199 2.32134,0.61199 1.85707,0 2.97554,-1.03406 0.18992,-0.18992 0.44316,-0.18992 0.23214,0 0.37986,0.14772 0.21103,0.18993 0.21103,0.46427 0,0.23213 -0.16883,0.37985 -0.73861,0.6753 -1.73045,1.05516 -0.99185,0.35875 -2.11031,0.35875 z"
           style="font-weight:300;font-family:Comfortaa;-inkscape-font-specification:'Comfortaa, Light'"
           id="path1404" />
        <path
           d="m 227.1152,184.925 q 0.29545,0 0.46427,0.16882 0.16883,0.16883 0.16883,0.46427 v 10.27721 q 0,0.27434 -0.16883,0.46427 -0.16882,0.16882 -0.46427,0.16882 -0.27434,0 -0.46426,-0.16882 -0.16883,-0.18993 -0.16883,-0.46427 v -1.09736 q -0.7175,0.88633 -1.75156,1.3928 -1.03405,0.48537 -2.25803,0.48537 -1.54052,0 -2.7645,-0.63309 -1.20288,-0.63309 -1.89928,-1.83597 -0.6753,-1.22398 -0.6753,-2.91223 v -5.67673 q 0,-0.27434 0.16882,-0.44317 0.18993,-0.18992 0.46427,-0.18992 0.27434,0 0.44317,0.18992 0.18992,0.16883 0.18992,0.44317 v 5.67673 q 0,2.0048 1.11847,3.05995 1.13957,1.05516 2.95443,1.05516 1.11847,0 2.0259,-0.42206 0.92854,-0.44317 1.45611,-1.20288 0.52758,-0.78082 0.52758,-1.70935 v -6.45755 q 0,-0.29544 0.16883,-0.46427 0.18992,-0.16882 0.46426,-0.16882 z"
           style="font-weight:300;font-family:Comfortaa;-inkscape-font-specification:'Comfortaa, Light'"
           id="path1406" />
        <path
           d="m 236.44274,184.79838 q 1.60384,0 1.60384,0.6964 0,0.10552 -0.0211,0.16882 -0.0633,0.23214 -0.21104,0.33765 -0.12661,0.0844 -0.35875,0.0844 -0.18993,0 -0.50647,-0.0422 -0.29545,-0.0422 -0.50648,-0.0422 -1.05515,0 -1.87817,0.44317 -0.82302,0.44316 -1.28729,1.22398 -0.46427,0.78081 -0.46427,1.75156 v 6.41534 q 0,0.27434 -0.16882,0.46427 -0.16883,0.16882 -0.46427,0.16882 -0.27434,0 -0.46427,-0.16882 -0.16883,-0.18993 -0.16883,-0.46427 v -10.27721 q 0,-0.29544 0.16883,-0.46427 0.18993,-0.16882 0.46427,-0.16882 0.29544,0 0.46427,0.16882 0.16882,0.16883 0.16882,0.46427 v 1.30839 q 0.61199,-0.97074 1.56163,-1.51942 0.94964,-0.54868 2.0681,-0.54868 z"
           style="font-weight:300;font-family:Comfortaa;-inkscape-font-specification:'Comfortaa, Light'"
           id="path1408" />
        <path
           d="m 244.31416,184.81948 q 1.54053,0 2.74341,0.73861 1.22398,0.7175 1.89928,2.00479 0.6753,1.28729 0.6753,2.93333 0,0.27434 -0.16883,0.44317 -0.16882,0.14772 -0.44316,0.14772 h -8.8422 q 0.0633,1.24508 0.65419,2.23693 0.59089,0.97074 1.58273,1.51942 0.99185,0.54868 2.21583,0.54868 0.82302,0 1.64604,-0.27434 0.84413,-0.29544 1.3295,-0.75971 0.21103,-0.16882 0.44316,-0.16882 0.23214,0 0.37986,0.12662 0.23213,0.18992 0.23213,0.44316 0,0.21103 -0.18993,0.40096 -0.67529,0.61199 -1.77266,1.01295 -1.07625,0.40096 -2.0681,0.40096 -1.66714,0 -2.97554,-0.73861 -1.28729,-0.75971 -2.02589,-2.08921 -0.73861,-1.3506 -0.73861,-3.03884 0,-1.70936 0.6753,-3.03885 0.6964,-1.3506 1.92038,-2.08921 1.24508,-0.75971 2.82781,-0.75971 z m 0,1.18177 q -1.64604,0 -2.78561,1.09737 -1.11846,1.09736 -1.32949,2.89112 h 8.20911 q -0.14773,-1.79376 -1.26619,-2.89112 -1.11847,-1.09737 -2.82782,-1.09737 z"
           style="font-weight:300;font-family:Comfortaa;-inkscape-font-specification:'Comfortaa, Light'"
           id="path1410" />
        <path
           d="m 263.34913,184.81948 q 1.54053,0 2.7434,0.73861 1.22398,0.7175 1.89928,2.00479 0.6753,1.28729 0.6753,2.93333 0,0.27434 -0.16882,0.44317 -0.16883,0.14772 -0.44317,0.14772 h -8.8422 q 0.0633,1.24508 0.6542,2.23693 0.59088,0.97074 1.58273,1.51942 0.99185,0.54868 2.21583,0.54868 0.82302,0 1.64604,-0.27434 0.84412,-0.29544 1.32949,-0.75971 0.21103,-0.16882 0.44317,-0.16882 0.23213,0 0.37985,0.12662 0.23214,0.18992 0.23214,0.44316 0,0.21103 -0.18993,0.40096 -0.6753,0.61199 -1.77266,1.01295 -1.07626,0.40096 -2.0681,0.40096 -1.66715,0 -2.97554,-0.73861 -1.28729,-0.75971 -2.0259,-2.08921 -0.73861,-1.3506 -0.73861,-3.03884 0,-1.70936 0.6753,-3.03885 0.6964,-1.3506 1.92038,-2.08921 1.24509,-0.75971 2.82782,-0.75971 z m 0,1.18177 q -1.64604,0 -2.78561,1.09737 -1.11846,1.09736 -1.3295,2.89112 h 8.20911 q -0.14772,-1.79376 -1.26619,-2.89112 -1.11846,-1.09737 -2.82781,-1.09737 z"
           style="font-weight:300;font-family:Comfortaa;-inkscape-font-specification:'Comfortaa, Light'"
           id="path1412" />
        <path
           d="m 282.48961,184.79838 q 1.60384,0 1.60384,0.6964 0,0.10552 -0.0211,0.16882 -0.0633,0.23214 -0.21103,0.33765 -0.12662,0.0844 -0.35875,0.0844 -0.18993,0 -0.50648,-0.0422 -0.29544,-0.0422 -0.50647,-0.0422 -1.05515,0 -1.87818,0.44317 -0.82302,0.44316 -1.28728,1.22398 -0.46427,0.78081 -0.46427,1.75156 v 6.41534 q 0,0.27434 -0.16883,0.46427 -0.16882,0.16882 -0.46427,0.16882 -0.27434,0 -0.46426,-0.16882 -0.16883,-0.18993 -0.16883,-0.46427 v -10.27721 q 0,-0.29544 0.16883,-0.46427 0.18992,-0.16882 0.46426,-0.16882 0.29545,0 0.46427,0.16882 0.16883,0.16883 0.16883,0.46427 v 1.30839 q 0.61199,-0.97074 1.56163,-1.51942 0.94964,-0.54868 2.0681,-0.54868 z"
           style="font-weight:300;font-family:Comfortaa;-inkscape-font-specification:'Comfortaa, Light'"
           id="path1414" />
        <path
           d="m 290.36102,184.81948 q 1.54053,0 2.74341,0.73861 1.22398,0.7175 1.89928,2.00479 0.67529,1.28729 0.67529,2.93333 0,0.27434 -0.16882,0.44317 -0.16882,0.14772 -0.44317,0.14772 h -8.84219 q 0.0633,1.24508 0.65419,2.23693 0.59089,0.97074 1.58273,1.51942 0.99185,0.54868 2.21583,0.54868 0.82302,0 1.64604,-0.27434 0.84413,-0.29544 1.3295,-0.75971 0.21103,-0.16882 0.44316,-0.16882 0.23214,0 0.37986,0.12662 0.23213,0.18992 0.23213,0.44316 0,0.21103 -0.18993,0.40096 -0.67529,0.61199 -1.77266,1.01295 -1.07625,0.40096 -2.0681,0.40096 -1.66714,0 -2.97554,-0.73861 -1.28729,-0.75971 -2.02589,-2.08921 -0.73861,-1.3506 -0.73861,-3.03884 0,-1.70936 0.6753,-3.03885 0.6964,-1.3506 1.92038,-2.08921 1.24508,-0.75971 2.82781,-0.75971 z m 0,1.18177 q -1.64604,0 -2.78561,1.09737 -1.11846,1.09736 -1.32949,2.89112 h 8.2091 q -0.14772,-1.79376 -1.26618,-2.89112 -1.11847,-1.09737 -2.82782,-1.09737 z"
           style="font-weight:300;font-family:Comfortaa;-inkscape-font-specification:'Comfortaa, Light'"
           id="path1416" />
        <path
           d="m 302.34757,196.59501 q -1.22398,0 -2.38465,-0.42206 -1.16067,-0.44317 -1.92038,-1.3295 -0.14772,-0.16882 -0.14772,-0.37985 0,-0.29545 0.27434,-0.48537 0.12662,-0.10552 0.35875,-0.10552 0.29544,0 0.48537,0.23213 1.05516,1.28729 3.3976,1.28729 1.66715,0 2.44796,-0.59088 0.80192,-0.59089 0.80192,-1.51943 0,-1.66714 -3.22877,-2.13141 -2.04701,-0.29544 -3.10216,-1.11846 -1.03405,-0.82302 -1.03405,-1.9837 0,-1.54052 1.11846,-2.38465 1.13957,-0.86522 2.95444,-0.86522 2.65899,0 4.03069,1.89928 0.12662,0.14772 0.12662,0.35875 0,0.29544 -0.33765,0.48537 -0.21103,0.0844 -0.31655,0.0844 -0.31655,0 -0.52758,-0.27434 -1.07626,-1.3717 -3.01774,-1.3717 -1.28729,0 -2.047,0.56978 -0.75971,0.54869 -0.75971,1.37171 0,0.84412 0.7175,1.35059 0.73861,0.50648 2.44796,0.75972 2.23693,0.31654 3.20767,1.20287 0.99185,0.86523 0.99185,2.11031 0,0.97075 -0.63309,1.70935 -0.61199,0.73861 -1.64605,1.13957 -1.03405,0.40096 -2.25803,0.40096 z"
           style="font-weight:300;font-family:Comfortaa;-inkscape-font-specification:'Comfortaa, Light'"
           id="path1418" />
        <path
           d="m 315.62141,184.79838 q 1.66714,0 3.01774,0.78081 1.3506,0.75971 2.11031,2.11031 0.78082,1.3506 0.78082,3.01775 0,1.64604 -0.78082,2.99664 -0.75971,1.35059 -2.11031,2.13141 -1.3506,0.75971 -3.01774,0.75971 -1.49832,0 -2.7223,-0.63309 -1.20288,-0.6542 -1.89928,-1.77266 v 6.58416 q 0,0.29545 -0.16882,0.46427 -0.16883,0.16883 -0.46427,0.16883 -0.27434,0 -0.46427,-0.16883 -0.16883,-0.16882 -0.16883,-0.46427 v -10.15059 -0.0422 q 0.0211,-1.62494 0.80192,-2.95444 0.78082,-1.32949 2.11031,-2.0681 1.3506,-0.75971 2.97554,-0.75971 z m 0,10.61486 q 1.30839,0 2.36355,-0.61199 1.05515,-0.61199 1.66714,-1.68825 0.61199,-1.07626 0.61199,-2.40575 0,-1.3295 -0.61199,-2.40576 -0.61199,-1.07626 -1.66714,-1.68825 -1.05516,-0.63309 -2.36355,-0.63309 -1.30839,0 -2.36355,0.63309 -1.05515,0.61199 -1.66714,1.68825 -0.59089,1.07626 -0.59089,2.40576 0,1.32949 0.59089,2.40575 0.61199,1.07626 1.66714,1.68825 1.05516,0.61199 2.36355,0.61199 z"
           style="font-weight:300;font-family:Comfortaa;-inkscape-font-specification:'Comfortaa, Light'"
           id="path1420" />
        <path
           d="m 329.9715,196.59501 q -1.66714,0 -3.01774,-0.75971 -1.3506,-0.78082 -2.13141,-2.13141 -0.75972,-1.3506 -0.75972,-2.99664 0,-1.66715 0.75972,-3.01775 0.78081,-1.3506 2.13141,-2.11031 1.3506,-0.78081 3.01774,-0.78081 1.64604,0 2.99664,0.78081 1.3506,0.75971 2.11031,2.11031 0.78082,1.3506 0.78082,3.01775 0,1.64604 -0.78082,2.99664 -0.75971,1.35059 -2.11031,2.13141 -1.3506,0.75971 -2.99664,0.75971 z m 0,-1.18177 q 1.30839,0 2.36355,-0.61199 1.05515,-0.61199 1.64604,-1.68825 0.61199,-1.07626 0.61199,-2.40575 0,-1.3295 -0.61199,-2.40576 -0.59089,-1.07626 -1.64604,-1.68825 -1.05516,-0.63309 -2.36355,-0.63309 -1.30839,0 -2.36355,0.63309 -1.05515,0.61199 -1.66714,1.68825 -0.61199,1.07626 -0.61199,2.40576 0,1.32949 0.61199,2.40575 0.61199,1.07626 1.66714,1.68825 1.05516,0.61199 2.36355,0.61199 z"
           style="font-weight:300;font-family:Comfortaa;-inkscape-font-specification:'Comfortaa, Light'"
           id="path1422" />
        <path
           d="m 344.3005,184.77727 q 1.54052,0 2.7434,0.6331 1.22398,0.63309 1.89928,1.85707 0.6964,1.20288 0.6964,2.89112 v 5.67674 q 0,0.27434 -0.18993,0.46427 -0.16882,0.16882 -0.44316,0.16882 -0.27434,0 -0.46427,-0.16882 -0.16883,-0.18993 -0.16883,-0.46427 v -5.67674 q 0,-2.00479 -1.13956,-3.05994 -1.11847,-1.05516 -2.93333,-1.05516 -1.11847,0 -2.047,0.44317 -0.90744,0.42206 -1.43502,1.20287 -0.52757,0.75971 -0.52757,1.68825 v 6.45755 q 0,0.27434 -0.16883,0.46427 -0.16882,0.16882 -0.46427,0.16882 -0.27434,0 -0.46426,-0.16882 -0.16883,-0.18993 -0.16883,-0.46427 v -10.27721 q 0,-0.29544 0.16883,-0.46427 0.18992,-0.16882 0.46426,-0.16882 0.29545,0 0.46427,0.16882 0.16883,0.16883 0.16883,0.46427 v 1.09736 q 0.7175,-0.88633 1.75155,-1.3717 1.03406,-0.50648 2.25804,-0.50648 z"
           style="font-weight:300;font-family:Comfortaa;-inkscape-font-specification:'Comfortaa, Light'"
           id="path1424" />
        <path
           d="m 357.15224,196.59501 q -1.22397,0 -2.38465,-0.42206 -1.16067,-0.44317 -1.92038,-1.3295 -0.14772,-0.16882 -0.14772,-0.37985 0,-0.29545 0.27434,-0.48537 0.12662,-0.10552 0.35875,-0.10552 0.29545,0 0.48538,0.23213 1.05515,1.28729 3.39759,1.28729 1.66715,0 2.44796,-0.59088 0.80192,-0.59089 0.80192,-1.51943 0,-1.66714 -3.22877,-2.13141 -2.047,-0.29544 -3.10216,-1.11846 -1.03405,-0.82302 -1.03405,-1.9837 0,-1.54052 1.11846,-2.38465 1.13957,-0.86522 2.95444,-0.86522 2.65899,0 4.03069,1.89928 0.12662,0.14772 0.12662,0.35875 0,0.29544 -0.33765,0.48537 -0.21103,0.0844 -0.31655,0.0844 -0.31654,0 -0.52757,-0.27434 -1.07626,-1.3717 -3.01775,-1.3717 -1.28729,0 -2.047,0.56978 -0.75971,0.54869 -0.75971,1.37171 0,0.84412 0.7175,1.35059 0.73861,0.50648 2.44796,0.75972 2.23693,0.31654 3.20768,1.20287 0.99184,0.86523 0.99184,2.11031 0,0.97075 -0.63309,1.70935 -0.61199,0.73861 -1.64604,1.13957 -1.03406,0.40096 -2.25804,0.40096 z"
           style="font-weight:300;font-family:Comfortaa;-inkscape-font-specification:'Comfortaa, Light'"
           id="path1426" />
        <path
           d="m 369.81409,184.79838 q 1.64604,0 2.99664,0.78081 1.3506,0.75971 2.11031,2.11031 0.78082,1.3506 0.78082,3.01775 v 5.12805 q 0,0.27434 -0.16883,0.46427 -0.16882,0.16882 -0.46427,0.16882 -0.27434,0 -0.46426,-0.16882 -0.16883,-0.18993 -0.16883,-0.46427 v -1.64604 q -0.6964,1.11846 -1.92038,1.77266 -1.20288,0.63309 -2.7012,0.63309 -1.66714,0 -3.01774,-0.75971 -1.3506,-0.78082 -2.13141,-2.13141 -0.75972,-1.3506 -0.75972,-2.99664 0,-1.66715 0.75972,-3.01775 0.78081,-1.3506 2.13141,-2.11031 1.3506,-0.78081 3.01774,-0.78081 z m 0,10.61486 q 1.30839,0 2.36355,-0.61199 1.05515,-0.61199 1.64604,-1.68825 0.61199,-1.07626 0.61199,-2.40575 0,-1.3295 -0.61199,-2.40576 -0.59089,-1.07626 -1.64604,-1.68825 -1.05516,-0.63309 -2.36355,-0.63309 -1.30839,0 -2.36355,0.63309 -1.05515,0.61199 -1.66714,1.68825 -0.61199,1.07626 -0.61199,2.40576 0,1.32949 0.61199,2.40575 0.61199,1.07626 1.66714,1.68825 1.05516,0.61199 2.36355,0.61199 z"
           style="font-weight:300;font-family:Comfortaa;-inkscape-font-specification:'Comfortaa, Light'"
           id="path1428" />
        <path
           d="m 384.75506,184.79838 q 1.66715,0 3.01774,0.78081 1.3506,0.75971 2.11031,2.11031 0.78082,1.3506 0.78082,2.99664 0,1.66715 -0.78082,3.01775 -0.75971,1.35059 -2.11031,2.13141 -1.35059,0.75971 -3.01774,0.75971 -1.62494,0 -2.97554,-0.73861 -1.32949,-0.75971 -2.11031,-2.08921 -0.78081,-1.32949 -0.80191,-2.95443 v -0.0422 -10.15059 q 0,-0.29544 0.16882,-0.46426 0.18993,-0.16883 0.46427,-0.16883 0.29544,0 0.46427,0.16883 0.16882,0.16882 0.16882,0.46426 v 6.58417 q 0.6964,-1.11846 1.89928,-1.75156 1.22398,-0.65419 2.7223,-0.65419 z m 0,10.61486 q 1.30839,0 2.36355,-0.61199 1.05515,-0.6331 1.66714,-1.70935 0.61199,-1.07626 0.61199,-2.40576 0,-1.32949 -0.61199,-2.40575 -0.61199,-1.07626 -1.66714,-1.68825 -1.05516,-0.61199 -2.36355,-0.61199 -1.30839,0 -2.36355,0.61199 -1.05515,0.61199 -1.66714,1.68825 -0.59089,1.07626 -0.59089,2.40575 0,1.3295 0.59089,2.40576 0.61199,1.07625 1.66714,1.70935 1.05516,0.61199 2.36355,0.61199 z"
           style="font-weight:300;font-family:Comfortaa;-inkscape-font-specification:'Comfortaa, Light'"
           id="path1430" />
        <path
           d="m 394.88455,196.46839 q -0.27434,0 -0.46427,-0.16882 -0.16882,-0.18993 -0.16882,-0.46427 v -10.27721 q 0,-0.29544 0.16882,-0.46427 0.18993,-0.16882 0.46427,-0.16882 0.29544,0 0.46427,0.16882 0.16882,0.16883 0.16882,0.46427 v 10.27721 q 0,0.27434 -0.16882,0.46427 -0.16883,0.16882 -0.46427,0.16882 z m -0.0211,-13.97025 q -0.42207,0 -0.69641,-0.27434 -0.27434,-0.29544 -0.27434,-0.71751 0,-0.46426 0.29545,-0.7175 0.29544,-0.25324 0.6964,-0.25324 0.40096,0 0.6753,0.25324 0.29544,0.25324 0.29544,0.7175 0,0.42207 -0.29544,0.71751 -0.27434,0.27434 -0.6964,0.27434 z"
           style="font-weight:300;font-family:Comfortaa;-inkscape-font-specification:'Comfortaa, Light'"
           id="path1432" />
        <path
           d="m 402.05958,196.46839 q -1.20288,0 -1.98369,-0.97074 -0.75971,-0.97074 -0.75971,-2.51127 v -12.36642 q 0,-0.29544 0.16882,-0.46426 0.18993,-0.16883 0.46427,-0.16883 0.29544,0 0.46427,0.16883 0.16882,0.16882 0.16882,0.46426 v 12.36642 q 0,0.97074 0.40096,1.60384 0.42206,0.61199 1.07626,0.61199 h 0.52758 q 0.23213,0 0.37985,0.16882 0.14772,0.16883 0.14772,0.46427 0,0.27434 -0.16882,0.46427 -0.16883,0.16882 -0.46427,0.16882 z"
           style="font-weight:300;font-family:Comfortaa;-inkscape-font-specification:'Comfortaa, Light'"
           id="path1434" />
        <path
           d="m 406.49119,196.46839 q -0.27434,0 -0.46427,-0.16882 -0.16882,-0.18993 -0.16882,-0.46427 v -10.27721 q 0,-0.29544 0.16882,-0.46427 0.18993,-0.16882 0.46427,-0.16882 0.29545,0 0.46427,0.16882 0.16883,0.16883 0.16883,0.46427 v 10.27721 q 0,0.27434 -0.16883,0.46427 -0.16882,0.16882 -0.46427,0.16882 z m -0.0211,-13.97025 q -0.42206,0 -0.6964,-0.27434 -0.27434,-0.29544 -0.27434,-0.71751 0,-0.46426 0.29544,-0.7175 0.29544,-0.25324 0.6964,-0.25324 0.40096,0 0.6753,0.25324 0.29544,0.25324 0.29544,0.7175 0,0.42207 -0.29544,0.71751 -0.27434,0.27434 -0.6964,0.27434 z"
           style="font-weight:300;font-family:Comfortaa;-inkscape-font-specification:'Comfortaa, Light'"
           id="path1436" />
      </g>
    </g>
  </g>
</svg>
