<?xml version="1.0" encoding="UTF-8" standalone="no"?>
<!-- Created with Inkscape (http://www.inkscape.org/) -->

<svg
   width="150"
   height="150"
   viewBox="0 0 150 150"
   version="1.1"
   id="svg5"
   inkscape:version="1.1.2 (0a00cf5339, 2022-02-04)"
   sodipodi:docname="Consensus logo_claim-white.svg"
   inkscape:export-filename="/home/alessandro/Documenti/In lavorazione/CISRI-IEMO-BAID/Project source files/Consensus/Graphics/Logo/graphics/png/Logo_claim-white-1000.png"
   inkscape:export-xdpi="640"
   inkscape:export-ydpi="640"
   xmlns:inkscape="http://www.inkscape.org/namespaces/inkscape"
   xmlns:sodipodi="http://sodipodi.sourceforge.net/DTD/sodipodi-0.dtd"
   xmlns="http://www.w3.org/2000/svg"
   xmlns:svg="http://www.w3.org/2000/svg">
  <sodipodi:namedview
     id="namedview7"
     pagecolor="#505050"
     bordercolor="#eeeeee"
     borderopacity="1"
     inkscape:pageshadow="0"
     inkscape:pageopacity="0"
     inkscape:pagecheckerboard="0"
     inkscape:document-units="px"
     showgrid="false"
     showguides="false"
     inkscape:guide-bbox="true"
     inkscape:zoom="3.43"
     inkscape:cx="107.14286"
     inkscape:cy="77.988338"
     inkscape:window-width="1870"
     inkscape:window-height="1016"
     inkscape:window-x="0"
     inkscape:window-y="0"
     inkscape:window-maximized="1"
     inkscape:current-layer="layer2">
    <sodipodi:guide
       position="68.89479,150"
       orientation="-1,0"
       id="guide9484"
       inkscape:label=""
       inkscape:locked="false"
       inkscape:color="rgb(0,0,255)" />
    <sodipodi:guide
       position="63.696533,86.478699"
       orientation="0,-1"
       id="guide9953" />
    <sodipodi:guide
       position="63.53125,65.5625"
       orientation="0,-1"
       id="guide10221" />
  </sodipodi:namedview>
  <defs
     id="defs2" />
  <g
     inkscape:groupmode="layer"
     id="layer1"
     inkscape:label="Bg"
     sodipodi:insensitive="true"
     style="display:none">
    <rect
       style="display:inline;fill:#ffffff;fill-opacity:1;stroke:none;stroke-width:14.1755;stroke-linejoin:round;stroke-miterlimit:4;stroke-dasharray:56.7022, 28.351, 14.1755, 28.351;stroke-dashoffset:0;stroke-opacity:1;stop-color:#000000"
       id="rect15334"
       width="5568.8999"
       height="3552.4055"
       x="-2709.45"
       y="-1701.2028" />
  </g>
  <g
     inkscape:groupmode="layer"
     id="layer2"
     inkscape:label="Logo"
     style="display:inline">
    <g
       id="g1089"
       transform="matrix(1.0808349,0,0,1.0808349,-5.9009509,-5.5822708)">
      <path
         d="m 81.342249,114.06834 q -12.976832,0 -24.099832,-6.6738 -11.123001,-6.79738 -17.67321,-18.167558 -6.550213,-11.493765 -6.550213,-24.717777 0,-13.224009 6.426622,-24.594186 6.55021,-11.370179 17.549622,-18.043978 11.122999,-6.797391 24.34701,-6.797391 17.302434,0 30.526462,10.999412 1.1123,0.865122 1.1123,2.471778 0,1.483067 -0.98872,2.718955 -0.9887,1.1123 -2.71895,1.1123 -1.35949,0 -3.08973,-1.483066 -9.392747,-8.404044 -24.84136,-8.404044 -10.875823,0 -20.392167,5.808677 -9.392755,5.808679 -14.954255,15.5722 -5.5615,9.639934 -5.5615,20.639343 0,11.370178 5.437911,21.1337 5.561499,9.639926 14.954254,15.325025 9.516345,5.68509 20.515757,5.68509 14.583488,0 25.5829,-9.021994 0.86513,-0.617943 1.85383,-0.617943 1.48307,0 2.59537,1.11229 1.23588,1.112307 1.23588,2.718967 0,1.60666 -0.86512,2.59537 -10.62865,10.62863 -30.402861,10.62863 z"
         style="font-weight:300;font-size:40px;line-height:1.25;font-family:Comfortaa;-inkscape-font-specification:'Comfortaa, Light';text-align:center;text-anchor:middle;display:inline;fill:#5e5e5e;fill-opacity:1;stroke:none;stroke-width:0.219079;stroke-miterlimit:4;stroke-dasharray:none;stroke-opacity:1"
         id="path9759-4" />
      <g
         id="g988"
         transform="matrix(1.9594302,0,0,1.3927281,-278.56513,-35.9469)">
        <path
           d="m 166.0206,116.01779 h 6.76999 v 6.0336 h -6.76999 z"
           id="path16235"
           style="font-size:17.0554px;line-height:1.25;display:inline;fill:#8c8c8c;fill-opacity:0.99997705;stroke-width:0.635375"
           sodipodi:nodetypes="ccccc" />
        <path
           d="m 176.79738,116.01719 h 2.65018 v 6.0342 h -2.65018 z"
           id="path16237"
           style="font-size:17.0554px;line-height:1.25;display:inline;fill:#8c8c8c;fill-opacity:0.99997705;stroke-width:0.510625"
           sodipodi:nodetypes="ccccc" />
        <path
           d="m 183.47945,116.01779 h 6.77 v 6.0336 h -6.77 z"
           id="path16239"
           style="font-size:17.0554px;line-height:1.25;display:inline;fill:#8c8c8c;fill-opacity:0.99997705;stroke-width:0.635375"
           sodipodi:nodetypes="ccccc" />
        <path
           d="m 194.25623,116.01719 h 2.65024 v 6.0342 h -2.65024 z"
           id="path16241"
           style="font-size:17.0554px;line-height:1.25;display:inline;fill:#8c8c8c;fill-opacity:0.99997705;stroke-width:0.510625"
           sodipodi:nodetypes="ccccc" />
      </g>
    </g>
  </g>
</svg>
