<svg
  id={id}
  xmlns="http://www.w3.org/2000/svg"
  width={width}
  height={height}
  version="1.1"
  viewBox="0 0 100 55"
>
  <g display="inline">
    <g transform="translate(6.678 .42) scale(.19143)">
      <g
        fillOpacity="1"
        transform="matrix(1.50747 0 0 1.50747 32.86 -32.852)"
      >
        <path
          style={{
            lineHeight: "1.25",
            InkscapeFontSpecification: "Comfortaa, Light",
            WebkitTextAlign: "center",
            textAlign: "center",
          }}
          fill="#757575"
          stroke="none"
          strokeDasharray="none"
          strokeMiterlimit="4"
          strokeOpacity="1"
          strokeWidth="0.256"
          d="M35.496 135.566c-8.197 0-15.808-2.107-22.834-6.323C5.637 124.95.055 119.213-4.082 112.03c-4.137-7.26-6.206-15.066-6.206-23.418 0-8.353 2.03-16.12 6.089-23.302 4.137-7.182 9.68-12.88 16.627-17.096 7.026-4.293 14.715-6.44 23.068-6.44 10.928 0 20.57 3.474 28.922 10.421.702.547 1.054 1.328 1.054 2.342 0 .937-.313 1.796-.937 2.576-.625.703-1.483 1.054-2.576 1.054-.859 0-1.835-.468-2.927-1.405-5.933-5.308-13.779-7.962-23.536-7.962-6.87 0-13.31 1.834-19.32 5.503-5.934 3.67-10.656 8.587-14.17 14.754-3.512 6.089-5.268 12.607-5.268 19.555 0 7.181 1.717 13.856 5.152 20.023 3.512 6.089 8.235 10.929 14.168 14.52 6.01 3.59 12.49 5.386 19.438 5.386 9.211 0 17.29-2.85 24.238-8.548.547-.39 1.132-.586 1.756-.586.937 0 1.757.352 2.46 1.054.78.703 1.17 1.561 1.17 2.576 0 1.015-.273 1.835-.82 2.46-6.713 6.713-16.314 10.07-28.804 10.07z"
          fontFamily="Comfortaa"
          fontSize="40"
          fontWeight="300"
          textAnchor="middle"
        ></path>
        <g transform="matrix(.81921 0 0 .81921 10.115 17.056)">
          <g
            fill="#757575"
            stroke="none"
            strokeDasharray="none"
            strokeMiterlimit="4"
            strokeOpacity="1"
            strokeWidth="0.127"
            fontFamily="Comfortaa"
            fontSize="40"
            fontWeight="300"
            textAnchor="middle"
            transform="matrix(1.0021 0 0 1.0021 22.977 7.518)"
          >
            <path
              style={{
                lineHeight: "1.25",
                InkscapeFontSpecification: "Comfortaa, Light",
                WebkitTextAlign: "center",
                textAlign: "center",
              }}
              d="M69.569 87.415c-2.562 0-4.88-.584-6.956-1.751a13.227 13.227 0 01-4.912-4.913c-1.168-2.075-1.752-4.377-1.752-6.907 0-2.561.584-4.88 1.752-6.955a12.868 12.868 0 014.912-4.864c2.076-1.2 4.394-1.8 6.956-1.8 2.529 0 4.831.6 6.907 1.8a12.524 12.524 0 014.864 4.864c1.2 2.075 1.8 4.394 1.8 6.955 0 2.53-.6 4.832-1.8 6.907a12.868 12.868 0 01-4.864 4.913c-2.076 1.167-4.378 1.751-6.907 1.751zm0-2.724c2.01 0 3.826-.47 5.447-1.41a9.948 9.948 0 003.794-3.892c.94-1.653 1.41-3.502 1.41-5.545 0-2.042-.47-3.89-1.41-5.544a9.948 9.948 0 00-3.794-3.892c-1.62-.972-3.437-1.459-5.447-1.459-2.01 0-3.827.487-5.448 1.46a10.297 10.297 0 00-3.843 3.89c-.94 1.654-1.41 3.503-1.41 5.545 0 2.043.47 3.892 1.41 5.545a10.297 10.297 0 003.843 3.892c1.621.94 3.437 1.41 5.448 1.41z"
            ></path>
            <path
              style={{
                lineHeight: "1.25",
                InkscapeFontSpecification: "Comfortaa, Light",
                WebkitTextAlign: "center",
                textAlign: "center",
              }}
              d="M102.595 60.177c2.367 0 4.475.486 6.323 1.459 1.881.973 3.34 2.4 4.378 4.28 1.07 1.848 1.605 4.07 1.605 6.664v13.084c0 .422-.146.778-.438 1.07-.259.26-.6.39-1.021.39-.422 0-.778-.13-1.07-.39a1.553 1.553 0 01-.39-1.07V72.58c0-3.08-.875-5.432-2.626-7.053-1.718-1.621-3.972-2.432-6.76-2.432-1.72 0-3.292.34-4.719 1.021-1.394.649-2.497 1.573-3.307 2.773a6.669 6.669 0 00-1.216 3.891v14.884c0 .422-.13.778-.39 1.07-.259.26-.616.39-1.07.39-.421 0-.778-.13-1.07-.39a1.553 1.553 0 01-.389-1.07V61.976c0-.454.13-.81.39-1.07.291-.26.648-.389 1.07-.389.453 0 .81.13 1.07.39.259.259.389.615.389 1.07v2.529a11.313 11.313 0 014.037-3.162c1.589-.778 3.324-1.167 5.204-1.167z"
            ></path>
            <path
              style={{
                lineHeight: "1.25",
                InkscapeFontSpecification: "Comfortaa, Light",
                WebkitTextAlign: "center",
                textAlign: "center",
              }}
              d="M132.217 87.415c-1.88 0-3.713-.324-5.496-.973-1.784-.68-3.26-1.702-4.427-3.064a1.295 1.295 0 01-.34-.876c0-.454.21-.826.632-1.118.195-.162.47-.244.827-.244.454 0 .827.179 1.119.536 1.621 1.978 4.232 2.967 7.831 2.967 2.562 0 4.442-.454 5.642-1.362 1.232-.908 1.849-2.076 1.849-3.502 0-2.562-2.481-4.2-7.442-4.913-3.146-.454-5.53-1.313-7.15-2.578-1.59-1.265-2.384-2.789-2.384-4.572 0-2.367.86-4.2 2.578-5.496 1.751-1.33 4.021-1.995 6.81-1.995 4.085 0 7.182 1.46 9.29 4.378.194.227.292.502.292.827 0 .454-.26.827-.778 1.118-.325.13-.568.195-.73.195-.486 0-.892-.21-1.216-.632-1.654-2.108-3.972-3.162-6.956-3.162-1.978 0-3.55.438-4.718 1.313-1.167.843-1.75 1.897-1.75 3.162 0 1.297.55 2.335 1.653 3.113 1.135.778 3.016 1.362 5.642 1.751 3.437.486 5.902 1.41 7.394 2.772 1.524 1.33 2.286 2.951 2.286 4.864 0 1.492-.487 2.805-1.46 3.94-.94 1.135-2.205 2.01-3.793 2.627-1.59.616-3.324.924-5.205.924z"
            ></path>
            <path
              style={{
                lineHeight: "1.25",
                InkscapeFontSpecification: "Comfortaa, Light",
                WebkitTextAlign: "center",
                textAlign: "center",
              }}
              d="M160.282 60.274c2.367 0 4.475.567 6.324 1.702 1.88 1.103 3.34 2.643 4.377 4.621 1.038 1.978 1.557 4.232 1.557 6.761 0 .422-.13.762-.39 1.022-.259.227-.6.34-1.021.34h-20.38c.097 1.913.6 3.632 1.508 5.156a9.697 9.697 0 003.648 3.502c1.524.843 3.226 1.265 5.107 1.265 1.265 0 2.53-.211 3.794-.633 1.297-.454 2.318-1.037 3.064-1.75.324-.26.665-.39 1.022-.39.356 0 .648.097.875.292.357.292.535.632.535 1.021 0 .325-.146.633-.438.925-1.037.94-2.4 1.718-4.085 2.334-1.654.616-3.243.924-4.767.924-2.562 0-4.848-.567-6.858-1.702-1.978-1.167-3.535-2.772-4.67-4.815-1.135-2.076-1.702-4.41-1.702-7.005 0-2.626.519-4.96 1.556-7.004 1.07-2.075 2.546-3.68 4.427-4.815 1.913-1.167 4.085-1.751 6.517-1.751zm0 2.724c-2.529 0-4.67.843-6.42 2.529-1.719 1.686-2.74 3.907-3.065 6.664h18.921c-.227-2.757-1.2-4.978-2.918-6.664-1.719-1.686-3.891-2.53-6.518-2.53z"
            ></path>
            <path
              style={{
                lineHeight: "1.25",
                InkscapeFontSpecification: "Comfortaa, Light",
                WebkitTextAlign: "center",
                textAlign: "center",
              }}
              d="M191.023 60.177c2.367 0 4.475.486 6.323 1.459 1.88.973 3.34 2.4 4.378 4.28 1.07 1.848 1.605 4.07 1.605 6.664v13.084c0 .422-.146.778-.438 1.07-.26.26-.6.39-1.021.39-.422 0-.779-.13-1.07-.39a1.553 1.553 0 01-.39-1.07V72.58c0-3.08-.875-5.432-2.626-7.053-1.719-1.621-3.973-2.432-6.761-2.432-1.719 0-3.292.34-4.718 1.021-1.395.649-2.497 1.573-3.308 2.773a6.669 6.669 0 00-1.216 3.891v14.884c0 .422-.13.778-.389 1.07-.26.26-.616.39-1.07.39-.422 0-.778-.13-1.07-.39a1.553 1.553 0 01-.39-1.07V61.976c0-.454.13-.81.39-1.07.292-.26.648-.389 1.07-.389.454 0 .81.13 1.07.39.26.259.39.615.39 1.07v2.529a11.313 11.313 0 014.036-3.162c1.59-.778 3.324-1.167 5.205-1.167z"
            ></path>
            <path
              style={{
                lineHeight: "1.25",
                InkscapeFontSpecification: "Comfortaa, Light",
                WebkitTextAlign: "center",
                textAlign: "center",
              }}
              d="M220.645 87.415c-1.881 0-3.713-.324-5.497-.973-1.783-.68-3.259-1.702-4.426-3.064a1.295 1.295 0 01-.34-.876c0-.454.21-.826.632-1.118.194-.162.47-.244.827-.244.454 0 .827.179 1.118.536 1.622 1.978 4.232 2.967 7.831 2.967 2.562 0 4.443-.454 5.643-1.362 1.232-.908 1.848-2.076 1.848-3.502 0-2.562-2.48-4.2-7.442-4.913-3.145-.454-5.529-1.313-7.15-2.578-1.589-1.265-2.383-2.789-2.383-4.572 0-2.367.859-4.2 2.578-5.496 1.75-1.33 4.02-1.995 6.81-1.995 4.085 0 7.182 1.46 9.29 4.378.194.227.291.502.291.827 0 .454-.26.827-.778 1.118-.324.13-.567.195-.73.195-.486 0-.891-.21-1.216-.632-1.653-2.108-3.972-3.162-6.955-3.162-1.978 0-3.55.438-4.718 1.313-1.168.843-1.751 1.897-1.751 3.162 0 1.297.551 2.335 1.653 3.113 1.135.778 3.016 1.362 5.643 1.751 3.437.486 5.901 1.41 7.393 2.772 1.524 1.33 2.286 2.951 2.286 4.864 0 1.492-.486 2.805-1.46 3.94-.94 1.135-2.204 2.01-3.793 2.627-1.589.616-3.324.924-5.204.924z"
            ></path>
            <path
              style={{
                lineHeight: "1.25",
                InkscapeFontSpecification: "Comfortaa, Light",
                WebkitTextAlign: "center",
                textAlign: "center",
              }}
              d="M260.189 60.517c.454 0 .81.13 1.07.39.26.259.389.615.389 1.07v23.687c0 .422-.13.778-.39 1.07-.258.26-.615.39-1.07.39-.42 0-.777-.13-1.07-.39a1.553 1.553 0 01-.388-1.07v-2.53a11.817 11.817 0 01-4.037 3.211c-1.59.746-3.324 1.119-5.205 1.119-2.367 0-4.491-.487-6.372-1.46-1.848-.972-3.307-2.383-4.377-4.231-1.038-1.88-1.557-4.118-1.557-6.713V61.976c0-.421.13-.762.39-1.021a1.456 1.456 0 011.07-.438c.42 0 .761.146 1.02.438.293.26.438.6.438 1.021V75.06c0 3.081.86 5.432 2.578 7.053 1.751 1.622 4.021 2.432 6.81 2.432 1.719 0 3.275-.324 4.67-.973 1.426-.68 2.545-1.605 3.356-2.772a6.892 6.892 0 001.216-3.94V61.976c0-.454.13-.81.389-1.07.292-.26.648-.389 1.07-.389z"
            ></path>
            <path
              style={{
                lineHeight: "1.25",
                InkscapeFontSpecification: "Comfortaa, Light",
                WebkitTextAlign: "center",
                textAlign: "center",
              }}
              d="M279.45 87.415c-1.88 0-3.713-.324-5.496-.973-1.784-.68-3.259-1.702-4.426-3.064a1.295 1.295 0 01-.34-.876c0-.454.21-.826.632-1.118.194-.162.47-.244.826-.244.454 0 .827.179 1.12.536 1.62 1.978 4.23 2.967 7.83 2.967 2.562 0 4.443-.454 5.642-1.362 1.233-.908 1.849-2.076 1.849-3.502 0-2.562-2.48-4.2-7.442-4.913-3.146-.454-5.529-1.313-7.15-2.578-1.59-1.265-2.384-2.789-2.384-4.572 0-2.367.86-4.2 2.578-5.496 1.751-1.33 4.021-1.995 6.81-1.995 4.086 0 7.182 1.46 9.29 4.378.195.227.292.502.292.827 0 .454-.26.827-.778 1.118-.325.13-.568.195-.73.195-.486 0-.892-.21-1.216-.632-1.654-2.108-3.972-3.162-6.955-3.162-1.978 0-3.551.438-4.718 1.313-1.168.843-1.752 1.897-1.752 3.162 0 1.297.552 2.335 1.654 3.113 1.135.778 3.016 1.362 5.642 1.751 3.438.486 5.902 1.41 7.394 2.772 1.524 1.33 2.285 2.951 2.285 4.864 0 1.492-.486 2.805-1.458 3.94-.94 1.135-2.205 2.01-3.794 2.627-1.59.616-3.324.924-5.205.924z"
            ></path>
          </g>
          <g
            fill="#a3a3a3"
            style={{ lineHeight: "1.25" }}
            strokeWidth="0.426"
            display="inline"
            fontSize="17.055"
            transform="matrix(1.2706 0 0 .93365 7.748 22.47)"
          >
            <path
              strokeWidth="0.491"
              d="M56.073 91.719h4.488v5.444h-4.488z"
            ></path>
            <path
              strokeWidth="0.395"
              d="M63.218 91.718h1.757v5.445h-1.757z"
            ></path>
            <path
              strokeWidth="0.491"
              d="M67.648 91.719h4.489v5.444h-4.489z"
            ></path>
            <path
              strokeWidth="0.395"
              d="M74.794 91.718h1.757v5.445h-1.757z"
            ></path>
            <path
              strokeWidth="0.491"
              d="M84.645 91.719h4.49v5.444h-4.49z"
            ></path>
            <path
              strokeWidth="0.491"
              d="M90.8 91.719h4.488v5.444H90.8z"
            ></path>
            <path
              strokeWidth="0.491"
              d="M96.954 91.719h4.489v5.444h-4.489z"
            ></path>
            <path
              strokeWidth="0.491"
              d="M108.53 91.719h4.488v5.444h-4.488z"
            ></path>
            <path
              strokeWidth="0.395"
              d="M115.675 91.718h1.757v5.445h-1.757z"
            ></path>
            <path
              strokeWidth="0.395"
              d="M126.518 91.718h1.757v5.445h-1.757z"
            ></path>
            <path
              strokeWidth="0.395"
              d="M131.94 91.718h1.756v5.445h-1.757z"
            ></path>
            <path
              strokeWidth="0.395"
              d="M137.36 91.718h1.758v5.445h-1.757z"
            ></path>
            <path
              strokeWidth="0.395"
              d="M148.203 91.718h1.758v5.445h-1.758z"
            ></path>
            <path
              strokeWidth="0.491"
              d="M158.055 91.719h4.489v5.444h-4.489z"
            ></path>
            <path
              strokeWidth="0.395"
              d="M165.2 91.718h1.758v5.445H165.2z"
            ></path>
            <path
              strokeWidth="0.395"
              d="M176.043 91.718h1.758v5.445h-1.758z"
            ></path>
            <path
              strokeWidth="0.395"
              d="M181.465 91.718h1.757v5.445h-1.757z"
            ></path>
            <path
              strokeWidth="0.395"
              d="M186.886 91.718h1.757v5.445h-1.757z"
            ></path>
            <path
              strokeWidth="0.395"
              d="M197.73 91.718h1.756v5.445h-1.757z"
            ></path>
            <path
              strokeWidth="0.395"
              d="M203.15 91.718h1.758v5.445h-1.757z"
            ></path>
            <path
              strokeWidth="0.491"
              d="M207.58 91.719h4.49v5.444h-4.49z"
            ></path>
            <path
              strokeWidth="0.395"
              d="M220.148 91.718h1.757v5.445h-1.757z"
            ></path>
            <path
              strokeWidth="0.395"
              d="M225.569 91.718h1.757v5.445h-1.757z"
            ></path>
            <path
              strokeWidth="0.395"
              d="M230.99 91.718h1.758v5.445h-1.758z"
            ></path>
          </g>
        </g>
      </g>
      <g
        style={{ lineHeight: "1.25" }}
        fill="#8c8c8c"
        strokeWidth="1.735"
        display="inline"
        fontFamily="Comfortaa"
        fontSize="25.44"
        fontWeight="300"
      >
        <path
          d="M158.763 203.639q.203.356.203.585 0 .28-.229.433-.203.152-.61.152-.255 0-.407-.101-.153-.102-.28-.306l-4.681-7.48h-4.554v7.124q0 .33-.203.56-.204.203-.56.203-.33 0-.56-.203-.203-.23-.203-.56v-18.342q0-.357.203-.56.23-.204.56-.204h4.859q1.832 0 3.282.764 1.45.763 2.264 2.137.814 1.373.814 3.129 0 2.086-1.17 3.612-1.145 1.501-3.104 2.06zm-6.462-8.243q1.4 0 2.493-.56 1.094-.559 1.705-1.577.636-1.017.636-2.29 0-1.297-.636-2.314-.61-1.043-1.705-1.603-1.094-.585-2.493-.585h-4.096v8.93z"
          style={{}}
        ></path>
        <path
          d="M167.667 190.766q1.857 0 3.307.89 1.476.866 2.29 2.417.814 1.552.814 3.537 0 .33-.204.534-.203.178-.534.178h-10.66q.077 1.501.79 2.697.712 1.17 1.907 1.831 1.196.662 2.672.662.992 0 1.984-.33 1.017-.357 1.603-.917.254-.203.534-.203t.458.152q.28.23.28.535 0 .254-.23.483-.813.738-2.136 1.221-1.298.483-2.493.483-2.01 0-3.588-.89-1.551-.916-2.442-2.519-.89-1.628-.89-3.663 0-2.06.814-3.663.84-1.629 2.315-2.519 1.5-.916 3.409-.916zm0 1.425q-1.984 0-3.358 1.323-1.349 1.323-1.603 3.485h9.896q-.178-2.162-1.526-3.485t-3.41-1.323z"
          style={{}}
        ></path>
        <path
          d="M180.184 204.81q-1.45 0-2.392-1.171-.916-1.17-.916-3.027v-14.908q0-.357.204-.56.229-.204.56-.204.356 0 .56.204.203.203.203.56v14.908q0 1.17.483 1.933.509.738 1.298.738h.636q.28 0 .457.203.179.204.179.56 0 .33-.204.56-.204.203-.56.203z"
          style={{}}
        ></path>
        <path
          d="M190.36 190.74q1.984 0 3.612.942 1.628.916 2.544 2.544.941 1.628.941 3.638v6.182q0 .33-.203.56-.204.203-.56.203-.33 0-.56-.203-.203-.23-.203-.56v-1.984q-.84 1.348-2.315 2.137-1.45.763-3.256.763-2.01 0-3.638-.916-1.629-.941-2.57-2.57-.916-1.628-.916-3.612 0-2.01.916-3.638.941-1.628 2.57-2.544 1.628-.941 3.638-.941zm0 12.797q1.577 0 2.849-.738 1.272-.737 1.984-2.035.738-1.297.738-2.9t-.738-2.9q-.712-1.298-1.984-2.035-1.272-.764-2.85-.764-1.577 0-2.849.764-1.272.737-2.01 2.035-.737 1.297-.737 2.9t.737 2.9q.738 1.298 2.01 2.035 1.272.738 2.85.738z"
          style={{}}
        ></path>
        <path
          d="M211.272 203.435q.686 0 .686.687t-.686.687h-9.948q-.687 0-.687-.687 0-.381.204-.534l9.082-11.32h-8.599q-.687 0-.687-.688 0-.687.687-.687h9.947q.687 0 .687.687 0 .306-.101.433l-9.108 11.422z"
          style={{}}
        ></path>
        <path
          d="M216.665 204.81q-.33 0-.56-.204-.203-.23-.203-.56v-12.39q0-.356.203-.56.23-.203.56-.203.356 0 .56.204.203.203.203.56v12.39q0 .33-.204.559-.203.203-.56.203zm-.026-16.842q-.508 0-.84-.33-.33-.357-.33-.866 0-.56.356-.865.356-.305.84-.305.483 0 .814.305.356.305.356.865 0 .509-.356.865-.33.33-.84.33z"
          style={{}}
        ></path>
        <path
          d="M228.876 204.962q-2.01 0-3.638-.916-1.628-.941-2.57-2.57-.915-1.628-.915-3.612 0-2.01.916-3.638.941-1.628 2.57-2.544 1.627-.941 3.637-.941 1.984 0 3.613.941 1.628.916 2.544 2.544.941 1.628.941 3.638 0 1.984-.941 3.613-.916 1.628-2.544 2.57-1.629.915-3.613.915zm0-1.425q1.577 0 2.85-.738 1.271-.737 1.984-2.035.738-1.297.738-2.9t-.738-2.9q-.713-1.298-1.985-2.035-1.272-.764-2.849-.764-1.577 0-2.85.764-1.271.737-2.009 2.035-.738 1.297-.738 2.9t.738 2.9q.738 1.298 2.01 2.035 1.272.738 2.85.738z"
          style={{}}
        ></path>
        <path
          d="M246.15 190.715q1.857 0 3.307.764 1.476.763 2.29 2.238.84 1.45.84 3.486v6.843q0 .33-.23.56-.203.203-.534.203-.33 0-.56-.203-.203-.23-.203-.56v-6.843q0-2.417-1.374-3.69-1.348-1.271-3.536-1.271-1.348 0-2.468.534-1.094.509-1.73 1.45-.636.916-.636 2.035v7.785q0 .33-.203.56-.204.203-.56.203-.33 0-.56-.203-.203-.23-.203-.56v-12.39q0-.356.204-.56.228-.203.56-.203.355 0 .559.204.203.203.203.56v1.323q.865-1.069 2.112-1.654 1.247-.61 2.722-.61z"
          style={{}}
        ></path>
        <path
          d="M258.183 204.81q-.33 0-.56-.204-.203-.23-.203-.56v-12.39q0-.356.204-.56.229-.203.56-.203.355 0 .559.204.203.203.203.56v12.39q0 .33-.203.559-.204.203-.56.203zm-.025-16.842q-.509 0-.84-.33-.33-.357-.33-.866 0-.56.356-.865.356-.305.84-.305.483 0 .813.305.357.305.357.865 0 .509-.357.865-.33.33-.84.33z"
          style={{}}
        ></path>
        <path
          d="M283.267 190.893q.357 0 .56.204.204.203.204.56v12.39q0 .33-.204.559-.203.203-.56.203-.33 0-.56-.203-.203-.23-.203-.56v-1.323q-.865 1.069-2.111 1.68-1.247.584-2.722.584-1.858 0-3.333-.763-1.45-.763-2.29-2.213-.814-1.476-.814-3.51v-6.844q0-.331.204-.535.229-.229.56-.229.33 0 .534.23.229.203.229.534v6.843q0 2.417 1.348 3.689 1.374 1.272 3.562 1.272 1.348 0 2.442-.509 1.12-.534 1.755-1.45.636-.941.636-2.06v-7.785q0-.357.204-.56.229-.204.56-.204z"
          style={{}}
        ></path>
        <path
          d="M303.289 190.715q1.526 0 2.722.764 1.196.763 1.857 2.137.662 1.348.662 3.078v7.352q0 .33-.204.56-.204.203-.56.203-.33 0-.56-.203-.203-.23-.203-.56v-7.352q0-1.96-1.043-3.206t-2.671-1.246q-1.781 0-2.875 1.17t-1.043 3.104v7.53q0 .33-.203.56-.204.203-.56.203-.33 0-.56-.203-.203-.23-.203-.56v-7.352q0-1.96-1.043-3.206t-2.672-1.246q-1.755 0-2.874 1.12-1.12 1.119-1.12 2.9v7.784q0 .33-.203.56-.204.203-.56.203-.33 0-.56-.203-.203-.23-.203-.56v-12.39q0-.356.203-.56.23-.203.56-.203.356 0 .56.204.203.203.203.56v.992q.713-.916 1.756-1.425 1.043-.509 2.238-.509 1.476 0 2.646.738 1.17.712 1.857 1.984.687-1.272 1.908-1.984 1.221-.738 2.748-.738z"
          style={{}}
        ></path>
        <path
          d="M319.214 190.74q1.985 0 3.613.942 1.628.916 2.544 2.544.941 1.628.941 3.638v6.182q0 .33-.203.56-.204.203-.56.203-.33 0-.56-.203-.203-.23-.203-.56v-1.984q-.84 1.348-2.315 2.137-1.45.763-3.257.763-2.01 0-3.638-.916-1.628-.941-2.569-2.57-.916-1.628-.916-3.612 0-2.01.916-3.638.941-1.628 2.57-2.544 1.628-.941 3.637-.941zm0 12.797q1.578 0 2.85-.738 1.272-.737 1.984-2.035.738-1.297.738-2.9t-.738-2.9q-.712-1.298-1.984-2.035-1.272-.764-2.85-.764-1.577 0-2.849.764-1.272.737-2.01 2.035-.737 1.297-.737 2.9t.737 2.9q.738 1.298 2.01 2.035 1.272.738 2.85.738z"
          style={{}}
        ></path>
        <path
          d="M336.488 190.715q1.858 0 3.308.764 1.475.763 2.29 2.238.839 1.45.839 3.486v6.843q0 .33-.23.56-.203.203-.533.203-.331 0-.56-.203-.204-.23-.204-.56v-6.843q0-2.417-1.373-3.69-1.349-1.271-3.537-1.271-1.348 0-2.467.534-1.094.509-1.73 1.45-.636.916-.636 2.035v7.785q0 .33-.204.56-.203.203-.56.203-.33 0-.56-.203-.203-.23-.203-.56v-12.39q0-.356.204-.56.229-.203.56-.203.356 0 .56.204.203.203.203.56v1.323q.865-1.069 2.111-1.654 1.247-.61 2.722-.61z"
          style={{}}
        ></path>
        <path
          d="M353.025 190.766q1.857 0 3.307.89 1.475.866 2.29 2.417.813 1.552.813 3.537 0 .33-.203.534-.204.178-.534.178h-10.66q.077 1.501.789 2.697.712 1.17 1.908 1.831 1.196.662 2.671.662.992 0 1.984-.33 1.018-.357 1.603-.917.255-.203.534-.203.28 0 .458.152.28.23.28.535 0 .254-.229.483-.814.738-2.137 1.221-1.297.483-2.493.483-2.01 0-3.587-.89-1.552-.916-2.442-2.519-.89-1.628-.89-3.663 0-2.06.813-3.663.84-1.629 2.316-2.519 1.5-.916 3.409-.916zm0 1.425q-1.985 0-3.359 1.323-1.348 1.323-1.602 3.485h9.896q-.178-2.162-1.526-3.485-1.349-1.323-3.41-1.323z"
          style={{}}
        ></path>
        <path
          d="M152.326 223.314q1.934 0 1.934.84 0 .126-.026.203-.076.28-.254.407-.153.102-.432.102-.23 0-.611-.051-.356-.051-.61-.051-1.273 0-2.265.534-.992.534-1.552 1.476-.56.94-.56 2.111v7.734q0 .33-.203.56-.203.203-.56.203-.33 0-.56-.203-.203-.23-.203-.56v-12.39q0-.356.204-.56.229-.203.56-.203.356 0 .56.204.203.203.203.56v1.577q.738-1.17 1.882-1.832 1.145-.661 2.493-.661z"
          style={{}}
        ></path>
        <path
          d="M161.816 223.34q1.857 0 3.307.89 1.475.865 2.29 2.416.814 1.552.814 3.537 0 .33-.204.534-.203.178-.534.178h-10.66q.077 1.5.789 2.697.712 1.17 1.908 1.831 1.196.662 2.671.662.992 0 1.985-.33 1.017-.357 1.602-.917.255-.203.535-.203t.457.152q.28.23.28.535 0 .254-.229.483-.814.738-2.137 1.221-1.297.483-2.493.483-2.01 0-3.587-.89-1.552-.916-2.442-2.519-.89-1.628-.89-3.663 0-2.06.814-3.663.84-1.629 2.315-2.519 1.5-.916 3.409-.916zm0 1.424q-1.985 0-3.359 1.323-1.348 1.323-1.602 3.485h9.896q-.178-2.162-1.526-3.485-1.349-1.323-3.41-1.323z"
          style={{}}
        ></path>
        <path
          d="M176.266 237.535q-1.476 0-2.875-.509-1.4-.534-2.315-1.603-.178-.203-.178-.458 0-.356.33-.585.153-.127.433-.127.356 0 .585.28 1.272 1.552 4.096 1.552 2.01 0 2.951-.713.967-.712.967-1.831 0-2.01-3.893-2.57-2.467-.356-3.74-1.348-1.246-.992-1.246-2.391 0-1.858 1.348-2.875 1.374-1.043 3.562-1.043 3.206 0 4.86 2.29.152.177.152.432 0 .356-.407.585-.255.102-.382.102-.381 0-.636-.331-1.297-1.654-3.638-1.654-1.552 0-2.467.687-.916.662-.916 1.654 0 1.018.865 1.628.89.61 2.95.916 2.697.382 3.868 1.45 1.195 1.043 1.195 2.544 0 1.17-.763 2.06-.738.891-1.984 1.375-1.247.483-2.722.483z"
          style={{}}
        ></path>
        <path
          d="M192.268 223.314q2.01 0 3.638.941 1.628.916 2.544 2.544.94 1.628.94 3.638 0 1.984-.94 3.613-.916 1.628-2.544 2.569-1.629.916-3.638.916-1.807 0-3.282-.763-1.45-.789-2.29-2.137v7.937q0 .356-.203.56-.204.203-.56.203-.33 0-.56-.203-.203-.204-.203-.56v-12.287q.025-1.96.967-3.562.94-1.603 2.544-2.493 1.628-.916 3.587-.916zm0 12.796q1.577 0 2.849-.738 1.272-.737 2.01-2.035.737-1.297.737-2.9t-.737-2.9q-.738-1.298-2.01-2.035-1.272-.764-2.85-.764-1.577 0-2.849.764-1.272.737-2.01 2.035-.712 1.297-.712 2.9t.713 2.9q.737 1.298 2.01 2.035 1.271.738 2.849.738z"
          style={{}}
        ></path>
        <path
          d="M209.567 237.535q-2.01 0-3.638-.916-1.628-.941-2.57-2.57-.915-1.628-.915-3.612 0-2.01.916-3.638.94-1.628 2.569-2.544 1.628-.941 3.638-.941 1.984 0 3.613.941 1.628.916 2.544 2.544.94 1.628.94 3.638 0 1.984-.94 3.613-.916 1.628-2.544 2.569-1.629.916-3.613.916zm0-1.425q1.577 0 2.85-.738 1.271-.737 1.984-2.035.737-1.297.737-2.9t-.737-2.9q-.713-1.298-1.985-2.035-1.272-.764-2.849-.764-1.577 0-2.85.764-1.271.737-2.01 2.035-.737 1.297-.737 2.9t.738 2.9q.738 1.298 2.01 2.035 1.272.738 2.849.738z"
          style={{}}
        ></path>
        <path
          d="M226.84 223.288q1.858 0 3.308.764 1.476.763 2.29 2.238.84 1.45.84 3.486v6.843q0 .33-.23.56-.203.203-.534.203-.33 0-.56-.203-.203-.23-.203-.56v-6.843q0-2.417-1.374-3.69-1.348-1.271-3.536-1.271-1.348 0-2.468.534-1.094.509-1.73 1.45-.636.916-.636 2.035v7.785q0 .33-.203.56-.204.203-.56.203-.33 0-.56-.203-.203-.23-.203-.56v-12.39q0-.356.203-.56.23-.203.56-.203.356 0 .56.204.203.203.203.56v1.322q.865-1.068 2.112-1.653 1.246-.61 2.722-.61z"
          style={{}}
        ></path>
        <path
          d="M242.334 237.535q-1.475 0-2.875-.509-1.399-.534-2.315-1.603-.178-.203-.178-.458 0-.356.33-.585.154-.127.433-.127.357 0 .585.28 1.272 1.552 4.096 1.552 2.01 0 2.951-.713.967-.712.967-1.831 0-2.01-3.892-2.57-2.468-.356-3.74-1.348-1.246-.992-1.246-2.391 0-1.858 1.348-2.875 1.374-1.043 3.561-1.043 3.206 0 4.86 2.29.152.177.152.432 0 .356-.407.585-.254.102-.381.102-.382 0-.636-.331-1.298-1.654-3.638-1.654-1.552 0-2.468.687-.916.662-.916 1.654 0 1.018.865 1.628.89.61 2.951.916 2.697.382 3.867 1.45 1.196 1.043 1.196 2.544 0 1.17-.764 2.06-.737.891-1.984 1.375-1.246.483-2.722.483z"
          style={{}}
        ></path>
        <path
          d="M257.598 223.314q1.985 0 3.613.941 1.628.916 2.544 2.544.941 1.628.941 3.638v6.182q0 .33-.203.56-.204.203-.56.203-.33 0-.56-.203-.203-.23-.203-.56v-1.984q-.84 1.348-2.315 2.137-1.45.763-3.257.763-2.01 0-3.638-.916-1.628-.941-2.57-2.57-.915-1.628-.915-3.612 0-2.01.916-3.638.941-1.628 2.57-2.544 1.627-.941 3.637-.941zm0 12.796q1.578 0 2.85-.738 1.272-.737 1.984-2.035.738-1.297.738-2.9t-.738-2.9q-.712-1.298-1.984-2.035-1.272-.764-2.85-.764-1.577 0-2.85.764-1.271.737-2.009 2.035-.738 1.297-.738 2.9t.738 2.9q.738 1.298 2.01 2.035 1.272.738 2.85.738z"
          style={{}}
        ></path>
        <path
          d="M275.61 223.314q2.01 0 3.638.941 1.628.916 2.544 2.544.941 1.628.941 3.613 0 2.01-.941 3.638-.916 1.628-2.544 2.569-1.628.916-3.638.916-1.959 0-3.587-.89-1.603-.916-2.544-2.52-.941-1.602-.967-3.56v-12.288q0-.357.204-.56.229-.204.56-.204.355 0 .559.204.203.203.203.56v7.937q.84-1.348 2.29-2.112 1.476-.788 3.282-.788zm0 12.796q1.577 0 2.85-.738 1.271-.763 2.009-2.06.738-1.298.738-2.9 0-1.603-.738-2.9-.738-1.298-2.01-2.036-1.272-.738-2.85-.738-1.576 0-2.848.738-1.272.738-2.01 2.035-.713 1.298-.713 2.9 0 1.603.713 2.9.738 1.298 2.01 2.061 1.272.738 2.849.738z"
          style={{}}
        ></path>
        <path
          d="M287.821 237.382q-.33 0-.56-.203-.203-.23-.203-.56v-12.39q0-.356.204-.56.229-.203.56-.203.355 0 .559.204.203.203.203.56v12.389q0 .33-.203.56-.204.203-.56.203zm-.025-16.841q-.509 0-.84-.331-.33-.356-.33-.865 0-.56.356-.865.356-.305.84-.305.483 0 .813.305.357.305.357.865 0 .509-.357.865-.33.33-.84.33z"
          style={{}}
        ></path>
        <path
          d="M296.47 237.382q-1.45 0-2.39-1.17-.916-1.17-.916-3.027v-14.908q0-.357.203-.56.23-.204.56-.204.356 0 .56.204.203.203.203.56v14.908q0 1.17.483 1.933.51.738 1.298.738h.636q.28 0 .458.203.178.204.178.56 0 .33-.204.56-.203.203-.56.203z"
          style={{}}
        ></path>
        <path
          d="M301.813 237.382q-.33 0-.56-.203-.203-.23-.203-.56v-12.39q0-.356.204-.56.229-.203.56-.203.356 0 .559.204.204.203.204.56v12.389q0 .33-.204.56-.203.203-.56.203zm-.025-16.841q-.509 0-.84-.331-.33-.356-.33-.865 0-.56.356-.865.356-.305.84-.305.483 0 .813.305.357.305.357.865 0 .509-.357.865-.33.33-.839.33z"
          style={{}}
        ></path>
        <path
          d="M152.2 255.912q1.856 0 3.306.89 1.476.866 2.29 2.417.814 1.552.814 3.537 0 .33-.203.534-.204.178-.535.178h-10.66q.077 1.5.79 2.697.712 1.17 1.908 1.831 1.195.662 2.67.662.993 0 1.985-.331 1.018-.356 1.603-.916.254-.203.534-.203t.458.152q.28.23.28.535 0 .254-.229.483-.814.738-2.137 1.221-1.297.483-2.493.483-2.01 0-3.587-.89-1.552-.916-2.443-2.519-.89-1.628-.89-3.663 0-2.06.814-3.663.84-1.629 2.315-2.519 1.501-.916 3.41-.916zm0 1.425q-1.985 0-3.359 1.323-1.348 1.323-1.603 3.485h9.897q-.178-2.162-1.527-3.485-1.348-1.323-3.409-1.323z"
          style={{}}
        ></path>
        <path
          d="M174.103 270.108q-1.475 0-2.874-.509-1.4-.534-2.316-1.603-.178-.203-.178-.458 0-.356.331-.585.153-.127.433-.127.356 0 .585.28 1.272 1.552 4.096 1.552 2.01 0 2.95-.713.967-.712.967-1.831 0-2.01-3.892-2.57-2.468-.356-3.74-1.348-1.246-.992-1.246-2.391 0-1.858 1.348-2.875 1.374-1.043 3.562-1.043 3.205 0 4.859 2.29.152.177.152.432 0 .356-.407.585-.254.102-.381.102-.382 0-.636-.331-1.298-1.654-3.638-1.654-1.552 0-2.468.687-.916.662-.916 1.654 0 1.017.865 1.628.89.61 2.951.916 2.697.382 3.867 1.45 1.196 1.043 1.196 2.544 0 1.17-.763 2.06-.738.891-1.985 1.374-1.246.484-2.722.484z"
          style={{}}
        ></path>
        <path
          d="M184.28 269.955q-.331 0-.56-.203-.204-.23-.204-.56v-12.39q0-.356.204-.56.229-.203.56-.203.356 0 .56.204.203.203.203.56v12.389q0 .33-.204.56-.203.203-.56.203zm-.026-16.841q-.509 0-.84-.331-.33-.356-.33-.865 0-.56.356-.865.356-.305.84-.305.483 0 .814.305.356.305.356.865 0 .509-.356.865-.331.33-.84.33z"
          style={{}}
        ></path>
        <path
          d="M196.287 270.108q-1.959 0-3.536-.916-1.577-.941-2.493-2.57-.89-1.628-.89-3.612 0-2.01.839-3.613.84-1.628 2.34-2.544 1.501-.94 3.359-.94 1.628 0 2.976.635 1.348.636 2.34 1.883.179.254.179.432 0 .356-.356.56-.179.153-.408.153-.356 0-.585-.306-1.628-1.933-4.146-1.933-1.476 0-2.62.738-1.146.712-1.782 2.01-.61 1.297-.61 2.925 0 1.603.687 2.9.687 1.298 1.908 2.035 1.22.738 2.798.738 2.239 0 3.587-1.246.23-.23.534-.23.28 0 .458.179.255.229.255.56 0 .28-.204.457-.89.814-2.086 1.272-1.195.433-2.544.433z"
          style={{}}
        ></path>
        <path
          d="M216.996 256.04q.356 0 .56.203.203.203.203.56v12.389q0 .33-.204.56-.203.203-.56.203-.33 0-.56-.203-.203-.23-.203-.56v-1.323q-.865 1.069-2.111 1.68-1.247.584-2.722.584-1.857 0-3.333-.763-1.45-.763-2.29-2.213-.814-1.476-.814-3.511v-6.843q0-.331.204-.535.229-.229.56-.229.33 0 .534.23.229.203.229.534v6.843q0 2.417 1.348 3.689 1.374 1.272 3.562 1.272 1.348 0 2.442-.509 1.12-.534 1.755-1.45.636-.941.636-2.06v-7.785q0-.357.204-.56.229-.204.56-.204z"
          style={{}}
        ></path>
        <path
          d="M228.24 255.887q1.934 0 1.934.84 0 .126-.026.203-.076.28-.254.407-.153.102-.433.102-.229 0-.61-.051-.356-.051-.61-.051-1.273 0-2.265.534-.992.534-1.552 1.476-.56.94-.56 2.111v7.734q0 .33-.203.56-.204.203-.56.203-.33 0-.56-.203-.203-.23-.203-.56v-12.39q0-.356.204-.56.228-.203.56-.203.355 0 .559.204.203.203.203.56v1.577q.738-1.17 1.883-1.832 1.145-.661 2.493-.661z"
          style={{}}
        ></path>
        <path
          d="M237.73 255.912q1.856 0 3.307.89 1.475.866 2.29 2.417.813 1.552.813 3.537 0 .33-.203.534-.204.178-.535.178h-10.659q.076 1.5.789 2.697.712 1.17 1.908 1.831 1.195.662 2.67.662.993 0 1.985-.331 1.018-.356 1.603-.916.254-.203.534-.203t.458.152q.28.23.28.535 0 .254-.229.483-.814.738-2.137 1.221-1.297.483-2.493.483-2.01 0-3.587-.89-1.552-.916-2.442-2.519-.89-1.628-.89-3.663 0-2.06.813-3.663.84-1.629 2.315-2.519 1.501-.916 3.41-.916zm0 1.425q-1.985 0-3.359 1.323-1.348 1.323-1.603 3.485h9.897q-.178-2.162-1.527-3.485-1.348-1.323-3.409-1.323z"
          style={{}}
        ></path>
      </g>
    </g>
  </g>
</svg>
