<?xml version="1.0" encoding="UTF-8" standalone="no"?>
<!-- Created with Inkscape (http://www.inkscape.org/) -->

<svg
   width="150"
   height="150"
   viewBox="0 0 150 150"
   version="1.1"
   id="svg5"
   inkscape:version="1.1.2 (0a00cf5339, 2022-02-04)"
   sodipodi:docname="Consensus logo_claim.svg"
   inkscape:export-filename="/home/alessandro/Documenti/In lavorazione/IEMO/Graphics/loghi/Consensus/Consensus logo_claim-1000.png"
   inkscape:export-xdpi="640"
   inkscape:export-ydpi="640"
   xmlns:inkscape="http://www.inkscape.org/namespaces/inkscape"
   xmlns:sodipodi="http://sodipodi.sourceforge.net/DTD/sodipodi-0.dtd"
   xmlns="http://www.w3.org/2000/svg"
   xmlns:svg="http://www.w3.org/2000/svg">
  <sodipodi:namedview
     id="namedview7"
     pagecolor="#505050"
     bordercolor="#eeeeee"
     borderopacity="1"
     inkscape:pageshadow="0"
     inkscape:pageopacity="0"
     inkscape:pagecheckerboard="0"
     inkscape:document-units="px"
     showgrid="false"
     showguides="false"
     inkscape:guide-bbox="true"
     inkscape:zoom="6.86"
     inkscape:cx="75"
     inkscape:cy="71.938776"
     inkscape:window-width="1866"
     inkscape:window-height="1016"
     inkscape:window-x="0"
     inkscape:window-y="0"
     inkscape:window-maximized="1"
     inkscape:current-layer="layer2">
    <sodipodi:guide
       position="68.89479,150"
       orientation="-1,0"
       id="guide9484"
       inkscape:label=""
       inkscape:locked="false"
       inkscape:color="rgb(0,0,255)" />
    <sodipodi:guide
       position="63.696533,86.478699"
       orientation="0,-1"
       id="guide9953" />
    <sodipodi:guide
       position="63.53125,65.5625"
       orientation="0,-1"
       id="guide10221" />
  </sodipodi:namedview>
  <defs
     id="defs2">
    <filter
       inkscape:collect="always"
       style="color-interpolation-filters:sRGB"
       id="filter15186"
       x="-0.094740179"
       y="-0.082731957"
       width="1.1894804"
       height="1.1643404">
      <feGaussianBlur
         inkscape:collect="always"
         stdDeviation="4.5398609"
         id="feGaussianBlur15188" />
    </filter>
  </defs>
  <g
     inkscape:label="Livello 1"
     inkscape:groupmode="layer"
     id="layer1"
     style="display:inline;filter:url(#filter15186)">
    <path
       d="m 82.519694,121.05449 q -14.808407,0 -27.501328,-7.61575 -12.692922,-7.75678 -20.16764,-20.731768 -7.474722,-13.116017 -7.474722,-28.20649 0,-15.090471 7.333688,-28.065456 Q 42.184411,23.460039 54.7363,15.844288 67.42922,8.0875013 82.519693,8.0875013 q 19.744527,0 34.835017,12.5518887 1.26929,0.987227 1.26929,2.820649 0,1.69239 -1.12826,3.102714 -1.12825,1.269292 -3.10271,1.269292 -1.55137,0 -3.52582,-1.692389 -10.71846,-9.590207 -28.347516,-9.590207 -12.410856,0 -23.270356,6.628525 -10.718466,6.628527 -17.064926,17.770089 -6.346461,11.000532 -6.346461,23.552419 0,12.974986 6.205428,24.11655 6.34646,11.000523 17.064926,17.488028 10.859499,6.48749 23.411389,6.48749 16.641826,0 29.193716,-10.29537 0.98723,-0.70516 2.11548,-0.70516 1.69239,0 2.96169,1.26928 1.41031,1.2693 1.41031,3.10273 0,1.83342 -0.98722,2.96168 -12.1288,12.12878 -34.693976,12.12878 z"
       style="font-weight:300;font-size:40px;line-height:1.25;font-family:Comfortaa;-inkscape-font-specification:'Comfortaa, Light';text-align:center;text-anchor:middle;fill:#ffffff;fill-opacity:1;stroke-width:0.3518762;stroke:#fbfbfb;stroke-opacity:1;stroke-miterlimit:4;stroke-dasharray:none"
       id="path9759" />
    <g
       id="path8087"
       style="fill:#ffffff;fill-opacity:1;stroke:#fbfbfb;stroke-opacity:1;stroke-width:0.04475605;stroke-miterlimit:4;stroke-dasharray:none"
       transform="matrix(1.1430008,0,0,1.1430008,-50.355793,64.890778)">
      <path
         style="color:#000000;fill:#ffffff;fill-opacity:1;stroke-width:0.04475605;stroke-linecap:round;stroke:#fbfbfb;stroke-opacity:1;stroke-miterlimit:4;stroke-dasharray:none"
         d="m 64.552515,60.251747 c -1.96364,0.002 -3.55502,1.593313 -3.55696,3.556953 -0.009,1.971408 1.58553,3.574903 3.55696,3.576835 h 93.739555 c 1.97149,-0.002 3.56608,-1.605427 3.557,-3.576835 -0.002,-1.963648 -1.59334,-3.555003 -3.557,-3.556953 z"
         id="path13301"
         sodipodi:nodetypes="ccccccc" />
    </g>
  </g>
  <g
     inkscape:groupmode="layer"
     id="layer2"
     inkscape:label="Livello 2"
     style="display:inline">
    <path
       d="m 82.51969,121.05449 q -14.808407,0 -27.501328,-7.61575 Q 42.32544,105.68196 34.850722,92.706974 27.376,79.590957 27.376,64.500484 q 0,-15.090471 7.333688,-28.065456 7.474719,-12.974987 20.026608,-20.590738 12.69292,-7.7567874 27.783393,-7.7567874 19.744531,0 34.835021,12.5518894 1.26929,0.987227 1.26929,2.820649 0,1.69239 -1.12826,3.102714 -1.12825,1.269292 -3.10271,1.269292 -1.55137,0 -3.52582,-1.692389 -10.71846,-9.590207 -28.347519,-9.590207 -12.410857,0 -23.270356,6.628525 -10.718466,6.628527 -17.064926,17.770089 -6.346461,11.000532 -6.346461,23.552419 0,12.974986 6.205428,24.11655 6.34646,11.000523 17.064926,17.488026 10.859499,6.48749 23.411389,6.48749 16.641829,0 29.193719,-10.29537 0.98723,-0.70516 2.11548,-0.70516 1.69239,0 2.96169,1.26928 1.41031,1.2693 1.41031,3.10273 0,1.83342 -0.98722,2.96168 -12.1288,12.12878 -34.69398,12.12878 z"
       style="font-weight:300;font-size:40px;line-height:1.25;font-family:Comfortaa;-inkscape-font-specification:'Comfortaa, Light';text-align:center;text-anchor:middle;display:inline;fill:#2e2e2e;fill-opacity:1;stroke-width:0.25;stroke:#fbfbfb;stroke-opacity:1;stroke-miterlimit:4;stroke-dasharray:none"
       id="path9759-4" />
    <g
       id="path8087-0"
       style="display:inline;fill:#454545;fill-opacity:1;stroke:#fbfbfb;stroke-opacity:1;stroke-width:0.21872251;stroke-miterlimit:4;stroke-dasharray:none"
       transform="matrix(1.1430008,0,0,1.1430008,-50.355793,64.89078)">
      <path
         style="color:#000000;fill:#454545;fill-opacity:1;stroke-width:0.21872251;stroke-linecap:round;stroke:#fbfbfb;stroke-opacity:1;stroke-miterlimit:4;stroke-dasharray:none"
         d="m 64.552515,60.251747 c -1.96364,0.002 -3.55502,1.593313 -3.55696,3.556953 -0.009,1.971408 1.58553,3.574903 3.55696,3.576835 h 93.739555 c 1.97149,-0.002 3.56608,-1.605427 3.557,-3.576835 -0.002,-1.963648 -1.59334,-3.555003 -3.557,-3.556953 z"
         id="path13301-5"
         sodipodi:nodetypes="ccccccc" />
    </g>
  </g>
</svg>
