<?xml version="1.0" encoding="UTF-8" standalone="no"?>
<!-- Created with Inkscape (http://www.inkscape.org/) -->

<svg
   width="300"
   height="150"
   viewBox="0 0 300 150"
   version="1.1"
   id="svg5"
   inkscape:version="1.1.2 (0a00cf5339, 2022-02-04)"
   sodipodi:docname="Consensus logo.svg"
   inkscape:export-filename="/home/alessandro/Documenti/In lavorazione/IEMO/Graphics/loghi/Consensus/logo_1000.png"
   inkscape:export-xdpi="32"
   inkscape:export-ydpi="32"
   xmlns:inkscape="http://www.inkscape.org/namespaces/inkscape"
   xmlns:sodipodi="http://sodipodi.sourceforge.net/DTD/sodipodi-0.dtd"
   xmlns="http://www.w3.org/2000/svg"
   xmlns:svg="http://www.w3.org/2000/svg">
  <sodipodi:namedview
     id="namedview7"
     pagecolor="#505050"
     bordercolor="#eeeeee"
     borderopacity="1"
     inkscape:pageshadow="0"
     inkscape:pageopacity="0"
     inkscape:pagecheckerboard="0"
     inkscape:document-units="px"
     showgrid="false"
     showguides="false"
     inkscape:guide-bbox="true"
     inkscape:zoom="2.8284271"
     inkscape:cx="132.05219"
     inkscape:cy="95.636193"
     inkscape:window-width="1870"
     inkscape:window-height="1016"
     inkscape:window-x="0"
     inkscape:window-y="0"
     inkscape:window-maximized="1"
     inkscape:current-layer="layer3">
    <sodipodi:guide
       position="76.153,75.907"
       orientation="-1,0"
       id="guide9484"
       inkscape:label=""
       inkscape:locked="false"
       inkscape:color="rgb(0,0,255)" />
    <sodipodi:guide
       position="76.153,86.4787"
       orientation="0,1"
       id="guide9953"
       inkscape:label=""
       inkscape:locked="false"
       inkscape:color="rgb(0,0,255)" />
    <sodipodi:guide
       position="76.153,56.74978"
       orientation="0,1"
       id="guide10221"
       inkscape:label=""
       inkscape:locked="false"
       inkscape:color="rgb(0,0,255)" />
    <sodipodi:guide
       position="259.853,75.907"
       orientation="-1,0"
       id="guide15897"
       inkscape:label=""
       inkscape:locked="false"
       inkscape:color="rgb(0,0,255)" />
    <sodipodi:guide
       position="76.153,65.252"
       orientation="0,1"
       id="guide15998"
       inkscape:label=""
       inkscape:locked="false"
       inkscape:color="rgb(0,0,255)" />
    <sodipodi:guide
       position="76.153,75.907"
       orientation="0,-1"
       id="guide16660" />
    <sodipodi:guide
       position="76.153,60.481"
       orientation="0,1"
       id="guide16720"
       inkscape:label=""
       inkscape:locked="false"
       inkscape:color="rgb(0,0,255)" />
  </sodipodi:namedview>
  <defs
     id="defs2">
    <filter
       inkscape:collect="always"
       style="color-interpolation-filters:sRGB"
       id="filter17088"
       x="-0.022139905"
       y="-5.0747412"
       width="1.0442798"
       height="11.149482">
      <feGaussianBlur
         inkscape:collect="always"
         stdDeviation="1.6946252"
         id="feGaussianBlur17090" />
    </filter>
    <filter
       inkscape:collect="always"
       style="color-interpolation-filters:sRGB"
       id="filter17414"
       x="-0.02268036"
       y="-0.136067"
       width="1.0453607"
       height="1.272134">
      <feGaussianBlur
         inkscape:collect="always"
         stdDeviation="2.0762547"
         id="feGaussianBlur17416" />
    </filter>
  </defs>
  <g
     inkscape:label="Livello 1"
     inkscape:groupmode="layer"
     id="layer1"
     style="display:inline">
    <path
       style="color:#000000;fill:#ffffff;fill-opacity:1;stroke-width:1.143;stroke-linecap:round;-inkscape-stroke:none;filter:url(#filter17088)"
       d="m 76.552595,89.118908 c -0.220604,2.19e-4 -0.399385,0.179488 -0.399603,0.400092 -10e-4,0.221475 0.178125,0.401131 0.399603,0.401348 H 259.45339 c 0.22148,-2.17e-4 0.40062,-0.180361 0.3996,-0.401836 -2.2e-4,-0.220605 -0.179,-0.399385 -0.3996,-0.399604 z"
       id="path13301-4"
       transform="matrix(1.2735894,0,0,1.2735894,-41.038412,-20.519206)"
       inkscape:export-filename="/home/alessandro/Documenti/In lavorazione/CISRI-IEMO-BAID/Project source files/Consensus/Logo/graphics/png/logo_1000.png"
       inkscape:export-xdpi="328.19635"
       inkscape:export-ydpi="328.19635" />
    <path
       id="path9775-9-4"
       style="font-weight:300;font-size:40px;line-height:1.25;font-family:Comfortaa;-inkscape-font-specification:'Comfortaa, Light';text-align:center;text-anchor:middle;display:inline;mix-blend-mode:normal;fill:#ffffff;fill-opacity:1;stroke-width:0.954783;filter:url(#filter17414)"
       d="m 251.64204,84.748088 c -1.47672,0 -2.91527,-0.254608 -4.31562,-0.763826 -1.40034,-0.534679 -2.55881,-1.336697 -3.4754,-2.406054 -0.17823,-0.203687 -0.26734,-0.432835 -0.26734,-0.687443 0,-0.356452 0.16549,-0.649253 0.49648,-0.8784 0.15278,-0.127305 0.36919,-0.190957 0.64926,-0.190957 0.35645,0 0.64924,0.140034 0.8784,0.420104 1.27304,1.553114 3.32264,2.32967 6.1488,2.32967 2.01141,0 3.48814,-0.356452 4.4302,-1.069357 0.96751,-0.712904 1.45126,-1.629495 1.45126,-2.749774 0,-2.01141 -1.94775,-3.297185 -5.84326,-3.857324 -2.46972,-0.356452 -4.34109,-1.031166 -5.61414,-2.02414 -1.24758,-0.992974 -1.87136,-2.189635 -1.87136,-3.589984 0,-1.858644 0.6747,-3.297184 2.02413,-4.315619 1.37488,-1.043896 3.15715,-1.565845 5.34678,-1.565845 3.20807,0 5.6396,1.14574 7.29455,3.437219 0.15276,0.178227 0.22914,0.394644 0.22914,0.649253 0,0.356452 -0.20368,0.649252 -0.61105,0.8784 -0.25462,0.101843 -0.44557,0.152766 -0.57288,0.152766 -0.38191,0 -0.70016,-0.165496 -0.95478,-0.496488 -1.2985,-1.654957 -3.11895,-2.482435 -5.46136,-2.482435 -1.55311,0 -2.78796,0.343721 -3.70455,1.031166 -0.91659,0.661982 -1.37489,1.489461 -1.37489,2.482435 0,1.018435 0.43283,1.833184 1.29851,2.444244 0.89113,0.611062 2.36786,1.069357 4.43019,1.374888 2.69886,0.381914 4.63388,1.107549 5.80508,2.176905 1.19666,1.043896 1.79481,2.316941 1.79481,3.819133 0,1.1712 -0.38173,2.202365 -1.14556,3.093497 -0.73837,0.89113 -1.73134,1.578574 -2.97892,2.062331 -1.24759,0.483757 -2.60975,0.725635 -4.08648,0.725635 z m -15.1237,-21.119801 c 0.35645,0 0.63652,0.101844 0.84021,0.305531 0.20369,0.203687 0.30553,0.483757 0.30553,0.840209 v 18.599174 c 0,0.330991 -0.10184,0.611061 -0.30553,0.840209 -0.20369,0.203687 -0.48376,0.305531 -0.84021,0.305531 -0.33099,0 -0.61106,-0.101844 -0.84021,-0.305531 -0.20369,-0.229148 -0.30553,-0.509218 -0.30553,-0.840209 v -1.98595 c -0.86567,1.069357 -1.92229,1.909567 -3.16988,2.520628 -1.24758,0.5856 -2.60974,0.8784 -4.08647,0.8784 -1.85865,0 -3.52634,-0.381913 -5.00307,-1.14574 -1.45127,-0.763826 -2.597,-1.871374 -3.43721,-3.322645 -0.81475,-1.476731 -1.22212,-3.233531 -1.22212,-5.270402 V 64.774027 c 0,-0.330991 0.10184,-0.598331 0.30552,-0.802018 0.22915,-0.229148 0.50922,-0.343722 0.84021,-0.343722 0.331,0 0.59834,0.114574 0.80202,0.343722 0.22915,0.203687 0.34372,0.471027 0.34372,0.802018 v 10.273465 c 0,2.418784 0.67471,4.264698 2.02414,5.537742 1.37489,1.273044 3.15716,1.909566 5.34679,1.909566 1.34943,0 2.57155,-0.254609 3.66637,-0.763826 1.12027,-0.534679 1.99867,-1.260314 2.6352,-2.176906 0.63652,-0.942053 0.95478,-1.973218 0.95478,-3.093496 V 64.774027 c 0,-0.356452 0.10184,-0.636522 0.30553,-0.840209 0.22915,-0.203687 0.50922,-0.305531 0.84021,-0.305531 z m -31.04951,21.119801 c -1.47673,0 -2.91527,-0.254609 -4.31562,-0.763826 -1.40035,-0.534679 -2.55882,-1.336697 -3.47541,-2.406054 -0.17823,-0.203687 -0.26735,-0.432835 -0.26735,-0.687443 0,-0.356453 0.1655,-0.649253 0.4965,-0.8784 0.15276,-0.127305 0.36917,-0.190957 0.64924,-0.190957 0.35646,0 0.64926,0.140035 0.8784,0.420104 1.27305,1.553113 3.32265,2.32967 6.14881,2.32967 2.01141,0 3.48814,-0.356452 4.43019,-1.069357 0.96751,-0.712904 1.45127,-1.629495 1.45127,-2.749774 0,-2.01141 -1.94776,-3.297185 -5.84327,-3.857324 -2.4697,-0.356452 -4.34107,-1.031165 -5.61412,-2.02414 -1.24759,-0.992975 -1.87138,-2.189636 -1.87138,-3.589984 0,-1.858644 0.67471,-3.297184 2.02414,-4.315619 1.37489,-1.043897 3.15716,-1.565845 5.34679,-1.565845 3.20807,0 5.63958,1.14574 7.29454,3.437219 0.15277,0.178227 0.22915,0.394644 0.22915,0.649253 0,0.356452 -0.20369,0.649252 -0.61107,0.8784 -0.25461,0.101844 -0.44556,0.152766 -0.57286,0.152766 -0.38192,0 -0.70018,-0.165496 -0.95479,-0.496488 -1.2985,-1.654957 -3.11895,-2.482435 -5.46135,-2.482435 -1.55311,0 -2.78797,0.343722 -3.70457,1.031166 -0.91659,0.661983 -1.37488,1.489461 -1.37488,2.482435 0,1.018435 0.43283,1.833183 1.2985,2.444244 0.89113,0.611061 2.36786,1.069357 4.43019,1.374888 2.69886,0.381913 4.63389,1.107548 5.80509,2.176905 1.19665,1.043897 1.79498,2.316941 1.79498,3.819133 0,1.1712 -0.38191,2.202366 -1.14573,3.093497 -0.73837,0.891131 -1.73134,1.578574 -2.97892,2.062331 -1.24759,0.483757 -2.60974,0.725635 -4.08647,0.725635 z M 182.21037,63.360949 c 1.85864,0 3.5136,0.381913 4.96487,1.145738 1.47673,0.763827 2.62247,1.884106 3.43722,3.360837 0.84021,1.451271 1.26031,3.195341 1.26031,5.232211 v 10.273466 c 0,0.330991 -0.11457,0.611061 -0.34372,0.840209 -0.20369,0.203687 -0.47102,0.305531 -0.80201,0.305531 -0.331,0 -0.61107,-0.101844 -0.84022,-0.305531 -0.20368,-0.229148 -0.30552,-0.509218 -0.30552,-0.840209 V 73.099735 c 0,-2.418783 -0.68745,-4.264697 -2.06234,-5.537741 -1.34943,-1.273045 -3.11896,-1.909567 -5.30859,-1.909567 -1.34943,0 -2.58428,0.26734 -3.70456,0.802019 -1.09481,0.509217 -1.96048,1.234852 -2.59701,2.176905 -0.63652,0.916592 -0.95478,1.935027 -0.95478,3.055305 v 11.686545 c 0,0.330991 -0.10184,0.611061 -0.30553,0.840209 -0.20369,0.203687 -0.48376,0.305531 -0.84021,0.305531 -0.33099,0 -0.61106,-0.101844 -0.84021,-0.305531 -0.20369,-0.229148 -0.30553,-0.509218 -0.30553,-0.840209 V 64.774027 c 0,-0.356452 0.10184,-0.636522 0.30553,-0.840209 0.22915,-0.203687 0.50922,-0.305531 0.84021,-0.305531 0.35645,0 0.63652,0.101844 0.84021,0.305531 0.20369,0.203687 0.30553,0.483757 0.30553,0.840209 v 1.985948 c 0.86567,-1.069357 1.92229,-1.896835 3.16988,-2.482435 1.24758,-0.611061 2.60974,-0.916591 4.08647,-0.916591 z m -24.13689,0.07638 c 1.85865,0 3.51361,0.445566 4.96488,1.336697 1.47673,0.86567 2.62246,2.075062 3.43721,3.628176 0.81475,1.553113 1.22212,3.322644 1.22212,5.308593 0,0.330992 -0.10184,0.598331 -0.30552,0.802017 -0.20369,0.178227 -0.47103,0.26734 -0.80202,0.26734 h -16.00217 c 0.0764,1.502192 0.47102,2.851619 1.18393,4.048281 0.71291,1.1712 1.66769,2.087791 2.86435,2.749774 1.19667,0.661983 2.53337,0.992974 4.0101,0.992974 0.99297,0 1.98594,-0.165495 2.97891,-0.496486 1.01844,-0.356453 1.82046,-0.814749 2.40606,-1.374888 0.25461,-0.203687 0.52194,-0.305531 0.80201,-0.305531 0.28007,0 0.50922,0.07638 0.68745,0.229148 0.28007,0.229149 0.4201,0.496488 0.4201,0.802018 0,0.254609 -0.11457,0.496487 -0.34372,0.725636 -0.81475,0.738365 -1.8841,1.349426 -3.20807,1.833183 -1.29851,0.483756 -2.54609,0.725634 -3.74274,0.725634 -2.01141,0 -3.80641,-0.445565 -5.38498,-1.336695 -1.55311,-0.916592 -2.77524,-2.176906 -3.66637,-3.780941 -0.89113,-1.629497 -1.3367,-3.46268 -1.3367,-5.49955 0,-2.062331 0.40737,-3.895515 1.22212,-5.499551 0.84021,-1.629496 1.99868,-2.88981 3.47541,-3.780941 1.50219,-0.916592 3.20807,-1.374888 5.11764,-1.374888 z m 0,2.138715 c -1.98595,0 -3.66637,0.661983 -5.04126,1.985949 -1.34942,1.323965 -2.15144,3.068036 -2.40605,5.232211 h 14.85643 c -0.17823,-2.164175 -0.94205,-3.908246 -2.29148,-5.232211 -1.34943,-1.323966 -3.05531,-1.985949 -5.11764,-1.985949 z m -22.03637,19.172043 c -1.47673,0 -2.91526,-0.254609 -4.31561,-0.763826 -1.40035,-0.534679 -2.55882,-1.336697 -3.47541,-2.406054 -0.17823,-0.203687 -0.26734,-0.432835 -0.26734,-0.687443 0,-0.356453 0.16549,-0.649253 0.49648,-0.8784 0.15277,-0.127305 0.36919,-0.190957 0.64926,-0.190957 0.35645,0 0.64925,0.140035 0.8784,0.420104 1.27305,1.553113 3.32265,2.32967 6.14881,2.32967 2.0114,0 3.48813,-0.356452 4.43019,-1.069357 0.96751,-0.712904 1.45127,-1.629495 1.45127,-2.749774 0,-2.01141 -1.94776,-3.297185 -5.84327,-3.857324 -2.46971,-0.356452 -4.34109,-1.031165 -5.61413,-2.02414 -1.24758,-0.992975 -1.87137,-2.189636 -1.87137,-3.589984 0,-1.858644 0.67471,-3.297184 2.02414,-4.315619 1.37488,-1.043897 3.15714,-1.565845 5.34678,-1.565845 3.20807,0 5.63959,1.14574 7.29454,3.437219 0.15277,0.178227 0.22915,0.394644 0.22915,0.649253 0,0.356452 -0.20369,0.649252 -0.61106,0.8784 -0.25461,0.101844 -0.44556,0.152766 -0.57287,0.152766 -0.38191,0 -0.70017,-0.165496 -0.95478,-0.496488 -1.29851,-1.654957 -3.11896,-2.482435 -5.46137,-2.482435 -1.55311,0 -2.78796,0.343722 -3.70455,1.031166 -0.91659,0.661983 -1.37488,1.489461 -1.37488,2.482435 0,1.018435 0.43283,1.833183 1.2985,2.444244 0.89113,0.611061 2.36786,1.069357 4.43019,1.374888 2.69885,0.381913 4.63388,1.107548 5.80508,2.176905 1.19666,1.043897 1.79499,2.316941 1.79499,3.819133 0,1.1712 -0.38191,2.202366 -1.14574,3.093497 -0.73837,0.891131 -1.73134,1.578574 -2.97892,2.062331 -1.24758,0.483757 -2.60974,0.725635 -4.08648,0.725635 z M 112.77866,63.360949 c 1.85865,0 3.5136,0.381913 4.96487,1.145738 1.47673,0.763827 2.62247,1.884106 3.43722,3.360837 0.84021,1.451271 1.26031,3.195341 1.26031,5.232211 v 10.273466 c 0,0.330991 -0.11457,0.611061 -0.34372,0.840209 -0.20368,0.203687 -0.47102,0.305531 -0.80202,0.305531 -0.33099,0 -0.61105,-0.101844 -0.8402,-0.305531 -0.20369,-0.229148 -0.30554,-0.509218 -0.30554,-0.840209 V 73.099735 c 0,-2.418783 -0.68744,-4.264697 -2.06233,-5.537741 -1.34943,-1.273045 -3.11896,-1.909567 -5.30859,-1.909567 -1.34942,0 -2.58427,0.26734 -3.70456,0.802019 -1.09482,0.509217 -1.96049,1.234852 -2.59701,2.176905 -0.63652,0.916592 -0.95478,1.935027 -0.95478,3.055305 v 11.686545 c 0,0.330991 -0.10184,0.611061 -0.30553,0.840209 -0.20369,0.203687 -0.48376,0.305531 -0.84021,0.305531 -0.33099,0 -0.61106,-0.101844 -0.84021,-0.305531 -0.20369,-0.229148 -0.30553,-0.509218 -0.30553,-0.840209 V 64.774027 c 0,-0.356452 0.10184,-0.636522 0.30553,-0.840209 0.22915,-0.203687 0.50922,-0.305531 0.84021,-0.305531 0.35645,0 0.63652,0.101844 0.84021,0.305531 0.20369,0.203687 0.30553,0.483757 0.30553,0.840209 v 1.985948 c 0.86567,-1.069357 1.9223,-1.896835 3.16988,-2.482435 1.24758,-0.611061 2.60974,-0.916591 4.08647,-0.916591 z M 86.846795,84.748 c -2.01141,0 -3.831863,-0.458207 -5.461359,-1.374799 C 79.755939,82.431148 78.470165,81.145373 77.528112,79.515877 76.611521,77.886381 76.153,76.078658 76.153,74.09271 c 0,-2.01141 0.458521,-3.831863 1.375112,-5.461359 0.942053,-1.629496 2.227827,-2.902541 3.857324,-3.819133 1.629496,-0.942053 3.449949,-1.413079 5.461359,-1.413079 1.985949,0 3.793672,0.471026 5.423168,1.413079 1.629496,0.916592 2.902539,2.189637 3.819131,3.819133 0.942053,1.629496 1.413079,3.449949 1.413079,5.461359 0,1.985948 -0.471026,3.793671 -1.413079,5.423167 -0.916592,1.629496 -2.189635,2.915271 -3.819131,3.857324 C 90.640467,84.289793 88.832744,84.748 86.846795,84.748 Z m 0,-2.138626 c 1.578575,0 3.004384,-0.369183 4.277428,-1.107549 1.273044,-0.738365 2.266018,-1.7568 2.978923,-3.055305 0.738366,-1.298505 1.107548,-2.749775 1.107548,-4.35381 0,-1.604036 -0.369182,-3.055306 -1.107548,-4.353811 -0.712905,-1.298505 -1.705879,-2.31694 -2.978923,-3.055305 -1.273044,-0.763827 -2.698853,-1.14574 -4.277428,-1.14574 -1.578575,0 -3.004384,0.381913 -4.277428,1.14574 -1.273044,0.738365 -2.278749,1.7568 -3.017115,3.055305 -0.738365,1.298505 -1.107548,2.749775 -1.107548,4.353811 0,1.604035 0.369183,3.055305 1.107548,4.35381 0.738366,1.298505 1.744071,2.31694 3.017115,3.055305 1.273044,0.738366 2.698853,1.107549 4.277428,1.107549 z M 58.023541,93.310873 c -3.200402,0 -6.172204,-0.822961 -8.915406,-2.468882 -2.743202,-1.676401 -4.922524,-3.916683 -6.537965,-6.720845 -1.615441,-2.834642 -2.423161,-5.882644 -2.423161,-9.144006 0,-3.261362 0.79248,-6.294124 2.377441,-9.098286 1.615441,-2.804162 3.779523,-5.029204 6.492245,-6.675125 2.743202,-1.676401 5.745484,-2.514602 9.006846,-2.514602 4.267203,0 8.031486,1.356361 11.292848,4.069083 0.27432,0.21336 0.41148,0.51816 0.41148,0.914401 0,0.36576 -0.12192,0.70104 -0.36576,1.00584 -0.24384,0.274321 -0.57912,0.411481 -1.005841,0.411481 -0.33528,0 -0.71628,-0.18288 -1.143,-0.548641 -2.316482,-2.072641 -5.379724,-3.108962 -9.189727,-3.108962 -2.682242,0 -5.196844,0.716281 -7.543805,2.148842 -2.316481,1.432561 -4.160523,3.352802 -5.532124,5.760724 -1.371601,2.377441 -2.057401,4.922523 -2.057401,7.635245 0,2.804162 0.67056,5.410204 2.011681,7.818125 1.371601,2.377442 3.215643,4.267203 5.532124,5.669284 2.346961,1.402081 4.876803,2.103122 7.589525,2.103122 3.596643,0 6.751325,-1.112521 9.464047,-3.337562 0.21336,-0.152401 0.44196,-0.228601 0.6858,-0.228601 0.365761,0 0.685801,0.13716 0.960121,0.411481 0.3048,0.27432 0.4572,0.6096 0.4572,1.00584 0,0.396241 -0.10668,0.716281 -0.32004,0.960121 -2.621282,2.621282 -6.370325,3.931923 -11.247128,3.931923 z"
       sodipodi:nodetypes="sccscscscsccscscscscscscccscsssssscscsccsccsssscsscsccsscssccscscscsccscscscscscscccscsssccsssscsscsccsscscsscsssccsscsscsccssccscsccsccsccsscccsssccscscscsccscscscscscscccscsssccsssscsscsccsscscsscsssccssccsccsccsccssscsccscssssssccsccscscscsccsccscscscs"
       transform="matrix(1.2735894,0,0,1.2735894,-41.038412,-20.519206)"
       inkscape:export-filename="/home/alessandro/Documenti/In lavorazione/CISRI-IEMO-BAID/Project source files/Consensus/Logo/graphics/png/logo_1000.png"
       inkscape:export-xdpi="328.19635"
       inkscape:export-ydpi="328.19635" />
  </g>
  <g
     inkscape:groupmode="layer"
     id="layer3"
     inkscape:label="Livello 2"
     style="display:inline">
    <path
       id="path9775-9"
       style="font-weight:300;font-size:40px;line-height:1.25;font-family:Comfortaa;-inkscape-font-specification:'Comfortaa, Light';text-align:center;text-anchor:middle;fill:#2e2e2e;fill-opacity:1;stroke:#ffffff;stroke-width:0.127359;stroke-miterlimit:4;stroke-dasharray:none;stroke-opacity:1"
       d="m 279.45023,87.415062 c -1.88074,0 -3.71286,-0.324266 -5.49633,-0.972801 -1.78346,-0.680961 -3.25888,-1.702403 -4.42623,-3.064325 -0.227,-0.259413 -0.34049,-0.551254 -0.34049,-0.87552 0,-0.453973 0.21077,-0.826882 0.63232,-1.118721 0.19457,-0.162134 0.47019,-0.243201 0.82689,-0.243201 0.45397,0 0.82686,0.178346 1.11872,0.53504 1.62133,1.97803 4.23168,2.967044 7.83104,2.967044 2.56171,0 4.44246,-0.453974 5.64226,-1.361922 1.23221,-0.907947 1.84831,-2.075308 1.84831,-3.502083 0,-2.561711 -2.48063,-4.19926 -7.44191,-4.912647 -3.14541,-0.453974 -5.52877,-1.313282 -7.15011,-2.577924 -1.58891,-1.264641 -2.38335,-2.788696 -2.38335,-4.572165 0,-2.367149 0.85929,-4.199259 2.57791,-5.496327 1.75103,-1.329495 4.02091,-1.994243 6.8096,-1.994243 4.08577,0 7.18254,1.459202 9.29027,4.377605 0.19455,0.226988 0.29183,0.502615 0.29183,0.826882 0,0.453974 -0.25941,0.82688 -0.77823,1.118721 -0.32428,0.129706 -0.56747,0.194561 -0.72961,0.194561 -0.4864,0 -0.89172,-0.210774 -1.216,-0.632322 -1.65376,-2.107735 -3.97226,-3.161603 -6.95553,-3.161603 -1.97803,0 -3.55072,0.43776 -4.71808,1.313282 -1.16736,0.843094 -1.75104,1.896962 -1.75104,3.161603 0,1.297068 0.55124,2.334724 1.65377,3.112964 1.13493,0.778242 3.01568,1.361921 5.64224,1.751042 3.43724,0.486402 5.90166,1.410563 7.39329,2.772484 1.52405,1.329495 2.28585,2.950831 2.28585,4.864007 0,1.491628 -0.48617,2.804909 -1.45898,3.939845 -0.94038,1.134934 -2.20501,2.010455 -3.79392,2.626563 -1.58891,0.616108 -3.32375,0.924161 -5.20449,0.924161 z M 260.18884,60.517107 c 0.45397,0 0.81067,0.129707 1.07008,0.389121 0.25942,0.259414 0.38912,0.616108 0.38912,1.070081 V 85.66402 c 0,0.421547 -0.1297,0.778241 -0.38912,1.070082 -0.25941,0.259413 -0.61611,0.389121 -1.07008,0.389121 -0.42154,0 -0.77824,-0.129708 -1.07008,-0.389121 -0.25942,-0.291841 -0.38912,-0.648535 -0.38912,-1.070082 v -2.529284 c -1.10251,1.361921 -2.44821,2.432004 -4.03713,3.210245 -1.5889,0.745814 -3.32373,1.118721 -5.20448,1.118721 -2.36716,0 -4.49111,-0.486401 -6.37186,-1.459203 -1.84832,-0.9728 -3.30751,-2.383362 -4.37759,-4.231685 -1.03766,-1.880749 -1.55648,-4.118191 -1.55648,-6.712328 V 61.976309 c 0,-0.421546 0.1297,-0.762028 0.38911,-1.021441 0.29184,-0.291841 0.64853,-0.437761 1.07008,-0.437761 0.42156,0 0.76204,0.14592 1.02144,0.437761 0.29185,0.259413 0.43776,0.599895 0.43776,1.021441 v 13.084177 c 0,3.080537 0.8593,5.431474 2.57792,7.052809 1.75105,1.621336 4.02093,2.432003 6.80962,2.432003 1.71862,0 3.2751,-0.324267 4.66945,-0.9728 1.42676,-0.680962 2.54548,-1.605123 3.35616,-2.772485 0.81067,-1.199789 1.216,-2.513069 1.216,-3.939844 v -14.88386 c 0,-0.453973 0.1297,-0.810667 0.38912,-1.070081 0.29184,-0.259414 0.64854,-0.389121 1.07008,-0.389121 z m -39.54433,26.897955 c -1.88074,0 -3.71285,-0.324267 -5.49632,-0.972801 -1.78347,-0.680961 -3.25889,-1.702403 -4.42625,-3.064325 -0.22699,-0.259413 -0.34049,-0.551254 -0.34049,-0.87552 0,-0.453975 0.21078,-0.826882 0.63233,-1.118721 0.19456,-0.162134 0.47018,-0.243201 0.82687,-0.243201 0.45398,0 0.82689,0.178348 1.11872,0.53504 1.62134,1.978029 4.23169,2.967044 7.83106,2.967044 2.56171,0 4.44246,-0.453974 5.64224,-1.361922 1.23221,-0.907947 1.84832,-2.075308 1.84832,-3.502083 0,-2.561711 -2.48064,-4.19926 -7.44192,-4.912647 -3.14539,-0.453974 -5.52874,-1.313281 -7.15009,-2.577924 -1.58891,-1.264642 -2.38337,-2.788697 -2.38337,-4.572165 0,-2.367149 0.85931,-4.199259 2.57793,-5.496327 1.75104,-1.329496 4.02092,-1.994243 6.80961,-1.994243 4.08577,0 7.18251,1.459202 9.29025,4.377605 0.19457,0.226988 0.29184,0.502615 0.29184,0.826882 0,0.453974 -0.25941,0.82688 -0.77825,1.118721 -0.32427,0.129707 -0.56746,0.194561 -0.72959,0.194561 -0.48641,0 -0.89174,-0.210774 -1.21601,-0.632322 -1.65375,-2.107735 -3.97226,-3.161603 -6.95551,-3.161603 -1.97803,0 -3.55073,0.437761 -4.7181,1.313282 -1.16736,0.843095 -1.75104,1.896962 -1.75104,3.161603 0,1.297068 0.55125,2.334723 1.65376,3.112964 1.13493,0.77824 3.01568,1.361921 5.64224,1.751042 3.43724,0.486401 5.90167,1.410562 7.3933,2.772484 1.52404,1.329496 2.28607,2.950831 2.28607,4.864007 0,1.491628 -0.4864,2.80491 -1.45919,3.939845 -0.94038,1.134935 -2.20502,2.010455 -3.79392,2.626563 -1.58892,0.616108 -3.32374,0.924161 -5.20449,0.924161 z M 191.02279,60.176628 c 2.36714,0 4.47488,0.486401 6.3232,1.4592 1.88075,0.972802 3.33995,2.399577 4.37761,4.280326 1.07008,1.848324 1.60512,4.069553 1.60512,6.663689 V 85.66402 c 0,0.421547 -0.14592,0.778241 -0.43776,1.070082 -0.25942,0.259413 -0.59989,0.389121 -1.02143,0.389121 -0.42156,0 -0.77826,-0.129708 -1.0701,-0.389121 -0.2594,-0.291841 -0.38911,-0.648535 -0.38911,-1.070082 V 72.579843 c 0,-3.080537 -0.87552,-5.431473 -2.62657,-7.052808 -1.71862,-1.621337 -3.97227,-2.432005 -6.76096,-2.432005 -1.71862,0 -3.29132,0.340482 -4.71809,1.021443 -1.39434,0.648534 -2.49685,1.572695 -3.30753,2.772483 -0.81066,1.167362 -1.21599,2.46443 -1.21599,3.891204 v 14.88386 c 0,0.421547 -0.12971,0.778241 -0.38912,1.070082 -0.25942,0.259413 -0.61612,0.389121 -1.07009,0.389121 -0.42154,0 -0.77824,-0.129708 -1.07008,-0.389121 -0.25942,-0.291841 -0.38912,-0.648535 -0.38912,-1.070082 V 61.976309 c 0,-0.453973 0.1297,-0.810667 0.38912,-1.070081 0.29184,-0.259414 0.64854,-0.389121 1.07008,-0.389121 0.45397,0 0.81067,0.129707 1.07009,0.389121 0.25941,0.259414 0.38912,0.616108 0.38912,1.070081 v 2.529283 c 1.1025,-1.361922 2.4482,-2.415789 4.03712,-3.161603 1.58891,-0.778241 3.32374,-1.167361 5.20449,-1.167361 z m -30.74049,0.09728 c 2.36716,0 4.4749,0.567468 6.32322,1.702403 1.88074,1.102508 3.33993,2.642777 4.37759,4.620807 1.03766,1.978028 1.55648,4.231684 1.55648,6.760967 0,0.421548 -0.1297,0.762028 -0.38911,1.021441 -0.25941,0.226988 -0.5999,0.340481 -1.02144,0.340481 h -20.3802 c 0.0973,1.913176 0.59989,3.631792 1.50785,5.155848 0.90795,1.491628 2.12395,2.658989 3.648,3.502083 1.52407,0.843095 3.22647,1.264641 5.10722,1.264641 1.26464,0 2.52927,-0.210772 3.79391,-0.632319 1.29708,-0.453975 2.31852,-1.037656 3.06433,-1.751043 0.32427,-0.259413 0.66474,-0.389121 1.02143,-0.389121 0.3567,0 0.64854,0.09728 0.87553,0.291841 0.3567,0.291841 0.53504,0.632321 0.53504,1.021441 0,0.324268 -0.14592,0.632321 -0.43776,0.924163 -1.03766,0.940373 -2.39957,1.718614 -4.08576,2.334722 -1.65377,0.616107 -3.24268,0.92416 -4.76672,0.92416 -2.56171,0 -4.8478,-0.567467 -6.85825,-1.702401 -1.97803,-1.167362 -3.53452,-2.772484 -4.66945,-4.815366 -1.13493,-2.07531 -1.70241,-4.410033 -1.70241,-7.004169 0,-2.626563 0.51882,-4.961287 1.55648,-7.00417 1.07008,-2.075309 2.5455,-3.680431 4.42625,-4.815366 1.91317,-1.167362 4.08576,-1.751043 6.51777,-1.751043 z m 0,2.723845 c -2.52929,0 -4.66945,0.843094 -6.4205,2.529283 -1.7186,1.686188 -2.74005,3.907418 -3.06432,6.663689 h 18.921 c -0.227,-2.756271 -1.19979,-4.977501 -2.91841,-6.663689 -1.71862,-1.686189 -3.89121,-2.529283 -6.51777,-2.529283 z m -28.06529,24.417311 c -1.88075,0 -3.71284,-0.324268 -5.49631,-0.972801 -1.78348,-0.680962 -3.25889,-1.702403 -4.42625,-3.064325 -0.22699,-0.259414 -0.34048,-0.551254 -0.34048,-0.87552 0,-0.453975 0.21077,-0.826882 0.63231,-1.118721 0.19457,-0.162134 0.4702,-0.243201 0.82689,-0.243201 0.45397,0 0.82688,0.178347 1.11872,0.53504 1.62135,1.978028 4.23169,2.967043 7.83106,2.967043 2.5617,0 4.44245,-0.453973 5.64224,-1.361921 1.23222,-0.907947 1.84833,-2.075308 1.84833,-3.502084 0,-2.56171 -2.48065,-4.199259 -7.44193,-4.912647 -3.1454,-0.453973 -5.52877,-1.31328 -7.1501,-2.577923 -1.5889,-1.264642 -2.38335,-2.788697 -2.38335,-4.572165 0,-2.36715 0.8593,-4.199259 2.57792,-5.496327 1.75103,-1.329496 4.0209,-1.994244 6.8096,-1.994244 4.08577,0 7.18252,1.459203 9.29025,4.377606 0.19457,0.226988 0.29184,0.502614 0.29184,0.826882 0,0.453973 -0.25941,0.82688 -0.77824,1.118721 -0.32426,0.129707 -0.56746,0.194561 -0.7296,0.194561 -0.48639,0 -0.89173,-0.210774 -1.21599,-0.632322 -1.65377,-2.107736 -3.97228,-3.161603 -6.95555,-3.161603 -1.97802,0 -3.55071,0.437761 -4.71807,1.313282 -1.16736,0.843095 -1.75104,1.896962 -1.75104,3.161603 0,1.297068 0.55125,2.334723 1.65376,3.112963 1.13493,0.778241 3.01568,1.361922 5.64224,1.751043 3.43723,0.486401 5.90166,1.410562 7.39329,2.772483 1.52406,1.329497 2.28608,2.950832 2.28608,4.864008 0,1.491628 -0.48639,2.80491 -1.4592,3.939845 -0.94038,1.134935 -2.20502,2.010455 -3.79392,2.626563 -1.58891,0.616107 -3.32374,0.924161 -5.2045,0.924161 z M 102.5953,60.176628 c 2.36715,0 4.47488,0.486401 6.3232,1.4592 1.88075,0.972802 3.33995,2.399577 4.37761,4.280326 1.07008,1.848324 1.60512,4.069553 1.60512,6.663689 V 85.66402 c 0,0.421547 -0.14592,0.778241 -0.43776,1.070082 -0.25941,0.259413 -0.59989,0.389121 -1.02145,0.389121 -0.42154,0 -0.77822,-0.129708 -1.07007,-0.389121 -0.25941,-0.291841 -0.38913,-0.648535 -0.38913,-1.070082 V 72.579843 c 0,-3.080537 -0.87552,-5.431473 -2.62656,-7.052808 -1.71862,-1.621337 -3.97228,-2.432005 -6.76096,-2.432005 -1.71861,0 -3.291304,0.340482 -4.718093,1.021443 -1.394351,0.648534 -2.496859,1.572695 -3.307525,2.772483 -0.810665,1.167362 -1.215997,2.46443 -1.215997,3.891204 v 14.88386 c 0,0.421547 -0.129703,0.778241 -0.38912,1.070082 -0.259417,0.259413 -0.616112,0.389121 -1.070083,0.389121 -0.421545,0 -0.778239,-0.129708 -1.070082,-0.389121 -0.259418,-0.291841 -0.38912,-0.648535 -0.38912,-1.070082 V 61.976309 c 0,-0.453973 0.129702,-0.810667 0.38912,-1.070081 0.291843,-0.259414 0.648537,-0.389121 1.070082,-0.389121 0.453971,0 0.810666,0.129707 1.070083,0.389121 0.259417,0.259414 0.38912,0.616108 0.38912,1.070081 v 2.529283 c 1.102508,-1.361922 2.448221,-2.415789 4.037125,-3.161603 1.588905,-0.778241 3.32374,-1.167361 5.20449,-1.167361 z M 69.568747,87.41495 c -2.561711,0 -4.880221,-0.583568 -6.955529,-1.75093 -2.075311,-1.199788 -3.712859,-2.837338 -4.912647,-4.912647 -1.167361,-2.075308 -1.751329,-4.377605 -1.751329,-6.906888 0,-2.56171 0.583968,-4.88022 1.751329,-6.955529 1.199788,-2.075309 2.837336,-3.696645 4.912647,-4.864007 2.075308,-1.199789 4.393818,-1.799682 6.955529,-1.799682 2.529283,0 4.83158,0.599893 6.906889,1.799682 2.075309,1.167362 3.696643,2.788698 4.864005,4.864007 1.199788,2.075309 1.799682,4.393819 1.799682,6.955529 0,2.529283 -0.599894,4.83158 -1.799682,6.906888 -1.167362,2.075309 -2.788696,3.712859 -4.864005,4.912647 -2.075309,1.167362 -4.377606,1.75093 -6.906889,1.75093 z m 0,-2.723732 c 2.010456,0 3.826351,-0.470187 5.447687,-1.410562 1.621335,-0.940374 2.885976,-2.237442 3.793924,-3.891204 0.940375,-1.653763 1.410562,-3.502085 1.410562,-5.544967 0,-2.042883 -0.470187,-3.891205 -1.410562,-5.544967 -0.907948,-1.653762 -2.172589,-2.95083 -3.793924,-3.891204 -1.621336,-0.972802 -3.437231,-1.459203 -5.447687,-1.459203 -2.010457,0 -3.826352,0.486401 -5.447687,1.459203 -1.621336,0.940374 -2.902191,2.237442 -3.842566,3.891204 -0.940374,1.653762 -1.410562,3.502084 -1.410562,5.544967 0,2.042882 0.470188,3.891204 1.410562,5.544967 0.940375,1.653762 2.22123,2.95083 3.842566,3.891204 1.621335,0.940375 3.43723,1.410562 5.447687,1.410562 z M 32.859755,98.320534 c -4.075998,0 -7.860853,-1.048114 -11.354566,-3.144342 -3.493713,-2.135046 -6.269275,-4.988246 -8.326683,-8.559597 -2.057409,-3.61017 -3.086113,-7.492073 -3.086113,-11.645709 0,-4.153636 1.009295,-8.01613 3.027884,-11.587481 2.057409,-3.571351 4.813561,-6.405141 8.268455,-8.501368 3.493713,-2.135047 7.317387,-3.202571 11.471023,-3.202571 5.434665,0 10.228816,1.727447 14.382452,5.182341 0.349371,0.271733 0.524057,0.659923 0.524057,1.164572 0,0.465828 -0.155276,0.892837 -0.465828,1.281027 -0.310553,0.349372 -0.737562,0.524058 -1.281029,0.524058 -0.427009,0 -0.912247,-0.232914 -1.455713,-0.698744 -2.950247,-2.639693 -6.851559,-3.959541 -11.703939,-3.959541 -3.416075,0 -6.618645,0.912248 -9.60771,2.736743 -2.950246,1.824494 -5.298798,4.270093 -7.045654,7.336797 -1.746857,3.027884 -2.620285,6.269273 -2.620285,9.724167 0,3.571351 0.854019,6.890379 2.562056,9.957081 1.746857,3.027885 4.095409,5.434665 7.045655,7.22034 2.989064,1.785676 6.211044,2.678514 9.665938,2.678514 4.580647,0 8.598416,-1.416895 12.05331,-4.250683 0.271733,-0.194097 0.562876,-0.291144 0.873428,-0.291144 0.465829,0 0.873429,0.174685 1.2228,0.524058 0.38819,0.349371 0.582285,0.77638 0.582285,1.281027 0,0.504648 -0.135866,0.912248 -0.407599,1.2228 -3.338437,3.338437 -8.113179,5.007655 -14.324224,5.007655 z"
       sodipodi:nodetypes="sccscscscsccscscscscscscccscsssssscscsccsccsssscsscsccsscssccscscscsccscscscscscscccscsssccsssscsscsccsscscsscsssccsscsscsccssccscsccsccsccsscccsssccscscscsccscscscscscscccscsssccsssscsscsccsscscsscsssccssccsccsccsccssscsccscssssssccsccscscscsccsccscscscs"
       inkscape:export-filename="/home/alessandro/Documenti/In lavorazione/CISRI-IEMO-BAID/Project source files/Consensus/Logo/graphics/png/logo_1000.png"
       inkscape:export-xdpi="328.19635"
       inkscape:export-ydpi="328.19635" />
    <path
       style="color:#000000;fill:#454545;fill-opacity:1;stroke:#ffffff;stroke-width:0.127359;stroke-linecap:round;stroke-miterlimit:4;stroke-dasharray:none;stroke-opacity:1"
       d="m 56.458162,92.981692 c -0.280959,2.79e-4 -0.508652,0.228594 -0.50893,0.509553 -0.0013,0.282068 0.226858,0.510876 0.50893,0.511153 H 289.39868 c 0.28207,-2.77e-4 0.51022,-0.229706 0.50893,-0.511775 -2.9e-4,-0.28096 -0.22798,-0.508652 -0.50893,-0.508931 z"
       id="path13301-4-2"
       sodipodi:nodetypes="ccccccc"
       inkscape:export-filename="/home/alessandro/Documenti/In lavorazione/CISRI-IEMO-BAID/Project source files/Consensus/Logo/graphics/png/logo_1000.png"
       inkscape:export-xdpi="328.19635"
       inkscape:export-ydpi="328.19635" />
  </g>
</svg>
