<?xml version="1.0" encoding="UTF-8" standalone="no"?>
<!-- Created with Inkscape (http://www.inkscape.org/) -->

<svg
   width="300"
   height="150"
   viewBox="0 0 300 150"
   version="1.1"
   id="svg5"
   inkscape:version="1.1.2 (0a00cf5339, 2022-02-04)"
   sodipodi:docname="Consensus logo.svg"
   inkscape:export-filename="/home/alessandro/Documenti/In lavorazione/IEMO/Graphics/loghi/Consensus/logo_1000.png"
   inkscape:export-xdpi="32"
   inkscape:export-ydpi="32"
   xmlns:inkscape="http://www.inkscape.org/namespaces/inkscape"
   xmlns:sodipodi="http://sodipodi.sourceforge.net/DTD/sodipodi-0.dtd"
   xmlns="http://www.w3.org/2000/svg"
   xmlns:svg="http://www.w3.org/2000/svg">
  <sodipodi:namedview
     id="namedview7"
     pagecolor="#505050"
     bordercolor="#eeeeee"
     borderopacity="1"
     inkscape:pageshadow="0"
     inkscape:pageopacity="0"
     inkscape:pagecheckerboard="0"
     inkscape:document-units="px"
     showgrid="false"
     showguides="false"
     inkscape:guide-bbox="true"
     inkscape:zoom="2.8284271"
     inkscape:cx="132.05219"
     inkscape:cy="95.636193"
     inkscape:window-width="1866"
     inkscape:window-height="1016"
     inkscape:window-x="0"
     inkscape:window-y="0"
     inkscape:window-maximized="1"
     inkscape:current-layer="layer3">
    <sodipodi:guide
       position="76.153,75.907"
       orientation="-1,0"
       id="guide9484"
       inkscape:label=""
       inkscape:locked="false"
       inkscape:color="rgb(0,0,255)" />
    <sodipodi:guide
       position="76.153,86.4787"
       orientation="0,1"
       id="guide9953"
       inkscape:label=""
       inkscape:locked="false"
       inkscape:color="rgb(0,0,255)" />
    <sodipodi:guide
       position="76.153,56.74978"
       orientation="0,1"
       id="guide10221"
       inkscape:label=""
       inkscape:locked="false"
       inkscape:color="rgb(0,0,255)" />
    <sodipodi:guide
       position="259.853,75.907"
       orientation="-1,0"
       id="guide15897"
       inkscape:label=""
       inkscape:locked="false"
       inkscape:color="rgb(0,0,255)" />
    <sodipodi:guide
       position="76.153,65.252"
       orientation="0,1"
       id="guide15998"
       inkscape:label=""
       inkscape:locked="false"
       inkscape:color="rgb(0,0,255)" />
    <sodipodi:guide
       position="76.153,75.907"
       orientation="0,-1"
       id="guide16660" />
    <sodipodi:guide
       position="76.153,60.481"
       orientation="0,1"
       id="guide16720"
       inkscape:label=""
       inkscape:locked="false"
       inkscape:color="rgb(0,0,255)" />
  </sodipodi:namedview>
  <defs
     id="defs2">
    <filter
       inkscape:collect="always"
       style="color-interpolation-filters:sRGB"
       id="filter17088"
       x="-0.022139905"
       y="-5.0747412"
       width="1.0442798"
       height="11.149482">
      <feGaussianBlur
         inkscape:collect="always"
         stdDeviation="1.6946252"
         id="feGaussianBlur17090" />
    </filter>
    <filter
       inkscape:collect="always"
       style="color-interpolation-filters:sRGB"
       id="filter17414"
       x="-0.02268036"
       y="-0.136067"
       width="1.0453607"
       height="1.272134">
      <feGaussianBlur
         inkscape:collect="always"
         stdDeviation="2.0762547"
         id="feGaussianBlur17416" />
    </filter>
  </defs>
  <g
     inkscape:label="Livello 1"
     inkscape:groupmode="layer"
     id="layer1"
     style="display:inline">
    <path
       style="color:#000000;fill:#ffffff;fill-opacity:1;stroke-width:1.143;stroke-linecap:round;-inkscape-stroke:none;filter:url(#filter17088)"
       d="m 76.552595,89.118908 c -0.220604,2.19e-4 -0.399385,0.179488 -0.399603,0.400092 -10e-4,0.221475 0.178125,0.401131 0.399603,0.401348 H 259.45339 c 0.22148,-2.17e-4 0.40062,-0.180361 0.3996,-0.401836 -2.2e-4,-0.220605 -0.179,-0.399385 -0.3996,-0.399604 z"
       id="path13301-4" />
    <path
       id="path9775-9-4"
       style="font-weight:300;font-size:40px;line-height:1.25;font-family:Comfortaa;-inkscape-font-specification:'Comfortaa, Light';text-align:center;text-anchor:middle;display:inline;mix-blend-mode:normal;fill:#ffffff;fill-opacity:1;stroke-width:0.954783;filter:url(#filter17414)"
       d="m 251.64204,84.748088 c -1.47672,0 -2.91527,-0.254608 -4.31562,-0.763826 -1.40034,-0.534679 -2.55881,-1.336697 -3.4754,-2.406054 -0.17823,-0.203687 -0.26734,-0.432835 -0.26734,-0.687443 0,-0.356452 0.16549,-0.649253 0.49648,-0.8784 0.15278,-0.127305 0.36919,-0.190957 0.64926,-0.190957 0.35645,0 0.64924,0.140034 0.8784,0.420104 1.27304,1.553114 3.32264,2.32967 6.1488,2.32967 2.01141,0 3.48814,-0.356452 4.4302,-1.069357 0.96751,-0.712904 1.45126,-1.629495 1.45126,-2.749774 0,-2.01141 -1.94775,-3.297185 -5.84326,-3.857324 -2.46972,-0.356452 -4.34109,-1.031166 -5.61414,-2.02414 -1.24758,-0.992974 -1.87136,-2.189635 -1.87136,-3.589984 0,-1.858644 0.6747,-3.297184 2.02413,-4.315619 1.37488,-1.043896 3.15715,-1.565845 5.34678,-1.565845 3.20807,0 5.6396,1.14574 7.29455,3.437219 0.15276,0.178227 0.22914,0.394644 0.22914,0.649253 0,0.356452 -0.20368,0.649252 -0.61105,0.8784 -0.25462,0.101843 -0.44557,0.152766 -0.57288,0.152766 -0.38191,0 -0.70016,-0.165496 -0.95478,-0.496488 -1.2985,-1.654957 -3.11895,-2.482435 -5.46136,-2.482435 -1.55311,0 -2.78796,0.343721 -3.70455,1.031166 -0.91659,0.661982 -1.37489,1.489461 -1.37489,2.482435 0,1.018435 0.43283,1.833184 1.29851,2.444244 0.89113,0.611062 2.36786,1.069357 4.43019,1.374888 2.69886,0.381914 4.63388,1.107549 5.80508,2.176905 1.19666,1.043896 1.79481,2.316941 1.79481,3.819133 0,1.1712 -0.38173,2.202365 -1.14556,3.093497 -0.73837,0.89113 -1.73134,1.578574 -2.97892,2.062331 -1.24759,0.483757 -2.60975,0.725635 -4.08648,0.725635 z m -15.1237,-21.119801 c 0.35645,0 0.63652,0.101844 0.84021,0.305531 0.20369,0.203687 0.30553,0.483757 0.30553,0.840209 v 18.599174 c 0,0.330991 -0.10184,0.611061 -0.30553,0.840209 -0.20369,0.203687 -0.48376,0.305531 -0.84021,0.305531 -0.33099,0 -0.61106,-0.101844 -0.84021,-0.305531 -0.20369,-0.229148 -0.30553,-0.509218 -0.30553,-0.840209 v -1.98595 c -0.86567,1.069357 -1.92229,1.909567 -3.16988,2.520628 -1.24758,0.5856 -2.60974,0.8784 -4.08647,0.8784 -1.85865,0 -3.52634,-0.381913 -5.00307,-1.14574 -1.45127,-0.763826 -2.597,-1.871374 -3.43721,-3.322645 -0.81475,-1.476731 -1.22212,-3.233531 -1.22212,-5.270402 V 64.774027 c 0,-0.330991 0.10184,-0.598331 0.30552,-0.802018 0.22915,-0.229148 0.50922,-0.343722 0.84021,-0.343722 0.331,0 0.59834,0.114574 0.80202,0.343722 0.22915,0.203687 0.34372,0.471027 0.34372,0.802018 v 10.273465 c 0,2.418784 0.67471,4.264698 2.02414,5.537742 1.37489,1.273044 3.15716,1.909566 5.34679,1.909566 1.34943,0 2.57155,-0.254609 3.66637,-0.763826 1.12027,-0.534679 1.99867,-1.260314 2.6352,-2.176906 0.63652,-0.942053 0.95478,-1.973218 0.95478,-3.093496 V 64.774027 c 0,-0.356452 0.10184,-0.636522 0.30553,-0.840209 0.22915,-0.203687 0.50922,-0.305531 0.84021,-0.305531 z m -31.04951,21.119801 c -1.47673,0 -2.91527,-0.254609 -4.31562,-0.763826 -1.40035,-0.534679 -2.55882,-1.336697 -3.47541,-2.406054 -0.17823,-0.203687 -0.26735,-0.432835 -0.26735,-0.687443 0,-0.356453 0.1655,-0.649253 0.4965,-0.8784 0.15276,-0.127305 0.36917,-0.190957 0.64924,-0.190957 0.35646,0 0.64926,0.140035 0.8784,0.420104 1.27305,1.553113 3.32265,2.32967 6.14881,2.32967 2.01141,0 3.48814,-0.356452 4.43019,-1.069357 0.96751,-0.712904 1.45127,-1.629495 1.45127,-2.749774 0,-2.01141 -1.94776,-3.297185 -5.84327,-3.857324 -2.4697,-0.356452 -4.34107,-1.031165 -5.61412,-2.02414 -1.24759,-0.992975 -1.87138,-2.189636 -1.87138,-3.589984 0,-1.858644 0.67471,-3.297184 2.02414,-4.315619 1.37489,-1.043897 3.15716,-1.565845 5.34679,-1.565845 3.20807,0 5.63958,1.14574 7.29454,3.437219 0.15277,0.178227 0.22915,0.394644 0.22915,0.649253 0,0.356452 -0.20369,0.649252 -0.61107,0.8784 -0.25461,0.101844 -0.44556,0.152766 -0.57286,0.152766 -0.38192,0 -0.70018,-0.165496 -0.95479,-0.496488 -1.2985,-1.654957 -3.11895,-2.482435 -5.46135,-2.482435 -1.55311,0 -2.78797,0.343722 -3.70457,1.031166 -0.91659,0.661983 -1.37488,1.489461 -1.37488,2.482435 0,1.018435 0.43283,1.833183 1.2985,2.444244 0.89113,0.611061 2.36786,1.069357 4.43019,1.374888 2.69886,0.381913 4.63389,1.107548 5.80509,2.176905 1.19665,1.043897 1.79498,2.316941 1.79498,3.819133 0,1.1712 -0.38191,2.202366 -1.14573,3.093497 -0.73837,0.891131 -1.73134,1.578574 -2.97892,2.062331 -1.24759,0.483757 -2.60974,0.725635 -4.08647,0.725635 z M 182.21037,63.360949 c 1.85864,0 3.5136,0.381913 4.96487,1.145738 1.47673,0.763827 2.62247,1.884106 3.43722,3.360837 0.84021,1.451271 1.26031,3.195341 1.26031,5.232211 v 10.273466 c 0,0.330991 -0.11457,0.611061 -0.34372,0.840209 -0.20369,0.203687 -0.47102,0.305531 -0.80201,0.305531 -0.331,0 -0.61107,-0.101844 -0.84022,-0.305531 -0.20368,-0.229148 -0.30552,-0.509218 -0.30552,-0.840209 V 73.099735 c 0,-2.418783 -0.68745,-4.264697 -2.06234,-5.537741 -1.34943,-1.273045 -3.11896,-1.909567 -5.30859,-1.909567 -1.34943,0 -2.58428,0.26734 -3.70456,0.802019 -1.09481,0.509217 -1.96048,1.234852 -2.59701,2.176905 -0.63652,0.916592 -0.95478,1.935027 -0.95478,3.055305 v 11.686545 c 0,0.330991 -0.10184,0.611061 -0.30553,0.840209 -0.20369,0.203687 -0.48376,0.305531 -0.84021,0.305531 -0.33099,0 -0.61106,-0.101844 -0.84021,-0.305531 -0.20369,-0.229148 -0.30553,-0.509218 -0.30553,-0.840209 V 64.774027 c 0,-0.356452 0.10184,-0.636522 0.30553,-0.840209 0.22915,-0.203687 0.50922,-0.305531 0.84021,-0.305531 0.35645,0 0.63652,0.101844 0.84021,0.305531 0.20369,0.203687 0.30553,0.483757 0.30553,0.840209 v 1.985948 c 0.86567,-1.069357 1.92229,-1.896835 3.16988,-2.482435 1.24758,-0.611061 2.60974,-0.916591 4.08647,-0.916591 z m -24.13689,0.07638 c 1.85865,0 3.51361,0.445566 4.96488,1.336697 1.47673,0.86567 2.62246,2.075062 3.43721,3.628176 0.81475,1.553113 1.22212,3.322644 1.22212,5.308593 0,0.330992 -0.10184,0.598331 -0.30552,0.802017 -0.20369,0.178227 -0.47103,0.26734 -0.80202,0.26734 h -16.00217 c 0.0764,1.502192 0.47102,2.851619 1.18393,4.048281 0.71291,1.1712 1.66769,2.087791 2.86435,2.749774 1.19667,0.661983 2.53337,0.992974 4.0101,0.992974 0.99297,0 1.98594,-0.165495 2.97891,-0.496486 1.01844,-0.356453 1.82046,-0.814749 2.40606,-1.374888 0.25461,-0.203687 0.52194,-0.305531 0.80201,-0.305531 0.28007,0 0.50922,0.07638 0.68745,0.229148 0.28007,0.229149 0.4201,0.496488 0.4201,0.802018 0,0.254609 -0.11457,0.496487 -0.34372,0.725636 -0.81475,0.738365 -1.8841,1.349426 -3.20807,1.833183 -1.29851,0.483756 -2.54609,0.725634 -3.74274,0.725634 -2.01141,0 -3.80641,-0.445565 -5.38498,-1.336695 -1.55311,-0.916592 -2.77524,-2.176906 -3.66637,-3.780941 -0.89113,-1.629497 -1.3367,-3.46268 -1.3367,-5.49955 0,-2.062331 0.40737,-3.895515 1.22212,-5.499551 0.84021,-1.629496 1.99868,-2.88981 3.47541,-3.780941 1.50219,-0.916592 3.20807,-1.374888 5.11764,-1.374888 z m 0,2.138715 c -1.98595,0 -3.66637,0.661983 -5.04126,1.985949 -1.34942,1.323965 -2.15144,3.068036 -2.40605,5.232211 h 14.85643 c -0.17823,-2.164175 -0.94205,-3.908246 -2.29148,-5.232211 -1.34943,-1.323966 -3.05531,-1.985949 -5.11764,-1.985949 z m -22.03637,19.172043 c -1.47673,0 -2.91526,-0.254609 -4.31561,-0.763826 -1.40035,-0.534679 -2.55882,-1.336697 -3.47541,-2.406054 -0.17823,-0.203687 -0.26734,-0.432835 -0.26734,-0.687443 0,-0.356453 0.16549,-0.649253 0.49648,-0.8784 0.15277,-0.127305 0.36919,-0.190957 0.64926,-0.190957 0.35645,0 0.64925,0.140035 0.8784,0.420104 1.27305,1.553113 3.32265,2.32967 6.14881,2.32967 2.0114,0 3.48813,-0.356452 4.43019,-1.069357 0.96751,-0.712904 1.45127,-1.629495 1.45127,-2.749774 0,-2.01141 -1.94776,-3.297185 -5.84327,-3.857324 -2.46971,-0.356452 -4.34109,-1.031165 -5.61413,-2.02414 -1.24758,-0.992975 -1.87137,-2.189636 -1.87137,-3.589984 0,-1.858644 0.67471,-3.297184 2.02414,-4.315619 1.37488,-1.043897 3.15714,-1.565845 5.34678,-1.565845 3.20807,0 5.63959,1.14574 7.29454,3.437219 0.15277,0.178227 0.22915,0.394644 0.22915,0.649253 0,0.356452 -0.20369,0.649252 -0.61106,0.8784 -0.25461,0.101844 -0.44556,0.152766 -0.57287,0.152766 -0.38191,0 -0.70017,-0.165496 -0.95478,-0.496488 -1.29851,-1.654957 -3.11896,-2.482435 -5.46137,-2.482435 -1.55311,0 -2.78796,0.343722 -3.70455,1.031166 -0.91659,0.661983 -1.37488,1.489461 -1.37488,2.482435 0,1.018435 0.43283,1.833183 1.2985,2.444244 0.89113,0.611061 2.36786,1.069357 4.43019,1.374888 2.69885,0.381913 4.63388,1.107548 5.80508,2.176905 1.19666,1.043897 1.79499,2.316941 1.79499,3.819133 0,1.1712 -0.38191,2.202366 -1.14574,3.093497 -0.73837,0.891131 -1.73134,1.578574 -2.97892,2.062331 -1.24758,0.483757 -2.60974,0.725635 -4.08648,0.725635 z M 112.77866,63.360949 c 1.85865,0 3.5136,0.381913 4.96487,1.145738 1.47673,0.763827 2.62247,1.884106 3.43722,3.360837 0.84021,1.451271 1.26031,3.195341 1.26031,5.232211 v 10.273466 c 0,0.330991 -0.11457,0.611061 -0.34372,0.840209 -0.20368,0.203687 -0.47102,0.305531 -0.80202,0.305531 -0.33099,0 -0.61105,-0.101844 -0.8402,-0.305531 -0.20369,-0.229148 -0.30554,-0.509218 -0.30554,-0.840209 V 73.099735 c 0,-2.418783 -0.68744,-4.264697 -2.06233,-5.537741 -1.34943,-1.273045 -3.11896,-1.909567 -5.30859,-1.909567 -1.34942,0 -2.58427,0.26734 -3.70456,0.802019 -1.09482,0.509217 -1.96049,1.234852 -2.59701,2.176905 -0.63652,0.916592 -0.95478,1.935027 -0.95478,3.055305 v 11.686545 c 0,0.330991 -0.10184,0.611061 -0.30553,0.840209 -0.20369,0.203687 -0.48376,0.305531 -0.84021,0.305531 -0.33099,0 -0.61106,-0.101844 -0.84021,-0.305531 -0.20369,-0.229148 -0.30553,-0.509218 -0.30553,-0.840209 V 64.774027 c 0,-0.356452 0.10184,-0.636522 0.30553,-0.840209 0.22915,-0.203687 0.50922,-0.305531 0.84021,-0.305531 0.35645,0 0.63652,0.101844 0.84021,0.305531 0.20369,0.203687 0.30553,0.483757 0.30553,0.840209 v 1.985948 c 0.86567,-1.069357 1.9223,-1.896835 3.16988,-2.482435 1.24758,-0.611061 2.60974,-0.916591 4.08647,-0.916591 z M 86.846795,84.748 c -2.01141,0 -3.831863,-0.458207 -5.461359,-1.374799 C 79.755939,82.431148 78.470165,81.145373 77.528112,79.515877 76.611521,77.886381 76.153,76.078658 76.153,74.09271 c 0,-2.01141 0.458521,-3.831863 1.375112,-5.461359 0.942053,-1.629496 2.227827,-2.902541 3.857324,-3.819133 1.629496,-0.942053 3.449949,-1.413079 5.461359,-1.413079 1.985949,0 3.793672,0.471026 5.423168,1.413079 1.629496,0.916592 2.902539,2.189637 3.819131,3.819133 0.942053,1.629496 1.413079,3.449949 1.413079,5.461359 0,1.985948 -0.471026,3.793671 -1.413079,5.423167 -0.916592,1.629496 -2.189635,2.915271 -3.819131,3.857324 C 90.640467,84.289793 88.832744,84.748 86.846795,84.748 Z m 0,-2.138626 c 1.578575,0 3.004384,-0.369183 4.277428,-1.107549 1.273044,-0.738365 2.266018,-1.7568 2.978923,-3.055305 0.738366,-1.298505 1.107548,-2.749775 1.107548,-4.35381 0,-1.604036 -0.369182,-3.055306 -1.107548,-4.353811 -0.712905,-1.298505 -1.705879,-2.31694 -2.978923,-3.055305 -1.273044,-0.763827 -2.698853,-1.14574 -4.277428,-1.14574 -1.578575,0 -3.004384,0.381913 -4.277428,1.14574 -1.273044,0.738365 -2.278749,1.7568 -3.017115,3.055305 -0.738365,1.298505 -1.107548,2.749775 -1.107548,4.353811 0,1.604035 0.369183,3.055305 1.107548,4.35381 0.738366,1.298505 1.744071,2.31694 3.017115,3.055305 1.273044,0.738366 2.698853,1.107549 4.277428,1.107549 z M 58.023541,93.310873 c -3.200402,0 -6.172204,-0.822961 -8.915406,-2.468882 -2.743202,-1.676401 -4.922524,-3.916683 -6.537965,-6.720845 -1.615441,-2.834642 -2.423161,-5.882644 -2.423161,-9.144006 0,-3.261362 0.79248,-6.294124 2.377441,-9.098286 1.615441,-2.804162 3.779523,-5.029204 6.492245,-6.675125 2.743202,-1.676401 5.745484,-2.514602 9.006846,-2.514602 4.267203,0 8.031486,1.356361 11.292848,4.069083 0.27432,0.21336 0.41148,0.51816 0.41148,0.914401 0,0.36576 -0.12192,0.70104 -0.36576,1.00584 -0.24384,0.274321 -0.57912,0.411481 -1.005841,0.411481 -0.33528,0 -0.71628,-0.18288 -1.143,-0.548641 -2.316482,-2.072641 -5.379724,-3.108962 -9.189727,-3.108962 -2.682242,0 -5.196844,0.716281 -7.543805,2.148842 -2.316481,1.432561 -4.160523,3.352802 -5.532124,5.760724 -1.371601,2.377441 -2.057401,4.922523 -2.057401,7.635245 0,2.804162 0.67056,5.410204 2.011681,7.818125 1.371601,2.377442 3.215643,4.267203 5.532124,5.669284 2.346961,1.402081 4.876803,2.103122 7.589525,2.103122 3.596643,0 6.751325,-1.112521 9.464047,-3.337562 0.21336,-0.152401 0.44196,-0.228601 0.6858,-0.228601 0.365761,0 0.685801,0.13716 0.960121,0.411481 0.3048,0.27432 0.4572,0.6096 0.4572,1.00584 0,0.396241 -0.10668,0.716281 -0.32004,0.960121 -2.621282,2.621282 -6.370325,3.931923 -11.247128,3.931923 z"
       sodipodi:nodetypes="sccscscscsccscscscscscscccscsssssscscsccsccsssscsscsccsscssccscscscsccscscscscscscccscsssccsssscsscsccsscscsscsssccsscsscsccssccscsccsccsccsscccsssccscscscsccscscscscscscccscsssccsssscsscsccsscscsscsssccssccsccsccsccssscsccscssssssccsccscscscsccsccscscscs" />
  </g>
  <g
     inkscape:groupmode="layer"
     id="layer3"
     inkscape:label="Livello 2"
     style="display:inline">
    <path
       id="path9775-9"
       style="font-weight:300;font-size:40px;line-height:1.25;font-family:Comfortaa;-inkscape-font-specification:'Comfortaa, Light';text-align:center;text-anchor:middle;fill:#2e2e2e;fill-opacity:1;stroke-width:0.1;stroke:#ffffff;stroke-opacity:1;stroke-miterlimit:4;stroke-dasharray:none"
       d="m 251.64204,84.748088 c -1.47672,0 -2.91527,-0.254608 -4.31562,-0.763826 -1.40034,-0.534679 -2.55881,-1.336697 -3.4754,-2.406054 -0.17823,-0.203687 -0.26734,-0.432835 -0.26734,-0.687443 0,-0.356452 0.16549,-0.649253 0.49648,-0.8784 0.15278,-0.127305 0.36919,-0.190957 0.64926,-0.190957 0.35645,0 0.64924,0.140034 0.8784,0.420104 1.27304,1.553114 3.32264,2.32967 6.1488,2.32967 2.01141,0 3.48814,-0.356452 4.4302,-1.069357 0.96751,-0.712904 1.45126,-1.629495 1.45126,-2.749774 0,-2.01141 -1.94775,-3.297185 -5.84326,-3.857324 -2.46972,-0.356452 -4.34109,-1.031166 -5.61414,-2.02414 -1.24758,-0.992974 -1.87136,-2.189635 -1.87136,-3.589984 0,-1.858644 0.6747,-3.297184 2.02413,-4.315619 1.37488,-1.043896 3.15715,-1.565845 5.34678,-1.565845 3.20807,0 5.6396,1.14574 7.29455,3.437219 0.15276,0.178227 0.22914,0.394644 0.22914,0.649253 0,0.356452 -0.20368,0.649252 -0.61105,0.8784 -0.25462,0.101843 -0.44557,0.152766 -0.57288,0.152766 -0.38191,0 -0.70016,-0.165496 -0.95478,-0.496488 -1.2985,-1.654957 -3.11895,-2.482435 -5.46136,-2.482435 -1.55311,0 -2.78796,0.343721 -3.70455,1.031166 -0.91659,0.661982 -1.37489,1.489461 -1.37489,2.482435 0,1.018435 0.43283,1.833184 1.29851,2.444244 0.89113,0.611062 2.36786,1.069357 4.43019,1.374888 2.69886,0.381914 4.63388,1.107549 5.80508,2.176905 1.19666,1.043896 1.79481,2.316941 1.79481,3.819133 0,1.1712 -0.38173,2.202365 -1.14556,3.093497 -0.73837,0.89113 -1.73134,1.578574 -2.97892,2.062331 -1.24759,0.483757 -2.60975,0.725635 -4.08648,0.725635 z m -15.1237,-21.119801 c 0.35645,0 0.63652,0.101844 0.84021,0.305531 0.20369,0.203687 0.30553,0.483757 0.30553,0.840209 v 18.599174 c 0,0.330991 -0.10184,0.611061 -0.30553,0.840209 -0.20369,0.203687 -0.48376,0.305531 -0.84021,0.305531 -0.33099,0 -0.61106,-0.101844 -0.84021,-0.305531 -0.20369,-0.229148 -0.30553,-0.509218 -0.30553,-0.840209 v -1.98595 c -0.86567,1.069357 -1.92229,1.909567 -3.16988,2.520628 -1.24758,0.5856 -2.60974,0.8784 -4.08647,0.8784 -1.85865,0 -3.52634,-0.381913 -5.00307,-1.14574 -1.45127,-0.763826 -2.597,-1.871374 -3.43721,-3.322645 -0.81475,-1.476731 -1.22212,-3.233531 -1.22212,-5.270402 V 64.774027 c 0,-0.330991 0.10184,-0.598331 0.30552,-0.802018 0.22915,-0.229148 0.50922,-0.343722 0.84021,-0.343722 0.331,0 0.59834,0.114574 0.80202,0.343722 0.22915,0.203687 0.34372,0.471027 0.34372,0.802018 v 10.273465 c 0,2.418784 0.67471,4.264698 2.02414,5.537742 1.37489,1.273044 3.15716,1.909566 5.34679,1.909566 1.34943,0 2.57155,-0.254609 3.66637,-0.763826 1.12027,-0.534679 1.99867,-1.260314 2.6352,-2.176906 0.63652,-0.942053 0.95478,-1.973218 0.95478,-3.093496 V 64.774027 c 0,-0.356452 0.10184,-0.636522 0.30553,-0.840209 0.22915,-0.203687 0.50922,-0.305531 0.84021,-0.305531 z m -31.04951,21.119801 c -1.47673,0 -2.91527,-0.254609 -4.31562,-0.763826 -1.40035,-0.534679 -2.55882,-1.336697 -3.47541,-2.406054 -0.17823,-0.203687 -0.26735,-0.432835 -0.26735,-0.687443 0,-0.356453 0.1655,-0.649253 0.4965,-0.8784 0.15276,-0.127305 0.36917,-0.190957 0.64924,-0.190957 0.35646,0 0.64926,0.140035 0.8784,0.420104 1.27305,1.553113 3.32265,2.32967 6.14881,2.32967 2.01141,0 3.48814,-0.356452 4.43019,-1.069357 0.96751,-0.712904 1.45127,-1.629495 1.45127,-2.749774 0,-2.01141 -1.94776,-3.297185 -5.84327,-3.857324 -2.4697,-0.356452 -4.34107,-1.031165 -5.61412,-2.02414 -1.24759,-0.992975 -1.87138,-2.189636 -1.87138,-3.589984 0,-1.858644 0.67471,-3.297184 2.02414,-4.315619 1.37489,-1.043897 3.15716,-1.565845 5.34679,-1.565845 3.20807,0 5.63958,1.14574 7.29454,3.437219 0.15277,0.178227 0.22915,0.394644 0.22915,0.649253 0,0.356452 -0.20369,0.649252 -0.61107,0.8784 -0.25461,0.101844 -0.44556,0.152766 -0.57286,0.152766 -0.38192,0 -0.70018,-0.165496 -0.95479,-0.496488 -1.2985,-1.654957 -3.11895,-2.482435 -5.46135,-2.482435 -1.55311,0 -2.78797,0.343722 -3.70457,1.031166 -0.91659,0.661983 -1.37488,1.489461 -1.37488,2.482435 0,1.018435 0.43283,1.833183 1.2985,2.444244 0.89113,0.611061 2.36786,1.069357 4.43019,1.374888 2.69886,0.381913 4.63389,1.107548 5.80509,2.176905 1.19665,1.043897 1.79498,2.316941 1.79498,3.819133 0,1.1712 -0.38191,2.202366 -1.14573,3.093497 -0.73837,0.891131 -1.73134,1.578574 -2.97892,2.062331 -1.24759,0.483757 -2.60974,0.725635 -4.08647,0.725635 z M 182.21037,63.360949 c 1.85864,0 3.5136,0.381913 4.96487,1.145738 1.47673,0.763827 2.62247,1.884106 3.43722,3.360837 0.84021,1.451271 1.26031,3.195341 1.26031,5.232211 v 10.273466 c 0,0.330991 -0.11457,0.611061 -0.34372,0.840209 -0.20369,0.203687 -0.47102,0.305531 -0.80201,0.305531 -0.331,0 -0.61107,-0.101844 -0.84022,-0.305531 -0.20368,-0.229148 -0.30552,-0.509218 -0.30552,-0.840209 V 73.099735 c 0,-2.418783 -0.68745,-4.264697 -2.06234,-5.537741 -1.34943,-1.273045 -3.11896,-1.909567 -5.30859,-1.909567 -1.34943,0 -2.58428,0.26734 -3.70456,0.802019 -1.09481,0.509217 -1.96048,1.234852 -2.59701,2.176905 -0.63652,0.916592 -0.95478,1.935027 -0.95478,3.055305 v 11.686545 c 0,0.330991 -0.10184,0.611061 -0.30553,0.840209 -0.20369,0.203687 -0.48376,0.305531 -0.84021,0.305531 -0.33099,0 -0.61106,-0.101844 -0.84021,-0.305531 -0.20369,-0.229148 -0.30553,-0.509218 -0.30553,-0.840209 V 64.774027 c 0,-0.356452 0.10184,-0.636522 0.30553,-0.840209 0.22915,-0.203687 0.50922,-0.305531 0.84021,-0.305531 0.35645,0 0.63652,0.101844 0.84021,0.305531 0.20369,0.203687 0.30553,0.483757 0.30553,0.840209 v 1.985948 c 0.86567,-1.069357 1.92229,-1.896835 3.16988,-2.482435 1.24758,-0.611061 2.60974,-0.916591 4.08647,-0.916591 z m -24.13689,0.07638 c 1.85865,0 3.51361,0.445566 4.96488,1.336697 1.47673,0.86567 2.62246,2.075062 3.43721,3.628176 0.81475,1.553113 1.22212,3.322644 1.22212,5.308593 0,0.330992 -0.10184,0.598331 -0.30552,0.802017 -0.20369,0.178227 -0.47103,0.26734 -0.80202,0.26734 h -16.00217 c 0.0764,1.502192 0.47102,2.851619 1.18393,4.048281 0.71291,1.1712 1.66769,2.087791 2.86435,2.749774 1.19667,0.661983 2.53337,0.992974 4.0101,0.992974 0.99297,0 1.98594,-0.165495 2.97891,-0.496486 1.01844,-0.356453 1.82046,-0.814749 2.40606,-1.374888 0.25461,-0.203687 0.52194,-0.305531 0.80201,-0.305531 0.28007,0 0.50922,0.07638 0.68745,0.229148 0.28007,0.229149 0.4201,0.496488 0.4201,0.802018 0,0.254609 -0.11457,0.496487 -0.34372,0.725636 -0.81475,0.738365 -1.8841,1.349426 -3.20807,1.833183 -1.29851,0.483756 -2.54609,0.725634 -3.74274,0.725634 -2.01141,0 -3.80641,-0.445565 -5.38498,-1.336695 -1.55311,-0.916592 -2.77524,-2.176906 -3.66637,-3.780941 -0.89113,-1.629497 -1.3367,-3.46268 -1.3367,-5.49955 0,-2.062331 0.40737,-3.895515 1.22212,-5.499551 0.84021,-1.629496 1.99868,-2.88981 3.47541,-3.780941 1.50219,-0.916592 3.20807,-1.374888 5.11764,-1.374888 z m 0,2.138715 c -1.98595,0 -3.66637,0.661983 -5.04126,1.985949 -1.34942,1.323965 -2.15144,3.068036 -2.40605,5.232211 h 14.85643 c -0.17823,-2.164175 -0.94205,-3.908246 -2.29148,-5.232211 -1.34943,-1.323966 -3.05531,-1.985949 -5.11764,-1.985949 z m -22.03637,19.172043 c -1.47673,0 -2.91526,-0.254609 -4.31561,-0.763826 -1.40035,-0.534679 -2.55882,-1.336697 -3.47541,-2.406054 -0.17823,-0.203687 -0.26734,-0.432835 -0.26734,-0.687443 0,-0.356453 0.16549,-0.649253 0.49648,-0.8784 0.15277,-0.127305 0.36919,-0.190957 0.64926,-0.190957 0.35645,0 0.64925,0.140035 0.8784,0.420104 1.27305,1.553113 3.32265,2.32967 6.14881,2.32967 2.0114,0 3.48813,-0.356452 4.43019,-1.069357 0.96751,-0.712904 1.45127,-1.629495 1.45127,-2.749774 0,-2.01141 -1.94776,-3.297185 -5.84327,-3.857324 -2.46971,-0.356452 -4.34109,-1.031165 -5.61413,-2.02414 -1.24758,-0.992975 -1.87137,-2.189636 -1.87137,-3.589984 0,-1.858644 0.67471,-3.297184 2.02414,-4.315619 1.37488,-1.043897 3.15714,-1.565845 5.34678,-1.565845 3.20807,0 5.63959,1.14574 7.29454,3.437219 0.15277,0.178227 0.22915,0.394644 0.22915,0.649253 0,0.356452 -0.20369,0.649252 -0.61106,0.8784 -0.25461,0.101844 -0.44556,0.152766 -0.57287,0.152766 -0.38191,0 -0.70017,-0.165496 -0.95478,-0.496488 -1.29851,-1.654957 -3.11896,-2.482435 -5.46137,-2.482435 -1.55311,0 -2.78796,0.343722 -3.70455,1.031166 -0.91659,0.661983 -1.37488,1.489461 -1.37488,2.482435 0,1.018435 0.43283,1.833183 1.2985,2.444244 0.89113,0.611061 2.36786,1.069357 4.43019,1.374888 2.69885,0.381913 4.63388,1.107548 5.80508,2.176905 1.19666,1.043897 1.79499,2.316941 1.79499,3.819133 0,1.1712 -0.38191,2.202366 -1.14574,3.093497 -0.73837,0.891131 -1.73134,1.578574 -2.97892,2.062331 -1.24758,0.483757 -2.60974,0.725635 -4.08648,0.725635 z M 112.77866,63.360949 c 1.85865,0 3.5136,0.381913 4.96487,1.145738 1.47673,0.763827 2.62247,1.884106 3.43722,3.360837 0.84021,1.451271 1.26031,3.195341 1.26031,5.232211 v 10.273466 c 0,0.330991 -0.11457,0.611061 -0.34372,0.840209 -0.20368,0.203687 -0.47102,0.305531 -0.80202,0.305531 -0.33099,0 -0.61105,-0.101844 -0.8402,-0.305531 -0.20369,-0.229148 -0.30554,-0.509218 -0.30554,-0.840209 V 73.099735 c 0,-2.418783 -0.68744,-4.264697 -2.06233,-5.537741 -1.34943,-1.273045 -3.11896,-1.909567 -5.30859,-1.909567 -1.34942,0 -2.58427,0.26734 -3.70456,0.802019 -1.09482,0.509217 -1.96049,1.234852 -2.59701,2.176905 -0.63652,0.916592 -0.95478,1.935027 -0.95478,3.055305 v 11.686545 c 0,0.330991 -0.10184,0.611061 -0.30553,0.840209 -0.20369,0.203687 -0.48376,0.305531 -0.84021,0.305531 -0.33099,0 -0.61106,-0.101844 -0.84021,-0.305531 -0.20369,-0.229148 -0.30553,-0.509218 -0.30553,-0.840209 V 64.774027 c 0,-0.356452 0.10184,-0.636522 0.30553,-0.840209 0.22915,-0.203687 0.50922,-0.305531 0.84021,-0.305531 0.35645,0 0.63652,0.101844 0.84021,0.305531 0.20369,0.203687 0.30553,0.483757 0.30553,0.840209 v 1.985948 c 0.86567,-1.069357 1.9223,-1.896835 3.16988,-2.482435 1.24758,-0.611061 2.60974,-0.916591 4.08647,-0.916591 z M 86.846795,84.748 c -2.01141,0 -3.831863,-0.458207 -5.461359,-1.374799 C 79.755939,82.431148 78.470165,81.145373 77.528112,79.515877 76.611521,77.886381 76.153,76.078658 76.153,74.09271 c 0,-2.01141 0.458521,-3.831863 1.375112,-5.461359 0.942053,-1.629496 2.227827,-2.902541 3.857324,-3.819133 1.629496,-0.942053 3.449949,-1.413079 5.461359,-1.413079 1.985949,0 3.793672,0.471026 5.423168,1.413079 1.629496,0.916592 2.902539,2.189637 3.819131,3.819133 0.942053,1.629496 1.413079,3.449949 1.413079,5.461359 0,1.985948 -0.471026,3.793671 -1.413079,5.423167 -0.916592,1.629496 -2.189635,2.915271 -3.819131,3.857324 C 90.640467,84.289793 88.832744,84.748 86.846795,84.748 Z m 0,-2.138626 c 1.578575,0 3.004384,-0.369183 4.277428,-1.107549 1.273044,-0.738365 2.266018,-1.7568 2.978923,-3.055305 0.738366,-1.298505 1.107548,-2.749775 1.107548,-4.35381 0,-1.604036 -0.369182,-3.055306 -1.107548,-4.353811 -0.712905,-1.298505 -1.705879,-2.31694 -2.978923,-3.055305 -1.273044,-0.763827 -2.698853,-1.14574 -4.277428,-1.14574 -1.578575,0 -3.004384,0.381913 -4.277428,1.14574 -1.273044,0.738365 -2.278749,1.7568 -3.017115,3.055305 -0.738365,1.298505 -1.107548,2.749775 -1.107548,4.353811 0,1.604035 0.369183,3.055305 1.107548,4.35381 0.738366,1.298505 1.744071,2.31694 3.017115,3.055305 1.273044,0.738366 2.698853,1.107549 4.277428,1.107549 z M 58.023541,93.310873 c -3.200402,0 -6.172204,-0.822961 -8.915406,-2.468882 -2.743202,-1.676401 -4.922524,-3.916683 -6.537965,-6.720845 -1.615441,-2.834642 -2.423161,-5.882644 -2.423161,-9.144006 0,-3.261362 0.79248,-6.294124 2.377441,-9.098286 1.615441,-2.804162 3.779523,-5.029204 6.492245,-6.675125 2.743202,-1.676401 5.745484,-2.514602 9.006846,-2.514602 4.267203,0 8.031486,1.356361 11.292848,4.069083 0.27432,0.21336 0.41148,0.51816 0.41148,0.914401 0,0.36576 -0.12192,0.70104 -0.36576,1.00584 -0.24384,0.274321 -0.57912,0.411481 -1.005841,0.411481 -0.33528,0 -0.71628,-0.18288 -1.143,-0.548641 -2.316482,-2.072641 -5.379724,-3.108962 -9.189727,-3.108962 -2.682242,0 -5.196844,0.716281 -7.543805,2.148842 -2.316481,1.432561 -4.160523,3.352802 -5.532124,5.760724 -1.371601,2.377441 -2.057401,4.922523 -2.057401,7.635245 0,2.804162 0.67056,5.410204 2.011681,7.818125 1.371601,2.377442 3.215643,4.267203 5.532124,5.669284 2.346961,1.402081 4.876803,2.103122 7.589525,2.103122 3.596643,0 6.751325,-1.112521 9.464047,-3.337562 0.21336,-0.152401 0.44196,-0.228601 0.6858,-0.228601 0.365761,0 0.685801,0.13716 0.960121,0.411481 0.3048,0.27432 0.4572,0.6096 0.4572,1.00584 0,0.396241 -0.10668,0.716281 -0.32004,0.960121 -2.621282,2.621282 -6.370325,3.931923 -11.247128,3.931923 z"
       sodipodi:nodetypes="sccscscscsccscscscscscscccscsssssscscsccsccsssscsscsccsscssccscscscsccscscscscscscccscsssccsssscsscsccsscscsscsssccsscsscsccssccscsccsccsccsscccsssccscscscsccscscscscscscccscsssccsssscsscsccsscscsscsssccssccsccsccsccssscsccscssssssccsccscscscsccsccscscscs" />
    <path
       style="color:#000000;fill:#454545;fill-opacity:1;stroke-width:0.1;stroke-linecap:round;stroke:#ffffff;stroke-opacity:1;stroke-miterlimit:4;stroke-dasharray:none"
       d="m 76.552595,89.118908 c -0.220604,2.19e-4 -0.399385,0.179488 -0.399603,0.400092 -10e-4,0.221475 0.178125,0.401131 0.399603,0.401348 H 259.45339 c 0.22148,-2.17e-4 0.40062,-0.180361 0.3996,-0.401836 -2.2e-4,-0.220605 -0.179,-0.399385 -0.3996,-0.399604 z"
       id="path13301-4-2"
       sodipodi:nodetypes="ccccccc" />
  </g>
</svg>
