<?xml version="1.0" encoding="UTF-8" standalone="no"?>
<!-- Created with Inkscape (http://www.inkscape.org/) -->

<svg
   width="100"
   height="50"
   viewBox="0 0 100 50"
   version="1.1"
   id="svg5"
   inkscape:version="1.1.2 (0a00cf5339, 2022-02-04)"
   sodipodi:docname="Consensus logo_black.svg"
   inkscape:export-filename="/home/alessandro/Documenti/In lavorazione/CISRI-IEMO-BAID/Project source files/Consensus/Graphics/Logo/graphics/v3/png/logo_1000.png"
   inkscape:export-xdpi="960"
   inkscape:export-ydpi="960"
   xmlns:inkscape="http://www.inkscape.org/namespaces/inkscape"
   xmlns:sodipodi="http://sodipodi.sourceforge.net/DTD/sodipodi-0.dtd"
   xmlns="http://www.w3.org/2000/svg"
   xmlns:svg="http://www.w3.org/2000/svg">
  <sodipodi:namedview
     id="namedview7"
     pagecolor="#505050"
     bordercolor="#eeeeee"
     borderopacity="1"
     inkscape:pageshadow="0"
     inkscape:pageopacity="0"
     inkscape:pagecheckerboard="0"
     inkscape:document-units="px"
     showgrid="false"
     showguides="true"
     inkscape:guide-bbox="true"
     inkscape:zoom="5.6568543"
     inkscape:cx="46.580659"
     inkscape:cy="22.892582"
     inkscape:window-width="1870"
     inkscape:window-height="1016"
     inkscape:window-x="0"
     inkscape:window-y="0"
     inkscape:window-maximized="1"
     inkscape:current-layer="layer1"
     borderlayer="true"
     height="51px" />
  <defs
     id="defs2" />
  <g
     inkscape:groupmode="layer"
     id="layer1"
     inkscape:label="Bg"
     style="display:none">
    <rect
       style="fill:#ffffff;fill-opacity:1;stroke:none;stroke-width:14.1755;stroke-linejoin:round;stroke-miterlimit:4;stroke-dasharray:56.7022, 28.351, 14.1755, 28.351;stroke-dashoffset:0;stroke-opacity:1;stop-color:#000000"
       id="rect15334"
       width="5568.8999"
       height="3552.4055"
       x="-2634.45"
       y="-1701.2028" />
  </g>
  <g
     inkscape:groupmode="layer"
     id="layer3"
     inkscape:label="Logo"
     style="display:inline">
    <g
       id="g64529"
       transform="matrix(0.22531047,0,0,0.22531047,-5.5898632,-3.865205)">
      <g
         id="g1174"
         transform="matrix(1.5074699,0,0,1.5074699,32.860426,-32.852224)">
        <path
           style="font-weight:300;font-size:40px;line-height:1.25;font-family:Comfortaa;-inkscape-font-specification:'Comfortaa, Light';text-align:center;text-anchor:middle;fill:#bababa;fill-opacity:1;stroke:none;stroke-width:0.166634;stroke-miterlimit:4;stroke-dasharray:none;stroke-opacity:1"
           d="m 46.595344,119.18228 c -5.332934,0 -10.284947,-1.37133 -14.856037,-4.11398 -4.57109,-2.79345 -8.202569,-6.52652 -10.894433,-11.19919 -2.691865,-4.723463 -4.037796,-9.80245 -4.037796,-15.236967 0,-5.434518 1.320537,-10.488112 3.961611,-15.160782 2.691864,-4.672669 6.297948,-8.380332 10.818248,-11.122985 4.571089,-2.793445 9.573892,-4.190167 15.008407,-4.190167 7.11059,0 13.38314,2.26015 18.81766,6.780451 0.45711,0.355529 0.68566,0.863427 0.68566,1.523697 0,0.609479 -0.20316,1.168167 -0.60948,1.676066 -0.40632,0.45711 -0.96501,0.685665 -1.67606,0.685665 -0.55869,0 -1.19357,-0.30474 -1.90462,-0.914221 -3.86004,-3.45371 -8.96442,-5.180568 -15.31316,-5.180568 -4.469507,0 -8.659673,1.193564 -12.570494,3.580689 -3.860029,2.387124 -6.932819,5.586887 -9.218364,9.599289 -2.285545,3.96161 -3.428317,8.202566 -3.428317,12.722866 0,4.67267 1.117377,9.015206 3.352133,13.027607 2.285545,3.96161 5.358334,7.11059 9.218365,9.44693 3.910819,2.33634 8.12638,3.50451 12.646677,3.50451 5.99321,0 11.24996,-1.85384 15.77026,-5.5615 0.35553,-0.25396 0.73646,-0.38093 1.14278,-0.38093 0.60947,0 1.14277,0.22856 1.59988,0.68566 0.5079,0.45711 0.76185,1.01581 0.76185,1.67607 0,0.66028 -0.17777,1.19356 -0.5333,1.59989 -4.36793,4.36793 -10.61509,6.5519 -18.74147,6.5519 z"
           id="path1082" />
        <g
           id="g1160"
           transform="matrix(0.81921345,0,0,0.81921345,10.114868,28.840043)">
          <g
             id="g1148"
             transform="matrix(1.0021032,0,0,1.0021032,22.977217,7.5182814)"
             style="fill:#a3a3a3;fill-opacity:1">
            <path
               id="path1078"
               style="font-weight:300;font-size:40px;line-height:1.25;font-family:Comfortaa;-inkscape-font-specification:'Comfortaa, Light';text-align:center;text-anchor:middle;fill:#a3a3a3;fill-opacity:1;stroke:none;stroke-width:0.127359;stroke-miterlimit:4;stroke-dasharray:none;stroke-opacity:1"
               d="m 69.568747,87.415372 c -2.561711,0 -4.880221,-0.58399 -6.955529,-1.751352 -2.075311,-1.199788 -3.712859,-2.837338 -4.912647,-4.912647 -1.167361,-2.075308 -1.751329,-4.377605 -1.751329,-6.906888 0,-2.56171 0.583968,-4.88022 1.751329,-6.955529 1.199788,-2.075309 2.837336,-3.696645 4.912647,-4.864007 2.075308,-1.199789 4.393739,-1.799411 6.95545,-1.799411 2.529283,0 4.831659,0.599622 6.906968,1.799411 2.075309,1.167362 3.696643,2.788698 4.864005,4.864007 1.199788,2.075309 1.799682,4.393819 1.799682,6.955529 0,2.529283 -0.599894,4.83158 -1.799682,6.906888 -1.167362,2.075309 -2.788696,3.712859 -4.864005,4.912647 -2.075309,1.167362 -4.377606,1.751352 -6.906889,1.751352 z m 0,-2.724154 c 2.010456,0 3.826351,-0.470187 5.447687,-1.410562 1.621335,-0.940374 2.885976,-2.237442 3.793924,-3.891204 0.940375,-1.653763 1.410562,-3.502085 1.410562,-5.544967 0,-2.042883 -0.470187,-3.891205 -1.410562,-5.544967 -0.907948,-1.653762 -2.172589,-2.95083 -3.793924,-3.891204 -1.621336,-0.972802 -3.437231,-1.458828 -5.447687,-1.458828 -2.010457,0 -3.826352,0.486026 -5.447687,1.458828 -1.621336,0.940374 -2.902191,2.237442 -3.842566,3.891204 -0.940374,1.653762 -1.410562,3.502084 -1.410562,5.544967 0,2.042882 0.470188,3.891204 1.410562,5.544967 0.940375,1.653762 2.22123,2.95083 3.842566,3.891204 1.621335,0.940375 3.43723,1.410562 5.447687,1.410562 z"
               sodipodi:nodetypes="sccsccsccsccssscsccscsssss" />
            <path
               style="font-weight:300;font-size:40px;line-height:1.25;font-family:Comfortaa;-inkscape-font-specification:'Comfortaa, Light';text-align:center;text-anchor:middle;fill:#a3a3a3;fill-opacity:1;stroke:none;stroke-width:0.127359;stroke-miterlimit:4;stroke-dasharray:none;stroke-opacity:1"
               d="m 102.5953,60.176628 c 2.36715,0 4.47488,0.486401 6.3232,1.4592 1.88075,0.972802 3.33995,2.399577 4.37761,4.280326 1.07008,1.848324 1.60512,4.069553 1.60512,6.663689 V 85.66402 c 0,0.421547 -0.14592,0.778241 -0.43776,1.070082 -0.25941,0.259413 -0.59989,0.389121 -1.02145,0.389121 -0.42154,0 -0.77822,-0.129708 -1.07007,-0.389121 -0.25941,-0.291841 -0.38913,-0.648535 -0.38913,-1.070082 V 72.579843 c 0,-3.080537 -0.87552,-5.431473 -2.62656,-7.052808 -1.71862,-1.621337 -3.97228,-2.432005 -6.76096,-2.432005 -1.71861,0 -3.291304,0.340482 -4.718093,1.021443 -1.394351,0.648534 -2.496859,1.572695 -3.307525,2.772483 -0.810665,1.167362 -1.215997,2.46443 -1.215997,3.891204 v 14.88386 c 0,0.421547 -0.129703,0.778241 -0.38912,1.070082 -0.259417,0.259413 -0.616112,0.389121 -1.070083,0.389121 -0.421545,0 -0.778239,-0.129708 -1.070082,-0.389121 -0.259418,-0.291841 -0.38912,-0.648535 -0.38912,-1.070082 V 61.976309 c 0,-0.453973 0.129702,-0.810667 0.38912,-1.070081 0.291843,-0.259414 0.648537,-0.389121 1.070082,-0.389121 0.453971,0 0.810666,0.129707 1.070083,0.389121 0.259417,0.259414 0.38912,0.616108 0.38912,1.070081 v 2.529283 c 1.102508,-1.361922 2.448221,-2.415789 4.037125,-3.161603 1.588905,-0.778241 3.32374,-1.167361 5.20449,-1.167361 z"
               id="path1076" />
            <path
               style="font-weight:300;font-size:40px;line-height:1.25;font-family:Comfortaa;-inkscape-font-specification:'Comfortaa, Light';text-align:center;text-anchor:middle;fill:#a3a3a3;fill-opacity:1;stroke:none;stroke-width:0.127359;stroke-miterlimit:4;stroke-dasharray:none;stroke-opacity:1"
               d="m 132.21701,87.415064 c -1.88075,0 -3.71284,-0.324268 -5.49631,-0.972801 -1.78348,-0.680962 -3.25889,-1.702403 -4.42625,-3.064325 -0.22699,-0.259414 -0.34048,-0.551254 -0.34048,-0.87552 0,-0.453975 0.21077,-0.826882 0.63231,-1.118721 0.19457,-0.162134 0.4702,-0.243201 0.82689,-0.243201 0.45397,0 0.82688,0.178347 1.11872,0.53504 1.62135,1.978028 4.23169,2.967043 7.83106,2.967043 2.5617,0 4.44245,-0.453973 5.64224,-1.361921 1.23222,-0.907947 1.84833,-2.075308 1.84833,-3.502084 0,-2.56171 -2.48065,-4.199259 -7.44193,-4.912647 -3.1454,-0.453973 -5.52877,-1.31328 -7.1501,-2.577923 -1.5889,-1.264642 -2.38335,-2.788697 -2.38335,-4.572165 0,-2.36715 0.8593,-4.199259 2.57792,-5.496327 1.75103,-1.329496 4.0209,-1.994244 6.8096,-1.994244 4.08577,0 7.18252,1.459203 9.29025,4.377606 0.19457,0.226988 0.29184,0.502614 0.29184,0.826882 0,0.453973 -0.25941,0.82688 -0.77824,1.118721 -0.32426,0.129707 -0.56746,0.194561 -0.7296,0.194561 -0.48639,0 -0.89173,-0.210774 -1.21599,-0.632322 -1.65377,-2.107736 -3.97228,-3.161603 -6.95555,-3.161603 -1.97802,0 -3.55071,0.437761 -4.71807,1.313282 -1.16736,0.843095 -1.75104,1.896962 -1.75104,3.161603 0,1.297068 0.55125,2.334723 1.65376,3.112963 1.13493,0.778241 3.01568,1.361922 5.64224,1.751043 3.43723,0.486401 5.90166,1.410562 7.39329,2.772483 1.52406,1.329497 2.28608,2.950832 2.28608,4.864008 0,1.491628 -0.48639,2.80491 -1.4592,3.939845 -0.94038,1.134935 -2.20502,2.010455 -3.79392,2.626563 -1.58891,0.616107 -3.32374,0.924161 -5.2045,0.924161 z"
               id="path1074" />
            <path
               id="path1070"
               style="font-weight:300;font-size:40px;line-height:1.25;font-family:Comfortaa;-inkscape-font-specification:'Comfortaa, Light';text-align:center;text-anchor:middle;fill:#a3a3a3;fill-opacity:1;stroke:none;stroke-width:0.127359;stroke-miterlimit:4;stroke-dasharray:none;stroke-opacity:1"
               d="m 160.2823,60.273908 c 2.36716,0 4.4749,0.567468 6.32322,1.702403 1.88074,1.102508 3.33993,2.642777 4.37759,4.620807 1.03766,1.978028 1.55648,4.231684 1.55648,6.760967 0,0.421548 -0.1297,0.762028 -0.38911,1.021441 -0.25941,0.226988 -0.5999,0.340481 -1.02144,0.340481 h -20.3802 c 0.0973,1.913176 0.59989,3.631792 1.50785,5.155848 0.90795,1.491628 2.12395,2.658989 3.648,3.502083 1.52407,0.843095 3.22647,1.264641 5.10722,1.264641 1.26464,0 2.52927,-0.210772 3.79391,-0.632319 1.29708,-0.453975 2.31852,-1.037656 3.06433,-1.751043 0.32427,-0.259413 0.66474,-0.389121 1.02143,-0.389121 0.3567,0 0.64854,0.09728 0.87553,0.291841 0.3567,0.291841 0.53504,0.632321 0.53504,1.021441 0,0.324268 -0.14592,0.632321 -0.43776,0.924163 -1.03766,0.940373 -2.39957,1.718614 -4.08576,2.334722 -1.65377,0.616107 -3.24268,0.92416 -4.76672,0.92416 -2.56171,0 -4.8478,-0.567467 -6.85825,-1.702401 -1.97803,-1.167362 -3.53452,-2.772484 -4.66945,-4.815366 -1.13493,-2.07531 -1.70241,-4.410033 -1.70241,-7.004169 0,-2.626563 0.51882,-4.961287 1.55648,-7.00417 1.07008,-2.075309 2.5455,-3.680431 4.42625,-4.815366 1.91317,-1.167362 4.08576,-1.751043 6.51777,-1.751043 z m 0,2.723845 c -2.52929,0 -4.66945,0.843094 -6.4205,2.529283 -1.7186,1.686188 -2.74005,3.907418 -3.06432,6.663689 h 18.921 c -0.227,-2.756271 -1.19979,-4.977501 -2.91841,-6.663689 -1.71862,-1.686189 -3.89121,-2.529283 -6.51777,-2.529283 z" />
            <path
               style="font-weight:300;font-size:40px;line-height:1.25;font-family:Comfortaa;-inkscape-font-specification:'Comfortaa, Light';text-align:center;text-anchor:middle;fill:#a3a3a3;fill-opacity:1;stroke:none;stroke-width:0.127359;stroke-miterlimit:4;stroke-dasharray:none;stroke-opacity:1"
               d="m 191.02279,60.176628 c 2.36714,0 4.47488,0.486401 6.3232,1.4592 1.88075,0.972802 3.33995,2.399577 4.37761,4.280326 1.07008,1.848324 1.60512,4.069553 1.60512,6.663689 V 85.66402 c 0,0.421547 -0.14592,0.778241 -0.43776,1.070082 -0.25942,0.259413 -0.59989,0.389121 -1.02143,0.389121 -0.42156,0 -0.77826,-0.129708 -1.0701,-0.389121 -0.2594,-0.291841 -0.38911,-0.648535 -0.38911,-1.070082 V 72.579843 c 0,-3.080537 -0.87552,-5.431473 -2.62657,-7.052808 -1.71862,-1.621337 -3.97227,-2.432005 -6.76096,-2.432005 -1.71862,0 -3.29132,0.340482 -4.71809,1.021443 -1.39434,0.648534 -2.49685,1.572695 -3.30753,2.772483 -0.81066,1.167362 -1.21599,2.46443 -1.21599,3.891204 v 14.88386 c 0,0.421547 -0.12971,0.778241 -0.38912,1.070082 -0.25942,0.259413 -0.61612,0.389121 -1.07009,0.389121 -0.42154,0 -0.77824,-0.129708 -1.07008,-0.389121 -0.25942,-0.291841 -0.38912,-0.648535 -0.38912,-1.070082 V 61.976309 c 0,-0.453973 0.1297,-0.810667 0.38912,-1.070081 0.29184,-0.259414 0.64854,-0.389121 1.07008,-0.389121 0.45397,0 0.81067,0.129707 1.07009,0.389121 0.25941,0.259414 0.38912,0.616108 0.38912,1.070081 v 2.529283 c 1.1025,-1.361922 2.4482,-2.415789 4.03712,-3.161603 1.58891,-0.778241 3.32374,-1.167361 5.20449,-1.167361 z"
               id="path1068" />
            <path
               style="font-weight:300;font-size:40px;line-height:1.25;font-family:Comfortaa;-inkscape-font-specification:'Comfortaa, Light';text-align:center;text-anchor:middle;fill:#a3a3a3;fill-opacity:1;stroke:none;stroke-width:0.127359;stroke-miterlimit:4;stroke-dasharray:none;stroke-opacity:1"
               d="m 220.64451,87.415062 c -1.88074,0 -3.71285,-0.324267 -5.49632,-0.972801 -1.78347,-0.680961 -3.25889,-1.702403 -4.42625,-3.064325 -0.22699,-0.259413 -0.34049,-0.551254 -0.34049,-0.87552 0,-0.453975 0.21078,-0.826882 0.63233,-1.118721 0.19456,-0.162134 0.47018,-0.243201 0.82687,-0.243201 0.45398,0 0.82689,0.178348 1.11872,0.53504 1.62134,1.978029 4.23169,2.967044 7.83106,2.967044 2.56171,0 4.44246,-0.453974 5.64224,-1.361922 1.23221,-0.907947 1.84832,-2.075308 1.84832,-3.502083 0,-2.561711 -2.48064,-4.19926 -7.44192,-4.912647 -3.14539,-0.453974 -5.52874,-1.313281 -7.15009,-2.577924 -1.58891,-1.264642 -2.38337,-2.788697 -2.38337,-4.572165 0,-2.367149 0.85931,-4.199259 2.57793,-5.496327 1.75104,-1.329496 4.02092,-1.994243 6.80961,-1.994243 4.08577,0 7.18251,1.459202 9.29025,4.377605 0.19457,0.226988 0.29184,0.502615 0.29184,0.826882 0,0.453974 -0.25941,0.82688 -0.77825,1.118721 -0.32427,0.129707 -0.56746,0.194561 -0.72959,0.194561 -0.48641,0 -0.89174,-0.210774 -1.21601,-0.632322 -1.65375,-2.107735 -3.97226,-3.161603 -6.95551,-3.161603 -1.97803,0 -3.55073,0.437761 -4.7181,1.313282 -1.16736,0.843095 -1.75104,1.896962 -1.75104,3.161603 0,1.297068 0.55125,2.334723 1.65376,3.112964 1.13493,0.77824 3.01568,1.361921 5.64224,1.751042 3.43724,0.486401 5.90167,1.410562 7.3933,2.772484 1.52404,1.329496 2.28607,2.950831 2.28607,4.864007 0,1.491628 -0.4864,2.80491 -1.45919,3.939845 -0.94038,1.134935 -2.20502,2.010455 -3.79392,2.626563 -1.58892,0.616108 -3.32374,0.924161 -5.20449,0.924161 z"
               id="path1066" />
            <path
               style="font-weight:300;font-size:40px;line-height:1.25;font-family:Comfortaa;-inkscape-font-specification:'Comfortaa, Light';text-align:center;text-anchor:middle;fill:#a3a3a3;fill-opacity:1;stroke:none;stroke-width:0.127359;stroke-miterlimit:4;stroke-dasharray:none;stroke-opacity:1"
               d="m 260.18884,60.517107 c 0.45397,0 0.81067,0.129707 1.07008,0.389121 0.25942,0.259414 0.38912,0.616108 0.38912,1.070081 V 85.66402 c 0,0.421547 -0.1297,0.778241 -0.38912,1.070082 -0.25941,0.259413 -0.61611,0.389121 -1.07008,0.389121 -0.42154,0 -0.77824,-0.129708 -1.07008,-0.389121 -0.25942,-0.291841 -0.38912,-0.648535 -0.38912,-1.070082 v -2.529284 c -1.10251,1.361921 -2.44821,2.432004 -4.03713,3.210245 -1.5889,0.745814 -3.32373,1.118721 -5.20448,1.118721 -2.36716,0 -4.49111,-0.486401 -6.37186,-1.459203 -1.84832,-0.9728 -3.30751,-2.383362 -4.37759,-4.231685 -1.03766,-1.880749 -1.55648,-4.118191 -1.55648,-6.712328 V 61.976309 c 0,-0.421546 0.1297,-0.762028 0.38911,-1.021441 0.29184,-0.291841 0.64853,-0.437761 1.07008,-0.437761 0.42156,0 0.76204,0.14592 1.02144,0.437761 0.29185,0.259413 0.43776,0.599895 0.43776,1.021441 v 13.084177 c 0,3.080537 0.8593,5.431474 2.57792,7.052809 1.75105,1.621336 4.02093,2.432003 6.80962,2.432003 1.71862,0 3.2751,-0.324267 4.66945,-0.9728 1.42676,-0.680962 2.54548,-1.605123 3.35616,-2.772485 0.81067,-1.199789 1.216,-2.513069 1.216,-3.939844 v -14.88386 c 0,-0.453973 0.1297,-0.810667 0.38912,-1.070081 0.29184,-0.259414 0.64854,-0.389121 1.07008,-0.389121 z"
               id="path1064" />
            <path
               style="font-weight:300;font-size:40px;line-height:1.25;font-family:Comfortaa;-inkscape-font-specification:'Comfortaa, Light';text-align:center;text-anchor:middle;fill:#a3a3a3;fill-opacity:1;stroke:none;stroke-width:0.127359;stroke-miterlimit:4;stroke-dasharray:none;stroke-opacity:1"
               d="m 279.45023,87.415062 c -1.88074,0 -3.71286,-0.324266 -5.49633,-0.972801 -1.78346,-0.680961 -3.25888,-1.702403 -4.42623,-3.064325 -0.227,-0.259413 -0.34049,-0.551254 -0.34049,-0.87552 0,-0.453973 0.21077,-0.826882 0.63232,-1.118721 0.19457,-0.162134 0.47019,-0.243201 0.82689,-0.243201 0.45397,0 0.82686,0.178346 1.11872,0.53504 1.62133,1.97803 4.23168,2.967044 7.83104,2.967044 2.56171,0 4.44246,-0.453974 5.64226,-1.361922 1.23221,-0.907947 1.84831,-2.075308 1.84831,-3.502083 0,-2.561711 -2.48063,-4.19926 -7.44191,-4.912647 -3.14541,-0.453974 -5.52877,-1.313282 -7.15011,-2.577924 -1.58891,-1.264641 -2.38335,-2.788696 -2.38335,-4.572165 0,-2.367149 0.85929,-4.199259 2.57791,-5.496327 1.75103,-1.329495 4.02091,-1.994243 6.8096,-1.994243 4.08577,0 7.18254,1.459202 9.29027,4.377605 0.19455,0.226988 0.29183,0.502615 0.29183,0.826882 0,0.453974 -0.25941,0.82688 -0.77823,1.118721 -0.32428,0.129706 -0.56747,0.194561 -0.72961,0.194561 -0.4864,0 -0.89172,-0.210774 -1.216,-0.632322 -1.65376,-2.107735 -3.97226,-3.161603 -6.95553,-3.161603 -1.97803,0 -3.55072,0.43776 -4.71808,1.313282 -1.16736,0.843094 -1.75104,1.896962 -1.75104,3.161603 0,1.297068 0.55124,2.334724 1.65377,3.112964 1.13493,0.778242 3.01568,1.361921 5.64224,1.751042 3.43724,0.486402 5.90166,1.410563 7.39329,2.772484 1.52405,1.329495 2.28543,2.950831 2.28543,4.864007 0,1.491628 -0.48575,2.804909 -1.45856,3.939845 -0.94038,1.134934 -2.20501,2.010455 -3.79392,2.626563 -1.58891,0.616108 -3.32375,0.924161 -5.20449,0.924161 z"
               id="path9775-9"
               sodipodi:nodetypes="sccscscscsccscscscscscscccscss" />
          </g>
        </g>
      </g>
      <text
         xml:space="preserve"
         style="font-style:normal;font-weight:normal;font-size:21.1031px;line-height:1.25;font-family:sans-serif;display:inline;fill:#d1d1d1;fill-opacity:1;stroke:none;stroke-width:2.06208"
         x="144.45451"
         y="169.44864"
         id="text40233"><tspan
           sodipodi:role="line"
           style="font-style:normal;font-variant:normal;font-weight:300;font-stretch:normal;font-size:21.1031px;font-family:Comfortaa;-inkscape-font-specification:'Comfortaa, Light';font-variant-ligatures:normal;font-variant-caps:normal;font-variant-numeric:normal;font-variant-east-asian:normal;fill:#d1d1d1;fill-opacity:1;stroke-width:2.06208"
           x="144.45451"
           y="169.44864"
           id="tspan25020">Relazioni umane</tspan><tspan
           sodipodi:role="line"
           style="font-style:normal;font-variant:normal;font-weight:300;font-stretch:normal;font-size:21.1031px;font-family:Comfortaa;-inkscape-font-specification:'Comfortaa, Light';font-variant-ligatures:normal;font-variant-caps:normal;font-variant-numeric:normal;font-variant-east-asian:normal;fill:#d1d1d1;fill-opacity:1;stroke-width:2.06208"
           x="144.45451"
           y="196.4684"
           id="tspan60512">più sicure e responsabili</tspan></text>
    </g>
  </g>
</svg>
